<?xml version="1.0" encoding="UTF-8"?>
<svg width="90px" height="98px" viewBox="0 0 90 98" version="1.1" xmlns="http://www.w3.org/2000/svg" xmlns:xlink="http://www.w3.org/1999/xlink">
    <!-- Generator: Sketch 50 (54983) - http://www.bohemiancoding.com/sketch -->
    <title>icons/1</title>
    <desc>Created with Sketch.</desc>
    <defs>
        <polygon id="path-1" points="0.826880488 0.304736364 33.4623659 0.304736364 33.4623659 61.0558273 0.826880488 61.0558273"></polygon>
        <polygon id="path-3" points="0 98.8501045 89.9501707 98.8501045 89.9501707 0.999331818 0 0.999331818"></polygon>
    </defs>
    <g id="Home-Page-small" stroke="none" stroke-width="1" fill="none" fill-rule="evenodd">
        <g id="MadOps_2" transform="translate(-338.000000, -1000.000000)">
            <g id="what-do1" transform="translate(60.000000, 880.000000)">
                <g id="1" transform="translate(99.000000, 113.000000)">
                    <g id="Group-2" transform="translate(162.000000, 0.000000)">
                        <g id="icons/1" transform="translate(17.000000, 6.000000)">
                            <g id="Page-1">
                                <path d="M63.545078,32.4453045 C64.077761,32.4453045 64.5083463,32.88185 64.5083463,33.4163955 C64.5083463,33.9509409 64.077761,34.3852591 63.545078,34.3852591 C63.0101756,34.3852591 62.5751512,33.9509409 62.5751512,33.4163955 C62.5751512,32.88185 63.0101756,32.4453045 63.545078,32.4453045" id="Fill-1" fill="#9F9F9F"></path>
                                <path d="M57.4263268,32.4453045 C57.9612293,32.4453045 58.3918146,32.88185 58.3918146,33.4163955 C58.3918146,33.9509409 57.9612293,34.3852591 57.4263268,34.3852591 C56.8936439,34.3852591 56.4586195,33.9509409 56.4586195,33.4163955 C56.4586195,32.88185 56.8936439,32.4453045 57.4263268,32.4453045" id="Fill-3" fill="#9F9F9F"></path>
                                <path d="M51.3097951,32.4453045 C51.8446976,32.4453045 52.2752829,32.88185 52.2752829,33.4163955 C52.2752829,33.9509409 51.8446976,34.3852591 51.3097951,34.3852591 C50.7771122,34.3852591 50.3420878,33.9509409 50.3420878,33.4163955 C50.3420878,32.88185 50.7771122,32.4453045 51.3097951,32.4453045" id="Fill-5" fill="#9F9F9F"></path>
                                <g id="Group-9" transform="translate(56.487805, 19.668286)">
                                    <mask id="mask-2" fill="white">
                                        <use xlink:href="#path-1"></use>
                                    </mask>
                                    <g id="Clip-8"></g>
                                    <path d="M32.778978,61.0558273 L1.51049024,61.0558273 C1.13317317,61.0558273 0.826880488,60.7484636 0.826880488,60.3698273 C0.826880488,59.9911909 1.13317317,59.6838273 1.51049024,59.6838273 L32.0931488,59.6838273 L32.0931488,0.990736364 C32.0931488,0.6121 32.3994415,0.304736364 32.778978,0.304736364 C33.1562951,0.304736364 33.4625878,0.6121 33.4625878,0.990736364 L33.4625878,60.3698273 C33.4625878,60.7484636 33.1562951,61.0558273 32.778978,61.0558273" id="Fill-7" fill="#9F9F9F" mask="url(#mask-2)"></path>
                                </g>
                                <path d="M39.2518512,26.1570455 C38.8745341,26.1570455 38.566022,25.8496818 38.566022,25.4688182 L38.566022,20.6601364 C38.566022,20.2815 38.8745341,19.9741364 39.2518512,19.9741364 C39.6291683,19.9741364 39.935461,20.2815 39.935461,20.6601364 L39.935461,25.4688182 C39.935461,25.8496818 39.6291683,26.1570455 39.2518512,26.1570455" id="Fill-10" fill="#9F9F9F"></path>
                                <mask id="mask-4" fill="white">
                                    <use xlink:href="#path-3"></use>
                                </mask>
                                <g id="Clip-13"></g>
                                <path d="M39.9356829,19.9734682 L88.5829512,19.9734682 L88.5829512,11.7704227 L39.9356829,11.7704227 L39.9356829,19.9734682 Z M89.266561,21.3454682 L39.2520732,21.3454682 C38.8747561,21.3454682 38.5662439,21.0381045 38.5662439,20.6594682 L38.5662439,11.0844227 C38.5662439,10.7035591 38.8747561,10.3984227 39.2520732,10.3984227 L89.266561,10.3984227 C89.643878,10.3984227 89.9501707,10.7035591 89.9501707,11.0844227 L89.9501707,20.6594682 C89.9501707,21.0381045 89.643878,21.3454682 89.266561,21.3454682 Z" id="Fill-12" fill="#9F9F9F" mask="url(#mask-4)"></path>
                                <path d="M75.1868634,15.2828318 C74.8827902,15.2828318 74.6364244,15.5322864 74.6364244,15.8374227 C74.6364244,16.1425591 74.8827902,16.3920136 75.1868634,16.3920136 C75.4931561,16.3920136 75.739522,16.1425591 75.739522,15.8374227 C75.739522,15.5322864 75.4931561,15.2828318 75.1868634,15.2828318 M75.1868634,17.7640136 C74.1281561,17.7640136 73.2692049,16.8998318 73.2692049,15.8374227 C73.2692049,14.7727864 74.1281561,13.9108318 75.1868634,13.9108318 C76.2477902,13.9108318 77.1067415,14.7727864 77.1067415,15.8374227 C77.1067415,16.8998318 76.2477902,17.7640136 75.1868634,17.7640136" id="Fill-14" fill="#9F9F9F" mask="url(#mask-4)"></path>
                                <path d="M83.0221854,15.2828318 C82.7158927,15.2828318 82.4695268,15.5322864 82.4695268,15.8374227 C82.4695268,16.1425591 82.7158927,16.3920136 83.0221854,16.3920136 C83.3262585,16.3920136 83.5726244,16.1425591 83.5726244,15.8374227 C83.5726244,15.5322864 83.3262585,15.2828318 83.0221854,15.2828318 M83.0221854,17.7640136 C81.9612585,17.7640136 81.1023073,16.8998318 81.1023073,15.8374227 C81.1023073,14.7727864 81.9612585,13.9108318 83.0221854,13.9108318 C84.0808927,13.9108318 84.9398439,14.7727864 84.9398439,15.8374227 C84.9398439,16.8998318 84.0808927,17.7640136 83.0221854,17.7640136" id="Fill-15" fill="#9F9F9F" mask="url(#mask-4)"></path>
                                <path d="M67.353539,15.2828318 C67.0472463,15.2828318 66.798661,15.5322864 66.798661,15.8374227 C66.798661,16.1425591 67.0472463,16.3920136 67.353539,16.3920136 C67.6598317,16.3920136 67.9061976,16.1425591 67.9061976,15.8374227 C67.9061976,15.5322864 67.6598317,15.2828318 67.353539,15.2828318 M67.353539,17.7640136 C66.2926122,17.7640136 65.4314415,16.8998318 65.4314415,15.8374227 C65.4314415,14.7727864 66.2926122,13.9108318 67.353539,13.9108318 C68.4144659,13.9108318 69.2734171,14.7727864 69.2734171,15.8374227 C69.2734171,16.8998318 68.4144659,17.7640136 67.353539,17.7640136" id="Fill-16" fill="#9F9F9F" mask="url(#mask-4)"></path>
                                <path d="M68.6930146,38.6453636 L0.682721951,38.6453636 C0.305404878,38.6453636 0.00133170732,38.338 0.00133170732,37.9593636 C0.00133170732,37.5807273 0.305404878,37.2733636 0.682721951,37.2733636 L68.6930146,37.2733636 C69.0703317,37.2733636 69.3788439,37.5807273 69.3788439,37.9593636 C69.3788439,38.338 69.0703317,38.6453636 68.6930146,38.6453636" id="Fill-17" fill="#9F9F9F" mask="url(#mask-4)"></path>
                                <path d="M15.788722,2.37266818 L13.3960878,2.37266818 C13.0187707,2.37266818 12.712478,2.06530455 12.712478,1.68666818 C12.712478,1.30580455 13.0187707,1.00066818 13.3960878,1.00066818 L15.788722,1.00066818 C16.1682585,1.00066818 16.4745512,1.30580455 16.4745512,1.68666818 C16.4745512,2.06530455 16.1682585,2.37266818 15.788722,2.37266818 M20.5762098,2.37266818 L18.1813561,2.37266818 C17.804039,2.37266818 17.4999659,2.06530455 17.4999659,1.68666818 C17.4999659,1.30580455 17.804039,1.00066818 18.1813561,1.00066818 L20.5762098,1.00066818 C20.9535268,1.00066818 21.2598195,1.30580455 21.2598195,1.68666818 C21.2598195,2.06530455 20.9535268,2.37266818 20.5762098,2.37266818 M25.361478,2.37266818 L22.9688439,2.37266818 C22.5915268,2.37266818 22.2852341,2.06530455 22.2852341,1.68666818 C22.2852341,1.30580455 22.5915268,1.00066818 22.9688439,1.00066818 L25.361478,1.00066818 C25.7387951,1.00066818 26.0473073,1.30580455 26.0473073,1.68666818 C26.0473073,2.06530455 25.7387951,2.37266818 25.361478,2.37266818 M30.1511854,2.37266818 L27.7563317,2.37266818 C27.3790146,2.37266818 27.072722,2.06530455 27.072722,1.68666818 C27.072722,1.30580455 27.3790146,1.00066818 27.7563317,1.00066818 L30.1511854,1.00066818 C30.5285024,1.00066818 30.8325756,1.30580455 30.8325756,1.68666818 C30.8325756,2.06530455 30.5285024,2.37266818 30.1511854,2.37266818 M34.9364537,2.37266818 L32.5438195,2.37266818 C32.1665024,2.37266818 31.8579902,2.06530455 31.8579902,1.68666818 C31.8579902,1.30580455 32.1665024,1.00066818 32.5438195,1.00066818 L34.9364537,1.00066818 C35.3137707,1.00066818 35.6200634,1.30580455 35.6200634,1.68666818 C35.6200634,2.06530455 35.3137707,2.37266818 34.9364537,2.37266818 M39.721722,2.37266818 L37.3290878,2.37266818 C36.9517707,2.37266818 36.645478,2.06530455 36.645478,1.68666818 C36.645478,1.30580455 36.9517707,1.00066818 37.3290878,1.00066818 L39.721722,1.00066818 C40.1012585,1.00066818 40.4075512,1.30580455 40.4075512,1.68666818 C40.4075512,2.06530455 40.1012585,2.37266818 39.721722,2.37266818 M44.5092098,2.37266818 L42.1165756,2.37266818 C41.737039,2.37266818 41.4329659,2.06530455 41.4329659,1.68666818 C41.4329659,1.30580455 41.737039,1.00066818 42.1165756,1.00066818 L44.5092098,1.00066818 C44.8865268,1.00066818 45.1928195,1.30580455 45.1928195,1.68666818 C45.1928195,2.06530455 44.8865268,2.37266818 44.5092098,2.37266818 M49.2966976,2.37266818 L46.9040634,2.37266818 C46.5267463,2.37266818 46.2204537,2.06530455 46.2204537,1.68666818 C46.2204537,1.30580455 46.5267463,1.00066818 46.9040634,1.00066818 L49.2966976,1.00066818 C49.6740146,1.00066818 49.9803073,1.30580455 49.9803073,1.68666818 C49.9803073,2.06530455 49.6740146,2.37266818 49.2966976,2.37266818 M54.0841854,2.37266818 L51.6893317,2.37266818 C51.3120146,2.37266818 51.005722,2.06530455 51.005722,1.68666818 C51.005722,1.30580455 51.3120146,1.00066818 51.6893317,1.00066818 L54.0841854,1.00066818 C54.4615024,1.00066818 54.7677951,1.30580455 54.7677951,1.68666818 C54.7677951,2.06530455 54.4615024,2.37266818 54.0841854,2.37266818 M11.6715268,5.44185 C11.2919902,5.44185 10.9856976,5.13671364 10.9856976,4.75585 L10.9856976,2.35485 C10.9856976,1.97621364 11.2919902,1.66885 11.6715268,1.66885 C12.0466244,1.66885 12.3529171,1.97621364 12.3529171,2.35485 L12.3529171,4.75585 C12.3529171,5.13671364 12.0466244,5.44185 11.6715268,5.44185 M54.4082341,6.84948636 C54.0286976,6.84948636 53.7246244,6.54212273 53.7246244,6.16348636 L53.7246244,3.76248636 C53.7246244,3.38385 54.0286976,3.07425909 54.4082341,3.07425909 C54.7855512,3.07425909 55.0918439,3.38385 55.0918439,3.76248636 L55.0918439,6.16348636 C55.0918439,6.54212273 54.7855512,6.84948636 54.4082341,6.84948636 M11.6715268,10.2460773 C11.2919902,10.2460773 10.9856976,9.93871364 10.9856976,9.56007727 L10.9856976,7.15907727 C10.9856976,6.78044091 11.2919902,6.47307727 11.6715268,6.47307727 C12.0466244,6.47307727 12.3529171,6.78044091 12.3529171,7.15907727 L12.3529171,9.56007727 C12.3529171,9.93871364 12.0466244,10.2460773 11.6715268,10.2460773 M54.4082341,11.6537136 C54.0286976,11.6537136 53.7246244,11.34635 53.7246244,10.9677136 L53.7246244,8.56448636 C53.7246244,8.18585 54.0286976,7.87848636 54.4082341,7.87848636 C54.7855512,7.87848636 55.0918439,8.18585 55.0918439,8.56448636 L55.0918439,10.9677136 C55.0918439,11.34635 54.7855512,11.6537136 54.4082341,11.6537136 M11.6715268,15.0503045 C11.2919902,15.0503045 10.9856976,14.7429409 10.9856976,14.3643045 L10.9856976,11.9633045 C10.9856976,11.5824409 11.2919902,11.2773045 11.6715268,11.2773045 C12.0466244,11.2773045 12.3529171,11.5824409 12.3529171,11.9633045 L12.3529171,14.3643045 C12.3529171,14.7429409 12.0466244,15.0503045 11.6715268,15.0503045 M11.6715268,19.8545318 C11.2919902,19.8545318 10.9856976,19.5449409 10.9856976,19.1685318 L10.9856976,16.7653045 C10.9856976,16.3866682 11.2919902,16.0793045 11.6715268,16.0793045 C12.0466244,16.0793045 12.3529171,16.3866682 12.3529171,16.7653045 L12.3529171,19.1685318 C12.3529171,19.5449409 12.0466244,19.8545318 11.6715268,19.8545318 M11.6715268,24.6565318 C11.2919902,24.6565318 10.9856976,24.3491682 10.9856976,23.9705318 L10.9856976,21.5695318 C10.9856976,21.1908955 11.2919902,20.8835318 11.6715268,20.8835318 C12.0466244,20.8835318 12.3529171,21.1908955 12.3529171,21.5695318 L12.3529171,23.9705318 C12.3529171,24.3491682 12.0466244,24.6565318 11.6715268,24.6565318 M11.6715268,29.4607591 C11.2919902,29.4607591 10.9856976,29.1533955 10.9856976,28.7747591 L10.9856976,26.3715318 C10.9856976,25.9928955 11.2919902,25.6855318 11.6715268,25.6855318 C12.0466244,25.6855318 12.3529171,25.9928955 12.3529171,26.3715318 L12.3529171,28.7747591 C12.3529171,29.1533955 12.0466244,29.4607591 11.6715268,29.4607591" id="Fill-18" fill="#9F9F9F" mask="url(#mask-4)"></path>
                                <path d="M9.77628537,64.7461045 C9.73633415,64.7461045 9.69638293,64.74165 9.6542122,64.7349682 C8.8352122,64.5857409 8.10055366,64.1491955 7.47465122,63.4364682 C6.20509024,61.9887409 6.7067,60.0755136 7.07291951,58.6790136 C7.1439439,58.4050591 7.21496829,58.1444682 7.25713902,57.9239682 C7.47243171,56.8637864 6.97304146,55.2556955 6.04750488,54.0128773 C5.86550488,53.7678773 5.86550488,53.4337864 6.04750488,53.1910136 C6.97304146,51.9459682 7.4702122,50.3378773 7.25713902,49.2799227 C7.21496829,49.06165 7.14616341,48.8010591 7.07291951,48.5248773 C6.7067,47.1306045 6.20509024,45.2173773 7.47465122,43.7718773 C8.10055366,43.0569227 8.8352122,42.61815 9.6542122,42.47115 C10.0248707,42.4043318 10.3799927,42.6537864 10.4487976,43.0257409 C10.5153829,43.3999227 10.2690171,43.7562864 9.89613902,43.8208773 C9.38787073,43.9144227 8.91733415,44.2017409 8.50006585,44.6783773 C7.71213902,45.5759682 8.07613902,46.9568773 8.39574878,48.1751955 C8.47343171,48.4714227 8.54667561,48.7498318 8.5999439,49.0081955 C8.86184634,50.3200591 8.39574878,52.1130136 7.42804146,53.6008318 C8.39574878,55.0908773 8.86406585,56.8838318 8.5999439,58.1934682 C8.54667561,58.4540591 8.47343171,58.7346955 8.39574878,59.0309227 C8.07391951,60.2492409 7.71213902,61.6323773 8.50006585,62.5277409 C8.91733415,63.0043773 9.38787073,63.2916955 9.89613902,63.3830136 C10.2690171,63.4498318 10.5153829,63.8084227 10.4487976,64.1803773 C10.3888707,64.5122409 10.1003341,64.7461045 9.77628537,64.7461045" id="Fill-19" fill="#FF0032" mask="url(#mask-4)"></path>
                                <path d="M59.2665244,64.7461045 C58.9424756,64.7461045 58.653939,64.5144682 58.5940122,64.1826045 C58.5274268,63.8084227 58.7715732,63.4498318 59.1444512,63.3852409 C59.654939,63.2916955 60.1232561,63.0043773 60.5360854,62.5299682 C61.3284512,61.63015 60.9644512,60.2470136 60.6448415,59.0264682 C60.5671585,58.7302409 60.4961341,58.4518318 60.4428659,58.1934682 C60.1765244,56.8860591 60.6404024,55.0931045 61.6103293,53.6008318 C60.6404024,52.1107864 60.1765244,50.3178318 60.4428659,49.0081955 C60.4961341,48.7498318 60.5671585,48.47365 60.6448415,48.17965 C60.9644512,46.9591045 61.3284512,45.5781955 60.5383049,44.6783773 C60.1232561,44.2017409 59.654939,43.9144227 59.1444512,43.8208773 C58.7715732,43.7540591 58.5274268,43.3976955 58.5940122,43.0257409 C58.6628171,42.6515591 59.017939,42.4021045 59.3885976,42.4733773 C60.1987195,42.61815 60.9511341,43.0680591 61.565939,43.7718773 C62.8355,45.2196045 62.3338902,47.1328318 61.9676707,48.5293318 C61.8966463,48.8032864 61.825622,49.06165 61.7834512,49.2799227 C61.5681585,50.3378773 62.0653293,51.9459682 62.9908659,53.1910136 C63.1728659,53.4337864 63.1728659,53.7678773 62.9908659,54.0128773 C62.0653293,55.2579227 61.5681585,56.8637864 61.7834512,57.9217409 C61.8278415,58.1422409 61.8966463,58.4028318 61.9676707,58.6767864 C62.3338902,60.0732864 62.8332805,61.9887409 61.5637195,63.4364682 C60.9511341,64.1380591 60.1987195,64.5879682 59.3885976,64.7349682 C59.3464268,64.74165 59.3064756,64.7461045 59.2665244,64.7461045" id="Fill-20" fill="#FF0032" mask="url(#mask-4)"></path>
                                <path d="M29.2707049,46.6940591 L14.3333878,46.6940591 C13.9560707,46.6940591 13.649778,46.3866955 13.649778,46.0080591 C13.649778,45.6294227 13.9560707,45.3220591 14.3333878,45.3220591 L29.2707049,45.3220591 C29.648022,45.3220591 29.9565341,45.6294227 29.9565341,46.0080591 C29.9565341,46.3866955 29.648022,46.6940591 29.2707049,46.6940591" id="Fill-21" fill="#FF0032" mask="url(#mask-4)"></path>
                                <path d="M54.3918098,46.6940591 L43.3031268,46.6940591 C42.9258098,46.6940591 42.6172976,46.3866955 42.6172976,46.0080591 C42.6172976,45.6294227 42.9258098,45.3220591 43.3031268,45.3220591 L54.3918098,45.3220591 C54.7691268,45.3220591 55.0754195,45.6294227 55.0754195,46.0080591 C55.0754195,46.3866955 54.7691268,46.6940591 54.3918098,46.6940591" id="Fill-22" fill="#FF0032" mask="url(#mask-4)"></path>
                                <path d="M37.4183122,46.6940591 L33.3432878,46.6940591 C32.9659707,46.6940591 32.6574585,46.3866955 32.6574585,46.0080591 C32.6574585,45.6294227 32.9659707,45.3220591 33.3432878,45.3220591 L37.4183122,45.3220591 C37.7956293,45.3220591 38.1041415,45.6294227 38.1041415,46.0080591 C38.1041415,46.3866955 37.7956293,46.6940591 37.4183122,46.6940591" id="Fill-23" fill="#FF0032" mask="url(#mask-4)"></path>
                                <path d="M40.6607976,50.5646136 L14.3329439,50.5646136 C13.9556268,50.5646136 13.6493341,50.25725 13.6493341,49.8786136 C13.6493341,49.4999773 13.9556268,49.1926136 14.3329439,49.1926136 L40.6607976,49.1926136 C41.0381146,49.1926136 41.3444073,49.4999773 41.3444073,49.8786136 C41.3444073,50.25725 41.0381146,50.5646136 40.6607976,50.5646136" id="Fill-24" fill="#FF0032" mask="url(#mask-4)"></path>
                                <path d="M51.4396366,50.5646136 L44.0597585,50.5646136 C43.680222,50.5646136 43.3739293,50.25725 43.3739293,49.8786136 C43.3739293,49.4999773 43.680222,49.1926136 44.0597585,49.1926136 L51.4396366,49.1926136 C51.8191732,49.1926136 52.1254659,49.4999773 52.1254659,49.8786136 C52.1254659,50.25725 51.8191732,50.5646136 51.4396366,50.5646136" id="Fill-25" fill="#FF0032" mask="url(#mask-4)"></path>
                                <path d="M29.2707049,58.3090636 L14.3333878,58.3090636 C13.9560707,58.3090636 13.649778,58.0017 13.649778,57.6230636 C13.649778,57.2444273 13.9560707,56.9370636 14.3333878,56.9370636 L29.2707049,56.9370636 C29.648022,56.9370636 29.9565341,57.2444273 29.9565341,57.6230636 C29.9565341,58.0017 29.648022,58.3090636 29.2707049,58.3090636" id="Fill-26" fill="#FF0032" mask="url(#mask-4)"></path>
                                <path d="M54.3918098,58.3090636 L43.3031268,58.3090636 C42.9258098,58.3090636 42.6172976,58.0017 42.6172976,57.6230636 C42.6172976,57.2444273 42.9258098,56.9370636 43.3031268,56.9370636 L54.3918098,56.9370636 C54.7691268,56.9370636 55.0754195,57.2444273 55.0754195,57.6230636 C55.0754195,58.0017 54.7691268,58.3090636 54.3918098,58.3090636" id="Fill-27" fill="#FF0032" mask="url(#mask-4)"></path>
                                <path d="M37.4183122,58.3090636 L33.3432878,58.3090636 C32.9659707,58.3090636 32.6574585,58.0017 32.6574585,57.6230636 C32.6574585,57.2444273 32.9659707,56.9370636 33.3432878,56.9370636 L37.4183122,56.9370636 C37.7956293,56.9370636 38.1041415,57.2444273 38.1041415,57.6230636 C38.1041415,58.0017 37.7956293,58.3090636 37.4183122,58.3090636" id="Fill-28" fill="#FF0032" mask="url(#mask-4)"></path>
                                <path d="M27.4586951,54.4385091 L14.3325,54.4385091 C13.9551829,54.4385091 13.6488902,54.1311455 13.6488902,53.7525091 C13.6488902,53.3738727 13.9551829,53.0665091 14.3325,53.0665091 L27.4586951,53.0665091 C27.8360122,53.0665091 28.1445244,53.3738727 28.1445244,53.7525091 C28.1445244,54.1311455 27.8360122,54.4385091 27.4586951,54.4385091" id="Fill-29" fill="#FF0032" mask="url(#mask-4)"></path>
                                <path d="M48.7324976,54.4385091 L41.7943024,54.4385091 C41.4169854,54.4385091 41.1106927,54.1311455 41.1106927,53.7525091 C41.1106927,53.3738727 41.4169854,53.0665091 41.7943024,53.0665091 L48.7324976,53.0665091 C49.1098146,53.0665091 49.4183268,53.3738727 49.4183268,53.7525091 C49.4183268,54.1311455 49.1098146,54.4385091 48.7324976,54.4385091" id="Fill-30" fill="#FF0032" mask="url(#mask-4)"></path>
                                <path d="M39.1284463,54.4385091 L31.0804951,54.4385091 C30.7009585,54.4385091 30.3946659,54.1311455 30.3946659,53.7525091 C30.3946659,53.3738727 30.7009585,53.0665091 31.0804951,53.0665091 L39.1284463,53.0665091 C39.5057634,53.0665091 39.8120561,53.3738727 39.8120561,53.7525091 C39.8120561,54.1311455 39.5057634,54.4385091 39.1284463,54.4385091" id="Fill-31" fill="#FF0032" mask="url(#mask-4)"></path>
                                <path d="M21.8275707,62.1827364 L14.332278,62.1827364 C13.954961,62.1827364 13.6486683,61.8753727 13.6486683,61.4967364 C13.6486683,61.1158727 13.954961,60.8107364 14.332278,60.8107364 L21.8275707,60.8107364 C22.2048878,60.8107364 22.5134,61.1158727 22.5134,61.4967364 C22.5134,61.8753727 22.2048878,62.1827364 21.8275707,62.1827364" id="Fill-32" fill="#FF0032" mask="url(#mask-4)"></path>
                                <path d="M45.7912,62.1827364 L24.7169317,62.1827364 C24.3396146,62.1827364 24.033322,61.8753727 24.033322,61.4967364 C24.033322,61.1158727 24.3396146,60.8107364 24.7169317,60.8107364 L45.7912,60.8107364 C46.1707366,60.8107364 46.4770293,61.1158727 46.4770293,61.4967364 C46.4770293,61.8753727 46.1707366,62.1827364 45.7912,62.1827364" id="Fill-33" fill="#FF0032" mask="url(#mask-4)"></path>
                                <path d="M43.8491268,98.8501045 L34.5871024,98.8501045 C34.2097854,98.8501045 33.9057122,98.5427409 33.9057122,98.1641045 L33.9057122,91.1593318 C31.7350293,90.6247864 29.6731024,89.7672864 27.7598829,88.60465 L22.8236878,93.5581045 C22.5573463,93.8253773 22.1245415,93.8253773 21.8582,93.5581045 L15.3062,86.9831955 C15.1774683,86.8540136 15.1064439,86.6802864 15.1064439,86.49765 C15.1064439,86.3172409 15.1774683,86.1412864 15.3062,86.0121045 L20.2423951,81.0608773 C19.0838098,79.1409682 18.2292976,77.0718318 17.6966146,74.8980136 L10.7140293,74.8980136 C10.3367122,74.8980136 10.032639,74.59065 10.032639,74.2120136 L10.032639,69.1650136 C10.032639,68.78415 10.3367122,68.4790136 10.7140293,68.4790136 C11.0935659,68.4790136 11.3998585,68.78415 11.3998585,69.1650136 L11.3998585,73.5260136 L18.2381756,73.5260136 C18.5577854,73.5260136 18.8352244,73.7487409 18.9062488,74.0650136 C19.4300537,76.4571045 20.3666878,78.7200136 21.6872976,80.78915 C21.8582,81.0608773 21.8204683,81.4172409 21.594078,81.6444227 L16.757761,86.49765 L22.3420537,92.1014682 L27.1761512,87.2482409 C27.404761,87.0188318 27.7576634,86.9809682 28.0284439,87.1569227 C30.0925902,88.4799227 32.3476146,89.4176045 34.7358098,89.9454682 C35.048761,90.0145136 35.2729317,90.2929227 35.2729317,90.6158773 L35.2729317,97.4781045 L43.1655171,97.4781045 L43.1655171,90.6158773 C43.1655171,90.2929227 43.3896878,90.0145136 43.7048585,89.9454682 C46.0908341,89.4176045 48.3458585,88.4799227 50.4077854,87.1569227 C50.6785659,86.9809682 51.0336878,87.0188318 51.260078,87.2482409 L56.0986146,92.1014682 L61.6806878,86.49765 L56.8443707,81.6444227 C56.6179805,81.4172409 56.5780293,81.0631045 56.7489317,80.7913773 C56.975322,80.4372409 57.1928341,80.0719682 57.3970293,79.7022409 C58.3780537,77.9426955 59.0971756,76.0450591 59.5322,74.0650136 C59.6032244,73.7487409 59.8806634,73.5260136 60.2002732,73.5260136 L67.0385902,73.5260136 L67.0385902,72.1762864 C67.0385902,71.79765 67.3448829,71.4902864 67.7222,71.4902864 C68.0995171,71.4902864 68.4058098,71.79765 68.4058098,72.1762864 L68.4058098,74.2120136 C68.4058098,74.59065 68.0995171,74.8980136 67.7222,74.8980136 L60.7418341,74.8980136 C60.269078,76.8156955 59.5477366,78.6554227 58.5933463,80.37265 C58.4646146,80.6020591 58.3292244,80.8314682 58.1938341,81.05865 L63.1322488,86.0121045 C63.258761,86.1412864 63.3320049,86.3172409 63.3320049,86.49765 C63.3320049,86.6802864 63.2609805,86.8540136 63.1322488,86.9831955 L56.5802488,93.5581045 C56.3139073,93.8253773 55.8811024,93.8253773 55.614761,93.5581045 L50.6785659,88.60465 C48.7653463,89.7672864 46.7012,90.6247864 44.5349561,91.1593318 L44.5349561,98.1641045 C44.5349561,98.5427409 44.2286634,98.8501045 43.8491268,98.8501045" id="Fill-34" fill="#9F9F9F" mask="url(#mask-4)"></path>
                                <path d="M26.6652195,69.8510136 C26.8183659,76.6664682 32.3893415,82.16115 39.216561,82.16115 C42.050878,82.16115 44.7209512,81.2412864 46.9404634,79.4973318 C46.956,79.4861955 46.9670976,79.4750591 46.9826341,79.46615 C49.954561,77.1163773 51.688,73.6284682 51.774561,69.8510136 L26.6652195,69.8510136 Z M1.36943902,68.4790136 L21.6979512,68.4790136 C21.8821707,68.4790136 22.0597317,68.5525136 22.1862439,68.68615 C22.3149756,68.8175591 22.386,68.9979682 22.381561,69.1828318 C22.377122,69.3053318 22.377122,69.4345136 22.377122,69.5636955 C22.377122,70.8577409 22.5236098,72.1428773 22.8099268,73.3812409 C23.8042683,77.6976955 26.4099756,81.3994227 30.1409756,83.8004227 C32.846561,85.5399227 35.9849512,86.4620136 39.216561,86.4620136 C46.9093902,86.4620136 53.6189756,81.2501955 55.5299756,73.7866045 C55.8562439,72.5059227 56.0338049,71.18515 56.056,69.8510136 L53.1417805,69.8510136 C53.057439,74.0716955 51.1153659,77.9671955 47.7860976,80.5775591 C47.7727805,80.5909227 47.7572439,80.5998318 47.7417073,80.6109682 C45.2869268,82.5219682 42.3394146,83.53315 39.216561,83.53315 C31.5392683,83.53315 25.2957805,77.2678318 25.2957805,69.5636955 C25.2957805,69.4166955 25.2957805,69.2696955 25.302439,69.1293773 C25.3224146,68.7641045 25.6198293,68.4790136 25.9838293,68.4790136 L68.0102927,68.4790136 L68.0102927,29.46165 L1.36943902,29.46165 L1.36943902,68.4790136 Z M39.216561,87.8340136 C35.7230488,87.8340136 32.3316341,86.8384227 29.4040976,84.9563773 C25.3690244,82.3593773 22.5524634,78.3591955 21.476,73.6908318 C21.1874634,72.4435591 21.0320976,71.1517409 21.012122,69.8510136 L0.683609756,69.8510136 C0.306292683,69.8510136 0,69.54365 0,69.1650136 L0,28.77565 C0,28.3947864 0.306292683,28.08965 0.683609756,28.08965 L68.6939024,28.08965 C69.069,28.08965 69.3775122,28.3947864 69.3775122,28.77565 L69.3775122,69.1650136 C69.3775122,69.54365 69.069,69.8510136 68.6939024,69.8510136 L57.4232195,69.8510136 C57.4032439,71.2987409 57.2123659,72.7375591 56.8572439,74.1273773 C54.786439,82.1967864 47.5330732,87.8340136 39.216561,87.8340136 Z" id="Fill-35" fill="#9F9F9F" mask="url(#mask-4)"></path>
                            </g>
                            <path d="M83.5127273,75.4167692 L73.9146667,75.4167692 C73.4098182,75.4167692 73,75.0080769 73,74.5016538 L73,61.9121538 C73,61.4086923 73.4098182,61 73.9146667,61 C74.4165455,61 74.8293333,61.4086923 74.8293333,61.9121538 L74.8293333,73.5895 L83.5127273,73.5895 C84.0175758,73.5895 84.4273939,73.9981923 84.4273939,74.5016538 C84.4273939,75.0080769 84.0175758,75.4167692 83.5127273,75.4167692" id="Fill-3" fill="#DDDDDD" transform="translate(78.713697, 68.208385) scale(-1, 1) translate(-78.713697, -68.208385) "></path>
                            <path d="M81.9146667,58.1126154 C81.4098182,58.1126154 81,57.7039231 81,57.2004615 L81,52.9121538 C81,52.4086923 81.4098182,52 81.9146667,52 C82.4195152,52 82.832303,52.4086923 82.832303,52.9121538 L82.832303,57.2004615 C82.832303,57.7039231 82.4195152,58.1126154 81.9146667,58.1126154" id="Fill-5" fill="#DDDDDD" transform="translate(82.484848, 55.056308) scale(-1, 1) translate(-82.484848, -55.056308) "></path>
                        </g>
                    </g>
                </g>
            </g>
        </g>
    </g>
</svg>