<?xml version="1.0" encoding="UTF-8"?>
<svg width="88px" height="96px" viewBox="0 0 88 96" version="1.1" xmlns="http://www.w3.org/2000/svg" xmlns:xlink="http://www.w3.org/1999/xlink">
    <!-- Generator: Sketch 50 (54983) - http://www.bohemiancoding.com/sketch -->
    <title>Group 3</title>
    <desc>Created with Sketch.</desc>
    <defs></defs>
    <g id="Home-Page-small" stroke="none" stroke-width="1" fill="none" fill-rule="evenodd">
        <g id="MadOps_2" transform="translate(-1018.000000, -994.000000)">
            <g id="what-do1" transform="translate(60.000000, 880.000000)">
                <g id="2" transform="translate(829.000000, 113.000000)">
                    <g id="Group-3" transform="translate(123.000000, 0.000000)">
                        <rect id="Rectangle-Copy-4" x="0" y="0" width="100" height="100"></rect>
                        <g id="icons/4" transform="translate(6.000000, 0.000000)">
                            <g id="Page-1">
                                <path d="M71.2874963,77.3442867 C71.2190519,77.3442867 71.1473481,77.3377533 71.0756444,77.32142 L67.500237,76.55702 C67.2394963,76.5014867 67.0113481,76.3446867 66.8679407,76.1192867 C66.7245333,75.8938867 66.6723852,75.6227533 66.7310519,75.36142 L68.9212741,65.10082 C69.0418667,64.5552867 69.5731259,64.20902 70.1174222,64.32662 C70.6584593,64.44422 71.0039407,64.9799533 70.8866074,65.52222 L68.9049778,74.7995533 L71.4928296,75.35162 C72.0371259,75.46922 72.3826074,76.0016867 72.2685333,76.54722 C72.1674963,77.01762 71.7503111,77.3442867 71.2874963,77.3442867" id="Fill-1" fill="#FF0034"></path>
                                <path d="M82.768237,71.1284733 C82.7454222,71.1284733 82.7226074,71.1284733 82.6997926,71.1284733 C82.1457185,71.0892733 81.7285333,70.6058067 81.7643852,70.05374 L82.9963852,52.33534 L79.9685333,51.6820067 C79.424237,51.5644067 79.0787556,51.0286733 79.1928296,50.4864067 C79.310163,49.94414 79.8479407,49.5978733 80.3889778,49.7154733 L84.2707556,50.5484733 C84.7563852,50.6530067 85.0953481,51.1038067 85.0594963,51.6036067 L83.7720889,70.19094 C83.7329778,70.7234067 83.2929778,71.1284733 82.768237,71.1284733" id="Fill-3" fill="#FF0032"></path>
                                <path d="M57.3466667,53.8236333 C56.8708148,53.8236333 56.4503704,53.4839 56.3591111,53.0004333 C55.8408889,50.1911 55.602963,47.1433 55.6551111,43.9387 C55.6648889,43.3899 56.1114074,42.9489 56.658963,42.9489 L56.6752593,42.9489 C57.2325926,42.9587 57.6725926,43.4160333 57.6660741,43.9713667 C57.6139259,46.9995667 57.8453333,49.9918333 58.3374815,52.6313 C58.4352593,53.1801 58.0767407,53.7060333 57.5324444,53.8073 C57.4672593,53.8171 57.4085926,53.8236333 57.3466667,53.8236333" id="Fill-5" fill="#DDDDDD"></path>
                                <path d="M46.4483556,66.7802133 C46.3799111,66.7802133 46.3049481,66.77368 46.2365037,66.7573467 C45.6954667,66.6397467 45.3467259,66.1040133 45.4640593,65.5617467 L45.8453926,63.79448 C45.9659852,63.2522133 46.5005037,62.9092133 47.0415407,63.0235467 C47.585837,63.1411467 47.9280593,63.67688 47.8107259,64.2224133 L47.4293926,65.9864133 C47.3283556,66.4568133 46.9111704,66.7802133 46.4483556,66.7802133" id="Fill-7" fill="#DDDDDD"></path>
                                <path d="M47.8042074,60.4510467 C47.735763,60.4510467 47.6640593,60.4445133 47.5956148,60.42818 C47.0513185,60.3138467 46.705837,59.7748467 46.8199111,59.23258 L47.1947259,57.4653133 C47.3153185,56.9230467 47.8465778,56.57678 48.3908741,56.69438 C48.9319111,56.8087133 49.2773926,57.3444467 49.1600593,57.8867133 L48.7852444,59.65398 C48.6842074,60.1276467 48.2670222,60.4510467 47.8042074,60.4510467" id="Fill-9" fill="#DDDDDD"></path>
                                <path d="M3.67057778,38.6355933 C3.55324444,38.6355933 3.43591111,38.6159933 3.32183704,38.5735267 C2.80035556,38.3807933 2.53635556,37.8025933 2.72865185,37.2799267 C4.68746667,31.97486 7.62405926,27.1565267 11.4602074,22.9555933 C13.9665778,20.20506 16.8184296,17.7811933 19.9375407,15.7525933 C27.0264296,11.1269933 35.2625778,8.68352667 43.7627259,8.68352667 C46.9405037,8.68352667 50.1215407,9.02979333 53.2080593,9.70926 C53.7523556,9.82686 54.0945778,10.36586 53.9772444,10.9081267 C53.8566519,11.4503933 53.3221333,11.79666 52.777837,11.6757933 C49.8314667,11.0257267 46.7970963,10.6957933 43.7627259,10.6957933 C35.6536889,10.6957933 27.7956148,13.0281933 21.0326519,17.4381933 C18.0536889,19.3753267 15.3322074,21.6913933 12.9431704,24.3145267 C9.28302222,28.3227267 6.4768,32.9189267 4.6125037,37.9789933 C4.46257778,38.38406 4.07798519,38.6355933 3.67057778,38.6355933" id="Fill-11" fill="#9F9F9F"></path>
                                <g id="Group-15" transform="translate(0.000000, 36.338947)" fill="#9F9F9F">
                                    <path d="M43.7620741,60.06634 C37.4,60.06634 31.2660741,58.7302733 25.533037,56.0908067 C20.3117037,53.6898067 15.677037,50.33494 11.7528889,46.1144067 C4.17511111,37.9738733 0,27.3506733 0,16.2048067 C0,13.6502733 0.22162963,11.10554 0.651851852,8.63920667 C1.10162963,6.02260667 1.79911111,3.43214 2.72474074,0.939673333 C2.91703704,0.420273333 3.49718519,0.152406667 4.01540741,0.348406667 C4.53688889,0.54114 4.80088889,1.11934 4.60533333,1.64200667 C3.72533333,4.01687333 3.0637037,6.48647333 2.63022222,8.98547333 C2.2162963,11.3374733 2.0077037,13.7678733 2.0077037,16.2048067 C2.0077037,26.8410733 5.99051852,36.9742733 13.2228148,44.7424067 C16.9644444,48.76694 21.3905185,51.9682733 26.3706667,54.2614733 C31.8397037,56.7768067 37.6900741,58.0540733 43.7620741,58.0540733 C44.5051852,58.0540733 45.2482963,58.0344733 45.9783704,57.9952733 C47.6894815,57.9070733 49.4038519,57.7110733 51.0856296,57.41054 C52.6696296,57.1296067 54.2340741,56.7572067 55.7333333,56.3064067 C59.9899259,55.02914 64.0020741,53.08874 67.6524444,50.53094 C73.0888889,46.7220067 77.5931852,41.6162067 80.6797037,35.7656067 C81.0740741,35.0240733 81.4488889,34.26294 81.8302222,33.4234067 C81.8367407,33.4070733 81.8465185,33.3874733 81.853037,33.37114 C84.2844444,27.96154 85.5164444,22.1860733 85.5164444,16.2048067 C85.5164444,11.5498067 84.7537778,6.97647333 83.2577778,2.60894 C83.2219259,2.50440667 83.2056296,2.39334 83.2056296,2.28227333 C83.2056296,1.72694 83.6521481,1.27287333 84.2094815,1.27287333 C84.6722963,1.27287333 85.0601481,1.58320667 85.1774815,2.00787333 C86.7354074,6.57140667 87.5241481,11.3472733 87.5241481,16.2048067 C87.5241481,22.45394 86.2367407,28.4874733 83.7075556,34.1420733 C83.701037,34.16494 83.6912593,34.18454 83.6814815,34.20414 C83.2740741,35.1024733 82.8731852,35.91914 82.4527407,36.7096733 C79.2195556,42.83794 74.5001481,48.18874 68.802963,52.1806067 C64.9765926,54.86254 60.7721481,56.8976733 56.3102222,58.23374 C54.736,58.7074067 53.0965926,59.0994067 51.4343704,59.3934067 C49.6743704,59.7070067 47.8752593,59.9128067 46.0826667,60.0042733 C45.3232593,60.04674 44.541037,60.06634 43.7620741,60.06634" id="Fill-13"></path>
                                </g>
                                <path d="M28.067437,82.42624 C27.6730667,82.42624 27.2982519,82.19104 27.1385481,81.8055733 C26.395437,80.0023733 25.2188444,78.36904 23.7391407,77.0885067 C23.3284741,76.73244 23.2730667,76.1183067 23.6152889,75.69364 C26.3237333,72.3289733 27.8164741,68.09864 27.8164741,63.7801067 C27.8164741,63.62004 27.8164741,63.4567067 27.8099556,63.2933733 C27.5459556,52.9217067 19.2283259,44.8007733 8.87691852,44.8007733 L8.6781037,44.8007733 C6.38684444,44.82364 4.13795556,45.2581067 2.0064,46.0911067 C1.48817778,46.2903733 0.90802963,46.0355733 0.705955556,45.5161733 C0.503881481,45.00004 0.761362963,44.4153067 1.27632593,44.21604 C3.63928889,43.29484 6.1261037,42.81464 8.66506667,42.7885067 L8.87691852,42.7885067 C20.3266963,42.7885067 29.5243259,51.77184 29.8176593,63.23784 C29.8241778,63.4207733 29.8241778,63.60044 29.8241778,63.7801067 C29.8241778,68.2423733 28.3835852,72.6197067 25.7501037,76.21304 C27.1418074,77.58504 28.2532148,79.2347067 28.9930667,81.03464 C29.2081778,81.5507733 28.9604741,82.1387733 28.4487704,82.3511067 C28.3249185,82.4033733 28.1945481,82.42624 28.067437,82.42624" id="Fill-16" fill="#9F9F9F"></path>
                                <path d="M15.835437,26.02038 C14.2481778,26.02038 12.7195852,25.4389133 11.5364741,24.3870467 C11.1192889,24.02118 11.0801778,23.38418 11.4484741,22.9660467 C11.8167704,22.55118 12.4523259,22.51198 12.8662519,22.8811133 C13.6843259,23.6063133 14.7370667,24.0081133 15.835437,24.0081133 C18.3092148,24.0081133 20.3201778,21.99258 20.3201778,19.51318 C20.3201778,18.6671133 20.0822519,17.8439133 19.6357333,17.13178 C19.3391407,16.66138 19.4792889,16.0407133 19.9486222,15.7434467 C20.4179556,15.44618 21.0404741,15.5899133 21.3338074,16.0570467 C21.9856593,17.0893133 22.3278815,18.2849133 22.3278815,19.51318 C22.3278815,23.09998 19.417363,26.02038 15.835437,26.02038" id="Fill-18" fill="#9F9F9F"></path>
                                <path d="M8.67712593,44.8004467 C8.30231111,44.8004467 7.94053333,44.59138 7.77105185,44.22878 C6.6954963,41.98458 5.07564444,39.98538 3.08423704,38.44678 C2.83001481,38.2671133 2.66379259,37.96658 2.66379259,37.6301133 C2.66379259,37.07478 3.11031111,36.62398 3.66438519,36.62398 L3.6709037,36.62398 C3.88927407,36.62398 4.10764444,36.6958467 4.28038519,36.8330467 C6.53253333,38.5611133 8.36423704,40.81838 9.57994074,43.3598467 C9.82112593,43.8596467 9.60927407,44.4607133 9.11060741,44.69918 C8.97045926,44.76778 8.82379259,44.8004467 8.67712593,44.8004467" id="Fill-20" fill="#9F9F9F"></path>
                                <path d="M46.0314963,96.3445267 C45.9760889,96.3445267 45.9206815,96.34126 45.8620148,96.33146 C45.3144593,96.2367267 44.9494222,95.7173267 45.0406815,95.1717933 C45.1514963,94.49886 45.2134222,93.82266 45.2134222,93.1529933 C45.2134222,86.60986 39.8975704,81.2851933 33.3660148,81.2851933 C31.6614222,81.2851933 30.0187556,81.64126 28.4869037,82.3403267 C27.1799407,82.9283267 25.9935704,83.7547933 24.9506074,84.8001267 C24.5594963,85.1953933 23.9272,85.1953933 23.5328296,84.80666 C23.1417185,84.41466 23.1384593,83.7743933 23.5295704,83.3823933 C24.7452741,82.1573933 26.1369778,81.19046 27.6590519,80.50446 C29.4483852,79.6877933 31.3713481,79.26966 33.3660148,79.26966 C41.0057185,79.26966 47.2211259,85.4991933 47.2211259,93.1529933 C47.2211259,93.9337267 47.1526815,94.72426 47.0223111,95.50826 C46.9375704,95.99826 46.5106074,96.3445267 46.0314963,96.3445267" id="Fill-22" fill="#9F9F9F"></path>
                                <path d="M25.9538074,92.5228533 C25.3964741,92.5228533 24.9466963,92.07532 24.9466963,91.5199867 C24.9466963,91.44812 24.9532148,91.3762533 24.9695111,91.3076533 C25.0803259,90.77192 25.1389926,90.2198533 25.1389926,89.6677867 C25.1389926,87.8482533 24.5523259,86.1332533 23.447437,84.7089867 C21.9025481,82.7032533 19.5656593,81.5566533 17.0429926,81.5566533 C15.615437,81.5566533 14.2139556,81.9290533 12.9884741,82.63792 C12.5061037,82.9155867 11.8966222,82.7522533 11.6195852,82.2687867 C11.3392889,81.7885867 11.5022519,81.1711867 11.9846222,80.89352 C13.5164741,80.01152 15.263437,79.54112 17.0429926,79.54112 C20.191437,79.54112 23.1052148,80.9751867 25.0346963,83.4741867 C26.4166222,85.25452 27.1466963,87.3974533 27.1466963,89.6677867 C27.1466963,90.35052 27.0782519,91.0332533 26.941363,91.6996533 C26.8501037,92.1700533 26.4426963,92.5228533 25.9538074,92.5228533" id="Fill-24" fill="#9F9F9F"></path>
                                <path d="M68.2254222,88.70118 C67.7691259,88.70118 67.3584593,88.38758 67.2509037,87.92698 C67.0129778,86.91758 66.8923852,85.87878 66.8923852,84.8432467 C66.8923852,81.4034467 68.1928296,78.13678 70.5590519,75.6443133 C73.0980148,72.9656467 76.5267556,71.4891133 80.2064593,71.4891133 C80.6986074,71.4891133 81.1940148,71.5185133 81.6666074,71.57078 C82.1750519,71.61978 82.5726815,72.05098 82.5726815,72.5736467 C82.5726815,73.16818 82.038163,73.63858 81.4547556,73.5732467 C81.0506074,73.5275133 80.630163,73.5046467 80.2064593,73.5046467 C77.0808296,73.5046467 74.1703111,74.75578 72.0126815,77.02938 C70.0049778,79.1494467 68.9000889,81.9228467 68.9000889,84.8432467 C68.9000889,85.7252467 69.0011259,86.6072467 69.2064593,87.4631133 C69.3335704,88.00538 68.9978667,88.5476467 68.4568296,88.6750467 C68.3818667,88.6946467 68.3003852,88.70118 68.2254222,88.70118" id="Fill-26" fill="#9F9F9F"></path>
                                <path d="M34.2293926,68.5732867 C34.1772444,68.5732867 34.1283556,68.57002 34.0794667,68.5634867 C33.5286519,68.4785533 33.1505778,67.9656867 33.2320593,67.4168867 C33.4113185,66.2114867 33.5025778,64.9897533 33.5025778,63.7810867 C33.5025778,63.5981533 33.5025778,63.4119533 33.4928,63.22902 C33.4667259,61.7426867 33.303763,60.27922 33.0071704,58.8418867 C32.8963556,58.2963533 33.2450963,57.7638867 33.7861333,57.65282 C34.3304296,57.5384867 34.8616889,57.8912867 34.975763,58.43682 C35.2919111,59.99502 35.4711704,61.58262 35.503763,63.1571533 C35.5135407,63.34662 35.5135407,63.56222 35.5135407,63.7810867 C35.5135407,65.0877533 35.4125037,66.4107533 35.2202074,67.7141533 C35.1452444,68.2139533 34.7150222,68.5732867 34.2293926,68.5732867" id="Fill-28" fill="#9F9F9F"></path>
                                <path d="M33.1662222,56.58168 C32.749037,56.58168 32.3579259,56.31708 32.2145185,55.89568 C31.3931852,53.4522133 30.1872593,51.1492133 28.6293333,49.0618133 C28.3001481,48.6175467 28.3914074,47.9838133 28.8379259,47.65388 C29.2811852,47.32068 29.9102222,47.4121467 30.2426667,47.8564133 C31.9244444,50.1169467 33.2281481,52.6061467 34.1179259,55.2521467 C34.2971852,55.77808 34.0136296,56.3497467 33.4888889,56.5261467 C33.3813333,56.5653467 33.2737778,56.58168 33.1662222,56.58168" id="Fill-30" fill="#9F9F9F"></path>
                                <path d="M26.0238815,45.70662 C25.7826963,45.70662 25.5447704,45.6216867 25.3492148,45.4452867 C22.0899556,42.4987533 18.1071407,40.4766867 13.8375111,39.5946867 C13.2932148,39.48362 12.9412148,38.95442 13.0552889,38.4088867 C13.1661037,37.8633533 13.697363,37.5105533 14.2416593,37.6248867 C18.8632889,38.5754867 23.1687704,40.7641533 26.6952889,43.95242 C27.1059556,44.32482 27.1418074,44.9585533 26.7702519,45.37342 C26.571437,45.5922867 26.2976593,45.70662 26.0238815,45.70662" id="Fill-32" fill="#9F9F9F"></path>
                                <path d="M50.7199407,92.47516 C50.6514963,92.47516 50.5797926,92.4686267 50.5113481,92.4522933 C49.9703111,92.33796 49.6215704,91.8022267 49.7389037,91.2566933 L52.6298667,77.7294267 C52.7406815,77.1838933 53.2686815,76.8310933 53.816237,76.9486933 C54.3572741,77.05976 54.7092741,77.5922267 54.5952,78.1344933 L54.5365333,78.4284933 L51.704237,91.6780933 C51.6032,92.15176 51.1860148,92.47516 50.7199407,92.47516" id="Fill-34" fill="#FF0032"></path>
                                <path d="M62.6745778,90.42696 C62.6061333,90.42696 62.5344296,90.4204267 62.4659852,90.4040933 C61.9216889,90.28976 61.5762074,89.75076 61.6902815,89.2084933 L62.9516148,83.32196 C63.0689481,82.7796933 63.6034667,82.43016 64.1445037,82.54776 C64.6855407,82.66536 65.0342815,83.2010933 64.9136889,83.74336 L63.6588741,89.63316 C63.557837,90.10356 63.1406519,90.42696 62.6745778,90.42696" id="Fill-36" fill="#FF0032"></path>
                                <path d="M56.0224296,94.6171133 C55.4683556,94.6171133 55.0153185,94.16958 55.0153185,93.61098 C55.0153185,93.54238 55.0250963,93.46398 55.0381333,93.39538 L58.0790222,79.19518 C58.1930963,78.6529133 58.7276148,78.30338 59.2686519,78.42098 C59.8129481,78.53858 60.1584296,79.0743133 60.0410963,79.61658 L57.0099852,93.8004467 C56.9187259,94.2643133 56.5113185,94.6171133 56.0224296,94.6171133" id="Fill-38" fill="#FF0032"></path>
                                <path d="M61.6211852,67.2333 C61.6342222,67.2333 61.6472593,67.2365667 61.6602963,67.2398333 C64.5056296,67.8539667 67.3672593,66.1063 69.2674074,64.5350333 C72.8917037,61.5362333 76.4442963,56.4729 79.2635556,50.2793 C80.9974815,46.4769 82.3663704,42.3870333 83.2202963,38.4474333 C83.2235556,38.4245667 83.2300741,38.3984333 83.2365926,38.3723 L83.2659259,38.2449 C85.0878519,29.7091 84.3154074,21.2190333 80.9518519,13.0491 C78.8757037,8.00536667 76.3791111,4.57536667 75.3459259,3.26543333 C73.876,4.0527 70.2158519,6.1891 66.2982222,9.90003333 C59.8188148,16.0348333 55.6176296,23.4534333 53.8022222,31.9533 C52.9482963,35.9517 52.5115556,40.3029 52.5441481,44.5365 C52.5637037,48.8027667 53.0460741,52.9024333 53.9488889,56.3945 C54.4540741,58.3741 55.0863704,60.1413667 55.8294815,61.6538333 C56.9148148,63.8523 58.7954074,66.6061 61.6211852,67.2333 M62.8531852,69.3795 C62.3186667,69.3795 61.7939259,69.3272333 61.2822222,69.2161667 C61.2659259,69.2161667 61.2496296,69.2129 61.2333333,69.2096333 C58.3619259,68.5922333 55.8685926,66.2827 54.0271111,62.5391 C53.2253333,60.9057667 52.5441481,59.0045667 52.0031111,56.8943 C51.0644444,53.2487 50.5527407,48.9759 50.5364444,44.5495667 C50.5038519,40.1755 50.9536296,35.6707667 51.8368889,31.5319 C53.7402963,22.6269667 58.1402963,14.8555667 64.9162963,8.43656667 C70.2354074,3.40263333 74.9906667,1.18456667 75.1894815,1.08983333 C75.5903704,0.9069 76.062963,1.00816667 76.3562963,1.33483333 C76.502963,1.49816667 80.0001481,5.45736667 82.8063704,12.2814333 C86.2774815,20.7159667 87.1118519,29.8495667 85.2214815,38.7022333 L85.1954074,38.8067667 C85.1921481,38.8165667 85.1921481,38.8263667 85.1888889,38.8329 C84.3088889,42.9227667 82.8911111,47.1694333 81.092,51.1155667 C78.1456296,57.5803 74.4007407,62.8984333 70.5417778,66.0867 C67.9213333,68.2590333 65.2911111,69.3795 62.8531852,69.3795" id="Fill-40" fill="#FF0032"></path>
                                <path d="M69.5910519,22.5368067 C66.0547556,22.5368067 62.9519407,25.0554067 62.2088296,28.5246067 C61.3386074,32.6046733 63.9460148,36.6390067 68.0200889,37.5144733 C68.5415704,37.6288067 69.0760889,37.68434 69.6040889,37.68434 C73.1371259,37.68434 76.2432,35.16574 76.9863111,31.69654 C77.8565333,27.6132067 75.2523852,23.58214 71.1783111,22.7066733 C70.6568296,22.5956067 70.1190519,22.5368067 69.5910519,22.5368067 M69.6040889,39.6966067 C68.9326815,39.6966067 68.2580148,39.62474 67.5963852,39.4842733 C62.440237,38.3736067 59.1451259,33.2678067 60.2467556,28.1032067 C61.1854222,23.7128067 65.1128296,20.52454 69.5910519,20.52454 C70.2624593,20.52454 70.9371259,20.5964067 71.5987556,20.7368733 C76.7549037,21.8442733 80.0532741,26.9500733 78.9483852,32.11794 C78.0064593,36.5116067 74.0790519,39.6966067 69.6040889,39.6966067" id="Fill-42" fill="#FF0032"></path>
                                <path d="M69.5943111,26.1510467 C67.7463111,26.1510467 66.1232,27.4675133 65.7353481,29.2805133 C65.5137185,30.31278 65.7060148,31.37118 66.2763852,32.2597133 C66.8500148,33.1515133 67.7365333,33.76238 68.7697185,33.9812467 C69.0434963,34.0433133 69.3237926,34.0727133 69.6008296,34.0727133 C71.4520889,34.0727133 73.0719407,32.7562467 73.4630519,30.9432467 C73.9160889,28.8068467 72.5569778,26.69658 70.4286815,26.2392467 C70.1516444,26.1804467 69.8713481,26.1510467 69.5943111,26.1510467 M69.6008296,36.08498 C69.1836444,36.08498 68.7599407,36.0392467 68.3492741,35.9510467 C66.7913481,35.6178467 65.4550519,34.69338 64.5913481,33.3540467 C63.7276444,32.0114467 63.4343111,30.4173133 63.7732741,28.8558467 C64.3566815,26.1249133 66.8043852,24.13878 69.5943111,24.13878 C70.0147556,24.13878 70.4352,24.1812467 70.8491259,24.2694467 C74.0594963,24.9587133 76.1128296,28.1404467 75.4251259,31.36138 C74.8417185,34.0988467 72.3907556,36.08498 69.6008296,36.08498" id="Fill-44" fill="#FF0032"></path>
                                <path d="M52.7344889,73.3583 C52.6660444,73.3583 52.5943407,73.3517667 52.5258963,73.3354333 L38.0613037,70.2288333 C37.7777481,70.1700333 37.536563,69.9871 37.3964148,69.7355667 C37.2530074,69.4807667 37.2301926,69.1769667 37.3279704,68.9025667 L37.3898963,68.7359667 L46.7048593,43.3637667 C46.8776,42.8966333 47.3697481,42.6255 47.858637,42.7300333 L51.7371556,43.5597667 C52.2781926,43.6773667 52.6269333,44.2098333 52.5128593,44.7553667 C52.3955259,45.2976333 51.8577481,45.6471667 51.3167111,45.5263 L48.2888593,44.8795 L39.6159704,68.5040333 L51.9620444,71.1565667 L53.9436741,61.8857667 C54.0610074,61.3402333 54.5922667,60.9907 55.136563,61.1115667 C55.6776,61.2291667 56.0263407,61.7649 55.9090074,62.3071667 L53.7155259,72.5612333 C53.6144889,73.0349 53.200563,73.3583 52.7344889,73.3583" id="Fill-46" fill="#FF0032"></path>
                                <path d="M60.2206815,74.9677867 C60.152237,74.9677867 60.0805333,74.9612533 60.0120889,74.9481867 C59.4677926,74.8305867 59.1223111,74.2948533 59.2363852,73.74932 L64.8716444,47.4134533 C64.9889778,46.86792 65.5234963,46.5216533 66.0645333,46.6392533 C66.6055704,46.7568533 66.9477926,47.2925867 66.8337185,47.8348533 L61.2017185,74.1739867 C61.1006815,74.6443867 60.6867556,74.9677867 60.2206815,74.9677867" id="Fill-48" fill="#FF0032"></path>
                                <path d="M81.8800889,13.6714 C81.8116444,13.6714 81.7399407,13.6648667 81.6714963,13.6485333 L65.3947556,10.1499333 C64.8537185,10.0356 64.508237,9.49986667 64.6255704,8.9576 C64.7396444,8.41206667 65.2709037,8.06253333 65.8152,8.1834 L82.0886815,11.682 C82.6297185,11.7963333 82.9784593,12.3320667 82.8611259,12.8743333 C82.7600889,13.348 82.346163,13.6714 81.8800889,13.6714" id="Fill-50" fill="#FF0032"></path>
                            </g>
                        </g>
                    </g>
                </g>
            </g>
        </g>
    </g>
</svg>