<?xml version="1.0" encoding="UTF-8"?>
<svg width="97px" height="85px" viewBox="0 0 97 85" version="1.1" xmlns="http://www.w3.org/2000/svg" xmlns:xlink="http://www.w3.org/1999/xlink">
    <!-- Generator: Sketch 50 (54983) - http://www.bohemiancoding.com/sketch -->
    <title>Group 4</title>
    <desc>Created with Sketch.</desc>
    <defs>
        <polygon id="path-1" points="0.5186 0.121645161 41.0675412 0.121645161 41.0675412 32.4111323 0.5186 32.4111323"></polygon>
        <polygon id="path-3" points="0.520441176 0.409974194 9.20064706 0.409974194 9.20064706 3.28094194 0.520441176 3.28094194"></polygon>
        <polygon id="path-5" points="0.520441176 0.911490323 9.20064706 0.911490323 9.20064706 3.78245806 0.520441176 3.78245806"></polygon>
        <polygon id="path-7" points="0.418046804 0.580236602 44.2522506 0.580236602 44.2522506 34.4516129 0.418046804 34.4516129"></polygon>
    </defs>
    <g id="Home-Page-small" stroke="none" stroke-width="1" fill="none" fill-rule="evenodd">
        <g id="MadOps_2" transform="translate(-326.000000, -1326.000000)">
            <g id="what-do1" transform="translate(60.000000, 880.000000)">
                <g id="3" transform="translate(132.000000, 446.000000)">
                    <g id="Group-4" transform="translate(134.000000, 0.000000)">
                        <g id="icons/2">
                            <g id="Page-1">
                                <path d="M43.7137647,33.1604548 C43.2237647,33.1604548 42.8231176,32.7642613 42.8231176,32.2761968 L42.8231176,2.81432581 L39.9551765,2.81432581 L39.9551765,32.2761968 C39.9551765,32.7642613 39.5602941,33.1604548 39.0702941,33.1604548 C38.5802941,33.1604548 38.1796471,32.7642613 38.1796471,32.2761968 L38.1796471,1.93006774 C38.1796471,1.43913226 38.5802941,1.04293871 39.0702941,1.04293871 L43.7137647,1.04293871 C44.2037647,1.04293871 44.6015294,1.43913226 44.6015294,1.93006774 L44.6015294,32.2761968 C44.6015294,32.7642613 44.2037647,33.1604548 43.7137647,33.1604548" id="Fill-1" fill="#9F9F9F"></path>
                                <path d="M25.7048235,33.1604548 C25.2148235,33.1604548 24.8141765,32.7642613 24.8141765,32.2761968 L24.8141765,19.8678742 L21.9462353,19.8678742 L21.9462353,32.2761968 C21.9462353,32.7642613 21.5513529,33.1604548 21.0613529,33.1604548 C20.5713529,33.1604548 20.1707059,32.7642613 20.1707059,32.2761968 L20.1707059,18.9836161 C20.1707059,18.4926806 20.5713529,18.0964871 21.0613529,18.0964871 L25.7048235,18.0964871 C26.1948235,18.0964871 26.5925882,18.4926806 26.5925882,18.9836161 L26.5925882,32.2761968 C26.5925882,32.7642613 26.1948235,33.1604548 25.7048235,33.1604548" id="Fill-3" fill="#9F9F9F"></path>
                                <path d="M17.3673294,36.3762258 C8.75485882,36.3762258 1.77668235,43.3268387 1.77668235,51.8737097 C1.77668235,60.3947419 8.73756471,67.3453548 17.2923882,67.3654516 L17.3298588,68.2497097 L17.3298588,67.3654516 C19.7596824,67.3654516 22.0828588,66.8257097 24.2359765,65.7605806 C29.5712118,63.1250323 32.8888,57.805129 32.8888,51.8737097 C32.8888,47.5069677 31.0239176,43.3182258 27.7697412,40.3840968 C24.9190941,37.8088387 21.2268,36.3848387 17.3673294,36.3762258 M17.3298588,69.1339677 L17.2923882,69.1339677 C7.75468235,69.111 0.00115294118,61.368 0.00115294118,51.8737097 C0.00115294118,42.3535806 7.77485882,34.6077097 17.3298588,34.6077097 C21.6678,34.6163226 25.7866824,36.2010968 28.9630353,39.0720645 C32.5861529,42.3449677 34.6643294,47.0102903 34.6643294,51.8737097 C34.6643294,58.4826774 30.9720353,64.4112258 25.0228588,67.3453548 C22.6247412,68.5310645 20.0363882,69.1339677 17.3298588,69.1339677" id="Fill-5" fill="#9F9F9F"></path>
                                <path d="M7.96595882,60.9967839 C7.72095882,60.9967839 7.47595882,60.8963 7.30301765,60.6982032 C6.59684118,59.9086871 5.9829,59.024429 5.47560588,58.0712677 C5.2479,57.6406226 5.41219412,57.1066226 5.84742941,56.8769452 C6.27978235,56.6472677 6.81878235,56.8109129 7.04648824,57.244429 C7.48460588,58.0712677 8.02072353,58.8406871 8.6289,59.5268484 C8.95748824,59.8914613 8.9229,60.4513 8.55395882,60.7728484 C8.38678235,60.9250097 8.17348824,60.9967839 7.96595882,60.9967839" id="Fill-7" fill="#9F9F9F"></path>
                                <path d="M5.34532353,56.3004548 C4.96197059,56.3004548 4.60744118,56.0506806 4.49502941,55.665971 C4.12897059,54.4314548 3.9445,53.1567452 3.9445,51.8734226 C3.9445,51.3853581 4.33938235,50.9891645 4.82938235,50.9891645 C5.32226471,50.9891645 5.72002941,51.3853581 5.72002941,51.8734226 C5.72002941,52.9873581 5.88144118,54.0926806 6.1985,55.1635516 C6.33685294,55.6343903 6.06879412,56.1253258 5.59897059,56.2631323 C5.51538235,56.288971 5.42891176,56.3004548 5.34532353,56.3004548" id="Fill-9" fill="#9F9F9F"></path>
                                <path d="M6.53890588,46.4694 C6.38614118,46.4694 6.23337647,46.4292065 6.09214118,46.3459484 C5.66555294,46.0990452 5.52431765,45.5564323 5.77508235,45.137271 C6.22184706,44.3822065 6.73202353,43.6788194 7.30272941,43.0414645 C7.62843529,42.6768516 8.18761176,42.6424 8.55655294,42.9696903 C8.92261176,43.2941097 8.95431765,43.8510774 8.63149412,44.2185613 C8.13861176,44.7669161 7.69184706,45.3784323 7.30561176,46.0330129 C7.14131765,46.3114968 6.84155294,46.4694 6.53890588,46.4694" id="Fill-11" fill="#9F9F9F"></path>
                                <path d="M26.6983706,60.9967839 C26.4908412,60.9967839 26.2775471,60.9250097 26.1103706,60.7757194 C25.7443118,60.454171 25.7068412,59.8943323 26.0354294,59.5268484 C27.9118412,57.4080742 28.9437235,54.6921387 28.9437235,51.8728484 C28.9437235,51.6144613 28.9350765,51.3589452 28.9206647,51.103429 C28.8889588,50.6153645 29.2607824,50.1933323 29.7507824,50.1646226 C30.2407824,50.130171 30.6616059,50.5005258 30.6933118,50.9885903 C30.7134882,51.281429 30.7221353,51.5742677 30.7221353,51.8728484 C30.7221353,55.1227839 29.5288412,58.2550097 27.3641941,60.6982032 C27.1883706,60.8963 26.9433706,60.9967839 26.6983706,60.9967839" id="Fill-13" fill="#9F9F9F"></path>
                                <path d="M29.2711588,49.0432226 C28.8906882,49.0432226 28.5419235,48.8020613 28.4208647,48.4230935 C27.9308647,46.8641581 27.1295706,45.448771 26.0342765,44.2142548 C25.7085706,43.8496419 25.7431588,43.2898032 26.1092176,42.9653839 C26.4781588,42.6438355 27.0402176,42.6782871 27.3630412,43.0429 C28.6255118,44.464029 29.5536294,46.0947387 30.1185706,47.8948355 C30.2655706,48.3599323 30.0032765,48.8566097 29.5363353,49.003029 C29.4469824,49.0288677 29.3576294,49.0432226 29.2711588,49.0432226" id="Fill-15" fill="#9F9F9F"></path>
                                <path d="M17.3618529,60.6700677 C15.6209118,60.6557129 14.0759706,59.7743258 13.1997353,58.3158742 C12.7472059,57.5722935 12.5079706,56.7138742 12.5079706,55.8296161 C12.5079706,55.3444226 12.9057353,54.9453581 13.3957353,54.9453581 C13.8857353,54.9453581 14.2863824,55.3444226 14.2863824,55.8296161 C14.2863824,56.3894548 14.4333824,56.9349387 14.7187353,57.4029065 C15.2779118,58.3331 16.2579118,58.8900677 17.3387941,58.9015516 C19.0595588,58.9015516 20.4430882,57.5234871 20.4430882,55.8296161 C20.4430882,53.9721 18.6848529,53.0074548 17.1802647,52.7461968 C15.9062647,52.5222613 14.7533235,51.9796484 13.9232059,51.2188419 C12.9576176,50.3317129 12.4474412,49.1890677 12.4474412,47.9114871 C12.4474412,45.2414871 14.6265,43.0710355 17.3013235,43.0710355 C19.0682059,43.0825194 20.6736765,44.0270677 21.5297353,45.5343258 C21.9419118,46.2606806 22.1552059,47.0817774 22.1552059,47.9114871 C22.1552059,48.3995516 21.7574412,48.7957452 21.2674412,48.7957452 C20.7803235,48.7957452 20.3796765,48.3995516 20.3796765,47.9114871 C20.3796765,47.3861 20.2442059,46.8607129 19.9847941,46.4013581 C19.4429118,45.4481968 18.4225588,44.8481645 17.3243824,44.8395516 C15.6065,44.8395516 14.2229706,46.2176161 14.2229706,47.9114871 C14.2229706,48.6923903 14.5285,49.3670677 15.1280294,49.9182935 C15.7073824,50.4522935 16.5461471,50.8370032 17.4857941,51.0035194 C20.3595,51.5030677 22.2215,53.3979065 22.2215,55.8296161 C22.2215,58.4996161 20.0395588,60.6700677 17.3618529,60.6700677" id="Fill-17" fill="#FF0032"></path>
                                <path d="M17.3307235,44.8404129 C16.8407235,44.8404129 16.4400765,44.4442194 16.4400765,43.9561548 L16.4400765,39.3482516 C16.4400765,38.8601871 16.8407235,38.4639935 17.3307235,38.4639935 C17.8207235,38.4639935 18.2184882,38.8601871 18.2184882,39.3482516 L18.2184882,43.9561548 C18.2184882,44.4442194 17.8207235,44.8404129 17.3307235,44.8404129" id="Fill-19" fill="#FF0032"></path>
                                <path d="M17.3307235,65.277971 C16.8407235,65.277971 16.4400765,64.8817774 16.4400765,64.3937129 L16.4400765,59.7858097 C16.4400765,59.2977452 16.8407235,58.9015516 17.3307235,58.9015516 C17.8207235,58.9015516 18.2184882,59.2977452 18.2184882,59.7858097 L18.2184882,64.3937129 C18.2184882,64.8817774 17.8207235,65.277971 17.3307235,65.277971" id="Fill-21" fill="#FF0032"></path>
                                <path d="M16.7003529,33.1604548 C16.2103529,33.1604548 15.8097059,32.7642613 15.8097059,32.2761968 L15.8097059,14.5192613 L12.0568824,14.5192613 C11.5668824,14.5192613 11.1662353,14.1230677 11.1662353,13.6350032 C11.1662353,13.1469387 11.5668824,12.7507452 12.0568824,12.7507452 L16.7003529,12.7507452 C17.1903529,12.7507452 17.5881176,13.1469387 17.5881176,13.6350032 L17.5881176,32.2761968 C17.5881176,32.7642613 17.1903529,33.1604548 16.7003529,33.1604548" id="Fill-23" fill="#9F9F9F"></path>
                                <path d="M34.7092941,33.1604548 C34.2192941,33.1604548 33.8186471,32.7642613 33.8186471,32.2761968 L33.8186471,9.0271 L30.9507059,9.0271 L30.9507059,32.2761968 C30.9507059,32.7642613 30.5558235,33.1604548 30.0658235,33.1604548 C29.5758235,33.1604548 29.1751765,32.7642613 29.1751765,32.2761968 L29.1751765,8.14284194 C29.1751765,7.65477742 29.5758235,7.25858387 30.0658235,7.25858387 L34.7092941,7.25858387 C35.1992941,7.25858387 35.5970588,7.65477742 35.5970588,8.14284194 L35.5970588,32.2761968 C35.5970588,32.7642613 35.1992941,33.1604548 34.7092941,33.1604548" id="Fill-25" fill="#9F9F9F"></path>
                                <g id="Group-29" transform="translate(10.647059, 0.749323)">
                                    <mask id="mask-2" fill="white">
                                        <use xlink:href="#path-1"></use>
                                    </mask>
                                    <g id="Clip-28"></g>
                                    <path d="M40.1797765,32.4111323 L1.40924706,32.4111323 C0.919247059,32.4111323 0.5186,32.0149387 0.5186,31.5268742 L0.5186,1.00561613 C0.5186,0.517551613 0.919247059,0.121358065 1.40924706,0.121358065 C1.89924706,0.121358065 2.29412941,0.517551613 2.29412941,1.00561613 L2.29412941,30.6426161 L40.1797765,30.6426161 C40.6697765,30.6426161 41.0675412,31.0388097 41.0675412,31.5268742 C41.0675412,32.0149387 40.6697765,32.4111323 40.1797765,32.4111323" id="Fill-27" fill="#9F9F9F" mask="url(#mask-2)"></path>
                                </g>
                                <path d="M80.1400765,58.3471677 L77.9321941,58.3471677 C77.4421941,58.3471677 77.0444294,57.9509742 77.0444294,57.4629097 C77.0444294,56.9748452 77.4393118,56.5786516 77.9293118,56.5786516 L80.1400765,56.5786516 C80.6329588,56.5786516 81.0307235,56.9748452 81.0307235,57.4629097 C81.0307235,57.9509742 80.6329588,58.3471677 80.1400765,58.3471677" id="Fill-30" fill="#9F9F9F"></path>
                                <g id="Group-34" transform="translate(87.470588, 56.168677)">
                                    <mask id="mask-4" fill="white">
                                        <use xlink:href="#path-3"></use>
                                    </mask>
                                    <g id="Clip-33"></g>
                                    <path d="M8.31432353,2.17849032 L1.40820588,2.17849032 C0.918205882,2.17849032 0.520441176,1.78229677 0.520441176,1.29423226 C0.520441176,0.806167742 0.918205882,0.409974194 1.40820588,0.409974194 L8.31432353,0.409974194 C8.80432353,0.409974194 9.20208824,0.806167742 9.20208824,1.29423226 C9.20208824,1.78229677 8.80432353,2.17849032 8.31432353,2.17849032" id="Fill-32" fill="#9F9F9F" mask="url(#mask-4)"></path>
                                </g>
                                <path d="M85.2153235,58.3471677 L82.6817353,58.3471677 C82.1888529,58.3471677 81.7939706,57.9509742 81.7939706,57.4629097 C81.7939706,56.9748452 82.1888529,56.5786516 82.6817353,56.5786516 L85.2153235,56.5786516 C85.7082059,56.5786516 86.1059706,56.9748452 86.1059706,57.4629097 C86.1059706,57.9509742 85.7082059,58.3471677 85.2153235,58.3471677" id="Fill-35" fill="#9F9F9F"></path>
                                <path d="M79.0142294,63.6334806 L77.2185235,63.6334806 C76.7285235,63.6334806 76.3307588,63.2372871 76.3307588,62.7492226 C76.3307588,62.2582871 76.7285235,61.8649645 77.2185235,61.8649645 L79.0142294,61.8649645 C79.5042294,61.8649645 79.9019941,62.2582871 79.9019941,62.7492226 C79.9019941,63.2372871 79.5042294,63.6334806 79.0142294,63.6334806" id="Fill-37" fill="#9F9F9F"></path>
                                <path d="M92.2577765,63.6334806 L87.9371294,63.6334806 C87.4471294,63.6334806 87.0493647,63.2372871 87.0493647,62.7492226 C87.0493647,62.2582871 87.4471294,61.8649645 87.9371294,61.8649645 L92.2577765,61.8649645 C92.7477765,61.8649645 93.1484235,62.2582871 93.1484235,62.7492226 C93.1484235,63.2372871 92.7477765,63.6334806 92.2577765,63.6334806" id="Fill-39" fill="#9F9F9F"></path>
                                <path d="M86.2820824,63.6334806 L81.2696706,63.6334806 C80.7796706,63.6334806 80.3790235,63.2372871 80.3790235,62.7492226 C80.3790235,62.2582871 80.7796706,61.8649645 81.2696706,61.8649645 L86.2820824,61.8649645 C86.7720824,61.8649645 87.1698471,62.2582871 87.1698471,62.7492226 C87.1698471,63.2372871 86.7720824,63.6334806 86.2820824,63.6334806" id="Fill-41" fill="#9F9F9F"></path>
                                <path d="M90.4283471,68.9183581 L77.3078765,68.9183581 C76.8178765,68.9183581 76.4201118,68.5221645 76.4201118,68.0341 C76.4201118,67.5431645 76.8178765,67.1498419 77.3078765,67.1498419 L90.4283471,67.1498419 C90.9212294,67.1498419 91.3189941,67.5431645 91.3189941,68.0341 C91.3189941,68.5221645 90.9212294,68.9183581 90.4283471,68.9183581" id="Fill-43" fill="#9F9F9F"></path>
                                <path d="M80.1400765,74.2035226 L72.1415471,74.2035226 C71.6486647,74.2035226 71.2509,73.807329 71.2509,73.3192645 C71.2509,72.828329 71.6486647,72.4350065 72.1415471,72.4350065 L80.1400765,72.4350065 C80.6329588,72.4350065 81.0307235,72.828329 81.0307235,73.3192645 C81.0307235,73.807329 80.6329588,74.2035226 80.1400765,74.2035226" id="Fill-45" fill="#9F9F9F"></path>
                                <g id="Group-49" transform="translate(87.470588, 71.523516)">
                                    <mask id="mask-6" fill="white">
                                        <use xlink:href="#path-5"></use>
                                    </mask>
                                    <g id="Clip-48"></g>
                                    <path d="M8.31432353,2.68000645 L1.40820588,2.68000645 C0.918205882,2.68000645 0.520441176,2.2838129 0.520441176,1.79574839 C0.520441176,1.3048129 0.918205882,0.911490323 1.40820588,0.911490323 L8.31432353,0.911490323 C8.80432353,0.911490323 9.20208824,1.3048129 9.20208824,1.79574839 C9.20208824,2.2838129 8.80432353,2.68000645 8.31432353,2.68000645" id="Fill-47" fill="#9F9F9F" mask="url(#mask-6)"></path>
                                </g>
                                <path d="M85.2153235,74.2035226 L82.6817353,74.2035226 C82.1888529,74.2035226 81.7939706,73.807329 81.7939706,73.3192645 C81.7939706,72.828329 82.1888529,72.4350065 82.6817353,72.4350065 L85.2153235,72.4350065 C85.7082059,72.4350065 86.1059706,72.828329 86.1059706,73.3192645 C86.1059706,73.807329 85.7082059,74.2035226 85.2153235,74.2035226" id="Fill-50" fill="#9F9F9F"></path>
                                <path d="M79.0142294,79.4884 L70.8427588,79.4884 C70.3527588,79.4884 69.9549941,79.0922065 69.9549941,78.6041419 C69.9549941,78.1132065 70.3527588,77.7198839 70.8427588,77.7198839 L79.0142294,77.7198839 C79.5042294,77.7198839 79.9019941,78.1132065 79.9019941,78.6041419 C79.9019941,79.0922065 79.5042294,79.4884 79.0142294,79.4884" id="Fill-52" fill="#9F9F9F"></path>
                                <path d="M91.1348118,79.4884 L81.2685176,79.4884 C80.7785176,79.4884 80.3807529,79.0922065 80.3807529,78.6041419 C80.3807529,78.1132065 80.7785176,77.7198839 81.2685176,77.7198839 L91.1348118,77.7198839 C91.6248118,77.7198839 92.0254588,78.1132065 92.0254588,78.6041419 C92.0254588,79.0922065 91.6248118,79.4884 91.1348118,79.4884" id="Fill-54" fill="#9F9F9F"></path>
                                <path d="M28.3675412,40.6126258 C28.1830706,40.6126258 27.9928353,40.5552065 27.8314235,40.4346258 C27.4423059,40.1389161 27.3644824,39.5848194 27.6613647,39.1943677 C30.0911882,36.0018516 33.0830706,33.4122387 36.5476588,31.5030452 C37.2624824,31.1039806 37.9888353,30.7422387 38.7094235,30.4235613 C39.1561882,30.2254645 39.6836588,30.4264323 39.8796588,30.8743032 C40.0785412,31.3193032 39.8767765,31.8418194 39.4300118,32.0427871 C38.7584235,32.3384968 38.0810706,32.677271 37.4123647,33.0476258 C34.1610706,34.8419806 31.3565412,37.2679484 29.0766,40.2623677 C28.9036588,40.4920452 28.6384824,40.6126258 28.3675412,40.6126258" id="Fill-56" fill="#9F9F9F"></path>
                                <path d="M35.8942294,80.7935419 C35.7357,80.7935419 35.5771706,80.7504774 35.4301706,80.6643484 C30.1093471,77.4172839 26.0884647,72.6514774 23.8056412,66.8808323 C23.6240529,66.4272194 23.8459941,65.9133161 24.3042882,65.7324452 C24.7597,65.5515742 25.2756412,65.7783806 25.4572294,66.2319935 C27.5988176,71.6408968 31.3689353,76.1109935 36.3582882,79.1542194 C36.7762294,79.4097355 36.9088176,79.9552194 36.6522882,80.3715097 C36.4851118,80.6442516 36.1939941,80.7935419 35.8942294,80.7935419" id="Fill-58" fill="#9F9F9F"></path>
                                <path d="M50.3201176,57.3265387 C50.2451765,57.3265387 50.1615882,57.3179258 50.0837647,57.2949581 C49.6110588,57.1628935 49.3343529,56.674829 49.4640588,56.2039903 L56.595,30.5547645 C52.3954118,29.5384419 48.0315294,29.5240871 43.9212941,30.5174419 C43.4485882,30.6351516 42.9643529,30.3423129 42.8490588,29.8657323 C42.7337647,29.3920226 43.0277647,28.9154419 43.5062353,28.7977323 C48.1900588,27.666571 53.1765294,27.7613129 57.9295294,29.0704742 C58.4022353,29.2025387 58.6760588,29.6877323 58.5463529,30.158571 L51.1761765,56.6777 C51.0695294,57.0710226 50.7121176,57.3265387 50.3201176,57.3265387" id="Fill-60" fill="#9F9F9F"></path>
                                <g id="Group-64" transform="translate(34.588235, 50.426742)">
                                    <mask id="mask-8" fill="white">
                                        <use xlink:href="#path-7"></use>
                                    </mask>
                                    <g id="Clip-63"></g>
                                    <path d="M2.5333,29.1779323 C6.66082941,31.5349968 10.8921235,32.6833839 15.4404765,32.6833839 C16.9710059,32.6833839 18.5591824,32.5455774 20.1531235,32.2814484 C26.7940647,31.1703839 32.7230647,27.6448355 36.8505941,22.350771 C38.1793588,20.6425452 39.2977118,18.7821581 40.1739471,16.8212871 C40.8455353,15.3169 41.3816529,13.7349968 41.7621235,12.1186419 C41.7678882,12.0928032 41.7765353,12.0640935 41.7851824,12.0382548 C42.1714176,10.3817065 42.3962412,8.69070645 42.4596529,7.00257742 C42.5115353,5.50967419 42.4394765,3.99380323 42.2319471,2.48654516 L16.2792412,6.81883548 L2.5333,29.1779323 Z M15.4404765,34.4519 C10.2753,34.4519 5.49924118,33.0709645 0.844241176,30.2373194 C0.642476471,30.1138677 0.498358824,29.915771 0.440711765,29.6889645 C0.388829412,29.4621581 0.4263,29.2209968 0.550241176,29.020029 L14.9735353,5.55273871 C15.1090059,5.33454516 15.3309471,5.18525484 15.5845941,5.14219032 L42.8285941,0.591706452 C43.0649471,0.554383871 43.3013,0.608932258 43.4944176,0.743867742 C43.6846529,0.881674194 43.8143588,1.0855129 43.8547118,1.31806129 C44.1746529,3.23012581 44.3014765,5.16515806 44.2351824,7.06860968 C44.1660059,8.89741613 43.9152412,10.7319645 43.4973,12.5234484 C43.4886529,12.5521581 43.4800059,12.5808677 43.4713588,12.6095774 C43.0678294,14.3034484 42.5028882,15.9628677 41.7938294,17.5419 C40.8628294,19.6319645 39.6724176,21.6158032 38.2543,23.4359968 C33.8500647,29.0803194 27.5290647,32.8412871 20.4500059,34.0241258 C18.7551824,34.3083516 17.0690059,34.4519 15.4404765,34.4519 Z" id="Fill-62" fill="#9F9F9F" mask="url(#mask-8)"></path>
                                </g>
                                <path d="M66.5982059,23.3601194 L59.8362059,47.6743452 L84.8146765,43.4999581 C82.8662059,33.7415387 76.1387941,26.3028613 66.5982059,23.3601194 M58.6112059,49.6610548 C58.3633235,49.6610548 58.1212059,49.5577 57.9511471,49.3710871 C57.7493824,49.1442806 57.6744412,48.8342161 57.7551471,48.5413774 L65.1253235,22.0222484 C65.2550294,21.5542806 65.7450294,21.2757968 66.2177353,21.4049903 C77.1793235,24.4281194 84.8463824,32.9032161 86.7256765,44.0741516 C86.8092647,44.5564742 86.4806765,45.0129581 85.9964412,45.0933452 L58.7582059,49.649571 C58.7092059,49.6581839 58.6602059,49.6610548 58.6112059,49.6610548" id="Fill-65" fill="#FF0032"></path>
                            </g>
                        </g>
                    </g>
                </g>
            </g>
        </g>
    </g>
</svg>