<?xml version="1.0" encoding="UTF-8"?>
<svg width="369px" height="225px" viewBox="0 0 369 225" version="1.1" xmlns="http://www.w3.org/2000/svg" xmlns:xlink="http://www.w3.org/1999/xlink">
    <!-- Generator: Sketch 50 (54983) - http://www.bohemiancoding.com/sketch -->
    <title>left</title>
    <desc>Created with Sketch.</desc>
    <defs></defs>
    <g id="Home-Page-small" stroke="none" stroke-width="1" fill="none" fill-rule="evenodd">
        <g id="MadOps_2" transform="translate(-37.000000, -1815.000000)" stroke="#DCDCDC" stroke-width="1.5">
            <g id="what-do2" transform="translate(38.000000, 1710.000000)">
                <g id="left" transform="translate(0.000000, 106.000000)">
                    <path d="M20.2619048,0 C13.9215035,0 8.76190476,5.23437556 8.76190476,11.6666667 C8.76190476,11.8576389 8.78757495,12.03559 8.79613095,12.2222222 C8.78329586,12.2222222 8.77473986,12.2222222 8.76190476,12.2222222 C3.9360119,12.2222222 0,16.2152778 0,21.1111111 C0,26.0069444 3.9360119,30 8.76190476,30 L35.047619,30 C41.0842637,30 46,25.0130211 46,18.8888889 C46,12.7647567 41.0842637,7.77777778 35.047619,7.77777778 C33.6742934,7.77777778 32.3908113,8.10763889 31.1800595,8.57638889 C29.823847,3.66319444 25.5284601,0 20.2619048,0 Z" id="Shape" stroke-linecap="round" stroke-linejoin="round" fill-rule="nonzero"></path>
                    <path d="M150.738095,144 C145.500372,144 141.238095,148.36198 141.238095,153.722222 C141.238095,153.881366 141.259301,154.029658 141.266369,154.185185 C141.255766,154.185185 141.248698,154.185185 141.238095,154.185185 C137.251488,154.185185 134,157.512731 134,161.592593 C134,165.672454 137.251488,169 141.238095,169 L162.952381,169 C167.939174,169 172,164.844184 172,159.740741 C172,154.637297 167.939174,150.481481 162.952381,150.481481 C161.817895,150.481481 160.757627,150.756366 159.75744,151.146991 C158.637091,147.052662 155.088728,144 150.738095,144 Z" id="Shape-Copy" stroke-linecap="round" stroke-linejoin="round" fill-rule="nonzero"></path>
                    <path d="M266.214286,20 C262.079241,20 258.714286,23.4895837 258.714286,27.7777778 C258.714286,27.9050926 258.731027,28.0237267 258.736607,28.1481481 C258.728236,28.1481481 258.722656,28.1481481 258.714286,28.1481481 C255.566964,28.1481481 253,30.8101852 253,34.0740741 C253,37.337963 255.566964,40 258.714286,40 L275.857143,40 C279.794085,40 283,36.6753474 283,32.5925926 C283,28.5098378 279.794085,25.1851852 275.857143,25.1851852 C274.961496,25.1851852 274.124442,25.4050926 273.334821,25.7175926 C272.450335,22.4421296 269.648996,20 266.214286,20 Z" id="Shape-Copy-2" stroke-linecap="round" stroke-linejoin="round" fill-rule="nonzero"></path>
                    <path d="M23,40 L23,119.5 L367.293423,119.5" id="Path-4" stroke-dasharray="6,6"></path>
                    <path d="M153,179 L153.206577,222.5 L367.293423,222.5" id="Path-4-Copy" stroke-dasharray="6,6"></path>
                    <path d="M268,51 L268,88 L367.293423,88" id="Path-4-Copy-2" stroke-dasharray="6,6"></path>
                </g>
            </g>
        </g>
    </g>
</svg>