<?xml version="1.0" encoding="UTF-8"?>
<svg width="229px" height="140px" viewBox="0 0 229 140" version="1.1" xmlns="http://www.w3.org/2000/svg" xmlns:xlink="http://www.w3.org/1999/xlink">
    <!-- Generator: Sketch 50 (54983) - http://www.bohemiancoding.com/sketch -->
    <title>icons/big/money_b</title>
    <desc>Created with Sketch.</desc>
    <defs></defs>
    <g id="Home-Page-small" stroke="none" stroke-width="1" fill="none" fill-rule="evenodd">
        <g id="MadOps_2" transform="translate(-779.000000, -1899.000000)" fill="#FEF5D1">
            <g id="what-do2" transform="translate(38.000000, 1710.000000)">
                <g id="icons/big/clouds_b" transform="translate(740.000000, 182.000000)">
                    <g id="big-icon" transform="translate(1.000000, 7.000000)">
                        <path d="M141.241409,73.9310409 C141.333002,74.5689591 141.742119,75.1210037 142.334422,75.3847584 C142.914513,75.6546468 143.604516,75.5933086 144.141863,75.2375465 C147.427009,73.0477695 151.243397,71.8946097 155.169696,71.8946097 C166.17921,71.8946097 175.143141,80.8929368 175.143141,91.9522305 C175.143141,93.0317844 175.045442,94.1113383 174.856149,95.2215613 L4.22394168,95.2215613 C7.35643245,83.3157993 18.0850607,74.9001859 30.5417492,74.9001859 C35.0847767,74.9001859 39.5789545,76.0472119 43.535785,78.2124535 C44.0975572,78.519145 44.7692414,78.519145 45.3310136,78.2185874 C45.8866796,77.9118959 46.259159,77.3537175 46.314115,76.7157993 C48.3719111,52.0578067 69.285714,32.7423792 93.9304173,32.7423792 C97.7406984,32.7423792 101.55098,33.1962825 105.245243,34.0979554 C124.046293,38.6799257 138.511928,54.6830855 141.241409,73.9310409 M203.555382,35.4903346 C200.56944,35.4903346 197.638455,36.0178439 194.8357,37.0605948 C189.975149,15.4511152 170.887106,0 148.593297,0 C129.144987,0 111.711729,12.0775093 104.579665,30.1355019 C101.080801,29.3994424 97.5147683,28.9639405 93.9304173,28.9639405 C80.9180628,28.9639405 68.4919054,33.8464684 58.9478838,42.7159851 C50.1243962,50.9107807 44.4761428,61.8228625 42.8579946,73.6856877 C38.9927574,72.0050186 34.7855719,71.1217472 30.5417492,71.1217472 C15.4960235,71.1217472 2.66685562,81.9111524 0.0289686507,96.7795539 C-0.0687308666,97.3254647 0.0839246293,97.889777 0.43808538,98.3252788 C0.79835235,98.748513 1.32348726,99 1.87915326,99 L176.382704,99 C177.243681,99 178.006958,98.3988848 178.208463,97.5585502 C178.672536,95.663197 178.904572,93.7739777 178.904572,91.9522305 C178.904572,78.8074349 168.255325,68.116171 155.169696,68.116171 C151.438796,68.116171 147.799489,68.9871747 144.496024,70.6678439 C140.777336,51.867658 126.598693,36.4656134 108.261715,31.1107807 C114.929707,14.7211896 130.842516,3.77843866 148.593297,3.77843866 C169.849048,3.77843866 187.929565,19.0271375 191.593297,40.0355019 C191.697103,40.6120818 192.05737,41.1089219 192.582505,41.3849442 C193.10764,41.6548327 193.724368,41.6609665 194.261715,41.4094796 C197.21102,39.9925651 200.34351,39.2687732 203.555382,39.2687732 C215.51136,39.2687732 225.238569,49.033829 225.238569,61.0377323 C225.238569,61.2033457 225.238569,61.3566914 225.232462,61.5223048 L180.003692,61.5223048 C178.965635,61.5223048 178.122976,62.3687732 178.122976,63.4115242 C178.122976,64.4542751 178.965635,65.3007435 180.003692,65.3007435 L226.99716,65.3007435 C227.961943,65.3007435 228.77407,64.564684 228.871769,63.595539 C228.957256,62.6877323 229,61.8473978 229,61.0377323 C229,46.954461 217.587475,35.4903346 203.555382,35.4903346" id="Fill-1"></path>
                        <path d="M156.116848,109 L60.8831522,109 C59.84375,109 59,109.828 59,110.848 C59,111.868 59.84375,112.696 60.8831522,112.696 L156.116848,112.696 C157.15625,112.696 158,111.868 158,110.848 C158,109.828 157.15625,109 156.116848,109" id="Fill-4"></path>
                        <path d="M206.854,100 C205.834,100 205,100.818182 205,101.832016 L205,107.167984 C205,108.175889 205.834,109 206.854,109 C207.874,109 208.702,108.175889 208.702,107.167984 L208.702,101.832016 C208.702,100.818182 207.874,100 206.854,100" id="Fill-6"></path>
                        <path d="M206.854,80 C205.834,80 205,80.8187212 205,81.8272907 L205,87.1727093 C205,88.1812788 205.834,89 206.854,89 C207.874,89 208.702,88.1812788 208.702,87.1727093 L208.702,81.8272907 C208.702,80.8187212 207.874,80 206.854,80" id="Fill-8"></path>
                        <path d="M41.848,20 C42.868,20 43.696,19.1261297 43.696,18.0573674 L43.696,5.93634578 C43.696,4.8675835 42.868,4 41.848,4 C40.828,4 40,4.8675835 40,5.93634578 L40,18.0573674 C40,19.1261297 40.828,20 41.848,20" id="Fill-12"></path>
                        <path d="M176.080745,136 L159.913043,136 C158.857143,136 158,136.828 158,137.848 C158,138.868 158.857143,139.69 159.913043,139.69 L176.080745,139.69 C177.142857,139.69 178,138.868 178,137.848 C178,136.828 177.142857,136 176.080745,136" id="Fill-14"></path>
                        <path d="M94.0034702,47 C93.5162687,47 93.0290673,47.1796709 92.6590408,47.5575992 L72.5604383,67.7426912 C71.8142183,68.4861568 71.8142183,69.6942885 72.5542712,70.4377541 C73.3004911,71.1874153 74.5030771,71.1812197 75.2431299,70.4377541 L94.0034702,51.6032914 L112.751476,70.4377541 C113.497696,71.1874153 114.694115,71.1874153 115.440335,70.4377541 C116.186555,69.6942885 116.186555,68.4861568 115.440335,67.7426912 L95.3478996,47.5575992 C94.9778731,47.1796709 94.4906717,47 94.0034702,47" id="Fill-17"></path>
                        <path d="M94.3138183,68.5534017 C93.9461903,68.1824401 93.4761085,68 93,68 C92.5238915,68 92.047783,68.1824401 91.6861817,68.5534017 L79.5424021,80.8072976 C78.8191993,81.5370582 78.8191993,82.722919 79.5424021,83.4526796 C80.2656048,84.1824401 81.446836,84.1824401 82.1700387,83.4526796 L93,72.5245154 L103.835988,83.4526796 C104.553164,84.1824401 105.728368,84.1824401 106.457598,83.4526796 C107.180801,82.722919 107.180801,81.5370582 106.457598,80.8072976 L94.3138183,68.5534017 Z" id="Fill-19"></path>
                        <path d="M44.0996344,122.605804 L34.4065356,122.605804 L34.4065356,112.900366 C34.4065356,111.851463 33.5550731,111 32.50617,111 C31.4572669,111 30.5996344,111.851463 30.5996344,112.900366 L30.5996344,122.605804 L20.9003656,122.605804 C19.8452925,122.605804 19,123.457267 19,124.50617 C19,125.555073 19.8452925,126.406536 20.9003656,126.406536 L30.5996344,126.406536 L30.5996344,136.105804 C30.5996344,137.148537 31.4572669,138 32.50617,138 C33.5550731,138 34.4065356,137.148537 34.4065356,136.105804 L34.4065356,126.406536 L44.0996344,126.406536 C45.1485375,126.406536 46,125.555073 46,124.50617 C46,123.457267 45.1485375,122.605804 44.0996344,122.605804" id="Fill-21"></path>
                        <path d="M108.993915,125.249619 C107.752535,125.249619 106.742394,124.238965 106.742394,123.003044 C106.742394,121.761035 107.752535,120.750381 108.993915,120.750381 C110.241379,120.750381 111.251521,121.761035 111.251521,123.003044 C111.251521,124.238965 110.241379,125.249619 108.993915,125.249619 M108.993915,117 C105.68357,117 103,119.69102 103,123.003044 C103,126.30898 105.68357,129 108.993915,129 C112.30426,129 115,126.30898 115,123.003044 C115,119.69102 112.30426,117 108.993915,117" id="Fill-23"></path>
                    </g>
                </g>
            </g>
        </g>
    </g>
</svg>