<?xml version="1.0" encoding="UTF-8"?>
<svg width="358px" height="215px" viewBox="0 0 358 215" version="1.1" xmlns="http://www.w3.org/2000/svg" xmlns:xlink="http://www.w3.org/1999/xlink">
    <!-- Generator: Sketch 50 (54983) - http://www.bohemiancoding.com/sketch -->
    <title>right</title>
    <desc>Created with Sketch.</desc>
    <defs></defs>
    <g id="Home-Page-small" stroke="none" stroke-width="1" fill="none" fill-rule="evenodd">
        <g id="MadOps_2" transform="translate(-1038.000000, -1765.000000)" stroke-width="1.5">
            <g id="what-do2" transform="translate(38.000000, 1710.000000)">
                <g id="right" transform="translate(998.000000, 56.000000)">
                    <path d="M222.261905,0 C215.921504,0 210.761905,5.23437556 210.761905,11.6666667 C210.761905,11.8576389 210.787575,12.03559 210.796131,12.2222222 C210.783296,12.2222222 210.77474,12.2222222 210.761905,12.2222222 C205.936012,12.2222222 202,16.2152778 202,21.1111111 C202,26.0069444 205.936012,30 210.761905,30 L237.047619,30 C243.084264,30 248,25.0130211 248,18.8888889 C248,12.7647567 243.084264,7.77777778 237.047619,7.77777778 C235.674293,7.77777778 234.390811,8.10763889 233.18006,8.57638889 C231.823847,3.66319444 227.52846,0 222.261905,0 Z" id="Shape-Copy-5" stroke="#DCDCDC" stroke-linecap="round" stroke-linejoin="round" fill-rule="nonzero"></path>
                    <path d="M103.738095,144 C98.5003725,144 94.2380952,148.36198 94.2380952,153.722222 C94.2380952,153.881366 94.259301,154.029658 94.266369,154.185185 C94.2557661,154.185185 94.2486981,154.185185 94.2380952,154.185185 C90.2514881,154.185185 87,157.512731 87,161.592593 C87,165.672454 90.2514881,169 94.2380952,169 L115.952381,169 C120.939174,169 125,164.844184 125,159.740741 C125,154.637297 120.939174,150.481481 115.952381,150.481481 C114.817895,150.481481 113.757627,150.756366 112.75744,151.146991 C111.637091,147.052662 108.088728,144 103.738095,144 Z" id="Shape-Copy-4" stroke="#DCDCDC" stroke-linecap="round" stroke-linejoin="round" fill-rule="nonzero"></path>
                    <path d="M342.214286,56 C338.079241,56 334.714286,59.4895837 334.714286,63.7777778 C334.714286,63.9050926 334.731027,64.0237267 334.736607,64.1481481 C334.728236,64.1481481 334.722656,64.1481481 334.714286,64.1481481 C331.566964,64.1481481 329,66.8101852 329,70.0740741 C329,73.337963 331.566964,76 334.714286,76 L351.857143,76 C355.794085,76 359,72.6753474 359,68.5925926 C359,64.5098378 355.794085,61.1851852 351.857143,61.1851852 C350.961496,61.1851852 350.124442,61.4050926 349.334821,61.7175926 C348.450335,58.4421296 345.648996,56 342.214286,56 Z" id="Shape-Copy-3" stroke="#FF0034" stroke-linecap="round" stroke-linejoin="round" fill-rule="nonzero"></path>
                    <path d="M346,86 L346,120 L0,120" id="Path-4-Copy-3" stroke="#FF0034" stroke-dasharray="6,6"></path>
                    <path d="M106.501171,179 L106.707749,212.5 L0,212.5" id="Path-4-Copy-4" stroke="#DCDCDC" stroke-dasharray="6,6"></path>
                    <path d="M225.742019,40 L225.742019,77 L1.13686838e-13,77" id="Path-4-Copy-5" stroke="#DCDCDC" stroke-dasharray="6,6"></path>
                </g>
            </g>
        </g>
    </g>
</svg>