<?xml version="1.0" encoding="UTF-8"?>
<svg width="112px" height="21px" viewBox="0 0 112 21" version="1.1" xmlns="http://www.w3.org/2000/svg" xmlns:xlink="http://www.w3.org/1999/xlink">
    <!-- Generator: Sketch 50 (54983) - http://www.bohemiancoding.com/sketch -->
    <title>besmart</title>
    <desc>Created with Sketch.</desc>
    <defs></defs>
    <g id="Home-Page-small" stroke="none" stroke-width="1" fill="none" fill-rule="evenodd" opacity="0.5">
        <g id="MadOps_2" transform="translate(-951.000000, -3760.000000)" fill="#FFFFFF" fill-rule="nonzero">
            <g id="clients" transform="translate(0.000000, 3162.000000)">
                <g id="Stacked-Group" transform="translate(66.000000, 70.000000)">
                    <g id="logos" transform="translate(0.000000, 239.000000)">
                        <g id="besmart" transform="translate(885.000000, 289.000000)">
                            <path d="M109.265708,15.305423 C109.244512,15.7335867 109.286904,16.1403422 109.41408,16.5470977 C109.562453,16.8682204 109.880394,17.0394859 110.240727,17.0180777 C110.728236,16.9752614 111.215746,16.8468123 111.660863,16.6541386 L112,20.5290199 C110.919001,20.8073263 109.795609,20.9571836 108.672218,20.9785918 C107.760787,21.0428164 106.870553,20.8715509 106.065102,20.4433872 C105.471612,20.0580399 105.047691,19.4800189 104.814534,18.794957 C104.496593,17.6389151 104.348221,16.4400568 104.411809,15.2411984 L104.411809,10.1032342 L101.783497,10.1032342 L101.783497,5.99286283 L104.411809,5.99286283 L104.411809,3.29543161 L109.20212,3.29543161 L109.20212,5.99286283 L111.830431,5.99286283 L111.830431,10.1032342 L109.20212,10.1032342 L109.20212,15.2840148 L109.265708,15.2840148 L109.265708,15.305423 Z M96.0181681,10.9381534 L95.8062074,11.2592762 C95.1915216,12.7792572 94.9371688,14.4276874 95.0643452,16.0547094 L95.0643452,20.9785918 L90.2528388,20.9785918 L90.2528388,6.31398559 L94.7252082,6.31398559 L94.7252082,8.71170223 C95.000757,7.89819123 95.4670704,7.17031296 96.0605602,6.5708838 C96.5480696,6.22835285 97.0991673,6.03567919 97.6926571,5.99286283 L100.130204,5.99286283 L100.130204,10.1032342 L97.7774413,10.1032342 C97.0991673,10.1246424 96.4632854,10.424357 96.0181681,10.9381534 Z M83.8304315,19.7155089 C83.7668433,19.4157944 83.7032551,19.0946716 83.682059,18.794957 C83.1521575,19.4157944 82.5162755,19.9295908 81.7956094,20.3149381 C80.8629826,20.7431018 79.8667676,20.9357754 78.8493565,20.9143673 C77.5987888,21 76.3694171,20.5718363 75.4579864,19.6941008 C74.6949281,18.9019979 74.2710068,17.8101805 74.3133989,16.7183631 C74.2710068,15.7335867 74.5465556,14.7702184 75.1400454,13.9781156 C75.9666919,13.1217882 77.0264951,12.5437672 78.2134746,12.3725017 C80.01514,11.9657462 81.1809235,11.6660317 81.7108251,11.4947662 C82.2831188,11.3020925 82.8554126,11.0880107 83.4065102,10.8311125 C83.4489023,10.317316 83.321726,9.82492781 83.0461771,9.39676412 C82.7070401,9.07564136 82.2195307,8.92578407 81.7532173,8.99000862 C81.1385314,8.94719225 80.5238456,9.09704954 79.993944,9.41817231 C79.6336109,9.76070326 79.3580621,10.2102751 79.2520818,10.7240715 L74.6949281,10.1460506 C74.8221045,9.37535594 75.0552612,8.62606949 75.4367903,7.94100759 C75.7971234,7.36298662 76.2846329,6.87059838 76.8569266,6.50665925 C77.4080242,6.1641283 78.0227101,5.95004646 78.658592,5.84300554 C79.4640424,5.67174006 80.3118849,5.60751551 81.1385314,5.60751551 C82.3043149,5.58610732 83.4700984,5.69314825 84.5934898,5.90723009 C85.4201363,6.05708738 86.1831945,6.46384288 86.7766843,7.08468022 C87.2218017,7.57706846 87.5609387,8.17649762 87.7305072,8.84015133 C87.9636639,9.54662141 88.0696442,10.2744997 88.0908403,11.0023779 L88.0908403,17.4676496 C88.0696442,18.0028542 88.1120363,18.559467 88.1968206,19.0946716 C88.323997,19.7155089 88.4723694,20.3149381 88.6843301,20.9143673 L84.2119606,20.9143673 C84,20.5076118 83.8940197,20.1222644 83.8304315,19.7155089 Z M83.4065102,14.5347283 L83.4065102,13.6998092 C82.7494322,13.9781156 82.0711582,14.2136056 81.3504921,14.4490956 C80.672218,14.5989529 80.0575322,14.8986675 79.5064345,15.3268312 C79.2520818,15.6051376 79.1037093,15.9904849 79.1037093,16.3758322 C79.0825132,16.7825877 79.2096896,17.167935 79.4852385,17.4676496 C79.8031794,17.7673642 80.2059046,17.9172215 80.651022,17.8958133 C81.1809235,17.8958133 81.7108251,17.7245478 82.1559425,17.4248332 C82.5798637,17.167935 82.9190008,16.7825877 83.1097653,16.3330158 C83.342922,15.7978112 83.4277063,15.1983821 83.4065102,14.6203611 L83.4065102,14.5347283 Z M67.7638153,12.5865836 C67.7850114,12.0941953 67.679031,11.5803989 67.4246783,11.1522352 C67.1915216,10.7026634 66.7464042,10.424357 66.2376987,10.4029488 C65.6866011,10.3815406 65.1355034,10.659847 64.8175625,11.1094189 C64.4148372,11.8158889 64.2452687,12.6079918 64.3088569,13.4215028 L64.3088569,20.9785918 L59.5185466,20.9785918 L59.5185466,12.8862982 C59.5397426,12.4367263 59.4973505,12.0085626 59.4125662,11.5803989 C59.327782,11.237868 59.1370174,10.9167452 58.8826646,10.6812552 C58.6495079,10.4671733 58.331567,10.3387242 58.013626,10.3601324 C57.4413323,10.3387242 56.9114307,10.6170306 56.5934898,11.0880107 C56.1907646,11.8158889 56,12.6508081 56.0635882,13.4857273 L56.0635882,20.9571836 L51.2732778,20.9571836 L51.2732778,6.31398559 L55.7244512,6.31398559 L55.7244512,8.45480402 C56.2331567,7.68410938 56.8902347,7.04186385 57.674489,6.54947562 C58.3951552,6.1641283 59.2218017,5.95004646 60.0484481,5.97145464 C60.8750946,5.92863827 61.7229372,6.14272012 62.4224073,6.59229198 C63.0370931,7.08468022 63.5246026,7.72692575 63.8425435,8.45480402 C64.3936412,7.68410938 65.0931113,7.02045567 65.8985617,6.48525106 C66.5980318,6.12131193 67.3822861,5.95004646 68.1665405,5.97145464 C69.3747161,5.92863827 70.5404996,6.44243469 71.3035579,7.40580299 C72.1514005,8.69029404 72.5541257,10.2530915 72.4269493,11.7944808 L72.4269493,21 L67.7426192,21 L67.7426192,12.5865836 L67.7638153,12.5865836 Z M41.5866768,7.02045567 C43.324754,7.3843948 44.999243,8.00523215 46.5889478,8.79733496 C47.5215746,9.33253957 48.2634368,10.1032342 48.7721423,11.0451943 C49.2384557,11.9657462 49.4716124,12.9933391 49.4504164,14.0423401 C49.4716124,15.305423 49.1536715,16.5256895 48.5389856,17.6175069 C47.9454958,18.6879161 47.0552612,19.5656517 45.9742619,20.1008563 C44.681302,20.7002854 43.2611658,21 41.8410295,20.9357754 C38.9159727,20.9357754 36.9023467,20.2721217 35.7789553,18.9448143 C34.6131718,17.5318741 33.9348978,15.7549949 33.8713096,13.913891 L38.9371688,13.5499519 C38.9795609,14.3206465 39.2127176,15.0913411 39.5942468,15.7549949 C40.1029523,16.5470977 40.993187,17.0180777 41.9470098,16.9752614 C42.6040878,17.0180777 43.2399697,16.7825877 43.7062831,16.3330158 C44.0878123,15.9690767 44.2997729,15.4338721 44.320969,14.8986675 C44.320969,14.3634629 44.1090083,13.8496665 43.7486752,13.4643191 C42.9432248,12.86489 41.989402,12.4581345 41.014383,12.286869 C39.1703255,11.9229299 37.4534444,11.0666025 36.0333081,9.82492781 C35.015897,8.79733496 34.4647994,7.3843948 34.5283876,5.92863827 C34.5283876,4.90104543 34.8039364,3.87345258 35.3126419,2.97430884 C35.8637396,2.03234873 36.6903861,1.28306229 37.6866011,0.812082231 C39.0219531,0.212653072 40.4632854,-0.0656533237 41.9258138,0.0199794134 C43.7274792,-0.108469692 45.5079485,0.383918546 46.9492808,1.45432776 C48.2210447,2.65318608 48.9417108,4.32302445 48.984103,6.07849556 L43.9606359,6.39961833 C43.8970477,5.67174006 43.6003028,4.96526998 43.1127933,4.40865719 C42.6252839,3.9804935 41.989402,3.74500348 41.3535201,3.78781985 C40.8448145,3.74500348 40.336109,3.91626895 39.9333838,4.2587999 C39.6154428,4.55851448 39.4458743,4.96526998 39.4458743,5.39343367 C39.4458743,5.71455643 39.5942468,6.01427101 39.8062074,6.24976104 C40.336109,6.67792472 40.9507949,6.93482293 41.5866768,7.02045567 Z M31.98486,14.7059938 L22.4042392,14.7059938 C22.4254353,15.4124639 22.658592,16.118934 23.0401211,16.7183631 C23.4428463,17.3177923 24.1211204,17.6817314 24.8417865,17.6603233 C25.3080999,17.6603233 25.7744133,17.510466 26.1771385,17.2535678 C26.5162755,17.0180777 26.8130204,16.696955 27.0249811,16.3330158 L31.7940954,16.8682204 C31.2218017,18.1527115 30.3103709,19.2445289 29.1657835,20.0152235 C27.8092354,20.7216936 26.3043149,21.0428164 24.7781983,20.9571836 C23.4216503,21.0214082 22.0862983,20.7431018 20.8781226,20.1436726 C19.8607116,19.5228353 19.0552612,18.6236915 18.5253596,17.5318741 C17.8682816,16.2259749 17.5503407,14.7702184 17.5927328,13.3144618 C17.5079485,11.3020925 18.1650265,9.31113139 19.4579864,7.76974212 C20.7933384,6.31398559 22.679788,5.54329096 24.6298259,5.65033188 C26.0923543,5.56469914 27.5760787,5.8858219 28.8690386,6.59229198 C29.9076457,7.2559457 30.7554883,8.19790581 31.2429977,9.35394776 C31.8364875,10.8525207 32.1120363,12.4581345 32.0484481,14.0637483 L32.0484481,14.6845856 L31.98486,14.7059938 Z M26.325511,9.6964787 C25.9227858,9.22549865 25.3504921,8.94719225 24.7358062,8.99000862 C23.993944,8.99000862 23.2944739,9.39676412 22.9341408,10.0390097 C22.5950038,10.4457652 22.4042392,10.9381534 22.4042392,11.473358 L27.1097653,11.473358 C27.1097653,10.8311125 26.8766086,10.2102751 26.4314913,9.73929507 L26.325511,9.6964787 Z M15.8758516,15.2197902 C15.8970477,16.2045667 15.6850871,17.1893432 15.2611658,18.0670788 C14.8796366,18.8805898 14.3073429,19.5656517 13.5654807,20.0580399 C12.9507949,20.421979 12.2513248,20.6574691 11.5518547,20.7216936 C10.7676003,20.8715509 9.98334595,20.9571836 9.17789553,21 L-2.30926389e-14,21 L-2.30926389e-14,0.747857679 L9.8985617,0.747857679 C11.318698,0.640816757 12.6964421,1.17602136 13.6926571,2.18220602 C14.5828917,3.14557432 15.0704012,4.45147356 15.0280091,5.7573728 C15.0492051,6.8491902 14.7312642,7.94100759 14.0741862,8.81874315 C13.6078728,9.46098868 12.9719909,9.95337692 12.2301287,10.2530915 C13.332324,10.5099897 14.2861469,11.1522352 14.9644209,12.051379 C15.6214989,12.9719309 15.9606359,14.0851565 15.9606359,15.2197902 L15.8758516,15.2197902 Z M9.41105223,5.3506173 C8.92354277,4.96526998 8.33005299,4.79400451 7.71536715,4.85822906 L5.36260409,4.85822906 L5.36260409,8.69029404 L7.67297502,8.69029404 C8.28766086,8.7545186 8.92354277,8.58325312 9.41105223,8.19790581 C9.77138531,7.81255849 9.94095382,7.29876207 9.8985617,6.76355746 C9.96214989,6.24976104 9.81377744,5.7573728 9.49583649,5.37202548 L9.41105223,5.3506173 Z M10.004542,13.0789718 C9.4322483,12.6722163 8.75397426,12.4795427 8.05450416,12.5437672 L5.34140802,12.5437672 L5.34140802,16.6327304 L8.0333081,16.6327304 C8.7327782,16.696955 9.4322483,16.5042813 9.98334595,16.0547094 C10.3860712,15.6479539 10.5768357,15.069933 10.5556397,14.491912 C10.6192279,13.9781156 10.4496593,13.442911 10.0893263,13.0575636 L10.004542,13.0789718 Z" id="path-1"></path>
                        </g>
                    </g>
                </g>
            </g>
        </g>
    </g>
</svg>