<?xml version="1.0" encoding="UTF-8"?>
<svg width="52px" height="52px" viewBox="0 0 52 52" version="1.1" xmlns="http://www.w3.org/2000/svg" xmlns:xlink="http://www.w3.org/1999/xlink">
    <!-- Generator: Sketch 51.1 (57501) - http://www.bohemiancoding.com/sketch -->
    <title>Diesel</title>
    <desc>Created with Sketch.</desc>
    <defs></defs>
    <g id="Home-Page-small" stroke="none" stroke-width="1" fill="none" fill-rule="evenodd">
        <g id="Diesel" fill-rule="nonzero">
            <rect id="base" stroke="#FFFFFF" stroke-width="1.29501916" x="0.647509579" y="0.647509579" width="50.7049808" height="50.7049808" rx="10.7586207"></rect>
            <path d="M39.0368772,28.934751 C37.0690523,32.1320835 34.2132936,34.6107771 30.4636285,36.3768761 C27.0019538,37.9907635 23.2883057,38.8007663 19.3167847,38.8007663 L13.5165175,38.8007663 L15.0765381,34.3156982 L17.0998634,28.4915762 L18.6593378,24.0065081 L19.8807476,20.4939253 L26.2280799,20.4939253 L21.3988151,34.3129543 C26.6996513,34.3129543 29.9406354,33.4627202 32.659464,28.4536439 C33.5953234,26.5839446 34.0633988,25.0249349 34.0633988,23.7764665 C34.0633988,21.7301574 33.4993994,20.2624747 32.3774461,19.37327 C31.3695527,18.5877027 29.8216956,18.1918044 27.7340204,18.1918044 L15.389074,18.1896908 L10.4597701,13.697318 L30.4636285,13.697318 C33.4033662,13.697318 35.8510658,14.3245927 37.8069457,15.5852974 C40.1166954,17.0773043 41.2685475,19.2210956 41.2685475,22.0286107 C41.2685475,24.2088512 40.5247181,26.504854 39.0368772,28.934751 Z" id="Shape" fill="#FFFFFF"></path>
        </g>
    </g>
</svg>