<?xml version="1.0" encoding="UTF-8"?>
<svg width="98px" height="35px" viewBox="0 0 98 35" version="1.1" xmlns="http://www.w3.org/2000/svg" xmlns:xlink="http://www.w3.org/1999/xlink">
    <!-- Generator: Sketch 50 (54983) - http://www.bohemiancoding.com/sketch -->
    <title>eatigo</title>
    <desc>Created with Sketch.</desc>
    <defs></defs>
    <g id="Home-Page-small" stroke="none" stroke-width="1" fill="none" fill-rule="evenodd" opacity="0.5">
        <g id="MadOps_2" transform="translate(-958.000000, -3472.000000)" fill="#FFFFFF" fill-rule="nonzero">
            <g id="clients" transform="translate(0.000000, 3162.000000)">
                <g id="Stacked-Group" transform="translate(66.000000, 70.000000)">
                    <g id="logos" transform="translate(0.000000, 239.000000)">
                        <g id="eatigo" transform="translate(892.000000, 1.000000)">
                            <path d="M43.837419,5.93014538 L49.1218102,5.93014538 L49.1218102,11.0317409 L52.9277706,11.0317409 L52.9277706,15.1611266 L49.1317996,15.1611266 L49.1317996,21.866367 C49.1317996,23.5000803 49.6512482,23.8107865 51.4093822,23.8107865 L52.9277706,23.8107865 L52.9277706,27.9802634 L49.5413649,27.9802634 C45.3258392,27.9802634 43.837419,27.1784409 43.837419,23.1292374 L43.837419,5.93014538 Z M26.5158039,16.2836781 C26.9653268,11.7032672 31.2907358,10.5907385 34.8869189,10.5907385 C40.0014904,10.5907385 42.6287019,12.535158 42.5288079,17.4563434 L42.4588821,21.1647724 C42.4314145,23.4397517 42.5214398,25.7146312 42.7285958,27.9802634 L38.133473,27.9802634 L38.0335791,26.2463223 C36.824862,27.8098761 34.9568447,28.4012202 32.5693787,28.4012202 C28.2839272,28.4012202 25.9264294,25.7952972 25.9264294,22.6782123 C25.8549881,21.2904188 26.46273,19.9549039 27.5547012,19.1000795 C29.2528988,17.7770724 32.04993,17.4362979 34.7470673,17.15566 L37.4442046,16.8750221 L37.4442046,16.4540653 C37.4442046,14.8203521 36.4452649,14.1989396 34.5073218,14.1989396 C32.8091242,14.1989396 31.570439,14.8203521 31.5105026,16.3538375 L26.5158039,16.2836781 Z M37.5740668,20.2927904 L34.8070037,20.5734283 C31.9700148,20.8540662 31.3506722,21.4754786 31.3506722,22.5779845 C31.3506722,23.6804904 32.1098664,24.4823129 33.8380322,24.4823129 C35.5661979,24.4823129 37.5740668,23.5501942 37.5740668,21.2249091 L37.5740668,20.3228588 L37.5740668,20.2927904 Z M53.9966361,11.0016725 L59.2910167,11.0016725 L59.2910167,27.9802634 L53.9966361,27.9802634 L53.9966361,11.0016725 Z M72.746735,25.3041809 C71.5908097,26.7761662 69.808833,27.6125169 67.9418349,27.5593066 C63.4765742,27.5593066 60.3399035,24.752928 60.3399035,19.0599884 C60.3399035,13.3670488 63.6863516,10.660898 68.1815804,10.660898 C69.9355327,10.6036123 71.6146276,11.3754601 72.7167668,12.7456364 L72.7167668,11.0116953 L78.001158,11.0116953 L78.001158,25.9757072 C78.001158,28.7520175 77.2419638,30.8267332 75.7535436,32.2499681 C74.2651234,33.673203 72.0474772,34.3948432 69.1805201,34.3948432 C64.0959169,34.3948432 61.5386311,31.6185329 60.8793309,28.3811746 L65.6842311,28.2809468 C66.2336479,29.7743412 67.3824286,30.285503 69.1405626,30.285503 C70.0733894,30.3450108 70.9989709,30.0872418 71.7677741,29.55384 C72.4762135,28.9108276 72.8455427,27.973302 72.7667138,27.0180764 L72.746735,25.3041809 Z M72.9864806,19.0599884 C72.9864806,16.2135186 71.4281346,14.9306026 69.3603293,14.9306026 C67.292524,14.9306026 65.734178,16.2135186 65.734178,19.0900567 C65.734178,21.6558886 67.2525664,23.2896019 69.3603293,23.2896019 C71.4680921,23.2896019 72.9864806,21.6558886 72.9864806,19.0599884 Z M88.1004388,10.6308296 C92.8753708,10.6308296 97.1608222,13.4372083 97.1608222,19.5511047 C97.1608222,25.665001 92.8753708,28.4312885 88.1004388,28.4312885 C83.3255069,28.4312885 79.1099812,25.6549782 79.1099812,19.5511047 C79.1099812,13.4472311 83.2855493,10.6308296 88.0904494,10.6308296 L88.1004388,10.6308296 Z M88.1004388,24.1615839 C90.2082017,24.1615839 91.7665477,22.4978022 91.7665477,19.5511047 C91.7665477,16.6044071 90.1582547,14.8905115 88.0904494,14.8905115 C86.0226442,14.8905115 84.4642982,16.5542932 84.4642982,19.5410819 C84.4642982,22.5278706 85.9527184,24.1515611 88.0904494,24.1515611 L88.1004388,24.1615839 Z M16.0169472,21.0845901 L25.1572458,21.0845901 C25.2186003,20.5356197 25.2419649,19.9830431 25.2271716,19.4308313 C25.2271716,13.3269577 20.9417201,10.5105563 16.1667882,10.5105563 C11.3918562,10.5105563 7.17633051,13.3169349 7.17633051,19.4308313 C7.06615222,21.7966512 7.92096139,24.1054732 9.5438177,25.8253655 L5.99758162,28.3110152 L16.236714,28.3110152 C20.1625471,28.3110152 23.7487408,26.4367551 24.9075109,22.3675061 L19.6430985,22.3675061 C18.9347735,23.5900705 17.5921391,24.2986719 16.186767,24.1916522 C14.3187497,24.1916522 12.5506263,23.1893741 12.5206581,21.1046357 L16.0169472,21.1046357 L16.0169472,21.0845901 Z M16.236714,14.2891447 C18.1047313,14.2891447 19.8728546,15.2914228 19.9028228,17.3761612 L12.5206581,17.3761612 C12.5506263,15.2312861 14.4186436,14.2891447 16.236714,14.2891447 Z" id="Shape"></path>
                            <path d="M58.7762999,5.74370237 L58.7762999,9.90674461 L53.5032405,5.74370237 L58.7762999,5.74370237 Z M17.3877585,2.75334809 C16.6125425,1.14245275 14.9939159,0.0847391202 13.1817191,0.0048542334 C11.3695223,-0.0750306534 9.66094124,0.836013699 8.74193093,2.37222451 L8.74193093,2.43085891 C8.93365061,2.69065062 9.08457051,2.977245 9.18964352,3.28105767 C9.04003053,3.03240719 8.85585651,2.80545771 8.64243924,2.6067621 L8.5926934,2.5579001 C8.18479853,2.19392031 7.69322782,1.93238367 7.16001312,1.79565293 C6.86135381,1.7178396 6.5536772,1.67842089 6.24468961,1.67838414 C4.47283702,1.66696398 3.01544688,3.04640595 2.96146397,4.78600721 C2.96408791,5.25978065 3.08357187,5.72587171 3.30968487,6.14437076 C3.52631379,6.55330967 3.83204022,6.91032649 4.20511004,7.19001752 C4.3256704,7.27933082 4.45195382,7.3609359 4.58317845,7.43432751 C4.3437288,7.3501569 4.11369533,7.24209557 3.89668582,7.11183832 C3.53891264,6.89745501 3.22234359,6.62289764 2.96146397,6.30072915 L2.86197228,6.24209475 C1.96405572,6.50829619 1.18732832,7.07099809 0.663206017,7.83499589 C-0.325198359,9.25252214 -0.197762148,11.1502915 0.971630244,12.4280237 L1.14076611,12.6039269 C1.48897676,12.9287692 1.89324064,13.190181 2.33466634,13.3759465 C3.28611228,13.7496026 4.33862999,13.7944013 5.31941693,13.5029877 C5.71699505,13.3964135 6.09598804,13.231697 6.44367298,13.0143677 C6.19656101,13.3595637 5.89417269,13.6631798 5.54824781,13.9134284 L6.28448628,15.418378 C6.76353918,13.9455258 7.63625993,12.6259547 8.81157511,11.5973697 C10.7982208,9.98138155 13.317212,9.1334693 15.8953832,9.21290423 L16.1640107,9.21290423 C16.0744682,9.05654584 15.6466539,8.23566427 15.5571114,8.04998868 L15.7162981,7.93271989 C17.4474535,6.60367354 18.4025737,4.82509681 17.3877585,2.75334809 Z" id="Shape"></path>
                        </g>
                    </g>
                </g>
            </g>
        </g>
    </g>
</svg>