<?xml version="1.0" encoding="UTF-8"?>
<svg width="129px" height="33px" viewBox="0 0 129 33" version="1.1" xmlns="http://www.w3.org/2000/svg" xmlns:xlink="http://www.w3.org/1999/xlink">
    <!-- Generator: Sketch 50 (54983) - http://www.bohemiancoding.com/sketch -->
    <title>iotsploit copy</title>
    <desc>Created with Sketch.</desc>
    <defs></defs>
    <g id="Home-Page-small" stroke="none" stroke-width="1" fill="none" fill-rule="evenodd">
        <g id="MadOps_2" transform="translate(-675.000000, -3606.000000)" fill="#FFFFFF" fill-rule="nonzero">
            <g id="clients" transform="translate(0.000000, 3162.000000)">
                <g id="Stacked-Group" transform="translate(66.000000, 70.000000)">
                    <g id="logos" transform="translate(0.000000, 239.000000)">
                        <g id="iotsploit-copy" transform="translate(609.000000, 135.000000)">
                            <path d="M64.5154599,24.24476 C65.5180398,25.141285 66.8073028,25.6436601 68.1471972,25.6599053 C69.2729586,25.6599053 69.920657,25.1778229 69.920657,24.3769439 C69.920657,22.3630832 63.5901766,22.8684922 63.5901766,18.6463827 C63.5901766,16.1193374 65.7877246,14.7586207 68.4710463,14.7586207 C70.0322413,14.7127089 71.5582723,15.2311783 72.773614,16.2204192 L71.6015884,18.4597701 C70.672314,17.746427 69.5386643,17.3562721 68.3708073,17.3478702 C67.268178,17.3478702 66.5973475,17.775524 66.5973475,18.5841785 C66.5973475,20.6213658 72.9278279,20.045977 72.9278279,24.260311 C72.9278279,26.530764 71.030997,28.2258283 68.100933,28.2258283 C66.2558999,28.2569831 64.4677232,27.5818208 63.0966921,26.3363759 L64.5154599,24.24476 Z M29,10.0311021 L32.2307811,10.0311021 L32.2307811,27.9148073 L29,27.9148073 L29,10.0311021 Z M42.640219,14.7819473 C46.5495412,14.7819473 49.6723726,17.5889114 49.6723726,21.515551 C49.6723726,25.4421907 46.5418305,28.2491548 42.640219,28.2491548 C38.7386074,28.2491548 35.7005937,25.4810683 35.7005937,21.515551 C35.7005937,17.5500338 38.7848716,14.7819473 42.640219,14.7819473 Z M42.640219,25.535497 C43.6484354,25.5500353 44.6210745,25.1600453 45.3441148,24.4513413 C46.067155,23.7426373 46.4813525,22.7732884 46.4955664,21.7565923 L46.4955664,21.5233266 C46.5857063,20.0983743 45.8829975,18.740994 44.6720631,18.0009749 C43.4611287,17.2609559 41.9426804,17.2609559 40.731746,18.0009749 C39.5208116,18.740994 38.8181028,20.0983743 38.9082427,21.5233266 C38.8033474,23.6226787 40.4043135,25.4110735 42.4860051,25.5199459 L42.640219,25.5199459 L42.640219,25.535497 Z M54.8462487,12.8458418 L49.0169635,12.8458418 L49.0169635,10.0466531 L63.883183,10.0466531 L63.883183,12.8458418 L58.0616085,12.8458418 L58.0616085,27.9536849 L54.8616701,27.9536849 L54.8462487,12.8458418 Z M75.9889737,15.0774172 L78.8804842,15.0774172 L78.8804842,16.0415822 C78.8963444,16.3472103 78.8963444,16.6534658 78.8804842,16.959094 C79.762276,15.5734727 81.2963694,14.7513572 82.928599,14.7897228 C86.3829902,14.7897228 88.5805382,17.5422583 88.5805382,21.5233266 C88.5805382,25.5043949 86.0976945,28.2569304 82.751253,28.2569304 C81.3098938,28.2649816 79.9471637,27.5951371 79.0655409,26.4452333 C79.1186868,26.8134108 79.144461,27.18508 79.1426479,27.5571332 L79.1426479,33 L75.9735523,33 L75.9889737,15.0774172 Z M82.2423471,25.551048 C83.9926748,25.551048 85.4499961,24.1125761 85.4499961,21.5622042 C85.4499961,19.0118323 84.116046,17.5189317 82.2654792,17.5189317 C80.5922585,17.5189317 79.0346981,18.7319135 79.0346981,21.5855308 C79.0346981,23.5838404 80.1296168,25.551048 82.2115044,25.551048 L82.2423471,25.551048 Z M91.6725268,10 L94.8262009,10 L94.8262009,23.459432 C94.8262009,24.8668019 95.304264,25.224476 96.1293084,25.224476 C96.2884645,25.2358117 96.4482153,25.2358117 96.6073714,25.224476 L96.6073714,28.0314402 C96.2751318,28.0779981 95.9403733,28.1039653 95.6049811,28.1091954 C93.8546534,28.1091954 91.6725268,27.658215 91.6725268,23.9726166 L91.6725268,10 Z M105.227928,14.7508452 C109.13725,14.7508452 112.260082,17.5578093 112.260082,21.484449 C112.260082,25.4110886 109.12954,28.2180527 105.258771,28.2180527 C101.388002,28.2180527 98.2574601,25.4421907 98.2574601,21.484449 C98.2574601,17.5267072 101.372581,14.7819473 105.227928,14.7819473 L105.227928,14.7508452 Z M105.227928,25.5043949 C107.324369,25.5087004 109.028511,23.8006662 109.037011,21.6866126 L109.037011,21.4922245 C109.127151,20.0672722 108.424442,18.7098919 107.213508,17.9698728 C106.002574,17.2298538 104.484125,17.2298538 103.273191,17.9698728 C102.062257,18.7098919 101.359548,20.0672722 101.449688,21.4922245 C101.344792,23.5915766 102.945758,25.3799714 105.02745,25.4888438 L105.227928,25.4888438 L105.227928,25.5043949 Z M115.251831,15.0463151 L118.45948,15.0463151 L118.45948,27.9536849 L115.274963,27.9536849 L115.251831,15.0463151 Z M122.723494,17.775524 L121.073406,17.775524 L121.073406,15.2562542 L122.831444,15.2562542 L122.831444,11.5706558 L125.915722,11.5706558 L125.915722,15.2562542 L128.822654,15.2562542 L128.822654,17.8066261 L125.915722,17.8066261 L125.915722,22.8296146 C125.86112,23.5092066 126.110189,24.1779043 126.594953,24.653207 C127.079717,25.1285097 127.749571,25.3607996 128.421698,25.2866802 C128.615597,25.2933447 128.809618,25.2776925 129,25.240027 L129,28.0469912 C128.677977,28.0924112 128.353549,28.1183759 128.028452,28.1247465 C126.254993,28.1247465 122.723494,27.5960108 122.723494,23.280595 L122.723494,17.775524 Z" id="Shape"></path>
                            <path d="M116.513058,10.0499548 C117.334273,10.0499548 118,10.7103449 118,11.5249774 C118,12.3396099 117.334273,13 116.513058,13 C115.691843,13 115.026116,12.3396099 115.026116,11.5249774 C115.026116,11.1337771 115.182776,10.7585993 115.461632,10.4819789 C115.740487,10.2053585 116.118697,10.0499548 116.513058,10.0499548 Z M30.3551841,5.143403 C29.6762165,5.14317903 29.0833309,5.59921803 28.9144685,6.25158059 L25.6555236,6.25158059 L23.7987725,4.4020704 L0,4.4020704 L0,5.16633081 L23.4751893,5.16633081 L25.3396448,7.015841 L28.9067642,7.015841 C29.1026734,7.75621266 29.8369473,8.22490078 30.5973872,8.09496811 C31.357827,7.96503543 31.8917126,7.27966303 31.8266275,6.5169381 C31.7615424,5.75421316 31.1191167,5.16761535 30.3474798,5.16633081 L30.3551841,5.143403 Z M23.8835205,8.82713817 C23.5599296,8.82932636 23.2459891,8.93671392 22.9898146,9.13284233 L21.5722121,7.71896058 L0,7.71896058 L0,8.48322099 L21.2409245,8.48322099 L22.5044398,9.73660806 C22.2427784,10.3332798 22.4061631,11.0295481 22.9065596,11.4502525 C23.406956,11.8709569 24.1261391,11.9167004 24.6766013,11.5628358 C25.2270636,11.2089711 25.4787511,10.5391034 25.2960507,9.91416807 C25.1133503,9.28923276 24.5394272,8.85687903 23.8835205,8.85006598 L23.8835205,8.82713817 Z M26.9652651,2.94997563 C27.7406646,2.96459293 28.3971725,2.38558267 28.4732815,1.61997337 C28.5493905,0.854364074 28.0195378,0.159301199 27.2561956,0.0233951127 C26.4928534,-0.112510973 25.7524056,0.356386554 25.5553669,1.10046544 L0,1.10046544 L0,1.86472585 L25.5399582,1.86472585 C25.7161048,2.50251737 26.2986387,2.94606729 26.9652651,2.94997563 Z" id="Shape"></path>
                        </g>
                    </g>
                </g>
            </g>
        </g>
    </g>
</svg>
