<?xml version="1.0" encoding="UTF-8"?>
<svg width="76px" height="27px" viewBox="0 0 76 27" version="1.1" xmlns="http://www.w3.org/2000/svg" xmlns:xlink="http://www.w3.org/1999/xlink">
    <!-- Generator: Sketch 51.1 (57501) - http://www.bohemiancoding.com/sketch -->
    <title>kaf</title>
    <desc>Created with Sketch.</desc>
    <defs></defs>
    <g id="Home-Page-small" stroke="none" stroke-width="1" fill="none" fill-rule="evenodd">
        <g id="kaf" fill="#FFFFFF">
            <path d="M8.88337931,13.6399956 L13.4753564,26.9755062 L9.55777859,26.9755062 L5.80943202,16.415959 L5.80943202,10.6626387 L8.77224235,0.304484935 L12.7630696,0.304484935 L8.88337931,13.6399956 Z M17.855163,26.9755062 C17.9966101,26.1590464 18.1456346,25.1874592 18.2997109,24.2539734 C18.4537871,23.3204877 18.612915,22.3489005 18.7796205,21.5324406 L22.2097112,21.5324406 L21.6136129,17.7222947 L19.3403569,17.7222947 C19.6586128,15.8172218 19.9541361,13.9420857 20.2067201,12.1104941 C20.2951245,11.4872631 20.381003,10.7987153 20.4593041,10.1727628 L18.9438001,0.304484935 L18.9109641,0.304484935 C18.0799628,4.93109067 17.2489614,9.21478327 16.4179601,13.6399956 C15.5869587,18.0652079 14.7559573,22.6210538 13.924956,26.9755062 L17.855163,26.9755062 Z M57.9604507,24.1995428 C57.9487069,24.2524858 57.9540522,24.30816 57.9756057,24.3573917 C57.9427698,24.3328979 57.9528731,24.4635314 57.9604507,24.4989114 C57.9680282,24.5342913 57.9604507,24.466253 57.9756057,24.4635314 L57.9756057,24.1913782 L57.9604507,24.1913782 L57.9604507,24.1995428 Z M57.7533318,23.1327019 C57.7533318,23.1653603 57.7356509,23.178968 57.7305992,23.2089048 L57.7760643,23.1599172 C57.7760643,23.1599172 57.7634351,23.1327019 57.7533318,23.1327019 Z M57.8114261,23.1327019 L57.7785902,23.1708034 L57.7937452,23.1708034 L57.8114261,23.1327019 Z M57.8114261,23.1327019 C57.8316328,23.1082081 57.8467879,23.0891574 57.844262,23.0809928 C57.8283589,23.093892 57.8168235,23.1120577 57.8114261,23.1327019 Z M41.4237761,0.304484935 L35.3617601,0.304484935 L35.3617601,4.38678411 L41.4237761,4.38678411 L41.4237761,0.304484935 Z M34.0988401,26.7877204 L34.0988401,0.304484935 L30.3100801,0.304484935 L30.3100801,26.9755062 L34.0988401,26.9755062 L34.0988401,26.7877204 Z M28.2161587,26.9755062 L28.1909003,26.836708 C28.2145836,26.8285161 28.2361929,26.814546 28.2540463,26.795885 C28.2540463,26.7713912 28.2363654,26.7795558 28.2338396,26.7414544 C28.2313138,26.7033529 28.259098,26.7414544 28.2515205,26.7115175 C28.243943,26.6815807 28.195952,26.7115175 28.180797,26.6625299 C28.1656419,26.6135423 28.195952,26.6026562 28.2212104,26.6108208 C28.2212104,26.5727194 28.1782711,26.5944916 28.1631161,26.5754409 C28.1697375,26.5247127 28.185161,26.4757805 28.2085812,26.4311996 C28.180797,26.4311996 28.1934262,26.3903767 28.2085812,26.3740475 C28.2237362,26.3577183 28.1883745,26.3740475 28.1833228,26.3740475 C28.1782711,26.3740475 28.1833228,26.3413891 28.1833228,26.3087307 C28.1833228,26.2760723 28.2136329,26.3087307 28.2161587,26.2842369 C28.2186846,26.2597431 28.2010037,26.1971478 28.1833228,26.1917048 C28.2136329,26.172654 28.1833228,26.1236664 28.2186846,26.1100588 C28.195952,26.0610712 28.2186846,26.0474635 28.2186846,25.9957544 C28.2186846,25.9440453 28.180797,25.9957544 28.1732194,25.9549314 C28.1656419,25.9141084 28.2010037,25.9032223 28.2035295,25.8977792 C28.2060554,25.8923362 28.2035295,25.8215763 28.2464688,25.8297409 C28.2417679,25.789311 28.2460978,25.748256 28.259098,25.7099935 C28.2313138,25.503157 28.3045631,25.4378402 28.2818306,25.2718267 C28.2618251,25.1664815 28.225992,25.065362 28.1757453,24.9724581 C28.147961,24.9098628 28.132806,24.8254953 28.0999701,24.7329632 C28.0671342,24.6404311 28.0469274,24.6213803 28.0241949,24.5587851 C27.9661006,24.4009362 27.9711522,24.262138 27.9155838,24.134226 C27.8726445,24.134226 27.8473861,24.1015676 27.817076,24.0661877 C27.8069494,23.9960703 27.791748,23.9269139 27.7716109,23.8593512 C27.7697005,23.8181479 27.7646316,23.7771854 27.7564558,23.7368822 C27.7564558,23.7042238 27.7210941,23.6933377 27.7135166,23.6634008 C27.7097276,23.6326919 27.7097276,23.6015776 27.7135166,23.5708687 C27.6788642,23.5248416 27.6710603,23.4617785 27.6933098,23.4075767 C27.6933098,23.3776399 27.6731031,23.4075767 27.6731031,23.3694753 C27.642793,23.1190943 27.6554222,22.9149793 27.6352155,22.6782059 C27.6503706,22.6782059 27.6352155,22.6564337 27.6478447,22.6509906 C27.6478447,22.5883954 27.5998538,22.5666231 27.5973279,22.520357 C27.769085,22.5720662 27.7514042,22.310799 27.75393,22.1257348 C27.7842401,22.1257348 27.7892918,22.0957979 27.8044468,22.0794687 C27.7841163,21.8543496 27.7469499,21.6313667 27.6933098,21.4126932 C27.6476906,21.2587341 27.6246805,21.0980395 27.6251122,20.936425 C27.6542702,21.0121402 27.6962387,21.0813545 27.7488783,21.1405399 C27.8221277,21.3609841 27.8625411,21.1187677 27.7867659,20.9908556 C27.7867659,20.941868 27.8196018,20.895602 27.7867659,20.8248421 C27.7153226,20.8109885 27.6463049,20.7852821 27.5821729,20.7486392 C27.5442853,20.5799042 27.5089235,20.4247768 27.4659842,20.2832571 C27.4409472,20.1764442 27.4062618,20.07253 27.3624248,19.9730024 C27.3690949,19.9490357 27.3690949,19.9234876 27.3624248,19.899521 C27.3624248,19.8804702 27.3472698,19.945787 27.3346406,19.899521 C27.3220114,19.8532549 27.3523214,19.8777487 27.3497956,19.8532549 C27.3519697,19.8213538 27.3419299,19.7898842 27.3220114,19.7661659 L27.3220114,19.817875 C27.2686076,19.6677063 27.2354351,19.5100722 27.2235036,19.3497713 C27.2235036,19.3497713 27.2235036,19.3116699 27.2462362,19.3035053 C27.2689687,19.2953407 27.2689687,19.3035053 27.2815979,19.3035053 C27.2942271,19.3035053 27.2613912,19.2790115 27.2588654,19.24091 L27.2058227,19.24091 C27.1004415,18.8686713 27.026056,18.4870546 26.9835488,18.1005878 C27.1047891,18.1005878 27.0264881,17.8828652 27.0214364,17.7413455 C27.0214364,17.7222947 27.0037555,17.7413455 26.9987038,17.703244 C26.9943192,17.6582001 26.9776159,17.6155745 26.9507129,17.580775 C26.933032,17.5453951 26.9229286,17.493686 26.9027219,17.4583061 C26.8736769,17.4130981 26.8475163,17.365816 26.8244209,17.3167864 C26.7478596,17.1453813 26.6983483,16.9614253 26.6779222,16.7724798 C26.6905514,16.7724798 26.6930772,16.7452645 26.7082322,16.7398214 C26.7401119,16.613292 26.7401119,16.4798931 26.7082322,16.3533638 C26.6724996,16.2588908 26.6294063,16.1678478 26.5794144,16.0812105 C26.5165878,15.960975 26.4698198,15.8317897 26.4404932,15.6974744 C26.4556482,15.6974744 26.4606999,15.6974744 26.4708033,15.6811452 C26.4814096,15.6129759 26.4770849,15.5430792 26.4581741,15.4770302 C26.396706,15.3623632 26.3571979,15.2355816 26.3419854,15.1041802 C26.2905975,14.9326676 26.2567194,14.7556289 26.2409518,14.5762028 C26.2409518,14.5408229 26.2662102,14.5272153 26.2409518,14.4727846 C26.2156934,14.4183539 26.2156934,14.4346831 26.1929609,14.4428477 C26.1373924,14.3312649 26.0691947,14.09177 26.127289,13.9992379 C26.1731336,14.1217181 26.2280368,14.2400318 26.2914686,14.3530372 C26.4101831,14.4836707 26.3445113,14.0972131 26.3394596,13.9992379 C26.3621922,14.0264532 26.4000798,13.9992379 26.4076573,13.9747441 C26.4809066,14.0672762 26.4783808,13.8658828 26.5187942,13.8658828 C26.5592077,13.8658828 26.5187942,13.9067058 26.5339493,13.9121488 C26.5265017,13.8422179 26.5138314,13.7730482 26.4960617,13.7053124 C26.4809066,13.7053124 26.4809066,13.6835401 26.4682774,13.6862616 C26.4556482,13.6889832 26.4682774,13.7434138 26.4480707,13.7651861 C26.4279696,13.7569159 26.4098444,13.7438962 26.3950281,13.7270846 C26.2965203,13.7270846 26.2434777,13.4739821 26.1424441,13.550185 C26.0894014,13.4984759 25.9984712,13.5066405 25.970687,13.4059438 C25.9206356,13.217019 25.8909715,13.0225053 25.8822826,12.8262573 C26.0262554,12.8970171 25.907541,12.554104 25.922696,12.4588503 C25.9605836,12.4860657 25.9681611,12.5486609 25.9959454,12.5922054 C26.0515138,12.6792945 26.1298149,12.6983452 26.1853834,12.7881558 C26.1853834,12.8643587 26.1853834,12.9514478 26.1500216,12.9813846 C26.1308376,13.1156251 26.1617092,13.2525924 26.2359002,13.3623992 C26.2623244,13.3629533 26.2872175,13.3758674 26.3040978,13.3977792 C26.3369338,13.3760069 26.379873,13.3678423 26.3975539,13.3270193 C26.3928222,13.2448681 26.3792604,13.1635859 26.3571405,13.0848029 C26.3697697,13.0848029 26.3899764,13.0657522 26.3950281,13.0439799 C26.4000798,13.0222076 26.4177606,13.1174613 26.443019,13.1147397 C26.4606999,13.0303722 26.5112167,12.9868277 26.475855,12.8425865 C26.4455449,12.8017635 26.4228123,12.8425865 26.3975539,12.8425865 C26.2889428,12.8425865 26.2636844,12.4343565 26.1980126,12.2629 C26.2712619,12.2629 26.1980126,12.0696712 26.2182193,12.0152405 C26.2409518,12.0152405 26.2434777,12.0860004 26.2662102,12.0887219 C26.2889428,12.0914434 26.253581,11.9880252 26.2939945,11.9907467 C26.2913008,11.9474815 26.2845304,11.9046237 26.2737878,11.8628347 C26.2737878,11.8465055 26.253581,11.8628347 26.2510552,11.8437839 C26.2378833,11.7676355 26.1905987,11.7034411 26.1247632,11.6723274 C26.1406584,11.6713655 26.1557874,11.6646532 26.1677025,11.6532766 C26.1677025,11.5607445 26.2131676,11.4899847 26.1677025,11.3620726 C26.1383359,11.3397399 26.1104813,11.3151841 26.0843498,11.2885912 C26.0363588,11.3185281 26.0691947,11.4409971 26.048988,11.5063139 C26.0162811,11.4524085 25.993156,11.3924237 25.9807903,11.3294142 C25.922696,11.098084 25.8873342,10.8422599 25.8090332,10.5946004 C25.7660939,10.6816894 25.8292399,10.8449814 25.8241882,10.9674504 C25.8241882,11.0055518 25.8065074,11.0273241 25.8065074,11.062704 C25.8187605,11.1354317 25.8246798,11.2092338 25.8241882,11.2831482 C25.8014557,11.2831482 25.7787231,11.2831482 25.781249,11.225996 C25.781249,11.225996 25.781249,11.2423252 25.7559906,11.225996 C25.7034878,11.1666936 25.6615369,11.0975082 25.6322244,11.021881 C25.5892851,11.021881 25.5412942,11.021881 25.5261391,10.9293489 C25.4737001,10.9073599 25.4250393,10.8760853 25.3821662,10.8368168 C25.2836585,10.5020683 25.2482967,10.1727628 25.1851507,9.857065 C25.2154608,9.84073581 25.2584001,9.83801427 25.2659776,9.79719128 C25.2356675,9.79719128 25.2028316,9.84073581 25.1750474,9.83529274 C25.1548406,9.73459603 25.1321081,9.60124092 25.2028316,9.62845625 C25.2120307,9.55166467 25.2120307,9.47391754 25.2028316,9.39712596 C25.1876766,9.39712596 25.1775732,9.39712596 25.1725215,9.38079677 C25.0981681,9.13476608 25.0424176,8.88265482 25.0058161,8.62693218 C25.0122891,8.64329861 25.0217359,8.65810407 25.0336003,8.67047671 L25.0942205,8.67047671 C25.1144272,8.57522306 25.0487554,8.48541248 25.0285486,8.39832343 L25.053807,8.39832343 C25.0530857,8.35162701 25.0480084,8.30512708 25.038652,8.25952526 C24.9795163,8.22301507 24.9451221,8.15313243 24.9502476,8.0799041 C24.9729802,8.09623329 24.9805577,8.15610701 25.0108678,8.14794241 C25.023497,8.08534716 24.9780318,8.01730884 24.960351,7.96832125 C24.9426701,7.91933366 24.9830835,7.96832125 24.990661,7.93566286 C24.9552993,7.79414315 24.9502476,7.68528184 25.0133936,7.66350958 C25.0247208,7.49787542 24.9960024,7.33190624 24.9300409,7.18179828 C24.923305,7.13007266 24.9096943,7.079661 24.8896274,7.03211397 C24.8896274,7.08110156 24.9047825,7.10831689 24.8744724,7.11920302 C24.8441623,7.13008915 24.8896274,7.19540594 24.8744724,7.20357054 C24.8593174,7.21173514 24.8290073,7.07021543 24.7759646,7.0593293 C24.722922,7.04844317 24.7759646,7.14097529 24.7936455,7.17091215 C24.7582838,7.12736762 24.707767,7.10831689 24.6825086,7.02939244 C24.6764757,6.98624823 24.668041,6.94353383 24.6572502,6.9014804 C24.6129197,6.72321432 24.5833359,6.54106658 24.5688458,6.35717384 C24.6168367,6.35717384 24.659776,6.41432603 24.6951378,6.35717384 C24.7254478,6.43337676 24.7784905,6.45514902 24.8138522,6.51230121 C24.849214,6.5694534 24.834059,6.59939026 24.8668949,6.61571946 C24.8997308,6.63204865 24.8668949,6.56673187 24.8921533,6.55856727 C24.9224634,6.60483333 24.9654026,6.59939026 25.0032902,6.62388406 C25.0209711,6.49869355 24.9022566,6.22381874 24.9451959,6.12856509 C24.9881352,6.15578042 24.975506,6.23470487 25.0184453,6.27824939 C25.0613846,6.32179392 25.0184453,6.245591 25.0437037,6.27824939 C25.0689621,6.31090779 25.0588587,6.32723698 25.0765396,6.32179392 C25.0765396,6.26736326 25.053807,6.2210972 25.0765396,6.19116034 C25.0992722,6.16122348 25.0765396,6.19116034 25.101798,6.19116034 C25.1138975,6.07602181 25.0756268,5.96136644 24.9982386,5.88090561 C24.9628768,5.7638797 24.9451959,5.66590452 24.9073083,5.55160014 C24.9073083,5.55160014 24.9073083,5.51622021 24.9325667,5.51077715 C24.9578251,5.50533408 24.9704543,5.61691693 25.0058161,5.61963846 C25.0136551,5.44008566 24.9330061,5.26939442 24.7936455,5.17058555 C24.7522592,5.06195795 24.716009,4.95114014 24.6850344,4.83855855 C24.6850344,4.88754614 24.6850344,4.91476147 24.6496726,4.92292607 C24.6143109,4.93109067 24.674931,5.05083811 24.6496726,5.07261037 C24.6092592,5.01545818 24.611785,4.89571074 24.5612682,4.86849541 C24.5612682,4.85216622 24.581475,4.86849541 24.5738974,4.84128008 C24.5663199,4.81406476 24.5587424,4.84128008 24.548639,4.84128008 C24.5524141,4.87107878 24.5524141,4.90129197 24.548639,4.93109067 C24.548639,4.93109067 24.548639,4.9093184 24.533484,4.93109067 C24.5629237,5.07513741 24.5798359,5.22182772 24.5840008,5.36925744 C24.5840008,5.35020671 24.5840008,5.36925744 24.5663199,5.36925744 C24.470338,4.93653373 24.3869853,4.41672097 24.3011067,3.9377312 L24.3465718,3.9377312 C24.359201,3.9377312 24.3465718,4.01393412 24.3743561,4.02209872 C24.3895111,3.9540604 24.3339426,3.83431295 24.3743561,3.82614836 C24.4147695,3.81798376 24.4122437,3.89690821 24.4476054,3.91051587 C24.4476054,3.83975602 24.4147695,3.83431295 24.4021403,3.7798823 C24.4161588,3.74897038 24.4161588,3.71281904 24.4021403,3.68190712 C24.4021403,3.68190712 24.4021403,3.70367938 24.422347,3.68190712 C24.4190094,3.58935296 24.4037069,3.49775272 24.3768819,3.40975384 L24.3516235,3.40975384 C24.3530195,3.31830315 24.3623211,3.22719156 24.3794078,3.13760056 C24.4122437,3.13760056 24.4198212,3.09405604 24.4349762,3.06684071 C24.4349762,2.90627028 24.3339426,2.94709327 24.3011067,2.88177648 C24.2682708,2.81645969 24.2707966,2.70215532 24.2278574,2.59057247 C24.1773406,2.61506627 24.1823922,2.70215532 24.1722889,2.77019364 C24.1318754,2.73753524 24.1116687,2.634117 24.0788328,2.56607868 C24.0788328,2.54430642 24.0939878,2.54430642 24.0788328,2.51436955 C24.0366445,2.4552942 24.0080768,2.38627012 23.9954801,2.31297613 C24.0333677,2.31297613 23.9954801,2.25582394 23.9954801,2.20411482 C24.0023326,2.18326557 24.0125983,2.1639087 24.0257902,2.14696263 C24.0234933,2.22948151 24.0319963,2.31193762 24.0510486,2.39190058 C24.0629833,2.39180292 24.0738602,2.39926086 24.0788328,2.41095131 C24.0788328,2.32386226 24.0965137,2.25038087 24.0965137,2.15784876 C24.1116687,2.20411482 24.1268238,2.25310241 24.154608,2.26126701 C24.1417402,2.16800826 24.118854,2.07667748 24.0864103,1.98911373 C24.0662036,1.98911373 24.0636778,2.01905059 24.043471,2.00816446 C24.0030861,1.92445604 23.9914561,1.82806283 24.0106351,1.73601118 L24.0409452,1.73601118 C24.0409452,1.73601118 24.0409452,1.82582176 24.0687294,1.82854329 C24.0351634,1.71898103 24.0214436,1.60349111 24.028316,1.4883517 C24.0662036,1.51284549 24.0889362,1.58904841 24.1217721,1.63259293 L24.1520822,1.63259293 C24.1368973,1.49195748 24.091963,1.35695211 24.0207385,1.23797068 L24.0535744,1.23797068 C24.0557191,1.15552965 24.0355322,1.07420035 23.9954801,1.00391886 C23.9676958,1.02569112 23.9424374,1.13455243 23.8919206,1.06923565 C23.9904284,1.12094477 23.9373858,0.930437475 23.9676958,0.867842221 C23.959561,0.827489721 23.959561,0.785725747 23.9676958,0.745373246 C23.9470009,0.606117117 23.9042838,0.471719355 23.8414038,0.34802946 C23.8590847,0.39701705 23.8414038,0.399738583 23.8414038,0.41606778 C23.8435543,0.4620246 23.8384294,0.508040559 23.8262488,0.552144419 C23.8110938,0.573916681 23.7479478,0.552144419 23.7252152,0.492270697 L23.6620692,0.492270697 C23.6620692,0.456890771 23.6469142,0.448726173 23.6418625,0.413346247 C23.6368108,0.377966321 23.6216558,0.492270697 23.6292333,0.533093689 C23.618709,0.532475853 23.6096471,0.524881653 23.6065007,0.51404296 C23.6065007,0.49499223 23.6065007,0.606575074 23.586294,0.601132009 C23.5660873,0.595688943 23.586294,0.582081279 23.586294,0.560309017 C23.5635614,0.582081279 23.5610356,0.535815222 23.5433547,0.535815222 C23.5433547,0.584802812 23.5585098,0.628347337 23.5433547,0.652841132 C23.5206222,0.609296607 23.5004154,0.61201814 23.475157,0.59296741 C23.4757721,0.622815983 23.4706109,0.652475426 23.460002,0.680056459 C23.4246402,0.680056459 23.381701,0.617461205 23.3438134,0.658284197 C23.3084516,0.620182738 23.2756157,0.582081279 23.2402539,0.546701353 L23.1998405,0.32897873 L20.2370301,0.32897873 L24.3465718,27 L28.2161587,26.9755062 Z M4.8420353,19.5511648 C4.91819388,19.0029945 4.90365633,18.4446237 4.79909602,17.9019159 C4.72332081,17.8039407 4.62986473,17.8148269 4.54651201,17.6869148 C4.65007145,17.656978 4.56671873,17.4147615 4.54651201,17.1426083 C4.58439961,17.1426083 4.61218385,17.1045068 4.62733889,17.0310254 C4.56419289,16.1220335 4.35959985,16.043109 4.21310113,16.3996298 C4.11711921,15.4525364 3.81149257,13.1501197 4.13227425,13.2834748 C4.16258433,13.0630306 4.05144737,13.0113215 4.04892153,12.5677117 C4.11711921,12.5677117 4.11964505,12.3554321 4.15753265,12.2629 C3.99680187,11.2827658 3.89136514,10.293034 3.84180265,9.29915078 C3.94031041,9.07326356 3.98577553,8.85826247 4.11964505,8.85826247 C4.07417993,8.04180264 4.37222905,8.20781614 4.37222905,7.49749608 C4.30231462,6.92780636 4.14167088,6.37539203 3.89737113,5.86457641 C3.95799129,5.59242313 3.91252617,5.54615707 3.85948353,5.13792716 C3.94536209,5.03723044 4.04134401,4.96919212 4.01355977,4.54735454 C3.9092222,4.33887871 3.83350067,4.1151988 3.78876001,3.88330054 L3.78876001,1.36043966 C3.80347057,1.33577183 3.81534484,1.30926947 3.82412177,1.2815152 C3.80896673,1.2815152 3.79633753,1.22436302 3.78876001,1.16176776 L3.78876001,0.304484935 L3.20023929,0.304484935 C2.99059457,0.108534575 2.77842401,-0.0765296541 2.52584001,0.0323316572 C2.53219858,0.122920062 2.53219858,0.213896531 2.52584001,0.304484935 L0,0.304484935 L0,26.9755062 L3.78876001,26.9755062 L3.78876001,26.6706945 C3.83072556,26.6383541 3.88422406,26.6287729 3.93364278,26.6447472 C3.9830615,26.6607214 4.02283058,26.7004507 4.04134401,26.7523405 C4.12469673,26.3985413 4.34949649,26.5237318 4.40759081,26.5019595 C4.39422848,26.4338957 4.38661982,26.364667 4.38485825,26.295123 C4.55661537,26.2298062 4.61976137,26.2624646 4.61470969,26.6053777 C4.65477115,26.3573569 4.67421301,26.1059791 4.67280401,25.8542347 C4.62733889,25.7372088 4.55156369,25.8052471 4.51872777,25.6174613 C4.70521142,25.4814017 4.80327712,25.2426022 4.77131178,25.0023949 C4.57216167,24.779151 4.44468275,24.4929937 4.40759081,24.1859351 C4.47326265,24.2376442 4.43790089,23.9954278 4.48084017,23.9845417 C4.49599521,24.1641628 4.43032337,24.1124537 4.48084017,24.3546701 L4.76878594,24.2811888 C4.70311409,23.9355541 4.80919938,24.0797953 4.8041477,23.9028957 C4.66017481,23.8457435 4.62733889,23.9028957 4.52377945,24.0661877 C4.51477483,23.7881012 4.43528451,23.5179776 4.29392801,23.2851078 C4.44800425,23.4402351 4.54651201,23.1354234 4.69806241,23.2851078 C4.66017481,23.0428913 4.72584665,23.0918789 4.69806241,22.9122578 C4.67280401,22.7789027 4.55661537,22.5639016 4.59450297,22.4768125 C4.62733889,22.6754844 4.72332081,22.4768125 4.69048489,22.269976 C4.57934793,21.9978227 4.62228721,22.2944698 4.54398617,22.3978881 C4.46315929,22.1992162 4.31413473,22.1257348 4.32928977,21.7147833 C4.25495621,21.7582235 4.16763361,21.7680023 4.08659792,21.7419613 C4.00556222,21.7159202 3.93747681,21.6562006 3.89737113,21.5759852 L3.89737113,21.5514914 C3.97314633,21.4644023 3.98072385,21.1487045 4.08175745,21.3201611 C4.12469673,20.3431308 4.58692545,20.5744611 4.66522649,19.6872414 C4.70058825,19.7280644 4.77131178,19.5538863 4.78394098,19.7498367 C4.84961282,20.190725 4.76878594,20.2070542 4.80919938,20.5662965 C4.91528466,20.6397779 5.06178338,20.6261702 5.0441025,20.1390159 C4.99611154,19.8314827 4.89507794,19.8450903 4.8420353,19.5511648 Z M40.4134401,11.4627693 L35.3617601,11.4627693 L35.3617601,15.5450685 L40.4134401,15.5450685 L40.4134401,11.4627693 Z M65.3308518,18.0570433 C65.2222407,18.0298279 65.0479577,18.0026126 65.1894048,17.9645112 C65.4269004,17.952353 65.6648909,17.957809 65.9016916,17.9808404 C66.0001994,17.9590681 66.1542756,17.9672327 66.1542756,18.0026126 C66.0471311,17.9938974 65.9393988,17.9993814 65.833494,18.0189418 C65.9401508,18.0305286 66.0476188,18.0305286 66.1542756,18.0189418 C66.1138622,18.0488787 66.3033002,18.0488787 66.368972,18.035271 C66.353817,18.035271 66.2300508,18.035271 66.2628868,18.0134988 L66.5154708,17.9971696 C66.5154708,17.9835619 66.3765496,17.9971696 66.4093855,17.9753973 L66.5154708,17.9753973 C66.5861943,17.9753973 66.7301672,17.9509035 66.6215561,17.9318528 C66.4739969,17.9506294 66.3255889,17.9606236 66.1770082,17.9617896 C66.3033002,17.9372958 66.591246,17.9617896 66.6821762,17.9400174 C66.7290919,17.9471648 66.7767076,17.9471648 66.8236233,17.9400174 C66.8236233,17.9400174 66.7907873,17.9400174 66.7882615,17.9563466 L67.3591013,17.9563466 C67.3793081,17.9372958 67.5232809,17.9372958 67.5359101,17.9182451 C67.6142112,17.9182451 67.6116853,17.9318528 67.6066337,17.9454604 C67.5456985,17.9333152 67.4827502,17.9428681 67.427299,17.9726758 C67.4749379,17.9705577 67.522605,17.9760606 67.5687461,17.989005 C67.7101931,17.989005 67.6697797,17.9509035 67.7480807,17.9345743 C67.712788,17.9312058 67.6772881,17.9312058 67.6419954,17.9345743 C67.6419954,17.9345743 67.7026156,17.9209666 67.6419954,17.9182451 C67.6571505,17.9182451 67.8364851,17.9182451 67.8188042,17.9019159 C67.7473312,17.896373 67.6755808,17.896373 67.6041078,17.9019159 C67.8415368,17.8774221 68.0915949,17.8747006 68.2103094,17.8420422 L68.3618598,17.8420422 C68.5740304,17.8202699 68.4022733,17.7005225 68.5588753,17.7005225 L68.5816079,17.7005225 L65.9673635,0.271826542 L62.0017947,0.271826542 L65.1111037,18.0461571 L65.2474991,18.0461571 C65.2929642,18.0815371 65.2449732,18.0652079 65.3308518,18.0570433 Z M68.4982552,18.5060962 C68.3340756,18.5060962 68.4426867,18.5333115 68.3568081,18.5387546 C68.2400181,18.510199 68.1203859,18.4974004 68.0006647,18.5006531 C67.7503508,18.5454235 67.4960083,18.5582124 67.2429127,18.5387546 C67.3021613,18.5279123 67.3621503,18.5224501 67.4222473,18.5224254 C67.2984812,18.4462225 67.0635781,18.489767 66.6644953,18.5006531 C66.7074346,18.4652732 66.6821762,18.4543871 66.5230483,18.4407794 C66.4505222,18.4422948 66.3784328,18.4532606 66.3083519,18.4734378 C66.24268,18.4734378 66.1896374,18.4571086 66.1669048,18.4734378 C66.0911296,18.4734378 66.2047924,18.4435009 66.0961813,18.4734378 C65.9875702,18.5033747 66.1466981,18.448944 66.1669048,18.4407794 C66.2854675,18.4499277 66.4044856,18.4499277 66.5230483,18.4407794 C66.6013493,18.4407794 66.5382033,18.4217287 66.5584101,18.4135641 L67.2353352,18.3972349 C67.0933011,18.3842567 66.9505023,18.3842567 66.8084682,18.3972349 C66.7705806,18.3781841 66.9423377,18.3972349 66.9145535,18.3700195 C66.8439236,18.364475 66.7730128,18.364475 66.7023829,18.3700195 C66.7964994,18.3485661 66.8918584,18.3340178 66.9878029,18.326475 C67.0080096,18.3047028 66.9625445,18.2910951 66.9524411,18.2720444 L67.0231646,18.2720444 C67.2956263,18.2516275 67.5690751,18.2516275 67.8415368,18.2720444 L67.5889528,18.2720444 C67.6590059,18.2914786 67.731757,18.2970118 67.8036492,18.2883736 C67.8895277,18.2883736 67.8516401,18.2475506 67.9829838,18.2666013 C68.0040687,18.249125 68.0280807,18.2361889 68.0537073,18.2284998 C68.2178869,18.2284998 67.995613,18.2829305 68.233042,18.2883736 C68.2103094,18.3346396 68.1168533,18.3400827 68.2684037,18.3700195 C68.248197,18.3700195 68.121905,18.3890703 68.1976802,18.3917918 C67.9829838,18.3917918 67.7758649,18.4190071 67.4146698,18.4190071 C67.3742564,18.4652732 67.5990561,18.4190071 67.4853933,18.4625517 L67.8415368,18.4625517 C67.8819502,18.4625517 67.7985975,18.5251469 67.6293662,18.5278684 C67.6293662,18.5115393 67.7051414,18.5060962 67.7354515,18.4952101 C67.7101931,18.4761593 67.6066337,18.5278684 67.5940045,18.4952101 C67.5081259,18.4952101 67.6142112,18.5197038 67.4879192,18.5115393 C67.7600482,18.5512298 68.0363119,18.54388 68.3062913,18.489767 C68.2224284,18.4794592 68.1381125,18.4740083 68.0537073,18.4734378 C68.1294825,18.4734378 68.1648443,18.4353363 68.0183456,18.4353363 C68.0183456,18.4190071 68.2103094,18.4353363 68.1976802,18.408121 C68.2564146,18.415555 68.3157547,18.415555 68.374489,18.408121 C68.3062913,18.408121 68.3492306,18.4298933 68.4098508,18.4353363 C68.4098508,18.4516655 68.3214464,18.4516655 68.2305161,18.4516655 C68.2002061,18.4679947 68.2860846,18.4679947 68.3012397,18.4788809 C68.4199541,18.4516655 68.5235136,18.5060962 68.5866596,18.4625517 C68.5513958,18.4585399 68.515838,18.4585399 68.4805743,18.4625517 C68.5395989,18.4489173 68.5995938,18.4407231 68.6599089,18.4380579 L68.6599089,18.3700195 C68.5759591,18.3798025 68.4912748,18.3798025 68.4073249,18.3700195 C68.4426867,18.3346396 68.5058327,18.2910951 68.3719632,18.244829 C68.3953756,18.2490415 68.4192743,18.2490415 68.4426867,18.244829 C68.5059315,18.2615463 68.5700286,18.2742685 68.6346505,18.2829305 L68.6194955,18.1903984 L68.5866596,18.1903984 C68.4174283,18.1903984 68.1825252,18.2203352 68.0158197,18.2339429 C67.9703546,18.2339429 67.8945794,18.2203352 67.9097345,18.2012845 C67.8256549,18.2079937 67.74123,18.2079937 67.6571505,18.2012845 C67.7411742,18.1931099 67.8257107,18.1931099 67.9097345,18.2012845 C67.9299412,18.2012845 67.8415368,18.2012845 67.8390109,18.1849553 C67.7202965,18.2148922 67.5333843,18.1686261 67.412144,18.1849553 C67.4472645,18.191249 67.4831087,18.191249 67.5182293,18.1849553 C67.4704943,18.1867542 67.4230752,18.1940532 67.3767822,18.2067276 C67.292116,18.2037754 67.2077304,18.1946831 67.1241982,18.1795123 C67.1566139,18.1994168 67.1930012,18.2106186 67.2302835,18.2121706 C67.2050251,18.2257783 67.0635781,18.2121706 67.0181129,18.2339429 C67.0610522,18.2693228 66.9903287,18.2666013 66.8766659,18.2992597 C66.8296362,18.2941484 66.7822485,18.2941484 66.7352189,18.2992597 C66.5861943,18.2720444 66.9120277,18.2720444 66.9499153,18.2557152 C66.8413041,18.2366644 66.6973313,18.2203352 66.5584101,18.2067276 C66.5205225,18.2067276 66.5584101,18.2230568 66.4876865,18.2339429 C66.2704643,18.2339429 66.0406128,18.2475506 65.8107614,18.2339429 C65.89664,18.2339429 66.1618532,18.2339429 66.1315431,18.2067276 C66.0129423,18.1988097 65.8940004,18.1988097 65.7753996,18.2067276 C65.7753996,18.1849553 65.9143208,18.1822338 66.0279836,18.1903984 C65.8611209,18.1602094 65.6913832,18.1528938 65.5228156,18.1686261 C65.5884875,18.2094491 65.3510585,18.2421075 65.1237329,18.239386 C65.1969055,18.2342202 65.2703606,18.2425029 65.3409552,18.2638798 C65.3232743,18.2829305 65.138888,18.2774874 65.2348699,18.3019812 C65.199892,18.2989701 65.1652341,18.2925945 65.1313104,18.2829305 L66.6468145,26.9918354 L69.9304065,26.9918354 L68.6674865,18.5550838 C68.6089455,18.5489768 68.5517549,18.5324217 68.4982552,18.5060962 Z M72.3779454,18.1196385 C72.4815049,18.1196385 72.5497025,18.1359677 72.5547542,18.15774 C72.3175288,18.1427599 72.0796928,18.1427599 71.8424673,18.15774 C71.7894247,18.15774 71.6833394,18.15774 71.7010203,18.1795123 C71.8195743,18.1889185 71.9386098,18.1889185 72.0571637,18.1795123 C72.1152581,18.2094491 71.8854066,18.1931199 71.9864402,18.2176137 C71.8560432,18.2255803 71.725332,18.2255803 71.594935,18.2176137 C71.5545216,18.2176137 71.594935,18.2176137 71.594935,18.2339429 C71.6858653,18.2339429 71.7338562,18.2339429 71.9864402,18.2502721 L71.9864402,18.3101458 C71.7338562,18.3101458 71.6100901,18.3346396 71.7010203,18.3645765 C71.6176676,18.3645765 71.516634,18.3509688 71.5418924,18.3645765 C71.3484312,18.3590132 71.155367,18.3426621 70.963475,18.3155889 C70.9053807,18.3155889 70.9963109,18.3373612 70.963475,18.3536903 C70.8921738,18.3443192 70.8200798,18.3443192 70.7487786,18.3536903 C70.7336236,18.3319181 70.7083652,18.2638798 70.8548639,18.2611582 C70.8187547,18.2571731 70.782362,18.2571731 70.7462528,18.2611582 C70.8035289,18.2426846 70.8633939,18.2353128 70.9230616,18.239386 C70.9230616,18.239386 70.9230616,18.2611582 70.9584233,18.2666013 C71.1332704,18.2733325 71.3083183,18.2623986 71.4812722,18.2339429 C71.3861935,18.2287404 71.290931,18.2287404 71.1958523,18.2339429 C71.152913,18.2176137 71.1554389,18.1876768 71.3372993,18.1903984 C71.2286882,18.1659046 70.8523381,18.1903984 70.7310977,18.1631831 C70.8254118,18.1464643 70.9209583,18.1391759 71.0165177,18.1414108 C70.8618039,18.1262264 70.7058376,18.137246 70.5542889,18.1740692 L70.268869,18.1740692 C70.1653096,18.1740692 70.1602579,18.1903984 70.1627837,18.2067276 C70.2095365,18.2160419 70.257478,18.2160419 70.3042308,18.2067276 C70.3736491,18.1887362 70.445079,18.1814063 70.5164013,18.1849553 C70.3874072,18.2117052 70.2562511,18.2244693 70.1248961,18.2230568 C70.1794093,18.2573281 70.2411307,18.2760615 70.3042308,18.2774874 C70.3042308,18.2965382 70.1829905,18.2965382 70.1627837,18.3101458 C70.24923,18.3477343 70.3427268,18.3626588 70.4355745,18.3536903 C70.3522217,18.3536903 70.2107747,18.3754626 70.2107747,18.3700195 L70.2107747,18.3428042 C70.1275817,18.3599245 70.0426868,18.3654128 69.9581907,18.3591334 L71.2211107,26.9863923 L71.2589983,26.9863923 L72.7972349,18.3237535 L72.7441922,18.3237535 C72.625651,18.3139797 72.50659,18.3139797 72.3880488,18.3237535 C72.3880488,18.3237535 72.3880488,18.3509688 72.352687,18.3564119 C72.2339725,18.3564119 72.3173253,18.321032 72.21124,18.3183104 C72.3905746,18.3183104 72.5244441,18.285652 72.3754196,18.2584367 C72.4170873,18.2676011 72.4600439,18.2676011 72.5017116,18.2584367 L72.5017116,18.2910951 L72.6381069,18.2910951 C72.7189338,18.2910951 72.6381069,18.2502721 72.6734687,18.2366644 L72.8376483,18.2366644 L72.8376483,18.198563 L72.6658912,18.198563 C72.8098641,18.1686261 72.6027452,18.1849553 72.5598059,18.1604615 C72.6442848,18.168649 72.7294256,18.1631447 72.8123899,18.1441323 L72.5976935,18.1441323 C72.5976935,18.1196385 72.4966599,18.1441323 72.4562465,18.1441323 C72.4562465,18.1441323 72.5118149,18.1223601 72.4916082,18.1060309 C72.5981008,18.1207222 72.7058974,18.1207222 72.8123899,18.1060309 C72.7284872,18.0953463 72.6437086,18.0953463 72.5598059,18.1060309 C72.52697,18.0897017 72.52697,18.0897017 72.5598059,18.0733725 C72.6067373,18.066469 72.6543216,18.066469 72.7012529,18.0733725 C72.7012529,18.0407141 72.5370733,18.0733725 72.5244441,18.035271 C72.6962013,18.035271 72.5673834,18.0216634 72.6305294,18.0026126 C72.7144925,17.9930972 72.7991503,17.9930972 72.8831134,18.0026126 L72.6734687,18.0026126 C72.3324803,18.0026126 72.4436173,18.0543217 72.3779454,18.116917 L72.3779454,18.1196385 Z M68.4502642,17.8774221 C68.4205365,17.8691562 68.3900271,17.8645905 68.359334,17.8638144 C68.3997474,17.871979 68.4502642,17.8883082 68.4502642,17.8774221 Z M71.9359234,0.304484935 L70.2183522,11.3266927 L69.5767889,16.0240583 L69.8546313,17.8747006 C69.9329323,17.8747006 69.9859749,17.8610929 69.9405098,17.8474853 C70.1422406,17.8652519 70.3449806,17.8652519 70.5467114,17.8474853 C70.5467114,17.8474853 70.5467114,17.8692575 70.5113497,17.8747006 C70.5954456,17.8809129 70.6798377,17.8809129 70.7639337,17.8747006 C70.7415141,17.8645406 70.7175249,17.8590018 70.6932101,17.8583714 C70.8121249,17.8609718 70.9310738,17.855518 71.0493536,17.8420422 C71.0821895,17.8638144 71.1251288,17.8747006 71.0847153,17.8964728 C70.9897477,17.8877475 70.8942631,17.8877475 70.7992954,17.8964728 C70.6691477,17.8818253 70.5379379,17.8818253 70.4077902,17.8964728 C70.4077902,17.8964728 70.4406261,17.8964728 70.443152,17.8801436 C70.3477612,17.8774649 70.2523232,17.882925 70.1577321,17.8964728 C70.3800864,17.9472271 70.6080009,17.9637207 70.8346572,17.9454604 C70.9028549,17.9454604 70.8624414,17.9236882 70.9761042,17.9291312 C70.9508458,17.9590681 71.152913,17.9645112 71.011466,18.0053342 C70.9528386,17.9961398 70.8932846,17.9961398 70.8346572,18.0053342 C70.9331649,18.0053342 70.9710525,18.0243849 70.9761042,18.0434356 C70.9047664,18.0347383 70.8327457,18.0347383 70.7614078,18.0434356 C70.7310977,18.0652079 70.837183,18.0652079 70.9028549,18.0706509 C71.0197555,18.0422821 71.1391706,18.0276815 71.2589983,18.0271064 C71.2830969,18.0247505 71.3068433,18.0192678 71.3297218,18.0107772 C71.1933265,18.0107772 71.2488949,17.9345743 71.0771378,17.9400174 C71.1823667,17.9146514 71.2901435,17.9036788 71.3979195,17.907359 L71.1832231,17.907359 C71.6064726,17.8287444 72.0384832,17.8213995 72.463824,17.8855867 C72.4178456,17.8994657 72.3700406,17.9049845 72.3223769,17.9019159 C72.4060688,17.915768 72.4903806,17.9248524 72.5749609,17.9291312 C72.5395992,17.9291312 72.7063046,17.9155236 72.716408,17.907359 C72.6811855,17.9025775 72.6455452,17.9025775 72.6103227,17.907359 C72.6305294,17.907359 72.7871315,17.907359 72.716408,17.8747006 C72.7677869,17.8745137 72.8188916,17.8827733 72.8679584,17.8991944 L76,0.304484935 L71.9359234,0.304484935 Z M57.9932866,24.1178968 C57.9932866,24.1587198 57.9629765,24.1178968 57.9655023,24.0797953 L57.9655023,24.2022643 C57.9655023,24.2403658 57.9655023,24.2512519 57.9882349,24.2267581 C58.0109675,24.2022643 57.9983383,24.1641628 57.9932866,24.1178968 Z M57.9250889,23.9219464 C57.9089277,24.0181709 57.8988014,24.1154592 57.8947788,24.2131504 L57.9099339,24.2131504 C57.9225631,24.1940997 57.9099339,24.139669 57.9326664,24.1206183 C57.9326664,24.1614413 57.9528731,24.1206183 57.9604507,24.0906815 C57.9604507,23.9491618 57.9402439,23.8539081 57.9276147,23.9219464 L57.9250889,23.9219464 Z M49.5064642,4.11463083 L61.3779122,4.11463083 L61.3779122,0.304484935 L49.5064642,0.304484935 L49.5064642,4.11463083 Z M57.8215295,24.2920749 C57.7861677,24.2675811 57.8215295,24.1178968 57.8215295,24.0389723 C57.7836419,24.0199216 57.8063744,23.8974526 57.7987969,23.8321358 C57.7533318,23.8321358 57.7684868,23.9927063 57.7356509,24.0280862 C57.7320424,24.0083177 57.7320424,23.987981 57.7356509,23.9682125 C57.6876599,24.1832136 57.6699791,23.4048552 57.6497723,23.5899194 C57.6068331,23.6252993 57.6144106,23.4810581 57.5942039,23.4402351 C57.5739971,23.3994121 57.5714713,23.5382103 57.5411612,23.5436534 L57.5411612,23.4347921 C57.5411612,23.3776399 57.6447207,23.3096015 57.7381767,23.2170694 C57.7103925,23.0183975 57.7962711,22.8578271 57.7533318,22.6890921 C57.7533318,22.6564337 57.7861677,22.6509906 57.7886935,22.59656 C57.7886935,22.6346614 57.8139519,22.59656 57.8392103,22.6128892 C57.8604632,22.5521633 57.8682478,22.4869254 57.8619429,22.4223819 C57.8619429,22.4441541 57.8392103,22.5094709 57.8240553,22.479534 C57.8089003,22.4495972 57.844262,22.4033311 57.8114261,22.4060527 C57.8366845,22.3679512 57.8114261,22.305356 57.8467879,22.2781406 C57.8319528,22.1942701 57.8389464,22.1076122 57.8669946,22.0277596 C57.8947788,22.0549749 57.8493137,22.0957979 57.8669946,22.1121271 C57.8899995,22.0029596 57.9043641,21.8918854 57.9099339,21.7801001 C57.9099339,21.7801001 57.8821496,21.8290877 57.8796238,21.8018724 L57.8796238,21.9216198 L57.8417362,21.9216198 C57.8381854,21.865759 57.8433074,21.8096512 57.8568912,21.7556063 C57.8568912,21.7855432 57.8568912,21.8018724 57.8846755,21.7719355 C57.9124597,21.7419987 57.8669946,21.7147833 57.8568912,21.7338341 C57.8745721,21.5950359 57.8568912,21.4888961 57.8846755,21.3528195 C57.8742181,21.3604211 57.866959,21.3721534 57.8644687,21.3854779 C57.8480234,21.3475286 57.8480234,21.3036797 57.8644687,21.2657304 C57.8846755,21.2657304 57.8796238,21.3256041 57.8973047,21.2929458 L57.8973047,21.2466797 C57.8796238,21.2466797 57.8796238,21.2657304 57.8619429,21.2466797 C57.8605852,21.1187911 57.8715899,20.9910978 57.8947788,20.8656651 L57.9124597,20.8792728 C57.9301406,20.8928804 57.9124597,20.9309819 57.9124597,20.9527542 C57.9154391,20.8822095 57.9354645,20.8137262 57.970554,20.7540823 C57.9452956,20.7812976 57.9402439,20.7377531 57.9250889,20.7132593 C57.9404248,20.6059375 57.9404248,20.4967187 57.9250889,20.3893969 C57.9048822,20.3757892 57.9250889,20.441106 57.9048822,20.4465491 C57.9084351,20.3749332 57.9084351,20.3031639 57.9048822,20.231548 C57.8644687,20.231548 57.8594171,20.3104724 57.8190036,20.3077509 C57.8190036,20.3948399 57.7760643,20.400283 57.7836419,20.5091443 C57.8063744,20.5091443 57.8013227,20.5091443 57.829107,20.5390812 C57.8568912,20.569018 57.829107,20.6016764 57.8493137,20.6016764 C57.8089003,20.8520574 57.8493137,21.0180709 57.8114261,21.186806 C57.7886935,21.145983 57.8114261,21.0126279 57.7886935,20.9799695 C57.7886935,21.0670585 57.7103925,21.2521228 57.7886935,21.3038319 C57.7886935,21.2385151 57.8190036,21.2575658 57.8164778,21.2112998 C57.8467879,21.2793381 57.8164778,21.3936425 57.8316328,21.483453 C57.8316328,21.5133899 57.8063744,21.5106684 57.7937452,21.5269976 C57.7634351,21.728391 57.7508059,21.9107337 57.7331251,22.0713041 C57.7331251,22.0713041 57.7331251,21.9869366 57.7078667,22.019595 C57.7355686,21.878335 57.7457608,21.7337404 57.7381767,21.5895928 L57.702815,21.5895928 C57.7068577,21.6093131 57.7068577,21.6297463 57.702815,21.6494665 C57.6851341,21.6195297 57.702815,21.5269976 57.6826083,21.5025038 C57.6826083,21.2112998 57.7204959,20.8792728 57.7204959,20.5336381 C57.7204959,20.4955366 57.7078667,20.5009797 57.7053408,20.4710429 C57.7482801,20.1417374 57.7684868,19.6817983 57.8089003,19.3824297 C57.7785902,19.3824297 57.7710127,19.3524929 57.7457543,19.3524929 C57.71797,19.4178097 57.7103925,19.5293925 57.6800824,19.5865447 C57.6573499,19.526671 57.6800824,19.3688221 57.7204959,19.3742651 C57.7200662,19.3415235 57.7260927,19.3090565 57.7381767,19.2790115 C57.7558576,19.2790115 57.7381767,19.3143914 57.765961,19.3062268 C57.7937452,19.2980622 57.8013227,19.24091 57.7886935,19.200087 C57.7886935,19.2245808 57.7735385,19.2708469 57.7508059,19.2681254 C57.7356509,19.1973655 57.7836419,19.1592641 57.7836419,19.0803396 C57.7962711,19.0803396 57.8038486,19.1102765 57.8089003,19.1320487 C57.8139519,19.153821 57.8240553,19.0885042 57.844262,19.0993903 C57.844262,19.0231874 57.8265811,18.9932506 57.844262,18.9415414 C57.8619429,18.8898323 57.844262,18.9823644 57.8240553,18.9769214 C57.8038486,18.9714783 57.8089003,18.8598954 57.7912194,18.8163509 C57.7735385,18.7728064 57.8594171,18.7864141 57.8619429,18.8163509 C57.9029613,18.6700803 57.9192173,18.5170505 57.9099339,18.3645765 C57.8804003,18.3897754 57.868346,18.4319871 57.8796238,18.4707163 C57.8796238,18.5197038 57.8543654,18.5251469 57.8493137,18.5741345 C57.8265811,18.5605268 57.8493137,18.5142608 57.8493137,18.4788809 C57.8316328,18.5115393 57.8341587,18.4598301 57.8215295,18.4516655 C57.8192722,18.4163274 57.8192722,18.3808639 57.8215295,18.3455258 C57.7861677,18.4217287 57.7760643,18.2910951 57.781116,18.2339429 C57.809378,18.1880039 57.8150361,18.1300882 57.7962711,18.0788155 C57.7609093,18.1713477 57.7962711,18.2992597 57.71797,18.3237535 C57.7181083,18.2703787 57.7113067,18.2172461 57.6977633,18.1659046 C57.6800824,18.1659046 57.6775566,18.204006 57.6649274,18.2230568 C57.6194623,18.1468539 57.6826083,17.8855867 57.6649274,17.7549531 C57.6421948,17.7549531 57.639669,17.8774221 57.6245139,17.9427389 C57.6043072,17.9427389 57.5942039,17.9209666 57.5992555,17.8801436 C57.5992555,17.8801436 57.5866263,17.912802 57.5739971,17.912802 C57.5613679,17.912802 57.5739971,17.8093838 57.5739971,17.7794469 C57.5686417,17.6675988 57.5737189,17.5554539 57.5891522,17.4446984 C57.5638938,17.4446984 57.5436871,17.5698889 57.5563163,17.6324842 C57.5057995,17.7059655 57.5234803,17.8638144 57.4855927,17.9617896 C57.4855927,17.9617896 57.4855927,17.9236882 57.4628602,17.948182 C57.4828037,17.8511368 57.4979799,17.7530252 57.5083253,17.6542564 C57.4931703,17.6542564 57.4956961,17.6760287 57.4830669,17.6760287 L57.4830669,17.5072937 C57.4830669,17.4855214 57.5032736,17.5072937 57.5032736,17.4746353 C57.5054066,17.4872318 57.5054066,17.5001402 57.5032736,17.5127367 C57.5411612,17.4800783 57.5184287,17.3821031 57.5386354,17.3113433 C57.5108511,17.3440017 57.5184287,17.4093185 57.5007478,17.4501415 C57.4875592,17.3911109 57.4875592,17.3295509 57.5007478,17.2705203 C57.5007478,17.2405834 57.4805411,17.2705203 57.4780152,17.2705203 L57.4780152,17.1752667 C57.4780152,17.1398867 57.4780152,17.2052035 57.5007478,17.1752667 C57.4960897,17.1305451 57.5030869,17.0853095 57.5209545,17.0446331 L57.5613679,17.0446331 C57.5866263,17.0446331 57.5613679,17.1643805 57.591678,17.1453298 C57.591678,17.0691269 57.6118847,17.0609623 57.6118847,16.9902024 C57.6346173,17.0473546 57.5942039,17.0827345 57.5942039,17.1807097 L57.5942039,17.452863 C57.6085769,17.4648757 57.6265841,17.4706964 57.6447207,17.4691922 C57.6848365,17.3479947 57.7020134,17.2193664 57.6952375,17.0908991 C57.7036056,17.0271549 57.7171282,16.9643206 57.7356509,16.9031134 C57.7356509,16.8377966 57.7558576,16.7153276 57.7634351,16.6309601 C57.7861677,16.3588068 57.7962711,16.0567167 57.8240553,15.7736773 C57.8493137,15.7546265 57.8568912,15.6920313 57.8720463,15.6457652 C57.8897271,15.6457652 57.8947788,15.6267145 57.9124597,15.6457652 C57.9184972,15.5451736 57.9184972,15.4442667 57.9124597,15.3436751 C57.9124597,15.3055736 57.9250889,15.3028521 57.9124597,15.2620291 C57.9402439,15.2620291 57.9124597,15.3572828 57.9427698,15.3600043 C57.9355195,15.3003854 57.9355195,15.240002 57.9427698,15.1803831 C57.9427698,15.1450032 57.9200372,15.2048769 57.9225631,15.2375353 C57.9023563,15.1613324 57.9427698,15.0334204 57.9225631,14.9381667 C57.9023563,14.9381667 57.892253,14.9572174 57.8745721,14.9572174 C57.8568912,14.9572174 57.8518395,15.0225342 57.8745721,15.0524711 C57.8973047,15.0824079 57.8619429,15.0524711 57.8518395,15.0524711 C57.8447065,15.0179506 57.8345579,14.9842347 57.8215295,14.9517744 C57.8365205,14.8985041 57.8291379,14.840834 57.8013227,14.7939255 C57.7785285,14.8494501 57.7714975,14.9110022 57.781116,14.9708251 C57.7786793,14.9837013 57.7680514,14.9928623 57.7558576,14.9925974 C57.754395,14.9361528 57.7501795,14.87983 57.7432284,14.8238623 C57.7432284,14.878293 57.7154442,14.8238623 57.7053408,14.8810145 C57.7004003,14.7055601 57.7080002,14.5299563 57.7280734,14.3557587 C57.7103925,14.3394295 57.7280734,14.3938602 57.702815,14.377531 C57.702815,14.1053777 57.7154442,13.7325277 57.702815,13.4767036 L57.6522982,12.7990419 C57.6522982,12.8208142 57.6320915,12.7990419 57.6270398,12.8208142 C57.6270398,12.9351186 57.5942039,12.9405616 57.591678,13.0575876 C57.5739971,13.0575876 57.5689455,13.0330938 57.5462129,13.0412584 C57.5419315,12.950216 57.5470141,12.8589427 57.5613679,12.7691051 C57.5234803,12.7854343 57.5335837,12.6983452 57.5108511,12.7527759 L57.5108511,12.6439146 C57.5108511,12.6221423 57.4704377,12.6439146 57.4451793,12.6602438 C57.4329689,12.5763892 57.4329689,12.4909958 57.4451793,12.4071412 C57.4960795,12.3448708 57.5339792,12.2715517 57.5563163,12.1921401 C57.5563163,12.1921401 57.5563163,12.2193555 57.5714713,12.2166339 C57.6093589,12.1458741 57.5866263,12.0832788 57.5841005,11.9907467 C57.5841005,11.9907467 57.5537904,12.017962 57.5613679,11.9907467 C57.5411612,12.017962 57.5613679,12.058785 57.5436871,12.1077726 C57.5260062,12.1567602 57.5613679,12.1077726 57.5739971,12.1077726 C57.5866263,12.1077726 57.5739971,12.1295449 57.5739971,12.1322664 L57.5386354,12.1322664 C57.5209545,12.1322664 57.5260062,12.1676463 57.5386354,12.1921401 L57.5032736,12.1921401 C57.5032736,12.2656215 57.4477051,12.2629 57.5032736,12.2873938 C57.5032736,12.3554321 57.4729635,12.3418244 57.4679119,12.390812 C57.4554703,12.2832741 57.4554703,12.1744876 57.4679119,12.0669496 C57.4668252,11.8712192 57.4854572,11.6759399 57.5234803,11.4845416 C57.6219881,11.5226431 57.5689455,11.3294142 57.5942039,11.2532113 C57.5335837,11.1661223 57.5942039,11.0028303 57.5942039,10.8912475 C57.5942039,10.9211843 57.5815747,10.8667537 57.5942039,10.8422599 C57.6068331,10.8177661 57.5942039,10.8912475 57.5638938,10.8749183 C57.5611982,10.8911183 57.5611982,10.9077058 57.5638938,10.9239059 C57.5366606,10.6443559 57.5366606,10.3625022 57.5638938,10.0829522 C57.5487387,10.0829522 57.5411612,10.1809274 57.5386354,10.2135858 C57.5412537,10.3337318 57.5344943,10.4539023 57.5184287,10.5728281 C57.5184287,10.5973219 57.5032736,10.5973219 57.4881186,10.5946004 C57.4881186,10.439473 57.5007478,10.1945351 57.5032736,10.020357 C57.4704377,10.1428259 57.5032736,10.3224471 57.4603343,10.4612453 C57.4603343,10.4775745 57.4603343,10.4612453 57.4780152,10.4612453 C57.4780152,10.5401697 57.339094,10.2625734 57.3289907,10.3360548 L57.3289907,5.47539722 L53.5478082,5.47539722 L53.5478082,26.9755062 L57.3593007,26.9755062 L57.4072917,26.8394296 C57.4072917,26.5672763 57.4224467,26.7523405 57.4376018,26.4203135 C57.4376018,26.3958197 57.4628602,26.4801872 57.4729635,26.4203135 C57.4830669,26.3604398 57.4552827,26.3876551 57.4401276,26.3794905 C57.4546423,26.2767987 57.4622397,26.1731095 57.4628602,26.0692358 C57.4628602,26.0420205 57.4830669,26.0692358 57.4931703,26.0692358 C57.5032736,26.0692358 57.4931703,26.0066405 57.4679119,26.0175267 C57.4780418,25.9098484 57.4780418,25.8013425 57.4679119,25.6936643 C57.4679119,25.6664489 57.4805411,25.6283475 57.5057995,25.6365121 C57.450231,25.5385369 57.4906444,25.3371435 57.4729635,25.176573 C57.4906444,25.1629654 57.5007478,25.1384716 57.5209545,25.1330285 C57.5411612,25.1275854 57.5083253,25.1330285 57.4982219,25.1194208 C57.5209545,25.0459395 57.8695204,24.9751796 57.8720463,24.9044198 C57.7433667,24.9120754 57.6151884,24.9275218 57.4881186,24.9506858 C57.465386,24.9343566 57.844262,24.8962552 57.8493137,24.8527106 C57.8265811,24.8527106 57.8316328,24.8772044 57.8089003,24.8527106 C57.8089003,24.8989767 57.4401276,24.9098628 57.4249726,24.9343566 C57.3921367,24.9153059 57.7482801,24.8744829 57.7356509,24.8200522 C57.7508059,24.8200522 57.8013227,24.8499891 57.8139519,24.7792292 C57.8327287,24.7865008 57.8532695,24.7865008 57.8720463,24.7792292 C57.8629397,24.6551396 57.8629397,24.5304689 57.8720463,24.4063793 L57.8720463,24.1995428 C57.8644687,24.221315 57.8417362,24.2458088 57.8215295,24.2920749 Z M57.7305992,23.2034618 L57.7305992,23.2388417 C57.7299883,23.2297819 57.7299883,23.2206862 57.7305992,23.2116264 L57.7305992,23.2034618 Z" id="Слой_1"></path>
        </g>
    </g>
</svg>