<?xml version="1.0" encoding="UTF-8"?>
<svg width="132px" height="29px" viewBox="0 0 132 29" version="1.1" xmlns="http://www.w3.org/2000/svg" xmlns:xlink="http://www.w3.org/1999/xlink">
    <!-- Generator: Sketch 50 (54983) - http://www.bohemiancoding.com/sketch -->
    <title>localize</title>
    <desc>Created with Sketch.</desc>
    <defs></defs>
    <g id="Home-Page-small" stroke="none" stroke-width="1" fill="none" fill-rule="evenodd" opacity="0.5">
        <g id="MadOps_2" transform="translate(-684.000000, -3476.000000)" fill="#FFFFFF" fill-rule="nonzero">
            <g id="clients" transform="translate(0.000000, 3162.000000)">
                <g id="Stacked-Group" transform="translate(66.000000, 70.000000)">
                    <g id="logos" transform="translate(0.000000, 239.000000)">
                        <g id="localize" transform="translate(618.000000, 5.000000)">
                            <path d="M50.4198756,22.8986267 L50.4198756,20.9620571 L42.3185479,20.9620571 L42.3185479,5.44333069 L40.1494828,5.44333069 L40.1494828,22.8986267 L50.4198756,22.8986267 Z M58.560403,23.212665 C54.7188058,23.212665 52.3145408,20.2293011 52.3145408,16.5655208 C52.3145408,12.9017405 54.7188058,9.94454645 58.560403,9.94454645 C62.4020004,9.94454645 64.8062653,12.9017405 64.8062653,16.5655208 C64.8062653,20.2293011 62.4020004,23.212665 58.560403,23.212665 Z M58.560403,21.4592845 C61.2521345,21.4592845 62.7417334,19.1563369 62.7417334,16.5655208 C62.7417334,14.0008746 61.2521345,11.697927 58.560403,11.697927 C55.8686716,11.697927 54.3529394,14.0008746 54.3529394,16.5655208 C54.3529394,19.1563369 55.8686716,21.4592845 58.560403,21.4592845 Z M73.7569256,23.212665 C76.0566573,23.212665 77.4155897,22.2705501 78.3825224,21.0143968 L77.0758565,19.8105833 C76.2395905,20.9358873 75.1681246,21.4592845 73.8614589,21.4592845 C71.1697275,21.4592845 69.4971953,19.3656957 69.4971953,16.5655208 C69.4971953,13.7653459 71.1697275,11.697927 73.8614589,11.697927 C75.1681246,11.697927 76.2395905,12.1951543 77.0758565,13.3466281 L78.3825224,12.1428146 C77.4155897,10.8866614 76.0566573,9.94454645 73.7569256,9.94454645 C69.9937283,9.94454645 67.4587968,12.823231 67.4587968,16.5655208 C67.4587968,20.3339805 69.9937283,23.212665 73.7569256,23.212665 Z M91.1747799,22.8986267 L89.2147813,22.8986267 L89.2147813,21.4592845 C88.1694487,22.6107583 86.7321163,23.212665 85.0334509,23.212665 C82.8905191,23.212665 80.6169207,21.7733228 80.6169207,19.0254876 C80.6169207,16.1991428 82.8905191,14.86448 85.0334509,14.86448 C86.7582497,14.86448 88.195582,15.414047 89.2147813,16.5916907 L89.2147813,14.3149129 C89.2147813,12.6138721 87.8558489,11.6455873 86.0265169,11.6455873 C84.5107846,11.6455873 83.2825188,12.1951543 82.1587863,13.3989679 L81.2441203,12.0381352 C82.6030527,10.6249628 84.2233181,9.94454645 86.28785,9.94454645 C88.9534481,9.94454645 91.1747799,11.14836 91.1747799,14.2102335 L91.1747799,22.8986267 Z M85.7390505,21.7994926 C87.124116,21.7994926 88.4569152,21.2760954 89.2147813,20.2293011 L89.2147813,17.8478439 C88.4569152,16.8010495 87.124116,16.2776524 85.7390505,16.2776524 C83.9097184,16.2776524 82.6291859,17.4291262 82.6291859,19.0516574 C82.6291859,20.6480188 83.9097184,21.7994926 85.7390505,21.7994926 Z M97.2507755,22.8986267 L97.2507755,5.44333069 L95.2907769,5.44333069 L95.2907769,22.8986267 L97.2507755,22.8986267 Z M102.333705,8.45286449 C103.065438,8.45286449 103.666504,7.87712759 103.666504,7.14437153 C103.666504,6.41161548 103.065438,5.80970872 102.333705,5.80970872 C101.628106,5.80970872 101.02704,6.41161548 101.02704,7.14437153 C101.02704,7.87712759 101.628106,8.45286449 102.333705,8.45286449 Z M103.326771,22.8986267 L103.326771,10.2585848 L101.366773,10.2585848 L101.366773,22.8986267 L103.326771,22.8986267 Z M116.458762,22.8986267 L116.458762,21.1975859 L109.3505,21.1975859 L116.354229,11.7502667 L116.354229,10.2585848 L106.841702,10.2585848 L106.841702,11.9857955 L113.793164,11.9857955 L106.841702,21.3807749 L106.841702,22.8986267 L116.458762,22.8986267 Z M125.670755,23.212665 C121.933691,23.212665 119.24196,20.5171695 119.24196,16.5655208 C119.24196,12.9017405 121.855292,9.94454645 125.461689,9.94454645 C129.277153,9.94454645 131.524618,12.9279104 131.524618,16.72254 L131.524618,17.2197673 L121.306492,17.2197673 C121.463291,19.6012245 123.135824,21.5901337 125.853688,21.5901337 C127.291021,21.5901337 128.754487,21.0143968 129.747553,19.9937723 L130.688351,21.2760954 C129.433953,22.5322487 127.735287,23.212665 125.670755,23.212665 Z M129.590752,15.780425 C129.564619,13.8961952 128.31022,11.5670777 125.435555,11.5670777 C122.743824,11.5670777 121.411025,13.8438555 121.306492,15.780425 L129.590752,15.780425 Z M14.1555456,28.3506807 C6.33765362,28.3506807 0,22.0041646 0,14.1753403 C0,6.34651604 6.33765362,0 14.1555456,0 C21.9734375,0 28.3110911,6.34651604 28.3110911,14.1753403 C28.3110911,22.0041646 21.9734375,28.3506807 14.1555456,28.3506807 Z M14.1555456,23.9890375 C19.5679323,23.9890375 23.9555387,19.5952956 23.9555387,14.1753403 C23.9555387,8.75538506 19.5679323,4.36164318 14.1555456,4.36164318 C8.74315884,4.36164318 4.35555248,8.75538506 4.35555248,14.1753403 C4.35555248,19.5952956 8.74315884,23.9890375 14.1555456,23.9890375 Z" id="Localize"></path>
                        </g>
                    </g>
                </g>
            </g>
        </g>
    </g>
</svg>