<?xml version="1.0" encoding="UTF-8"?>
<svg width="144px" height="24px" viewBox="0 0 144 24" version="1.1" xmlns="http://www.w3.org/2000/svg" xmlns:xlink="http://www.w3.org/1999/xlink">
    <!-- Generator: Sketch 50 (54983) - http://www.bohemiancoding.com/sketch -->
    <title>namba-taxi</title>
    <desc>Created with Sketch.</desc>
    <defs></defs>
    <g id="Home-Page-small" stroke="none" stroke-width="1" fill="none" fill-rule="evenodd" opacity="0.5">
        <g id="MadOps_2" transform="translate(-1205.000000, -3611.000000)" fill="#FFFFFF" fill-rule="nonzero">
            <g id="clients" transform="translate(0.000000, 3162.000000)">
                <g id="Stacked-Group" transform="translate(66.000000, 70.000000)">
                    <g id="logos" transform="translate(0.000000, 239.000000)">
                        <g id="namba-taxi" transform="translate(1139.000000, 140.000000)">
                            <g id="Group">
                                <path d="M17.365725,23.0381788 L15.0757393,23.0381788 L4.77080356,7.97101546 C3.72122678,6.41569537 2.67164999,4.86037528 1.90832142,3.20784768 C2.0037375,4.95758279 2.09915357,6.80452539 2.09915357,8.55426049 L2.09915357,23.0381788 L0,23.0381788 L0,0.583245034 L2.28998571,0.583245034 L12.5949214,15.7476159 C13.6444982,17.302936 14.5986589,18.8582561 15.4574035,20.4135762 C15.3619875,18.4694261 15.2665714,16.4280684 15.2665714,14.4839183 L15.2665714,0.583245034 L17.2703089,0.583245034 L17.2703089,23.0381788 L17.365725,23.0381788 Z" id="Shape"></path>
                                <path d="M35.3993624,22.9409713 C34.826866,23.1353863 34.4452017,23.2325938 33.8727053,23.2325938 C31.9643839,23.2325938 31.7735517,21.7744813 31.7735517,20.3163687 C30.5331428,22.3577263 28.4339892,23.4270088 25.7623392,23.4270088 C22.5181928,23.4270088 20.5144553,21.7744813 20.5144553,18.8582561 C20.5144553,15.9420309 22.5181928,14.2895033 26.4302517,13.8034658 C28.9110696,13.5118433 30.3423107,13.5118433 31.1056392,12.9285982 C31.4873035,12.6369757 31.6781356,12.2481457 31.6781356,11.3732782 C31.6781356,8.651468 30.0560624,7.87380795 27.5752446,7.87380795 C24.9035946,7.87380795 23.4723535,9.04029802 23.2815214,11.6649007 L21.468616,11.6649007 C21.6594482,8.16543047 23.9494339,6.22128036 27.8614928,6.22128036 C31.4873035,6.22128036 33.6818731,7.87380795 33.6818731,10.8872406 L33.6818731,19.7331236 C33.6818731,20.7051987 33.6818731,21.3856512 34.7314499,21.3856512 C35.0176981,21.3856512 35.1131142,21.3856512 35.4947785,21.2884437 L35.4947785,22.9409713 L35.3993624,22.9409713 Z M27.3844124,15.3587859 C25.3806749,15.6504084 22.6136089,16.1364459 22.6136089,18.7610486 C22.6136089,20.6079912 24.04485,21.8716888 26.2394196,21.8716888 C29.1019017,21.8716888 31.6781356,20.0247462 31.6781356,16.914106 L31.6781356,14.2895033 C31.1056392,14.8727484 29.483566,15.0671634 27.3844124,15.3587859 Z" id="Shape"></path>
                                <path d="M39.4068374,9.62354305 C40.6472463,7.58218544 42.1739035,6.31848786 44.6547213,6.31848786 C46.944707,6.31848786 48.6621963,7.48497793 49.2346928,9.42912804 C50.2842695,7.48497793 52.0971749,6.31848786 54.4825767,6.31848786 C57.1542267,6.31848786 59.6350445,7.77660045 59.6350445,11.3732782 L59.6350445,22.9409713 L57.7267231,22.9409713 L57.7267231,11.9565232 C57.7267231,9.42912804 56.4863142,8.06822296 54.0054963,8.06822296 C51.1430142,8.06822296 49.616357,10.0123731 49.616357,13.0258057 L49.616357,22.9409713 L47.7080356,22.9409713 L47.7080356,12.1509382 C47.7080356,9.72075056 46.7538749,8.16543047 44.177641,8.16543047 C40.9334946,8.16543047 39.5022535,10.6928256 39.5022535,13.8034658 L39.5022535,23.0381788 L37.5939321,23.0381788 L37.5939321,6.80452539 L39.4068374,6.80452539 L39.4068374,9.62354305 Z" id="Shape"></path>
                                <path d="M65.1691767,9.91516557 C66.1233374,7.58218544 68.2224909,6.31848786 70.7987249,6.31848786 C75.0924481,6.31848786 77.9549302,9.62354305 77.9549302,14.8727484 C77.9549302,20.1219537 75.1878641,23.4270088 70.7033088,23.4270088 C68.0316588,23.4270088 65.9325052,22.1633113 64.9783445,19.8303311 L64.9783445,22.9409713 L63.2608552,22.9409713 L63.2608552,0.583245034 L65.1691767,0.583245034 L65.1691767,9.91516557 Z M65.1691767,14.8727484 C65.1691767,19.1498786 67.2683302,21.8716888 70.6078927,21.8716888 C73.8520391,21.8716888 75.9511927,19.1498786 75.9511927,14.8727484 C75.9511927,10.5956181 73.8520391,7.97101546 70.5124766,7.97101546 C67.2683302,7.97101546 65.1691767,10.6928256 65.1691767,14.8727484 Z" id="Shape"></path>
                                <path d="M95.0344069,22.9409713 C94.4619105,23.1353863 94.0802462,23.2325938 93.5077498,23.2325938 C91.5994284,23.2325938 91.4085962,21.7744813 91.4085962,20.3163687 C90.0727712,22.4549338 88.0690337,23.5242164 85.3973838,23.5242164 C82.1532373,23.5242164 80.1494998,21.8716888 80.1494998,18.9554636 C80.1494998,16.0392384 82.1532373,14.3867108 86.0652963,13.9006733 C88.5461141,13.6090508 89.9773552,13.6090508 90.7406837,13.0258057 C91.122348,12.7341832 91.3131802,12.3453532 91.3131802,11.4704857 C91.3131802,8.7486755 89.691107,7.97101546 87.2102891,7.97101546 C84.5386391,7.97101546 83.107398,9.13750553 82.9165659,11.7621082 L81.1036605,11.7621082 C81.2944927,8.26263798 83.5844784,6.31848786 87.4965373,6.31848786 C91.122348,6.31848786 93.3169177,7.97101546 93.3169177,10.9844481 L93.3169177,19.8303311 C93.3169177,20.8024062 93.3169177,21.4828587 94.3664944,21.4828587 C94.6527427,21.4828587 94.7481587,21.4828587 95.129823,21.3856512 L95.129823,22.9409713 L95.0344069,22.9409713 Z M86.9240409,15.3587859 C84.9203034,15.6504084 82.1532373,16.1364459 82.1532373,18.7610486 C82.1532373,20.6079912 83.5844784,21.8716888 85.779048,21.8716888 C88.6415302,21.8716888 91.2177641,20.0247462 91.2177641,16.914106 L91.2177641,14.2895033 C90.6452677,14.8727484 89.1186105,15.0671634 86.9240409,15.3587859 Z" id="Shape"></path>
                                <polygon id="Shape" points="112.018468 2.43018764 104.289766 2.43018764 104.289766 23.0381788 102.190612 23.0381788 102.190612 2.43018764 94.4619105 2.43018764 94.4619105 0.583245034 112.018468 0.583245034"></polygon>
                                <path d="M124.231725,22.9409713 C123.659228,23.1353863 123.277564,23.2325938 122.705068,23.2325938 C120.796746,23.2325938 120.605914,21.7744813 120.605914,20.3163687 C119.270089,22.4549338 117.266352,23.5242164 114.594702,23.5242164 C111.350555,23.5242164 109.346818,21.8716888 109.346818,18.9554636 C109.346818,16.0392384 111.350555,14.3867108 115.262614,13.9006733 C117.743432,13.6090508 119.174673,13.6090508 119.938002,13.0258057 C120.319666,12.7341832 120.510498,12.3453532 120.510498,11.4704857 C120.510498,8.7486755 118.888425,7.97101546 116.407607,7.97101546 C113.735957,7.97101546 112.304716,9.13750553 112.113884,11.7621082 L110.300978,11.7621082 C110.49181,8.26263798 112.781796,6.31848786 116.693855,6.31848786 C120.319666,6.31848786 122.514235,7.97101546 122.514235,10.9844481 L122.514235,19.8303311 C122.514235,20.8024062 122.514235,21.4828587 123.563812,21.4828587 C123.85006,21.4828587 123.945477,21.4828587 124.327141,21.3856512 L124.327141,22.9409713 L124.231725,22.9409713 Z M116.216775,15.3587859 C114.213037,15.6504084 111.445971,16.1364459 111.445971,18.7610486 C111.445971,20.6079912 112.877212,21.8716888 115.071782,21.8716888 C117.934264,21.8716888 120.510498,20.0247462 120.510498,16.914106 L120.510498,14.2895033 C119.938002,14.8727484 118.315928,15.0671634 116.216775,15.3587859 Z" id="Shape"></path>
                                <path d="M133.105419,14.3867108 L139.40288,23.0381788 L136.922062,23.0381788 L132.723755,17.108521 C132.437507,16.719691 132.246675,16.525276 131.960427,15.8448234 C131.769594,16.2336534 131.38793,16.719691 131.197098,17.0113135 L126.998791,22.9409713 L124.708805,22.9409713 L130.91085,14.4839183 L124.995053,6.80452539 L127.475871,6.80452539 L130.91085,11.5676932 C131.292514,12.0537307 131.578762,12.6369757 131.86501,13.1230133 C132.532923,12.1509382 132.342091,12.4425607 132.914587,11.5676932 L136.444982,6.80452539 L138.734968,6.80452539 L133.105419,14.3867108 Z" id="Shape"></path>
                                <polygon id="Shape" points="143.314939 23.0381788 141.406618 23.0381788 141.406618 6.80452539 143.314939 6.80452539"></polygon>
                            </g>
                            <ellipse id="Oval" cx="141.825165" cy="2.15653626" rx="2.11679351" ry="2.15653626"></ellipse>
                        </g>
                    </g>
                </g>
            </g>
        </g>
    </g>
</svg>