<?xml version="1.0" encoding="UTF-8"?>
<svg width="113px" height="32px" viewBox="0 0 113 32" version="1.1" xmlns="http://www.w3.org/2000/svg" xmlns:xlink="http://www.w3.org/1999/xlink">
    <!-- Generator: Sketch 50 (54983) - http://www.bohemiancoding.com/sketch -->
    <title>namba</title>
    <desc>Created with Sketch.</desc>
    <defs></defs>
    <g id="Home-Page-small" stroke="none" stroke-width="1" fill="none" fill-rule="evenodd" opacity="0.5">
        <g id="MadOps_2" transform="translate(-66.000000, -3607.000000)" fill="#FFFFFF" fill-rule="nonzero">
            <g id="clients" transform="translate(0.000000, 3162.000000)">
                <g id="Stacked-Group" transform="translate(66.000000, 70.000000)">
                    <g id="logos" transform="translate(0.000000, 239.000000)">
                        <g id="namba" transform="translate(0.000000, 136.000000)">
                            <path d="M0.0109395109,7.26423077 C0.754826255,7.26423077 1.50965251,7.28627404 2.25353925,7.25320914 C2.7020592,7.23116586 2.98648649,7.36342549 3.23809524,7.74918272 C3.7960103,8.58682701 3.81788932,8.56478373 4.75868726,8.24515631 C6.48712999,7.64998801 8.21557272,7.08788461 10.0534106,7.01073316 C11.005148,6.96664662 11.9459459,7.0548197 12.8648649,7.34138222 C15.1402831,8.04676688 16.1685972,9.78818525 16.6389961,11.9814907 C16.9124839,13.2600004 16.9890605,14.5605533 16.9890605,15.8721279 C16.9890605,19.0463589 16.978121,22.2316115 17,25.4058425 C17,25.8577295 16.8468468,25.9679459 16.4420849,25.934881 C16.0263835,25.901816 15.5888031,25.8577295 15.1840412,25.9459026 C13.8712999,26.2434867 13.3133848,25.2515396 12.6351351,24.4800251 C12.481982,24.3147006 12.547619,24.0942679 12.547619,23.8958784 C12.5148005,20.6775609 12.6023166,17.470265 12.4929215,14.2519475 C12.4710425,13.6126927 12.3725869,12.9734379 12.1866152,12.3562263 C11.8256113,11.1658897 11.0160875,10.5156132 9.81274131,10.3833536 C8.01866152,10.1959858 6.35585586,10.6809377 4.74774775,11.4414305 C4.45238095,11.5847118 4.50707851,11.8161661 4.50707851,12.0476205 C4.48519949,15.1006135 4.47425997,18.1425848 4.45238095,21.1955778 C4.44144144,22.6063471 4.40862291,24.028138 4.40862291,25.4389074 C4.40862291,25.8026213 4.35392535,25.9569242 3.93822394,25.9459026 C2.62548263,25.9128377 1.31274131,25.9238593 0,25.9128377 C0.0109395109,19.6856137 0.0109395109,13.4694114 0.0109395109,7.26423077 Z" id="Shape"></path>
                            <path d="M53.7587038,14.9756315 C53.7475707,14.2804169 53.7364375,13.7085469 53.6139728,13.14789 C53.2243121,11.3425747 52.0553303,10.5688682 50.2628916,10.9725412 C49.4835704,11.1519514 48.7487818,11.4547061 48.0251264,11.7911003 C47.6465989,11.9592973 47.5241342,12.1835601 47.5241342,12.5984462 C47.5352673,16.8257993 47.5352673,21.0419392 47.5352673,25.2692923 C47.5352673,26.0766382 47.6354658,25.97572 46.8227451,25.9869331 C45.8207607,25.9981462 44.8187763,25.9532937 43.8167919,25.9981462 C43.2935333,26.0205725 43.2156012,25.8411623 43.2156012,25.3702105 C43.2267344,20.133675 43.2267344,14.9083527 43.2267344,9.67181717 C43.2267344,9.27935734 43.1376691,8.96538947 42.9150059,8.64020847 C41.7571573,6.93581147 41.6903583,4.63711816 42.7591417,3 C42.9150059,3.49337808 43.0486038,3.96432988 43.2601339,4.4128554 C44.239852,6.5321385 45.8096275,7.75437056 48.1921238,7.78800997 C49.3388393,7.81043625 50.4855548,7.81043625 51.6322703,7.69830486 C53.5471738,7.51889466 55.3396126,7.79922311 56.7089913,9.34663617 C56.9205213,9.58211207 57.0763855,9.41391499 57.2433829,9.33542303 C58.7908922,8.59535591 60.3829341,8.00105959 62.0863076,7.74315742 C63.0437593,7.59738662 64.0123443,7.59738662 64.9586629,7.81043625 C66.6397701,8.20289608 67.7085534,9.27935734 68.2874778,10.8828361 C68.721671,12.0826419 68.933201,13.3385133 68.9443342,14.6168111 C68.9888668,18.261081 68.9777337,21.9053508 69,25.5496207 C69,25.9420806 68.8441358,26.0093594 68.510141,25.9981462 C67.4524907,25.97572 66.3948405,25.9645068 65.3371903,25.9869331 C64.8918639,25.9981462 64.7471328,25.8748017 64.7471328,25.4038499 C64.7693992,22.6229917 64.758266,19.8309203 64.758266,17.050062 C64.758266,16.074519 64.7359997,15.1101892 64.6135349,14.1458593 C64.268407,11.6004769 62.8990283,10.6137208 60.3940672,11.0958857 C58.4012316,11.4771324 56.7312576,12.4751017 55.1948815,13.7533994 C54.7718214,14.1122199 54.3153618,14.5046797 53.7587038,14.9756315 Z" id="Shape"></path>
                            <path d="M50,20.4475097 C50,19.6484821 50.8451374,19.018138 51.9317427,19.0003818 C53.0304214,18.9826256 53.9359258,19.5863355 53.9962927,20.3587289 C54.0204395,20.6428276 53.9359258,20.7937551 53.4650635,20.6960961 C52.5716325,20.5096563 51.7144217,20.6872181 50.8813576,20.9002921 C50.1328073,21.09561 50,21.0334634 50,20.4475097 Z" id="Shape"></path>
                            <path d="M62,21 C60.8044693,19.5564963 59.4972067,19.4168024 58,20.6624064 C58.5139665,19.5215728 59.3072626,18.9162325 60.0782123,19.0093618 C60.9162011,19.1141322 61.7541899,19.9639368 62,21 Z" id="Shape"></path>
                            <path d="M91.488,12.7944707 C90.5198481,9.09658334 87.9868926,7.13242361 84.0917699,6.8910185 C81.9753448,6.75934299 80.0165259,7.3518828 78.1139949,8.15290884 C77.4835704,8.41625986 77.4835704,8.42723282 77.494828,7.73593638 C77.5060856,5.15729092 77.5173431,2.57864546 77.5286007,0 C76.0313426,0 74.5228268,0 73.0255687,0 C73.0143111,0.142648472 73.0030535,0.296269904 73.0030535,0.438918376 C73.0030535,8.67961089 73.0030535,16.9203034 73.0030535,25.1719689 C73.0030535,25.2487796 73.0143111,25.3146173 73.0030535,25.3914281 C72.9805384,25.6328332 73.0818566,25.7096439 73.3295234,25.7096439 C73.8023417,25.6986709 74.2751601,25.6547791 74.7367209,25.7206168 C75.6035545,25.8413194 76.2227214,25.5669954 76.5717064,24.7879153 C76.7518277,24.4038617 76.9882369,24.4148347 77.3709946,24.5684561 C79.7350864,25.5011577 82.1329509,26.2363459 84.7334519,25.9291031 C87.6941955,25.5889413 89.878166,24.1734296 91.0264392,21.4631086 C92.2084851,18.6320851 92.2535154,15.7132779 91.488,12.7944707 Z M86.9962255,19.4331111 C86.4333465,21.5289463 85.0711793,22.6152693 82.8534361,22.714026 C81.1197687,22.7908367 79.4761621,22.4067831 77.9001009,21.7045137 C77.5961462,21.5728382 77.5173431,21.3862979 77.5173431,21.0680821 C77.5286007,17.9956534 77.5286007,14.9232248 77.5286007,11.8507962 C77.5286007,11.609391 77.5060856,11.3899319 77.7987826,11.2582563 C79.6337682,10.3913926 81.5475568,9.99636602 83.5851788,10.281663 C85.3976492,10.534041 86.4896344,11.609391 86.9737104,13.2992268 C87.277665,14.330685 87.3564681,15.3840891 87.3339529,16.3826284 C87.3339529,17.4579784 87.2664074,18.4565177 86.9962255,19.4331111 Z" id="Shape"></path>
                            <path d="M111.075623,7.24259673 C110.265358,7.15527292 109.713929,7.38449791 109.387572,8.11583476 C109.207514,8.50879188 108.971186,8.53062283 108.554801,8.37780617 C106.304067,7.54823004 104.030826,6.86055509 101.566272,7.02428722 C98.3139619,7.24259673 95.8494084,8.97815732 94.7690562,11.9689976 C93.857509,14.4904724 93.8012406,17.0774401 94.3639241,19.6534923 C95.3767543,24.3471467 98.8991527,26.3446787 103.445635,25.9517216 C105.066163,25.8098204 106.596662,25.3295395 108.104654,24.7728503 C109.083723,24.4126396 109.083723,24.4017241 109.691421,25.2313002 C109.860226,25.4496097 109.950256,25.7443276 110.355388,25.7224966 C111.233174,25.6897502 112.11096,25.7006657 113,25.6897502 C113,19.5443375 113,13.3880094 113,7.24259673 C112.347287,7.2535122 111.705828,7.30808958 111.075623,7.24259673 Z M107.96961,21.7165171 C106.349082,22.4151076 104.683539,22.7971492 102.894205,22.677079 C100.767262,22.5242623 99.4280751,21.4654612 98.9329137,19.4351828 C98.4490059,17.4594817 98.4490059,15.4728652 98.9329137,13.4971641 C99.4505825,11.3795619 100.902306,10.2770989 103.15304,10.2006906 C104.84109,10.1461132 106.416604,10.5390703 107.935849,11.1939988 C108.284713,11.3468155 108.374742,11.543294 108.374742,11.9035047 C108.352235,13.4316713 108.363488,14.9598379 108.363488,16.4880044 C108.374742,16.4880044 108.385996,16.4880044 108.397249,16.4880044 C108.397249,17.99434 108.385996,19.5006756 108.408503,21.0179267 C108.408503,21.3563065 108.318474,21.5637005 107.96961,21.7165171 Z" id="Shape"></path>
                            <path d="M38.9878591,16.5318267 C38.9878591,13.6178535 38.9766166,10.7147941 38.9991017,7.80082088 C38.9991017,7.33152932 38.8641908,7.20056423 38.4032452,7.24421926 C37.9535422,7.28787429 37.5038391,7.29878805 37.0541361,7.24421926 C36.2783984,7.14599544 35.7162696,7.36427059 35.4014775,8.08457857 C35.1991111,8.54295638 34.9068041,8.51021511 34.4795862,8.35742251 C32.2535562,7.52797695 29.9937985,6.82949648 27.542917,7.03685787 C24.2375997,7.3097018 21.9216291,8.89219661 20.7861289,11.9480487 C19.8417526,14.5127816 19.7967823,17.1539109 20.3926388,19.7950402 C21.4157132,24.2915082 24.8334562,26.3542083 29.4316697,25.9503993 C31.2642096,25.7866929 32.9730811,25.2300913 34.6594675,24.5534383 C34.8955616,24.4552145 35.1204131,24.3569907 35.255324,24.6625759 C35.6825419,25.6666416 36.5144925,25.8630892 37.5263243,25.7321241 C37.8411164,25.6884691 38.1671511,25.6993829 38.4819432,25.7321241 C38.9204037,25.7866929 39.0103443,25.6120728 38.9991017,25.2082638 C38.9766166,22.3161181 38.9878591,19.4239724 38.9878591,16.5318267 Z M34.1647941,21.6067239 C32.2647988,22.4798245 30.2861055,22.9272885 28.1725012,22.5671345 C26.4861149,22.2833768 25.4405553,21.2465699 25.0133374,19.6859026 C24.4174809,17.5358924 24.4174809,15.3640547 25.0133374,13.2249583 C25.5529811,11.304137 26.9358179,10.3000713 28.9819667,10.2018475 C30.7470511,10.1145374 32.3884672,10.5183465 33.9849129,11.2168269 C34.2884625,11.347792 34.3784031,11.5333259 34.3671605,11.8498248 C34.3559179,13.3995784 34.3559179,14.9384182 34.3559179,16.4881717 C34.3671605,16.4881717 34.3784031,16.4881717 34.3784031,16.4881717 C34.3784031,18.0160977 34.3784031,19.5440237 34.3784031,21.0719498 C34.4008882,21.2683974 34.4458585,21.4866725 34.1647941,21.6067239 Z" id="Shape"></path>
                            <path d="M61.775967,22.0214888 C61.5645246,21.9448162 61.430982,22.0872082 61.3085679,22.2296001 C61.2417966,22.3172259 61.1638967,22.3938985 61.0859969,22.4815243 C59.349943,24.3873855 57.4469609,26.0741822 55.0098083,27.0709258 C53.6076109,27.6404935 52.1720279,27.9033709 50.6696736,27.5966806 C50.4804883,27.5528677 50.2801743,27.4433354 50.1021175,27.6295403 C49.9018036,27.8376516 50.0464748,28.0457628 50.1132461,28.2429209 C50.8811161,30.3568934 53.2181117,31.9779708 55.5105931,31.9998773 C57.0797187,32.0108305 58.2816022,31.2879176 59.2609146,30.1597354 C60.3292555,28.9329741 60.9190686,27.4542887 61.3530821,25.9098839 C61.653553,24.8036081 61.8538669,23.6754259 61.9874095,22.5362904 C62.0096666,22.3281791 62.0319237,22.1200678 61.775967,22.0214888 Z M58.9381866,29.2287112 C57.8921029,30.9155079 55.5328502,31.6384208 53.5408396,30.9045547 C53.0734405,30.7293031 52.6282985,30.5102386 52.2054136,30.1487821 C53.3739114,29.3711031 54.5201521,28.7248628 55.7999354,28.3086403 C55.9223495,28.2648274 56.0558921,28.1772015 56.1671776,28.2867338 C56.2895916,28.4072193 56.1337919,28.5167515 56.1004063,28.6262838 C56.0225064,28.8672548 55.9446066,29.0972725 55.8110639,29.4915886 C56.3229773,28.976787 56.6679623,28.5605644 57.1131044,28.2319677 C57.6584033,27.8266983 58.7267442,28.0567161 59.0717292,28.637237 C59.2052719,28.8891612 59.0494721,29.0534596 58.9381866,29.2287112 Z" id="Shape"></path>
                        </g>
                    </g>
                </g>
            </g>
        </g>
    </g>
</svg>