<?xml version="1.0" encoding="UTF-8"?>
<svg width="131px" height="40px" viewBox="0 0 131 40" version="1.1" xmlns="http://www.w3.org/2000/svg" xmlns:xlink="http://www.w3.org/1999/xlink">
    <!-- Generator: Sketch 50 (54983) - http://www.bohemiancoding.com/sketch -->
    <title>nambafood</title>
    <desc>Created with Sketch.</desc>
    <defs></defs>
    <g id="Home-Page-small" stroke="none" stroke-width="1" fill="none" fill-rule="evenodd" opacity="0.5">
        <g id="MadOps_2" transform="translate(-369.000000, -3751.000000)" fill-rule="nonzero">
            <g id="clients" transform="translate(0.000000, 3162.000000)">
                <g id="Stacked-Group" transform="translate(66.000000, 70.000000)">
                    <g id="logos" transform="translate(0.000000, 239.000000)">
                        <g id="nambafood" transform="translate(303.000000, 280.000000)">
                            <path d="M32,20.0856974 L30.0270823,38.0153664 L29.4131323,38.0153664 C28.9026571,39.03487 26.9021461,39.9184397 19.4381707,39.9184397 C16.9754727,39.9184397 13.9195197,39.6873522 10.1461421,39.320331 C11.8391864,39.6483003 13.550782,39.8752694 15.2715892,40 C12.146653,39.7757092 9.29075115,39.2863475 7.50408789,38.5047281 C6.62110373,36.927896 6.04164538,33.7130615 5.66223812,30.0496454 L5.72432294,30.1719858 C5.56566173,28.608747 5.37940726,26.6037234 5.25523761,24.6734634 L5.25523761,24.3676123 C5.22074604,23.7491135 5.18625447,23.144208 5.16555953,22.5732861 C5.07588145,20.6022459 5.02759325,18.712766 5,17.0475768 C5.23080231,17.0479813 5.46133709,17.0320816 5.68983137,17 C7.27267521,17.6665774 8.9381532,18.1236646 10.6428206,18.3593381 C12.0219845,18.278051 13.4053349,18.2962239 14.7818089,18.4137116 C16.4449317,18.8459013 18.1484078,19.1100698 19.8658661,19.2021277 C22.149208,19.2904846 24.5774144,18.6787825 26.260603,18.6380024 C27.9437915,18.5972222 30.5237609,18.3253546 31.0273378,18.3593381 C31.5309147,18.3933215 32,20.0856974 32,20.0856974 Z M30.632551,2.69406728 C29.7563599,2.4608087 28.8511355,2.35735831 27.9453636,2.38697153 C26.4116974,2.61308224 24.867541,2.75984311 23.3189688,2.82667681 C22.7160201,2.81372688 22.1275984,2.63775984 21.6152366,2.31717704 C20.0250254,1.47493133 18.351336,0.803538951 16.6217776,0.314075201 C15.2456684,0.111159189 13.857082,0.00620757891 12.4663332,0 L12.2516352,0 C2.0777222,0 0,6.58162032 0,10.6436596 C0,13.4354392 0.955752212,15.3896848 5.40900346,16.7925541 C12.7641401,19.3749502 15.2366295,17.6021701 15.2366295,17.6021701 C16.5378856,18.5449384 18.1084366,19.0349478 19.7106579,18.9980599 C22.2108503,18.9980599 24.5933051,17.8743687 24.5586764,15.2849931 C26.0523953,16.0948705 27.7114808,16.5462974 29.4066949,16.604109 C33.8045402,16.604109 36,12.7095765 36,9.25474925 C35.8279292,6.11993978 33.6533723,3.46195901 30.632551,2.69406728 Z" id="Shape" fill-opacity="0.720000029" fill="#FAFAFA"></path>
                            <path d="M23.6191634,22.789327 C22.2783667,22.8828764 20.9741019,23.2593332 19.7958452,23.8928714 C19.1511544,23.1302536 18.1701718,22.7192829 17.1616964,22.789327 C16.9597429,22.7920391 16.7584417,22.8124309 16.5601979,22.8502589 C15.565934,22.9703352 14.5579936,22.9222442 13.5803603,22.7080844 C12.4948974,22.4914377 11.5062274,20.7853445 11.4647448,20 C10.7614367,21.1298584 10.8640242,22.571556 11.7205545,23.5949821 L11.7205545,33.47272 L14.2786517,33.47272 L14.2786517,25.3484667 C14.9392277,24.9726983 15.6751808,24.7417141 16.4357499,24.6714456 C17.6456607,24.6714456 17.9913496,25.8630028 17.9567807,27.0748706 C18.6868383,26.3837143 19.5047874,25.787542 20.3904299,25.3010753 C21.0766158,24.9564418 21.8320981,24.7645576 22.6028383,24.7391477 C24.2967135,24.7391477 24.4764717,26.3369176 24.4764717,28.3205894 L24.4764717,33.4659498 L27,33.4659498 L27,28.049781 C27,25.1182796 26.5644321,22.7960972 23.6468185,22.7960972 L23.6191634,22.789327 Z M22.8932169,30.5005974 C22.7618552,29.8235763 21.4758928,28.2461171 20.355861,30.392274 C20.6469571,29.9735762 21.1385856,29.7322025 21.6553553,29.7542641 C22.172125,29.7763258 22.6404364,30.0586807 22.8932169,30.5005974 Z M23.2043368,31.2520908 C22.7342001,35.6121067 20.9919284,36.6682597 19.9894309,36.9255277 C19.7950362,36.9737823 19.5953856,36.9987888 19.3948461,37 C17.8890742,36.947396 16.5772501,35.9792253 16.1108024,34.5762644 C16.0905238,34.5051996 16.1126467,34.4290014 16.1680713,34.3790125 C16.2234959,34.3290235 16.3028628,34.3136854 16.3735259,34.339307 C16.6488949,34.4218971 16.9359977,34.460754 17.2239204,34.4544006 C18.2609868,34.4544006 20.3696886,34.0211071 22.858648,31.1099164 C22.9148272,31.0455925 23.0067793,31.0237639 23.0868026,31.0557547 C23.1657695,31.0924437 23.2127745,31.1736712 23.2043368,31.258861 L23.2043368,31.2520908 Z M20.5079641,34.6033453 C20.1455965,34.8529057 19.8278832,35.1594465 19.5676905,35.5105536 C19.5829652,35.2007046 19.7132709,34.9069841 19.9341207,34.6845878 C19.0242026,34.9509773 18.1664723,35.3652155 17.3967648,35.909996 C18.0239669,36.4376805 18.8646405,36.6526228 19.6752244,36.4925495 C20.4858082,36.3324761 21.1757027,35.8152787 21.5450305,35.0908005 C21.3310604,34.7459044 20.9309719,34.5553084 20.5217917,34.6033453 L20.5079641,34.6033453 Z M18.0604873,30.4464357 C18.0861929,30.3696176 18.1024401,30.2900688 18.1088837,30.2094783 C18.1088837,29.6205725 17.6213578,29.1431701 17.019964,29.1431701 C16.4185702,29.1431701 15.9310442,29.6205725 15.9310442,30.2094783 C15.9327148,30.3771414 15.9753888,30.5419717 16.0554922,30.6901633 C16.6646459,30.352018 17.3866693,30.2666868 18.0604873,30.4532059 L18.0604873,30.4464357 Z" id="Shape" fill="#FFFFFF"></path>
                            <path d="M37.9866231,11.0419291 L37.9318052,10.4160719 C37.6583655,8.52220354 36.6822719,6.79426886 35.1909143,5.56399582 C33.6739636,4.30352236 31.8680584,3.42365083 29.9284036,3 C33.8410254,4.34592956 35.2799932,7.45502686 35.2799932,9.30568001 C35.2799932,12.6705039 33.1078371,16.3919992 28.7566727,16.3919992 C27.0794524,16.3362567 25.4379773,15.9009868 23.9601134,15.1200957 C23.9601134,17.6167951 21.6166516,18.7002684 19.1635542,18.7002684 C17.8439789,18.7190964 16.5408206,18.4112853 15.3742724,17.8052252 C15.1137482,17.6523458 14.8819576,17.4565719 14.6890496,17.2264755 C13.8484442,17.6830973 12.9084296,17.9346689 11.9481587,17.9600071 C10.1285856,17.864823 8.32724637,17.5552843 6.58286455,17.0380454 C6.01184559,16.9034524 5.48422407,16.7598866 5,16.6073479 L5,17.1389901 C9.21052154,18.507949 13.5635371,19.4108306 17.9781188,19.8308492 C17.9781188,19.8308492 19.1772586,19.8981457 19.7254368,19.8981457 C20.9492905,19.9242716 22.1704646,19.7746389 23.3502652,19.4539889 C25.0463892,18.926242 26.813088,18.6495342 28.5922192,18.6329719 C29.3685952,18.6306067 30.1436532,18.6959162 30.9082721,18.8281317 C31.1069867,18.8617799 31.7236872,26.9575462 29.4350432,37.4356079 C29.3939298,37.644227 28.5236969,39.6967696 19.3622688,39.6967696 C16.9160236,39.6967696 13.8804868,39.5487173 10.1323184,39.1853163 C11.8140546,39.5100344 13.5142143,39.7347646 15.2235234,39.8582811 C16.5939689,39.9524962 17.9644144,39.9996037 19.3348599,39.9996037 C21.3197217,40.0073424 23.3033628,39.901733 25.2757411,39.6833103 C27.0615465,39.5527554 28.8113565,39.1225595 30.4491728,38.4114068 C31.6209037,32.5633429 32.1485253,23.9022861 32.3883532,17.9398182 L32.0525941,17.9398182 C31.3992997,17.9379089 30.7468722,17.8929435 30.0997092,17.8052252 C28.7465491,17.6251093 27.4089426,17.3461777 26.0980084,16.9707489 C27.4099061,17.3424052 28.7472296,17.6212778 30.0997092,17.8052252 C30.7379822,17.890115 31.3811043,17.93507 32.0251852,17.9398182 L32.4294666,17.9398182 C33.1522366,17.9194298 33.8689641,17.8039982 34.5605093,17.5966061 C37.1095379,16.7755891 38.1853377,14.8374505 37.9866231,11.0419291 Z M45.8598324,29.6359461 L45.8598324,29.4475159 L45.8598324,28.9360627 L45.8598324,28.1688829 L45.8598324,27.172895 C45.8598324,26.809494 45.8598324,26.4191744 45.8598324,25.988477 C45.8598324,25.5577795 45.8598324,25.1203524 45.8598324,24.6425474 L45.8598324,23.2831585 C45.8598324,22.2939003 45.8598324,21.2642642 45.8598324,20.2951949 C45.8598324,19.3261256 45.8598324,18.47819 45.8187191,17.8456031 C45.7776057,17.2130162 45.8187191,16.8496152 45.8187191,16.7554001 C45.7995228,16.3978744 46.0556279,16.0827471 46.4148629,16.0218685 C46.5197089,16.0123931 46.6252193,16.0123931 46.7300653,16.0218685 C47.0247133,15.9992562 47.3009233,16.1647303 47.4152881,16.4323771 C47.4152881,16.4323771 47.5865938,16.7486705 47.894944,17.3476092 C48.2032942,17.9465478 48.5801667,18.7339166 49.0872316,19.7164452 C49.5942964,20.6989738 49.9985778,21.5805576 50.3685981,22.3611968 C50.7386184,23.1418359 51.0538209,23.8551786 51.3964322,24.7367625 C51.3964322,24.3800911 51.3964322,23.8349897 51.3964322,23.121647 C51.3964322,22.4083043 51.3964322,21.8901214 51.3964322,21.5603687 C51.3964322,21.0489155 51.3964322,20.5307326 51.3964322,20.00582 C51.3964322,19.4809075 51.3964322,19.0367508 51.3964322,18.6598905 L51.3964322,17.636984 L51.3964322,16.9236413 L51.3964322,16.6544554 C51.3904876,16.4522505 51.4950128,16.2623382 51.6705213,16.1564615 C51.8379881,16.0582524 52.0305946,16.0092106 52.2255518,16.0151389 L52.3146307,16.0151389 C52.5422536,16.0156231 52.7635325,16.0888506 52.9450356,16.223758 C53.1036074,16.3504629 53.1818533,16.5502629 53.1506025,16.7486705 L53.1506025,16.8294263 L53.1506025,17.408176 C53.1506025,17.5427689 53.1506025,17.6975508 53.1506025,17.8792513 L53.1506025,18.4512714 L53.1506025,19.1242362 C53.1506025,19.3732331 53.1506025,19.6155005 53.1506025,19.8712271 L53.1506025,20.6922441 C53.1506025,20.9883486 53.1506025,21.2822099 53.1506025,21.573828 C53.1506025,22.560843 53.1506025,23.682451 53.1506025,24.9386519 C53.1506025,26.2038257 53.1848636,27.26711 53.2054203,28.1486939 C53.225977,29.0302778 53.2054203,29.4946235 53.2054203,29.5753792 C53.2122947,29.6739653 53.2122947,29.7728977 53.2054203,29.8714838 C53.1931681,29.9543361 53.165282,30.0342157 53.1231936,30.1070214 C53.0768567,30.1906398 53.0014709,30.2551238 52.9107745,30.2887219 C52.7896957,30.331071 52.6624102,30.3537998 52.533902,30.3560184 L52.444823,30.3560184 C52.2311173,30.3710641 52.0169336,30.3340791 51.8212703,30.248344 C51.6513729,30.1494764 51.5263605,29.9905897 51.4718067,29.8041873 C51.4718067,29.8041873 51.3621711,29.5215421 51.149752,28.9764406 L50.4645293,27.287299 C50.3206325,26.6479824 50.032839,25.9750177 49.6970798,25.1405413 C49.3613207,24.306065 49.0461182,23.6331002 48.7720291,23.0341616 C48.406577,22.2131445 48.0411248,21.4437215 47.6756727,20.7258924 C47.6756727,21.2440752 47.6756727,22.0718219 47.6756727,23.2629696 C47.6756727,23.6331002 47.6756727,24.0032309 47.6756727,24.3800911 L47.6756727,25.4433755 C47.6756727,25.7798579 47.6756727,26.1096106 47.6756727,26.4326337 C47.6756727,26.7623865 47.6756727,27.058491 47.6756727,27.3344065 L47.6756727,28.1150457 L47.6756727,28.7880105 L47.6756727,29.2725451 L47.6756727,29.7032426 C47.6717923,29.7721141 47.657949,29.8400925 47.6345593,29.905132 C47.6051946,29.971076 47.5659289,30.0323236 47.5180715,30.0868325 C47.4472791,30.1628242 47.3536719,30.2146837 47.2508346,30.2348847 C47.0982656,30.2704288 46.9416256,30.2862651 46.7848831,30.2819923 C46.6250317,30.2861145 46.4655061,30.265679 46.3120794,30.2214254 C46.2082113,30.1958522 46.1148952,30.1394542 46.0448426,30.0599139 C46.000578,30.0028833 45.9658792,29.9392709 45.9420592,29.8714838 C45.933385,29.802205 45.933385,29.7321435 45.9420592,29.6628647 L45.8598324,29.6359461 Z M54.9869994,29.4946235 C54.9869994,29.4475159 55.0418172,29.198519 55.1583051,28.7476326 L55.6996311,26.5739563 L56.4876372,23.3437254 L56.9809976,21.324831 C57.1591555,20.6518662 57.3304612,19.9789015 57.5017669,19.4338 C57.6730726,18.8886985 57.8238216,18.3705156 57.9745706,17.9061699 C58.1253196,17.4418242 58.2349553,17.0851529 58.317182,16.8361559 L58.4473743,16.4458363 C58.5789119,16.1397384 58.8905742,15.9464203 59.2285282,15.9613017 L59.3244594,15.9613017 C59.6959771,15.9230559 60.0399714,16.1578265 60.1330223,16.5131328 C60.306612,17.0694504 60.5738489,18.0788976 60.9347329,19.5414743 C61.2956169,21.0040511 61.6108193,22.3499807 61.8803403,23.579263 L62.4627796,26.6479824 L62.8807655,28.7947401 C62.9698444,29.2388969 63.0109578,29.4677049 63.0109578,29.4677049 L63.0109578,29.6426757 C63.0104865,29.7913669 62.9598865,29.9357183 62.867061,30.0531842 C62.7247832,30.2085116 62.5246037,30.300743 62.3120306,30.3089109 L62.1749861,30.3089109 C61.9909954,30.3133415 61.8097886,30.2641669 61.6542168,30.1675883 C61.4578291,30.0641504 61.3249248,29.8733804 61.2979009,29.656135 C61.1928334,28.9876567 60.8730628,27.3658115 60.3385891,24.7905996 L57.8169694,24.898274 L57.2276778,27.4218919 L56.8302486,29.1177632 C56.7480219,29.4609752 56.7069085,29.6426757 56.7069085,29.656135 C56.6829784,29.8888981 56.5376802,30.0927538 56.3231838,30.1945068 C56.1943454,30.2529716 56.0539739,30.2828413 55.9120501,30.2819923 C55.8140863,30.2917536 55.7153682,30.2917536 55.6174044,30.2819923 C55.1788618,30.2012365 54.9321816,29.9926174 54.9321816,29.6494054 L54.9321816,29.4744345 L54.9869994,29.4946235 Z M58.2349553,23.1754842 L60.0028299,23.101458 C59.7150364,21.822825 59.4546517,20.7281356 59.221676,19.8173899 C58.8699283,20.8851607 58.5387373,22.0045254 58.228103,23.1754842 L58.2349553,23.1754842 Z M64.40196,29.5888385 C64.40196,28.8216587 64.40196,27.993912 64.40196,27.1055985 C64.40196,26.217285 64.4430733,25.3693494 64.46363,24.5617916 L64.5390045,22.1525777 C64.5390045,21.3517496 64.5938223,20.6249476 64.6212313,19.9721718 L64.6966058,18.2359227 C64.6966058,17.7311991 64.7377191,17.3408795 64.7514236,17.0515047 L64.7514236,16.6208072 C64.755802,16.4423259 64.8322147,16.2728679 64.9638426,16.1497318 C65.0945885,16.0342736 65.2611725,15.9655125 65.4366463,15.9545721 L65.5394297,15.9545721 C65.9166984,15.903656 66.2885867,16.0783339 66.4850371,16.3987288 L66.5535594,16.5535107 L66.7385695,16.9505599 L67.0126586,17.5494986 C67.1154421,17.7783066 67.2319299,18.0542222 67.3689745,18.3839749 C67.506019,18.7137277 67.6362113,19.0569397 67.7801081,19.4203407 C67.9240049,19.7837417 68.0747539,20.2077095 68.2460596,20.6855145 C68.4173653,21.1633195 68.5818187,21.6478541 68.73942,22.1525777 C68.890169,21.6680431 69.0546224,21.1902381 69.2190759,20.7191627 C69.3835294,20.2480874 69.5411306,19.8308492 69.6850274,19.4674482 C69.8289241,19.1040472 69.9659687,18.7541056 70.096161,18.4310825 C70.2263533,18.1080594 70.3496934,17.8254142 70.4593291,17.5898765 L70.7402704,16.9842082 L70.938985,16.587159 L71.0143595,16.4323771 C71.0862732,16.2763251 71.2092939,16.1483981 71.3638231,16.0689761 C71.561908,15.9918358 71.7745612,15.9574102 71.9873758,15.9680314 C72.1887041,15.9516498 72.3883974,16.0146023 72.5424062,16.1430022 C72.6593531,16.2785961 72.7247454,16.4498561 72.7274164,16.6275368 L72.7274164,17.0716936 C72.7274164,17.3588252 72.7411208,17.7536312 72.7685297,18.2561116 C72.7685297,18.7541056 72.8027909,19.3261256 72.8233475,19.9789015 C72.8439042,20.6316773 72.8644609,21.324831 72.8850176,22.1458481 C72.9055743,22.9668651 72.926131,23.7407746 72.9398354,24.555062 C72.9535399,25.3693494 72.9398354,26.217285 72.9809488,27.1055985 C73.0220621,27.993912 72.9809488,28.8283883 72.9809488,29.6022978 C72.9966201,29.8024557 72.9091467,29.9970134 72.747973,30.1204807 C72.5724256,30.2371727 72.3636742,30.2960857 72.1518293,30.2887219 C71.9115657,30.2998399 71.6732764,30.2413333 71.4666065,30.1204807 C71.287071,30.0093457 71.1843686,29.8102018 71.1993696,29.6022978 C71.1993696,26.9463302 71.1422677,23.9763123 71.0280639,20.6922441 C70.9732461,20.8133778 70.8841672,21.0489155 70.7539748,21.3652089 L70.4387724,22.1794963 C70.3611138,22.3724129 70.2651826,22.6281395 70.1509788,22.9466761 C70.034491,23.2629696 69.9248553,23.579263 69.8289241,23.8955565 C69.732993,24.2118499 69.6370618,24.5685213 69.5411306,24.8780851 C69.4944351,25.2936648 69.1148915,25.5942728 68.6914544,25.5510499 C68.2699682,25.5747163 67.896663,25.2860335 67.8212215,24.8780851 C67.7047336,24.4675766 67.5813935,24.0503384 67.4374968,23.6263706 C67.2936,23.2024028 67.1771121,22.8591907 67.0743287,22.5900048 C66.9715453,22.3208189 66.841353,21.9843365 66.6837517,21.573828 C66.5261505,21.1633195 66.4096626,20.9008632 66.3479926,20.6787848 C66.1835391,24.5954399 66.0921761,27.5654578 66.0739035,29.5888385 C66.0731466,29.765384 66.0017798,29.934567 65.8751889,30.0599139 C65.4646556,30.3455192 64.9152767,30.3455192 64.5047434,30.0599139 C64.3739746,29.9406422 64.3037183,29.7706078 64.312881,29.5955682 L64.40196,29.5888385 Z M75.187366,29.3398416 C75.187366,29.3398416 75.187366,29.0033592 75.2284794,28.3842316 C75.2695928,27.765104 75.2695928,26.8969794 75.2901494,25.7933172 C75.3107061,24.6896549 75.2901494,23.6331002 75.2901494,22.6101938 C75.2901494,22.2467928 75.2901494,21.885635 75.2901494,21.5267205 L75.2901494,20.5240029 C75.2901494,20.2144391 75.2901494,19.9183346 75.2901494,19.6222301 L75.2901494,18.8281317 L75.2901494,18.1551669 L75.2901494,17.6033358 L75.2901494,17.2062866 L75.2901494,16.9505599 L75.2901494,16.8496152 L75.2901494,16.7755891 C75.3217576,16.3152546 75.7044845,15.9539434 76.1740868,15.9411128 L76.8593095,15.9411128 L77.9351092,15.9411128 C78.2864093,15.9423259 78.6370276,15.9715841 78.9835,16.0285982 C79.319109,16.0797273 79.6477979,16.1677661 79.9633686,16.2910544 C80.521583,16.5172205 80.9986433,16.901412 81.3338141,17.3947167 C81.6812107,17.995163 81.8586549,18.6759777 81.8477311,19.3665035 C81.8560857,19.5121971 81.8560857,19.658237 81.8477311,19.8039306 C81.856744,20.2840469 81.8200391,20.7639395 81.7380955,21.2373456 C81.6289127,21.7783927 81.373267,22.2805376 80.9980549,22.6909495 C81.216376,22.7946275 81.4155436,22.9333703 81.5873465,23.101458 C82.3281253,23.9087371 82.6996111,24.9789353 82.6151806,26.0625031 C82.6151806,27.6035924 82.2725692,28.6937954 81.5873465,29.3465712 C81.0256391,29.8647158 80.3001379,30.1782258 79.5316782,30.2348847 C79.076351,30.2805201 78.6189241,30.3029823 78.1612327,30.3021812 C77.7295424,30.3021812 77.3937833,30.3021812 77.1676598,30.3021812 L76.1535301,30.3021812 C75.9102966,30.293784 75.6786617,30.1979983 75.5025685,30.0329953 C75.3316244,29.8499133 75.2405979,29.6082967 75.2490361,29.3600305 L75.187366,29.3398416 Z M77.0443197,17.6908212 C77.1037056,18.8752392 77.1333986,20.2884653 77.1333986,21.9304993 C78.5540938,21.9304993 79.4106222,21.7757174 79.7029839,21.4661536 C80.0060275,20.9196138 80.1281746,20.2939295 80.0524475,19.6760673 L80.0524475,19.4270703 C80.0594067,19.0633014 79.9771494,18.7032274 79.8126196,18.3772453 C79.6825989,18.1684319 79.4881728,18.0057725 79.2575891,17.9128996 C78.689067,17.7243976 78.0885511,17.6466756 77.4897145,17.6840915 L77.0443197,17.6840915 L77.0443197,17.6908212 Z M77.0443197,28.5390135 L78.1132672,28.5390135 L78.5586619,28.5390135 C78.9203287,28.5448694 79.2814329,28.5087273 79.6344617,28.4313391 C79.8907949,28.3854337 80.1284912,28.2687116 80.3196844,28.0948567 C80.7329195,27.5046167 80.9154013,26.7877472 80.8336015,26.0759624 C80.895031,25.4716799 80.7184869,24.8672374 80.3402411,24.3868208 C79.8834259,23.9381776 78.892137,23.713856 77.3663744,23.713856 L77.1471031,23.713856 C77.1471031,25.5488066 77.1174101,27.1594357 77.0580241,28.5457431 L77.0443197,28.5390135 Z M83.5539358,29.4946235 C83.5539358,29.4475159 83.6087536,29.198519 83.7252415,28.7476326 L84.2665674,26.5739563 L85.068278,23.3437254 L85.5616384,21.324831 C85.7397963,20.6518662 85.911102,19.9789015 86.0824077,19.4338 C86.2537134,18.8886985 86.4113146,18.3705156 86.5552114,17.9061699 C86.6991082,17.4418242 86.815596,17.0851529 86.8978228,16.8361559 L87.0280151,16.4458363 C87.145567,16.1372685 87.4463033,15.9332041 87.7817601,15.9343831 L87.8776913,15.9343831 C88.249992,15.8931189 88.5958108,16.1291347 88.6862542,16.4862142 C88.8598439,17.0425318 89.1270808,18.051979 89.4879648,19.5145558 C89.8488487,20.9771325 90.1640512,22.3230621 90.4335722,23.5523444 L91.0297159,26.6008749 L91.4339974,28.8014697 C91.5230763,29.2456265 91.5641897,29.4744345 91.5641897,29.4744345 L91.5641897,29.6494054 C91.5670347,29.7986284 91.5160653,29.9440337 91.4202929,30.0599139 C91.2780151,30.2152412 91.0778355,30.3074726 90.8652625,30.3156405 L90.7487746,30.3156405 C90.5625172,30.3210051 90.3788478,30.2718096 90.2211531,30.1743179 C90.0273994,30.0692646 89.8972403,29.8787718 89.8716895,29.6628647 C89.766622,28.9943863 89.4468514,27.3725412 88.9123777,24.7973293 L86.3907579,24.9050037 L85.8014664,27.4286216 L85.4040372,29.1244928 C85.3218105,29.4677049 85.2806971,29.6494054 85.2806971,29.6628647 C85.256767,29.8956278 85.1114688,30.0994835 84.8969724,30.2012365 C84.7660401,30.2606761 84.6232178,30.2905692 84.4789865,30.2887219 C84.381018,30.298392 84.2823092,30.298392 84.1843407,30.2887219 C83.7457981,30.2079661 83.499118,29.9993471 83.499118,29.656135 L83.499118,29.4811642 L83.5539358,29.4946235 Z M86.8018916,23.1754842 L88.5697663,23.101458 C88.2819727,21.822825 88.019304,20.7281356 87.7817601,19.8173899 C87.416308,20.8851607 87.0805488,22.0045254 86.7744827,23.1754842 L86.8018916,23.1754842 Z M97.5872976,16.8630745 C97.5791085,16.6268534 97.6708906,16.3978485 97.8408301,16.2304876 C97.9964214,16.052613 98.225741,15.9536164 98.4643828,15.9613017 L99.3620246,15.9613017 L100.204849,15.9613017 L100.951741,15.9613017 L101.602703,15.9613017 L102.096063,15.9613017 L102.397561,15.9613017 L102.520901,15.9613017 C102.698005,15.9491525 102.868097,16.0313925 102.966296,16.1766504 C103.086682,16.3640246 103.150808,16.5809503 103.151306,16.8025077 L103.151306,16.8967228 C103.156976,17.0835141 103.114553,17.2686896 103.027966,17.4350946 C102.928206,17.5997931 102.743068,17.6959012 102.54831,17.6840915 L102.459231,17.6840915 L102.205699,17.6840915 L101.821974,17.6840915 L101.321762,17.6840915 L100.73247,17.6840915 L100.047247,17.6840915 L99.314059,17.6840915 C99.3734449,18.841591 99.4031379,20.2009798 99.4031379,21.7622581 L101.68493,21.7084209 C101.891669,21.6959316 102.091464,21.7839795 102.219403,21.9439586 C102.349832,22.1267514 102.414894,22.3468457 102.404414,22.5698159 C102.419151,22.8061025 102.35933,23.0411036 102.233108,23.2427806 C102.120309,23.4074415 101.927851,23.5019491 101.726043,23.4917776 L99.3962857,23.5388852 C99.3962857,23.8686379 99.3962857,24.2118499 99.3962857,24.5617916 L99.3962857,25.5577795 L99.3962857,26.4932005 L99.3962857,27.3613251 L99.3962857,28.1217753 L99.3962857,28.7610919 L99.3962857,29.5551903 L99.3962857,29.676324 C99.3961173,29.8437652 99.3269007,30.0039999 99.2044233,30.1204807 C99.0103875,30.270266 98.7647271,30.340233 98.5192006,30.3156405 C98.267378,30.3444695 98.0157196,30.2604362 97.8339778,30.0868325 C97.713987,29.953863 97.6524073,29.779686 97.6626721,29.6022978 L97.6626721,29.4744345 L97.6626721,29.1043039 L97.6626721,28.5457431 L97.6626721,27.8122115 L97.6626721,26.9508166 C97.6626721,26.6479824 97.6626721,26.3182297 97.6626721,25.968288 L97.6626721,24.9117333 L97.6626721,23.7542339 C97.6626721,23.370644 97.6626721,22.9937837 97.6626721,22.6371123 C97.6626721,22.280441 97.6626721,21.91704 97.6626721,21.5603687 L97.6626721,20.5509215 L97.6626721,19.6491487 L97.6626721,18.8483206 L97.6626721,18.1753558 L97.6626721,17.6167951 L97.6626721,17.2130162 L97.6626721,16.8630745 L97.5872976,16.8630745 Z M104.343594,22.7111385 C104.28199,21.1858765 104.514478,19.6629219 105.028817,18.2224634 C105.278005,17.5621244 105.692803,16.974204 106.234809,16.5131328 C106.805764,16.0309271 107.537581,15.7721858 108.290477,15.7863309 C109.820808,15.7863309 110.910312,16.5714564 111.558989,18.1417076 C112.084562,19.6097097 112.31721,21.1634157 112.244212,22.7178681 C112.308097,24.3798631 112.135117,26.0424702 111.730295,27.6574296 C111.136435,29.510326 109.994398,30.4367742 108.304181,30.4367742 C107.485089,30.4704563 106.683748,30.1960875 106.063503,29.6695943 C105.496968,29.161315 105.084371,28.5092437 104.871215,27.7852929 C104.44563,26.1325114 104.26561,24.4279787 104.336742,22.7245978 L104.343594,22.7111385 Z M106.111469,22.7111385 C106.032978,24.2808942 106.197007,25.853272 106.597977,27.3747844 C106.777672,28.1620161 107.489568,28.7213445 108.311034,28.720714 C108.6763,28.7271432 109.033268,28.613441 109.325163,28.3976909 C109.695632,28.060189 109.955603,27.6221622 110.072056,27.1392467 C110.416483,25.6956497 110.559405,24.2127547 110.496894,22.7313274 C110.560864,21.4047963 110.379787,20.0778485 109.96242,18.8146724 C109.760486,18.0756499 109.08975,17.5535799 108.311034,17.5293096 C107.589266,17.5293096 107.043372,17.9779528 106.673351,18.8752392 C106.241272,20.1029427 106.050598,21.4000835 106.111469,22.6976792 L106.111469,22.7111385 Z M113.827077,22.7111385 C113.763979,21.1857967 113.996509,19.6625679 114.5123,18.2224634 C114.759278,17.5627099 115.171713,16.9747982 115.711439,16.5131328 C116.282394,16.0309271 117.014212,15.7721858 117.767108,15.7863309 C119.297438,15.7863309 120.386943,16.5714564 121.03562,18.1417076 C121.561192,19.6097097 121.79384,21.1634157 121.720843,22.7178681 C121.783832,24.3798348 121.610865,26.0423201 121.206926,27.6574296 C120.608498,29.510326 119.46646,30.4367742 117.780812,30.4367742 C116.961719,30.4704563 116.160379,30.1960875 115.540134,29.6695943 C114.974422,29.1606432 114.56198,28.5088157 114.347846,27.7852929 C113.92264,26.1324455 113.742625,24.4279669 113.813372,22.7245978 L113.827077,22.7111385 Z M115.601804,22.7111385 C115.523945,24.2808777 115.687965,25.8531623 116.088312,27.3747844 C116.265132,28.1609729 116.974712,28.7207203 117.794516,28.720714 C118.157526,28.7261545 118.512005,28.6124769 118.801794,28.3976909 C119.167906,28.0518391 119.420777,27.6066873 119.52813,27.1190578 C119.871471,25.6752864 120.014379,24.1925369 119.952968,22.7111385 C120.017242,21.3845946 119.836157,20.0575935 119.418494,18.7944834 C119.21656,18.055461 118.545823,17.5333909 117.767108,17.5091207 C117.04534,17.5091207 116.499445,17.9577639 116.129425,18.8550503 C115.699671,20.0831944 115.511324,21.3803236 115.574395,22.6774902 L115.601804,22.7111385 Z M123.762807,16.8294263 C123.756789,16.5975475 123.848529,16.373519 124.016339,16.2102987 C124.294436,15.9915312 124.648356,15.8877375 125.00306,15.9209238 C125.774025,15.9063435 126.542946,16.0038574 127.284852,16.2102987 C128.016605,16.4141812 128.685315,16.7934293 129.230884,17.3139609 C130.345513,18.3996774 130.934805,20.1673316 130.998759,22.6169234 C130.998759,22.9735947 130.998759,23.2898882 130.998759,23.6331002 C131.010287,24.5189285 130.941493,25.404006 130.793192,26.2778518 C130.666324,27.2311663 130.245489,28.1235326 129.5872,28.835118 C129.028417,29.4042448 128.314879,29.8036853 127.531532,29.9858878 C127.019236,30.1138689 126.496438,30.1971912 125.969224,30.2348847 L124.996208,30.2887219 L124.75638,30.2887219 C124.502427,30.282917 124.25913,30.1873389 124.071157,30.019536 C123.908275,29.8477232 123.817689,29.6217032 123.817624,29.3869491 L123.817624,29.3398416 C123.867874,27.7202397 123.892999,26.1499885 123.892999,24.6290881 C123.892999,24.0099605 123.892999,23.4042922 123.892999,22.8053535 L123.892999,21.459424 L123.892999,20.2144391 L123.892999,19.1242362 L123.892999,18.1820855 L123.892999,17.4687428 L123.892999,16.795778 L123.762807,16.8294263 Z M125.551238,17.6975508 C125.551238,17.9061699 125.551238,18.3234081 125.551238,18.9425357 L125.599204,20.8604853 C125.599204,21.5244772 125.599204,22.1593073 125.599204,22.7649757 L125.599204,23.9561233 C125.599204,25.2212971 125.585499,26.7444407 125.55809,28.5255542 C126.548411,28.5701864 127.521803,28.2618832 128.298981,27.6574296 C128.713748,27.1611572 128.975287,26.5587022 129.052726,25.9211805 C129.174182,25.1533213 129.224638,24.376243 129.203475,23.599452 C129.203475,23.3078339 129.203475,23.0049998 129.203475,22.6909495 C129.148657,20.681028 128.732956,19.3081799 127.95637,18.5724051 C127.276582,18.0033515 126.410145,17.6950062 125.516977,17.7042805 L125.551238,17.6975508 Z" id="Shape" fill="#FFFFFF"></path>
                        </g>
                    </g>
                </g>
            </g>
        </g>
    </g>
</svg>