<?xml version="1.0" encoding="UTF-8"?>
<svg width="194px" height="21px" viewBox="0 0 194 21" version="1.1" xmlns="http://www.w3.org/2000/svg" xmlns:xlink="http://www.w3.org/1999/xlink">
    <!-- Generator: Sketch 50 (54983) - http://www.bohemiancoding.com/sketch -->
    <title>scento</title>
    <desc>Created with Sketch.</desc>
    <defs></defs>
    <g id="Home-Page-small" stroke="none" stroke-width="1" fill="none" fill-rule="evenodd" opacity="0.5">
        <g id="MadOps_2" transform="translate(-1180.000000, -3480.000000)" fill="#FFFFFF" fill-rule="nonzero">
            <g id="clients" transform="translate(0.000000, 3162.000000)">
                <g id="Stacked-Group" transform="translate(66.000000, 70.000000)">
                    <g id="logos" transform="translate(0.000000, 239.000000)">
                        <g id="scento" transform="translate(1114.000000, 9.000000)">
                            <path d="M187.235482,19.7037969 L187.235482,19.2881226 C187.235482,19.2881226 189.200485,19.3897318 188.907825,17.2651741 C188.877997,17.0332979 188.830444,16.8046294 188.765676,16.5816207 L187.636844,13.3485981 L187.302376,12.4248773 L181.265219,12.4248773 L180.93075,13.3485981 L179.852089,16.4800114 C179.701116,16.9711313 179.67794,17.4991997 179.785196,18.0041507 C180.169834,19.398969 181.942518,19.2973598 181.942518,19.2973598 L181.942518,19.7130341 L177.151256,19.7130341 L177.151256,19.2973598 C177.151256,19.2973598 178.179747,19.2419365 179.02428,17.4499182 L181.248495,10.9838729 L184.007861,3.0491116 L184.384138,1.85751182 L184.693521,1.01692593 L185.529693,0.601251584 C185.529693,0.601251584 191.165487,16.7940765 191.207296,16.904923 C191.356314,17.3317196 191.549945,17.7378289 191.784254,18.1149972 C192.009691,18.4766241 192.293073,18.7896769 192.620425,19.0387179 C192.73121,19.1135153 192.852845,19.1666385 192.979979,19.1957505 L193.122128,19.1957505 L193.122128,19.6114248 L187.235482,19.7037969 Z M186.800673,10.9746357 L184.292159,3.70495334 L184.292159,3.78808821 L181.783645,10.9931101 L181.449177,11.9168309 L187.151865,11.9168309 L186.800673,10.9746357 Z M167.568733,19.3343086 C167.568733,19.3343086 169.174182,19.4174435 169.533735,17.9672019 C169.580427,17.7963044 169.605746,17.6191568 169.608991,17.440681 L169.608991,2.78123258 C169.60409,2.6229375 169.587309,2.4653645 169.55882,2.31013499 C169.224352,0.785995736 167.568733,0.869130604 167.568733,0.869130604 L167.568733,0.481167885 L173.798209,0.481167885 L173.798209,0.850656189 C173.798209,0.850656189 172.125866,0.776758528 171.808121,2.29166057 C171.780446,2.44703242 171.763673,2.60453314 171.757951,2.76275816 L171.757951,17.4683927 C171.858291,19.4359179 173.823294,19.3158342 173.823294,19.3158342 L173.823294,19.6853225 L167.568733,19.6853225 L167.568733,19.3343086 Z M161.9413,2.70733492 L161.9413,14.4755374 L161.381065,14.4755374 L153.144777,0.481167885 L155.711823,0.481167885 L161.381065,10.1709987 L161.381065,2.71657212 C161.280724,0.767521321 159.148487,0.869130604 159.148487,0.869130604 L159.148487,0.481167885 L163.914664,0.481167885 L163.914664,0.850656189 C163.914664,0.850656189 162.008193,0.749046905 161.907853,2.71657212 L161.9413,2.70733492 Z M161.105128,19.6945597 L160.544894,19.6945597 L150.151284,2.03301876 L150.151284,17.4129694 C150.14418,17.5719912 150.161136,17.7312083 150.201454,17.884067 C150.510838,19.4082063 152.18318,19.3343086 152.18318,19.3343086 L152.18318,19.7037969 L147.609323,19.7037969 L147.609323,19.3343086 C147.609323,19.3343086 149.281666,19.4174435 149.624496,17.8655926 C149.653061,17.7103766 149.669843,17.5527965 149.674666,17.394495 L149.674666,2.61496284 C149.674666,0.767521321 147.617685,0.878367812 147.617685,0.878367812 L147.617685,0.481167885 L151.798542,0.481167885 L161.096767,16.2860301 L161.105128,19.6945597 Z M138.152226,19.2788853 C138.152226,19.2788853 140.117228,19.3804946 139.824568,17.2559369 C139.797247,17.0207391 139.740982,16.7907638 139.657334,16.5723835 L138.528503,13.3393609 L138.219119,12.4156401 L132.115069,12.4156401 L131.805685,13.3393609 L130.727024,16.4707742 C130.573277,16.9610207 130.547203,17.4891021 130.651769,17.9949135 C131.011322,19.3897318 132.809091,19.2881226 132.809091,19.2881226 L132.809091,19.7037969 L128.017829,19.7037969 L128.017829,19.2881226 C128.017829,19.2881226 129.04632,19.2326993 129.890853,17.440681 L132.115069,10.9746357 L134.866072,3.03987439 L134.314199,1.43260027 C134.190397,1.05904665 133.965626,0.736572156 133.670347,0.508879508 L136.571862,1.19243287 C139.205801,8.7669431 141.672507,15.8888302 141.655783,15.8611185 C142.090592,17.0157695 142.491955,18.4105878 143.528807,19.0941412 C143.639739,19.1686117 143.761321,19.221712 143.888361,19.2511737 L144.005425,19.2511737 L144.005425,19.6668481 L138.152226,19.6668481 L138.152226,19.2788853 Z M137.717416,10.9653985 L135.208903,3.68647892 L135.208903,3.76961379 L132.700389,10.9746357 L132.391005,11.8983565 L137.968268,11.8983565 L137.717416,10.9653985 Z M122.716503,1.64505604 C122.588031,1.84029376 122.499578,2.06409059 122.45729,2.30089778 C122.417424,2.45385738 122.400477,2.61299121 122.40712,2.77199537 L122.40712,18.595332 C122.400477,18.7543361 122.417424,18.91347 122.45729,19.0664296 C122.504773,19.2928594 122.592919,19.5064555 122.716503,19.6945597 L120.207989,17.9856763 L120.207989,2.00530714 L114.237726,19.7037969 L113.786193,19.7037969 L107.548355,1.90369786 L107.548355,17.3667834 C107.548355,17.4683927 107.548355,17.7085601 107.548355,17.7085601 C107.790845,19.4174435 109.588613,19.3435458 109.588613,19.3435458 L109.588613,19.7130341 L105.014756,19.7130341 L105.014756,19.3435458 C105.014756,19.3435458 106.687099,19.4266807 107.029929,17.8748298 C107.042034,17.7180819 107.042034,17.5604801 107.029929,17.4037322 L107.029929,2.62420005 C106.946312,0.776758528 105.03148,0.933791057 105.03148,0.933791057 L105.03148,0.481167885 L109.371209,0.481167885 L114.931748,16.2583185 L120.249798,0.555065546 L124.430654,0.555065546 L124.430654,0.92455385 C123.79256,0.884790011 123.16928,1.14677071 122.716503,1.64505604 Z M93.7515285,20.331927 C89.4368844,20.331927 85.9416883,15.8056953 85.9416883,10.2633707 C85.9416883,4.72104617 89.4703313,0.19481445 93.7515285,0.19481445 C98.0327256,0.19481445 101.561369,4.69333455 101.561369,10.2633707 C101.561369,15.8334069 98.0661725,20.331927 93.7515285,20.331927 Z M93.7515285,0.610488791 C90.6827797,0.610488791 88.1909892,4.86884149 88.1909892,10.1248126 C88.1909892,15.3807837 90.6995031,19.6391364 93.7515285,19.6391364 C96.8035538,19.6391364 99.3371529,15.3807837 99.3371529,10.1248126 C99.3371529,4.86884149 96.8453623,0.619725999 93.7515285,0.619725999 L93.7515285,0.610488791 Z M78.6001041,1.00768872 L76.6936335,1.00768872 L76.6936335,18.5583832 C76.6961118,18.9533962 76.8037041,19.3388802 77.0030169,19.6668481 L74.4945029,17.9579647 L74.4945029,1.00768872 L72.6632877,1.00768872 C69.7617733,1.00768872 69.3186025,3.778851 69.3186025,6.18976218 L68.7416443,6.18976218 L68.7416443,0.481167885 L82.4715773,0.481167885 L82.4715773,6.18976218 L81.8946191,6.18976218 C81.8946191,3.76961379 81.45981,1.00768872 78.6001041,1.00768872 Z M62.8717216,2.71657212 L62.8717216,19.7037969 L62.3198485,19.7037969 L51.9178773,2.03301876 L51.9178773,17.4129694 C51.9231497,17.5712331 51.9399271,17.7287728 51.9680476,17.884067 C52.3025161,19.4082063 53.9832204,19.3343086 53.9832204,19.3343086 L53.9832204,19.7037969 L49.4010016,19.7037969 L49.4010016,19.3343086 C49.4010016,19.3343086 51.0733443,19.4174435 51.4161745,17.8655926 C51.4287943,17.718126 51.4287943,17.5696732 51.4161745,17.4222066 L51.4161745,2.64267446 C51.4161745,0.795232943 49.3759165,0.933791057 49.3759165,0.933791057 L49.3759165,0.481167885 L53.5567731,0.481167885 L62.3867422,15.4731558 L62.3867422,2.78123258 C62.2864017,0.813707359 60.1541648,0.933791057 60.1541648,0.933791057 L60.1541648,0.481167885 L64.9203413,0.481167885 L64.9203413,0.850656189 C64.9203413,0.850656189 62.9637004,0.776758528 62.8717216,2.71657212 Z M32.769554,19.3435458 C32.769554,19.3435458 34.8098121,19.4082063 34.8098121,17.5607647 L34.8098121,2.71657212 C34.8098121,0.767521321 32.7528306,0.869130604 32.7528306,0.869130604 L32.7528306,0.481167885 L44.9692936,0.481167885 L44.9692936,5.32146467 L44.4006971,5.32146467 C44.4006971,2.90131628 43.9408029,1.00768872 41.0560118,1.00768872 L39.0073921,1.00768872 C37.786582,1.00768872 36.9671341,1.5896328 36.9671341,2.63343726 L36.9671341,9.75532431 L38.6394767,9.75532431 C40.6797347,9.68142665 40.9723947,7.97254325 40.9723947,6.24518543 L41.4072038,6.24518543 L41.4072038,13.7642724 L40.9723947,13.7642724 C40.9723947,12.0276774 40.729905,10.3742172 38.7899876,10.2910824 L36.9671341,10.2910824 L36.9671341,17.5607647 C36.9671341,19.2973598 38.9572218,19.1680389 39.0073921,19.1680389 L41.6664169,19.1680389 C44.5428462,19.1680389 45.0111022,16.7478905 45.0111022,14.3277421 L45.5880604,14.3277421 L45.5880604,19.7222713 L32.7528306,19.7222713 L32.769554,19.3435458 Z M27.1170359,18.3182158 C25.886408,19.4796696 24.3287268,20.132715 22.7104131,20.1656573 L22.6351576,20.1656573 C16.7819584,20.1656573 14.7500621,14.7988397 14.7500621,10.4943009 C14.7500621,0.333372564 22.275604,0.139391204 22.275604,0.139391204 L22.7354982,0.139391204 C24.2933217,0.154676414 25.7990038,0.761303071 26.9999719,1.85751182 C27.0588416,1.90947467 27.1234693,1.95293215 27.1922913,1.98683272 C28.3211226,2.41174427 28.2960375,0.46269347 28.2960375,0.46269347 L28.8228254,0.46269347 L28.74757,3.88046028 L28.74757,6.65162256 L28.1789735,6.65162256 L28.1789735,6.60543652 C28.1789735,6.23594822 28.1037181,5.86645991 28.0619095,5.49697161 C27.9512391,4.85732918 27.7657252,4.23630583 27.5100364,3.64953009 C27.4096959,3.43707432 27.2926319,3.22461854 27.1755679,3.02139997 C26.691308,2.22662116 26.0087167,1.60412011 25.2105653,1.2293817 C24.4275488,0.815048663 23.5702601,0.600384187 22.7020514,0.601251584 C22.1903453,0.57779206 21.6787133,0.649613216 21.1885813,0.813707359 C20.3524099,1.10006079 17.843896,2.46716752 17.3087463,8.6468594 C17.1359442,10.6270639 17.3410408,12.6252919 17.9107897,14.5124862 C17.9107897,14.6140955 17.9860451,14.6972304 18.0027685,14.7988397 C18.2187642,15.4372837 18.4816399,16.0551549 18.7887696,16.6462812 C19.107105,17.2545699 19.5106846,17.8032904 19.9844946,18.2720297 C20.4687537,18.7489807 21.0385915,19.1077964 21.6568372,19.3250714 C22.4423525,19.5623805 23.2711335,19.5623805 24.0566489,19.3250714 C24.4732619,19.2004987 24.8812462,19.0430619 25.277459,18.8539738 C25.6799465,18.6601547 26.0591182,18.4119343 26.4062903,18.1149972 C28.0786329,16.5631463 28.2040586,13.0899563 28.2040586,13.0899563 L28.8479106,13.0899563 L28.8479106,16.193658 L28.8980808,19.6114248 L28.4298249,19.6114248 C28.4298249,19.6114248 28.3211226,17.2559369 27.1003125,18.3089785 L27.1170359,18.3182158 Z M10.8702272,12.6280959 C10.8934185,12.9786423 10.8934185,13.3305911 10.8702272,13.6811375 L8.76307544,12.2308959 C7.95198926,10.6882823 5.97026323,9.36736159 4.1808566,8.32355714 C2.86980271,7.56469948 2.00656937,6.11156997 1.8981089,4.48087878 C1.82841256,3.69216023 1.94359463,2.89689801 2.23257743,2.17157688 C2.58045536,1.43449002 3.13484292,0.841498885 3.81294122,0.481167885 C4.31358153,0.231929477 4.84712714,0.0728825236 5.39330502,0.0100702976 C5.57706194,-0.00335676587 5.76142117,-0.00335676587 5.94517809,0.0100702976 L5.99534837,0.0100702976 C6.33489823,0.00906378628 6.67281816,0.0619481058 6.99875395,0.167102827 C7.48659721,0.302523591 7.94831532,0.534085149 8.3617132,0.850656189 C8.67109659,1.06311196 9.14771425,1.43260027 9.44037421,1.00768872 C9.55534396,0.833394861 9.63777399,0.635573381 9.68286389,0.42574464 L9.73303417,0.111679581 L10.1427581,0.111679581 L10.0925878,4.92426474 L9.64105532,4.92426474 C9.58609949,4.39667999 9.48243207,3.87668965 9.33167194,3.37241386 C9.1663625,2.79461182 8.91483646,2.25137696 8.58747946,1.76513974 C8.40536221,1.51819629 8.20390202,1.28946062 7.98543611,1.08158638 C7.69897201,0.874771397 7.38205389,0.724728402 7.04892423,0.638200414 C6.22105783,0.295181033 5.29651696,0.390506364 4.54041027,0.896842227 C4.24438523,1.12905618 3.98456017,1.41296576 3.77113266,1.73742812 C3.77113266,1.73742812 1.8981089,4.6286741 6.56394487,7.11348294 C9.39020393,8.63762219 10.8702272,10.7159939 10.8702272,12.6280959 Z M0.0919788453,7.27051547 L0.0919788453,6.47611562 L2.37472655,8.00025487 C3.05074412,8.8191047 3.87372984,9.47344433 4.79126167,9.92159405 C7.59243559,11.4180217 9.10590568,13.4963934 9.10590568,15.4177326 C9.11087035,15.8269159 9.07724207,16.2355576 9.00556512,16.637044 C8.80030614,17.6158078 8.27274105,18.4751947 7.52554188,19.0479552 C6.93769901,19.4862323 6.26438459,19.7647663 5.56053928,19.8608294 C5.07867225,19.9644154 4.58565191,19.9893133 4.09723947,19.9347271 C3.60361278,19.8930943 3.11862653,19.7684977 2.6590248,19.5652388 C2.42962612,19.4673193 2.2061833,19.3531567 1.99008774,19.2234621 C1.78977351,19.051712 1.57402481,18.9031375 1.34623583,18.7800761 C1.166954,18.6352895 0.923474305,18.6352895 0.744192475,18.7800761 C0.600380105,18.9589368 0.499722929,19.1749752 0.451532513,19.4082063 C0.423040031,19.5196392 0.406206686,19.6343136 0.401362234,19.7499829 L0,19.7499829 L0,14.1245235 L0.501702792,14.1245235 L0.501702792,14.2538444 C0.531462379,15.0361023 0.669643223,15.808692 0.911426739,16.5446719 C1.09116981,17.1107338 1.34773728,17.6433345 1.67234264,18.1242344 C1.85666271,18.3782005 2.06712242,18.607596 2.29947113,18.8077878 C2.54343337,19.0370162 2.82832951,19.206968 3.13564245,19.306597 L3.7376858,19.4636295 C4.17975347,19.555657 4.63349225,19.555657 5.07555992,19.4636295 C6.24466503,19.137234 7.09348303,18.0209345 7.18271164,16.6924672 C7.49209503,14.457063 4.67419768,12.591147 2.39144998,11.1501427 C1.06426182,10.3892732 0.192583976,8.91859366 0.0919788453,7.27051547 Z" id="Shape"></path>
                        </g>
                    </g>
                </g>
            </g>
        </g>
    </g>
</svg>