<?xml version="1.0" encoding="UTF-8"?>
<svg width="143px" height="51px" viewBox="0 0 143 51" version="1.1" xmlns="http://www.w3.org/2000/svg" xmlns:xlink="http://www.w3.org/1999/xlink">
    <!-- Generator: Sketch 50 (54983) - http://www.bohemiancoding.com/sketch -->
    <title>silkroadexplore</title>
    <desc>Created with Sketch.</desc>
    <defs></defs>
    <g id="Home-Page-small" stroke="none" stroke-width="1" fill="none" fill-rule="evenodd" opacity="0.5">
        <g id="MadOps_2" transform="translate(-679.000000, -3745.000000)" fill="#FFFFFF" fill-rule="nonzero">
            <g id="clients" transform="translate(0.000000, 3162.000000)">
                <g id="Stacked-Group" transform="translate(66.000000, 70.000000)">
                    <g id="logos" transform="translate(0.000000, 239.000000)">
                        <g id="silkroadexplore" transform="translate(613.000000, 274.000000)">
                            <path d="M1.54794004,42.4328857 C1.63899533,42.7994765 2.00321652,43.1660673 2.3674377,43.3493627 C2.73165889,43.6243058 3.18693537,43.7159535 3.73326715,43.8076012 C4.27959893,43.8992489 4.73487541,43.8076012 5.09909659,43.6243058 C5.55437307,43.4410104 5.73648367,43.1660673 5.82753896,42.7078288 C5.91859426,42.1579426 5.73648367,41.7913518 5.28120718,41.424761 C5.09909659,41.2414656 4.55276481,40.9665225 3.64221185,40.5999317 C2.91376948,40.2333409 2.3674377,39.8667501 2.00321652,39.5001593 C1.54794004,38.9502731 1.36582944,38.3087391 1.54794004,37.5755575 C1.82110593,36.200842 2.73165889,35.1010696 4.18854363,34.367888 C5.73648367,33.6347064 7.2844237,33.5430587 9.01447433,34.0929449 C9.01447433,34.4595357 8.92341904,34.9177742 8.74130844,35.4676604 C8.55919785,36.0175466 8.46814255,36.4757851 8.46814255,36.7507282 C8.46814255,36.3841374 8.28603196,36.1091943 7.92181078,35.8342512 C7.55758959,35.5593081 7.19336841,35.4676604 6.64703663,35.3760127 C6.10070485,35.284365 5.64542837,35.3760127 5.28120718,35.4676604 C4.8259307,35.6509558 4.55276481,35.8342512 4.37065422,36.200842 C4.46170952,36.7507282 4.8259307,37.2089667 5.19015189,37.5755575 C5.46331778,37.8505006 5.91859426,38.033796 6.55598133,38.4003868 C7.2844237,38.67533 7.73970018,38.9502731 7.92181078,39.1335685 C8.37708726,39.4085116 8.65025315,39.8667501 8.74130844,40.3249886 C8.92341904,41.1498179 8.83236374,41.9746472 8.46814255,42.7078288 C8.10392137,43.4410104 7.4665343,43.9908966 6.64703663,44.5407828 C5.82753896,44.9990213 4.916986,45.2739644 3.91537774,45.4572598 C2.82271418,45.5489076 1.91216122,45.4572598 0.910552963,45.090669 C0.819497667,44.6324305 0.910552963,44.0825443 1.09266356,43.6243058 C1.27477415,43.1660673 1.45688474,42.7994765 1.54794004,42.4328857 Z M12.1103544,35.9258989 C11.5640226,35.7426035 11.1087461,35.284365 10.744525,34.7344788 C10.8355803,33.9096495 11.2908567,33.451411 12.1103544,33.1764679 C12.9298521,32.9015248 13.4761839,33.1764679 13.840405,33.9096495 C13.7493497,34.367888 13.5672391,34.7344788 13.203018,35.1010696 C12.6566862,35.5593081 12.292465,35.7426035 12.1103544,35.9258989 Z M13.6582944,37.117319 C13.6582944,37.3922621 13.6582944,38.4920346 13.6582944,40.3249886 C13.6582944,41.6080564 13.7493497,42.6161811 13.840405,43.257715 C13.840405,43.4410104 14.0225156,43.5326581 14.3867368,43.4410104 C14.8420133,43.4410104 15.1151792,43.4410104 15.2062345,43.4410104 C14.4777921,44.174192 13.840405,44.7240782 13.2940733,44.9990213 C12.4745756,45.5489076 11.5640226,45.6405553 10.6534697,45.3656121 C10.4713591,44.7240782 10.3803038,43.7159535 10.4713591,42.4328857 C10.4713591,40.5999317 10.5624144,39.591807 10.4713591,39.2252162 C10.4713591,39.2252162 10.1981932,39.2252162 9.833972,39.2252162 C9.7429167,39.2252162 9.65186141,39.2252162 9.56080611,39.2252162 C9.833972,38.67533 10.3803038,38.2170914 11.0176909,37.7588529 C12.0192991,37.117319 12.8387968,36.8423759 13.6582944,37.117319 Z M15.4794004,35.0094219 C15.7525663,34.4595357 16.2078427,34.0012972 16.8452298,33.5430587 C17.6647275,32.9015248 18.4842251,32.7182294 19.3037228,32.9015248 C19.4858334,34.0929449 19.5768887,35.7426035 19.4858334,37.8505006 C19.4858334,40.6915794 19.4858334,42.4328857 19.4858334,43.0744196 C19.4858334,43.257715 19.667944,43.3493627 19.9411099,43.257715 C20.3963864,43.257715 20.578497,43.257715 20.6695523,43.257715 C20.0321652,43.9908966 19.4858334,44.5407828 19.0305569,44.8157259 C18.3021146,45.3656121 17.4826169,45.5489076 16.5720639,45.5489076 C16.4810086,44.9073736 16.3899533,44.0825443 16.3899533,42.9827719 C16.3899533,41.6080564 16.3899533,40.6915794 16.3899533,40.0500455 C16.4810086,38.67533 16.4810086,37.7588529 16.4810086,37.117319 C16.4810086,36.0175466 16.1167874,35.3760127 15.5704557,35.1010696 C15.5704557,35.0094219 15.5704557,35.0094219 15.4794004,35.0094219 C15.4794004,35.1010696 15.3883451,35.1010696 15.3883451,35.1927173 C15.3883451,35.1010696 15.3883451,35.1010696 15.4794004,35.0094219 C15.4794004,35.0094219 15.4794004,35.0094219 15.4794004,35.0094219 Z M22.3996029,33.5430587 C23.2191006,32.9931725 24.0385982,32.8098771 24.9491512,33.0848202 L24.9491512,40.3249886 C25.2223171,40.2333409 25.5865383,39.9583978 25.9507594,39.5001593 C26.13287,39.2252162 26.4970912,38.8586254 27.043423,38.3087391 C28.0450313,37.3006144 29.1376948,36.9340236 30.412469,37.0256713 C30.412469,37.2089667 30.5945796,37.3922621 30.7766901,37.8505006 C30.9588007,38.1254437 31.049856,38.4920346 31.049856,38.7669777 C30.6856348,38.5836823 30.2303584,38.5836823 29.5929713,38.5836823 C29.1376948,38.5836823 28.591363,38.67533 28.1360866,38.7669777 C28.5003077,39.2252162 28.9555842,40.0500455 29.4108607,41.2414656 C29.9571925,42.1579426 30.6856348,42.7078288 31.5961878,42.7994765 C30.9588007,43.6243058 30.5035243,44.174192 30.2303584,44.5407828 C29.5929713,45.1823167 29.0466395,45.4572598 28.5003077,45.4572598 C27.8629207,45.3656121 27.2255336,44.8157259 26.6792018,43.6243058 C26.4060359,42.9827719 26.13287,42.5245334 26.0418147,42.1579426 C25.7686488,41.6080564 25.495483,41.2414656 25.2223171,41.0581702 C25.0402065,41.1498179 24.9491512,41.424761 25.0402065,41.7913518 C25.0402065,42.341238 25.1312618,42.7078288 25.0402065,42.7994765 C25.1312618,43.0744196 25.3133724,43.1660673 25.495483,43.257715 C25.6775936,43.3493627 25.9507594,43.257715 26.2239253,43.1660673 C25.495483,43.8992489 24.9491512,44.4491351 24.58493,44.7240782 C23.8564876,45.2739644 23.03699,45.5489076 22.126437,45.4572598 C21.8532711,44.3574874 21.8532711,42.7078288 21.8532711,40.5999317 C21.8532711,37.6672052 21.9443264,35.9258989 21.8532711,35.3760127 C21.7622158,35.1010696 21.6711605,35.0094219 21.3979946,35.0094219 C21.0337734,35.1010696 20.8516628,35.1927173 20.6695523,35.1927173 C21.5801052,34.1845926 22.2174923,33.6347064 22.3996029,33.5430587 Z M40.6106621,33.7263541 C41.8854363,33.6347064 42.9780998,33.6347064 43.8886528,33.9096495 C44.8902611,34.1845926 45.4365928,34.7344788 45.5276481,35.4676604 C45.6187034,36.0175466 45.3455376,36.4757851 44.7081505,37.0256713 C43.9797081,37.6672052 43.5244316,38.1254437 43.342321,38.4003868 C43.7065422,38.9502731 44.252874,39.8667501 44.7992058,41.3331133 C45.4365928,42.5245334 46.0739799,43.1660673 46.8024223,43.1660673 C47.0755882,41.6997041 47.8040306,40.4166363 48.8966941,39.1335685 C50.080413,37.7588529 51.4462424,37.0256713 52.9031271,36.8423759 C54.1779013,36.6590805 55.1795096,36.9340236 55.9990072,37.5755575 C56.8185049,38.1254437 57.1827261,38.9502731 57.1827261,39.9583978 C57.1827261,40.8748748 56.8185049,41.7913518 55.9079519,42.7078288 C55.0884543,43.6243058 54.1779013,44.3574874 52.9941824,44.9073736 C51.8104636,45.4572598 50.6267447,45.6405553 49.6251365,45.4572598 C48.4414176,45.2739644 47.62192,44.5407828 47.0755882,43.3493627 C46.8934776,43.4410104 46.3471458,43.8992489 45.5276481,44.7240782 C44.8902611,45.2739644 44.3439293,45.5489076 43.7975975,45.4572598 C43.0691551,45.3656121 42.4317681,44.4491351 41.7033257,42.8911242 C41.3391045,41.9746472 41.0659386,41.3331133 40.883828,41.0581702 C40.5196068,40.4166363 40.246441,39.9583978 39.7911645,39.7751024 C39.6090539,40.0500455 39.5179986,40.508284 39.6090539,41.3331133 C39.6090539,42.341238 39.7001092,42.8911242 39.6090539,43.0744196 C39.6090539,43.257715 39.7911645,43.3493627 40.0643304,43.257715 C40.5196068,43.257715 40.7017174,43.257715 40.7927727,43.257715 C40.0643304,43.9908966 39.5179986,44.4491351 39.1537774,44.8157259 C38.425335,45.3656121 37.6058374,45.5489076 36.6952844,45.5489076 C36.3310632,44.6324305 36.2400079,43.1660673 36.2400079,41.1498179 C36.3310632,38.4003868 36.3310632,36.7507282 36.3310632,36.2924897 C36.2400079,36.0175466 36.1489526,35.9258989 35.966842,36.0175466 C35.6026208,36.1091943 35.329455,36.200842 35.1473444,36.1091943 C35.329455,35.5593081 35.966842,35.0094219 37.0595056,34.5511834 C38.2432244,34.1845926 39.335888,33.9096495 40.6106621,33.7263541 Z M51.0820212,43.5326581 C51.628353,44.2658397 52.2657401,44.3574874 53.176293,43.9908966 C53.6315695,43.4410104 53.9047354,42.6161811 53.9047354,41.5164087 C53.9047354,40.4166363 53.7226248,39.5001593 53.3584036,38.8586254 C52.4478507,38.3087391 51.7194083,38.3087391 51.1730765,38.8586254 C50.7178,39.3168639 50.4446341,40.1416932 50.4446341,41.1498179 C50.3535788,42.0662949 50.6267447,42.8911242 51.0820212,43.5326581 Z M39.8822198,38.67533 C40.883828,38.7669777 41.6122704,38.67533 42.0675469,38.3087391 C42.1586022,38.033796 42.2496575,37.6672052 42.2496575,37.2089667 C42.2496575,36.7507282 42.1586022,36.3841374 42.0675469,36.0175466 C41.7033257,35.8342512 41.4301598,35.7426035 41.1569939,35.6509558 C40.7927727,35.5593081 40.3374963,35.5593081 39.9732751,35.6509558 L39.9732751,38.67533 L39.8822198,38.67533 Z M61.0070485,41.1498179 C61.7354909,40.8748748 62.1907674,40.5999317 62.5549885,40.4166363 C62.5549885,39.7751024 62.4639333,39.3168639 62.2818227,39.0419208 C62.0086568,38.67533 61.6444356,38.5836823 61.0070485,38.67533 C60.7338826,38.7669777 60.4607167,38.9502731 60.4607167,39.4085116 C60.4607167,39.591807 60.4607167,39.9583978 60.4607167,40.5999317 L57.7290578,40.5999317 C58.7306661,39.3168639 59.8233297,38.4003868 61.0981038,37.7588529 C62.7370991,36.9340236 64.2850392,36.9340236 65.5598133,37.7588529 C65.6508686,38.4003868 65.7419239,39.3168639 65.7419239,40.4166363 C65.7419239,41.0581702 65.7419239,41.9746472 65.7419239,43.257715 C65.7419239,43.4410104 65.9240345,43.5326581 66.1972004,43.4410104 C66.6524769,43.4410104 66.8345875,43.4410104 66.9256428,43.4410104 C65.9240345,44.4491351 65.3777027,44.9073736 65.2866474,44.9073736 C64.5582051,45.3656121 63.7387074,45.5489076 62.8281544,45.5489076 C62.7370991,45.4572598 62.6460438,45.1823167 62.6460438,44.9073736 C62.6460438,44.5407828 62.6460438,44.2658397 62.6460438,43.9908966 C62.4639333,44.174192 62.0997121,44.4491351 61.5533803,44.7240782 C61.0070485,44.9990213 60.4607167,45.2739644 59.914385,45.3656121 C58.4575002,45.732203 57.5469473,45.4572598 57.3648367,44.3574874 C57.1827261,43.5326581 57.8201131,42.7078288 59.2769979,41.9746472 C59.4591085,41.7913518 60.0964956,41.5164087 61.0070485,41.1498179 Z M60.3696614,43.6243058 C60.4607167,43.7159535 60.7338826,43.8076012 61.0070485,43.8076012 C61.1891591,43.8076012 61.462325,43.8076012 61.9176015,43.8076012 C62.1907674,43.6243058 62.372878,43.257715 62.4639333,42.7994765 C62.6460438,42.2495903 62.5549885,41.7913518 62.2818227,41.5164087 C62.0997121,41.6080564 61.8265462,41.6997041 61.2802144,41.8829995 C60.8249379,41.9746472 60.551772,42.1579426 60.3696614,42.341238 C60.2786061,42.7078288 60.2786061,42.9827719 60.2786061,42.9827719 C60.3696614,42.9827719 60.3696614,43.257715 60.3696614,43.6243058 Z M73.2995135,37.117319 L73.2995135,35.5593081 C73.2995135,35.3760127 73.1174029,35.1927173 72.844237,35.1010696 C72.5710711,34.9177742 72.3889605,35.0094219 72.2979053,35.1927173 C72.4800158,34.6428311 72.9352923,34.0929449 73.75479,33.5430587 C74.665343,32.9015248 75.4848406,32.7182294 76.213283,32.9015248 C76.3953936,33.9096495 76.4864489,35.6509558 76.3953936,38.033796 C76.3043383,40.508284 76.3953936,42.1579426 76.5775042,43.1660673 C76.6685595,43.1660673 76.8506701,43.1660673 77.0327807,43.1660673 C77.123836,43.1660673 77.2148913,43.1660673 77.3059465,43.0744196 C77.0327807,43.5326581 76.6685595,44.0825443 75.9401171,44.5407828 C75.1206194,45.1823167 74.3011218,45.4572598 73.5726794,45.1823167 C73.2995135,45.2739644 73.1174029,45.090669 73.1174029,44.7240782 C73.1174029,44.174192 73.1174029,43.8076012 73.1174029,43.8076012 C72.9352923,44.174192 72.5710711,44.5407828 71.9336841,44.8157259 C71.3873523,45.090669 70.7499652,45.2739644 70.0215228,45.2739644 C68.3825275,45.3656121 67.289864,44.8157259 66.8345875,43.6243058 C66.2882557,42.1579426 66.9256428,40.6915794 68.6556934,39.3168639 C70.0215228,38.5836823 71.4784076,37.7588529 73.2995135,37.117319 Z M70.7499652,43.4410104 C71.0231311,43.5326581 71.3873523,43.6243058 71.8426288,43.6243058 C72.2979053,43.6243058 72.6621264,43.5326581 72.9352923,43.4410104 C73.2084582,43.0744196 73.2995135,42.341238 73.2995135,41.424761 C73.2995135,40.3249886 73.2995135,39.5001593 73.2995135,39.0419208 C73.0263476,38.7669777 72.5710711,38.67533 72.1157947,38.67533 C71.8426288,38.67533 71.3873523,38.8586254 70.8410205,39.0419208 C70.4767993,39.6834547 70.2946887,40.4166363 70.2946887,41.2414656 C70.2036334,42.1579426 70.385744,42.8911242 70.7499652,43.4410104 Z M85.0456467,34.0012972 C86.2293656,33.8180018 88.0504715,33.7263541 90.6000198,33.8180018 C90.7821304,34.367888 90.4179092,34.8261265 89.416301,35.3760127 C88.4146927,35.9258989 87.2309738,36.0175466 86.1383103,35.7426035 C85.9561997,35.9258989 85.8651444,36.2924897 85.9561997,36.8423759 C85.9561997,37.6672052 86.047255,38.033796 85.9561997,38.2170914 L89.0520798,38.2170914 C88.5968033,38.9502731 88.2325821,39.4085116 87.9594162,39.6834547 C87.4130844,40.1416932 86.7756974,40.2333409 85.9561997,40.1416932 L85.9561997,43.0744196 C86.4114762,43.257715 87.1399185,43.4410104 87.9594162,43.4410104 C88.7789139,43.4410104 89.5073563,43.4410104 90.1447433,43.257715 C90.3268539,44.3574874 89.5984115,44.9990213 87.8683609,45.3656121 C86.3204209,45.6405553 84.6814255,45.6405553 82.8603196,45.1823167 L82.8603196,36.5674328 C82.8603196,36.3841374 82.678209,36.200842 82.4960984,36.200842 C82.1318773,36.200842 81.8587114,36.200842 81.7676561,36.200842 C82.1318773,35.0094219 83.2245408,34.2762403 85.0456467,34.0012972 Z M93.6958999,42.0662949 C93.0585128,41.1498179 92.6942916,40.5999317 92.512181,40.3249886 C91.9658493,39.7751024 91.4195175,39.3168639 90.7821304,39.1335685 C90.6910751,39.1335685 90.6910751,39.1335685 90.6000198,39.1335685 C90.6910751,38.7669777 91.0552963,38.4003868 91.6016281,37.9421483 C91.9658493,37.6672052 92.512181,37.3006144 93.3316787,36.7507282 C93.8780105,37.0256713 94.4243423,37.4839098 94.970674,38.033796 L96.2454482,39.591807 C96.5186141,39.2252162 96.79178,38.5836823 97.2470564,37.7588529 C97.7023329,37.117319 98.2486647,36.7507282 98.9771071,36.6590805 C99.250273,36.7507282 99.5234388,37.0256713 99.7055494,37.4839098 C99.9787153,37.9421483 100.160826,38.3087391 100.342937,38.4003868 C99.3413283,38.5836823 98.7039412,38.7669777 98.2486647,38.9502731 C97.5202223,39.2252162 97.0649458,39.591807 96.79178,40.1416932 C97.0649458,40.508284 97.6112776,41.0581702 98.2486647,42.0662949 C98.8860518,42.7994765 99.5234388,43.1660673 100.160826,43.0744196 C100.251881,43.5326581 99.88766,43.9908966 99.250273,44.4491351 C98.4307753,44.9990213 97.8844435,45.3656121 97.6112776,45.5489076 C96.9738905,45.1823167 96.3365035,44.7240782 95.7901717,44.0825443 C95.4259505,43.7159535 94.8796187,43.0744196 94.333287,42.2495903 C94.333287,42.7994765 94.0601211,43.3493627 93.6958999,43.8992489 C93.3316787,44.4491351 92.9674575,44.8157259 92.512181,45.090669 C92.0569045,45.3656121 91.6016281,45.3656121 91.2374069,45.1823167 C90.7821304,44.9073736 90.5089645,44.4491351 90.4179092,43.6243058 C92.0569045,43.8076012 93.1495681,43.257715 93.6958999,42.0662949 Z M104.440425,37.117319 C104.713591,37.117319 104.895701,37.2089667 104.895701,37.6672052 C104.895701,38.3087391 104.895701,38.5836823 104.895701,38.67533 C105.168867,38.2170914 105.624144,37.8505006 106.352586,37.5755575 C107.081028,37.3006144 107.809471,37.2089667 108.537913,37.2089667 C109.357411,37.3006144 109.994798,37.4839098 110.54113,37.9421483 C111.087461,38.4920346 111.360627,39.2252162 111.360627,40.2333409 C111.269572,41.5164087 110.54113,42.7078288 109.084245,43.8076012 C107.809471,44.8157259 106.352586,45.3656121 104.986757,45.6405553 L104.986757,47.9317478 C104.986757,48.1150432 105.168867,48.2066909 105.533088,48.2983386 C105.806254,48.3899863 105.988365,48.3899863 106.07942,48.2066909 C105.806254,48.7565771 105.259923,49.3064633 104.622535,49.7647018 C103.711982,50.4062357 102.892485,50.6811788 102.072987,50.4062357 C101.890877,49.1231679 101.799821,47.3818616 101.890877,45.1823167 C101.890877,42.0662949 101.981932,40.2333409 101.890877,39.6834547 C101.981932,39.5001593 101.799821,39.3168639 101.4356,39.3168639 C101.162434,39.2252162 100.980324,39.3168639 100.889268,39.4085116 C101.071379,38.9502731 101.526655,38.4920346 102.255098,37.9421483 C102.98354,37.2089667 103.711982,36.9340236 104.440425,37.117319 Z M104.804646,43.8076012 C105.533088,44.2658397 106.07942,44.3574874 106.625752,44.174192 C107.081028,43.9908966 107.44525,43.5326581 107.718416,42.9827719 C107.900526,42.341238 107.991581,41.6997041 107.991581,41.0581702 C107.900526,40.3249886 107.718416,39.7751024 107.44525,39.3168639 C106.170475,38.5836823 105.442033,38.7669777 105.077812,40.0500455 C104.713591,40.7832271 104.622535,42.0662949 104.804646,43.8076012 Z M111.542738,35.0094219 C111.815904,34.4595357 112.27118,34.0012972 112.908567,33.5430587 C113.728065,32.9015248 114.547563,32.7182294 115.36706,32.9015248 C115.549171,34.0929449 115.640226,35.7426035 115.549171,37.8505006 C115.549171,40.6915794 115.549171,42.4328857 115.549171,43.0744196 C115.549171,43.257715 115.731282,43.3493627 116.004447,43.257715 C116.459724,43.257715 116.641835,43.257715 116.73289,43.257715 C116.095503,43.9908966 115.549171,44.5407828 115.093895,44.8157259 C114.365452,45.3656121 113.545954,45.5489076 112.635402,45.5489076 C112.453291,44.9073736 112.453291,44.0825443 112.453291,42.9827719 C112.453291,41.6080564 112.453291,40.6915794 112.453291,40.0500455 C112.544346,38.67533 112.635402,37.7588529 112.544346,37.117319 C112.544346,36.0175466 112.180125,35.3760127 111.633793,35.1010696 C111.633793,35.0094219 111.542738,35.0094219 111.542738,35.0094219 C111.542738,35.1010696 111.451683,35.1010696 111.451683,35.1927173 C111.451683,35.1010696 111.451683,35.1010696 111.542738,35.0094219 C111.542738,35.0094219 111.542738,35.0094219 111.542738,35.0094219 Z M121.103544,37.6672052 C122.287263,37.117319 123.470982,36.8423759 124.381535,37.0256713 C125.565254,37.2089667 126.384751,37.9421483 126.931083,39.1335685 C127.38636,38.8586254 127.932691,38.4003868 128.752189,37.5755575 C129.571687,36.9340236 130.391184,36.7507282 131.210682,37.0256713 C131.392793,37.2089667 131.392793,37.4839098 131.392793,37.9421483 C131.392793,38.67533 131.392793,39.0419208 131.392793,39.1335685 C131.483848,39.0419208 131.848069,38.5836823 132.21229,37.7588529 C132.576511,37.2089667 132.940733,36.8423759 133.487064,36.8423759 C133.851286,36.9340236 134.033396,37.2089667 134.124451,37.7588529 C134.124451,38.033796 134.215507,38.4920346 134.306562,39.1335685 C133.57812,39.1335685 133.031788,39.1335685 132.667567,39.1335685 C132.03018,39.1335685 131.665958,39.3168639 131.392793,39.5001593 L131.392793,43.1660673 C131.483848,43.257715 131.757014,43.3493627 132.121235,43.3493627 C132.394401,43.3493627 132.667567,43.3493627 132.758622,43.257715 C132.394401,43.8076012 131.939124,44.3574874 131.301737,44.7240782 C130.391184,45.2739644 129.480631,45.5489076 128.479023,45.4572598 C128.296912,45.090669 128.205857,44.5407828 128.205857,43.8076012 C128.296912,42.8911242 128.296912,42.2495903 128.296912,41.7913518 C128.387968,40.9665225 128.296912,40.4166363 128.205857,40.0500455 C128.023747,39.5001593 127.750581,39.2252162 127.295304,39.1335685 C127.113194,39.4085116 127.022138,39.6834547 127.022138,40.0500455 C127.022138,40.508284 127.022138,40.7832271 126.931083,41.0581702 C126.657917,41.8829995 125.838419,42.7994765 124.47259,43.8076012 C123.015705,44.9990213 121.831986,45.5489076 120.830378,45.6405553 C119.737715,45.732203 118.827162,45.4572598 118.007664,44.9073736 C117.279222,44.2658397 116.823945,43.4410104 116.915,42.4328857 C116.915,41.6080564 117.370277,40.7832271 118.189775,39.8667501 C119.009272,38.9502731 119.919825,38.2170914 121.103544,37.6672052 Z M120.921433,43.5326581 C121.467765,44.2658397 122.105152,44.3574874 123.015705,43.9908966 C123.470982,43.4410104 123.744148,42.6161811 123.744148,41.5164087 C123.744148,40.4166363 123.562037,39.5001593 123.197816,38.8586254 C122.287263,38.3087391 121.558821,38.3087391 121.012489,38.8586254 C120.557212,39.3168639 120.284046,40.1416932 120.284046,41.1498179 C120.192991,42.0662949 120.466157,42.8911242 120.921433,43.5326581 Z M136.582944,38.2170914 C137.402442,37.6672052 138.312995,37.3922621 139.132493,37.3006144 C140.043046,37.2089667 140.862543,37.3006144 141.49993,37.7588529 C141.682041,37.8505006 141.773096,37.9421483 141.864152,38.2170914 C141.864152,38.3087391 141.955207,38.4920346 141.955207,38.7669777 C141.955207,39.2252162 141.682041,39.8667501 141.044654,40.5999317 C140.134101,41.6080564 138.859327,42.1579426 137.311387,42.2495903 C137.311387,43.0744196 137.857719,43.5326581 138.859327,43.7159535 C139.860935,43.8992489 140.680433,43.8076012 141.408875,43.3493627 C141.135709,44.0825443 140.589377,44.6324305 139.76988,45.090669 C138.950382,45.4572598 138.130884,45.6405553 137.220332,45.5489076 C136.218723,45.4572598 135.490281,45.1823167 134.852894,44.7240782 C134.124451,44.174192 133.851286,43.3493627 133.851286,42.4328857 C133.851286,41.6997041 134.124451,40.9665225 134.670783,40.2333409 C135.12606,39.3168639 135.763447,38.67533 136.582944,38.2170914 Z M137.311387,41.6997041 C137.857719,41.424761 138.312995,41.0581702 138.586161,40.7832271 C138.950382,40.3249886 139.132493,39.7751024 139.041437,39.0419208 C138.677216,38.67533 138.312995,38.4920346 137.948774,38.5836823 C137.584553,38.67533 137.402442,38.9502731 137.129276,39.3168639 C136.947166,39.6834547 136.85611,40.1416932 136.85611,40.5999317 C136.85611,41.0581702 137.038221,41.424761 137.311387,41.6997041 Z" id="Shape"></path>
                            <path d="M142.046262,29.4189121 L140.407267,29.2356167 L139.95199,27.7692535 C140.589377,27.8609012 141.044654,27.7692535 141.31782,27.5859581 C141.408875,27.4943104 141.49993,27.311015 141.49993,27.1277196 C141.590986,26.4861857 141.226765,25.2947656 140.589377,23.5534592 C140.043046,21.9954483 139.76988,21.170619 139.860935,21.0789713 C140.134101,20.8956759 140.407267,20.7123805 140.862543,20.3457897 C140.680433,19.9791989 139.95199,17.1381201 138.586161,11.8225535 C139.041437,11.4559627 139.314603,10.9060765 139.496714,10.0812471 C139.587769,9.62300864 139.587769,9.25641783 139.587769,8.88982703 L139.587769,8.43158852 C139.314603,8.06499772 138.859327,7.79005461 138.22194,7.60675921 C137.857719,7.51511151 137.584553,7.60675921 137.402442,7.97335001 C137.311387,8.06499772 137.220332,8.43158852 137.038221,9.16477013 C137.038221,9.16477013 137.038221,9.34806553 136.947166,9.71465634 C136.947166,9.98959944 136.85611,10.1728948 136.765055,10.3561902 C136.582944,10.7227811 136.400834,10.9977242 136.218723,11.2726673 L135.945557,11.5476104 C135.490281,11.9142012 135.217115,12.3724397 135.12606,13.0139736 C135.12606,13.3805644 135.12606,13.6555075 135.12606,13.9304506 L135.217115,15.5801092 C133.851286,15.7634046 132.849677,15.5801092 132.121235,14.8469276 C131.483848,14.2970414 131.210682,13.4722121 131.028571,12.280792 C131.483848,11.5476104 131.848069,11.0893719 132.21229,10.9060765 C133.122843,10.8144288 133.669175,10.6311334 134.033396,10.4478379 C134.124451,10.3561902 134.215507,10.2645425 134.215507,10.1728948 C134.215507,9.53136094 133.669175,9.16477013 132.576511,8.98147473 L130.937516,8.98147473 C130.937516,8.61488392 130.391184,8.61488392 129.207465,8.79817933 L127.38636,9.25641783 C127.022138,9.34806553 126.840028,9.71465634 126.840028,10.4478379 C126.840028,10.8144288 126.840028,11.0893719 126.931083,11.364315 C126.748972,12.3724397 126.384751,13.0139736 125.747364,13.3805644 C125.565254,13.4722121 125.383143,13.5638598 125.201032,13.6555075 L124.927867,13.6555075 C124.381535,13.7471552 123.470982,13.4722121 122.287263,12.6473828 L120.739323,11.364315 C120.375102,11.0893719 119.737715,10.6311334 119.009272,9.89795174 L118.007664,8.88982703 C117.825553,8.52323622 117.188166,8.15664542 116.095503,7.97335001 C116.095503,7.88170231 116.004447,7.79005461 115.822337,7.69840691 C115.640226,7.60675921 115.458116,7.51511151 115.36706,7.3318161 C115.18495,7.056873 115.002839,6.6902822 114.729673,6.50698679 C114.729673,6.50698679 114.456507,6.32369139 114.092286,6.04874829 C113.545954,5.59050978 113.090678,5.13227127 112.726457,4.67403277 C112.453291,4.30744196 112.27118,4.03249886 112.27118,3.84920346 C112.27118,3.39096495 111.724849,3.02437414 110.72324,2.84107874 C110.905351,2.65778334 111.087461,2.19954483 111.269572,1.74130632 C111.633793,1.19142012 111.633793,0.73318161 111.269572,0.366590805 C110.905351,-3.09474668e-15 110.359019,-0.0916477013 109.812687,0.274943104 C109.539521,0.458238507 109.357411,0.641533909 109.1753,0.824829312 C108.99319,1.09977242 108.99319,1.37471552 108.99319,1.64965862 C108.99319,2.01624943 109.084245,2.47448794 109.266356,2.93272644 C108.720024,3.11602184 108.264747,3.48261265 107.991581,4.03249886 L107.62736,4.76568047 C107.536305,4.94897587 107.62736,5.49886208 107.809471,6.14039599 C107.900526,6.50698679 108.082637,6.9652253 108.264747,7.42346381 C108.355803,7.79005461 108.446858,8.52323622 108.537913,9.62300864 C108.628968,9.89795174 108.720024,10.1728948 108.811079,10.4478379 L107.263139,11.5476104 C106.625752,11.8225535 105.806254,12.4640874 104.713591,13.3805644 L104.622535,13.2889167 L104.076204,13.8388029 C102.892485,15.030223 101.981932,15.8550523 101.344545,16.2216431 C100.160826,16.863177 99.0681624,16.863177 98.0665541,16.3132908 C97.3381117,15.8550523 96.79178,15.2135184 96.4275588,14.2053937 C96.2454482,13.6555075 95.9722823,12.7390305 95.7901717,11.4559627 L95.6080611,10.9977242 C95.9722823,10.8144288 96.2454482,10.7227811 96.5186141,10.7227811 C96.9738905,10.2645425 97.1560011,9.89795174 96.8828353,9.43971323 L96.3365035,8.98147473 L93.6048446,9.07312243 C93.5137893,8.79817933 93.3316787,8.70653162 93.0585128,8.70653162 L92.6942916,8.79817933 C92.4211257,9.07312243 91.9658493,9.16477013 91.4195175,9.25641783 L90.6000198,9.16477013 C90.7821304,9.25641783 90.8731857,9.53136094 90.7821304,9.98959944 C90.7821304,10.2645425 90.7821304,10.4478379 90.6910751,10.7227811 C90.4179092,11.1810196 90.2357986,11.8225535 90.053688,12.5557351 C89.9626327,12.9223259 89.8715774,13.197269 89.8715774,13.4722121 C89.7805221,14.0220983 89.416301,14.2970414 88.7789139,14.4803368 L87.8683609,14.5719845 C87.5041397,14.3886891 86.7756974,13.8388029 85.8651444,12.9223259 L84.499315,11.6392581 C84.0440385,11.0893719 83.588762,10.7227811 82.8603196,10.3561902 L81.9497667,9.98959944 C81.4944902,10.0812471 81.0392137,10.0812471 80.6749925,10.0812471 C80.4018266,9.98959944 80.219716,9.89795174 80.0376054,9.80630404 C80.0376054,9.71465634 80.0376054,9.53136094 79.9465501,9.25641783 C79.6733843,8.70653162 79.582329,8.33994082 79.4912737,8.06499772 C79.3091631,7.60675921 79.4002184,7.1485207 79.582329,6.9652253 C79.582329,7.1485207 79.6733843,7.3318161 79.8554948,7.51511151 C80.0376054,7.69840691 80.1286607,7.88170231 80.1286607,7.88170231 C80.3107713,8.33994082 80.5839372,8.70653162 81.0392137,9.07312243 C81.4944902,9.43971323 81.9497667,9.71465634 82.4050431,9.98959944 C83.1334855,10.4478379 83.4066514,10.3561902 83.2245408,9.89795174 C82.7692643,9.53136094 82.2229325,9.07312243 81.8587114,8.52323622 C80.9481584,7.42346381 80.5839372,6.41533909 80.7660478,5.49886208 C80.8571031,5.22391897 80.7660478,4.85732817 80.4018266,4.58238507 C80.1286607,4.39908966 79.8554948,4.12414656 79.4912737,3.94085116 C79.8554948,3.66590805 80.1286607,3.20766955 80.1286607,2.65778334 C80.219716,2.01624943 80.0376054,1.55801092 79.582329,1.28306782 C79.3091631,1.09977242 79.0359972,1.00812471 78.671776,1.09977242 C78.3075548,1.19142012 78.1254442,1.37471552 77.8522783,1.64965862 C77.6701677,1.92460173 77.5791124,2.29119253 77.6701677,2.65778334 C77.6701677,2.93272644 77.761223,3.29931725 77.9433336,3.75755575 L77.3059465,3.75755575 C76.9417254,3.75755575 76.6685595,4.12414656 76.3953936,4.85732817 C76.3953936,4.94897587 76.213283,5.49886208 75.9401171,6.59863449 C75.7580065,7.056873 75.6669512,7.60675921 75.6669512,8.15664542 C75.5758959,8.79817933 75.6669512,9.34806553 75.7580065,9.80630404 C75.8490618,10.0812471 76.0311724,10.2645425 76.3953936,10.3561902 L76.5775042,10.5394857 C76.3043383,10.7227811 76.0311724,10.8144288 75.8490618,10.9977242 L75.5758959,10.9977242 C74.8474535,11.0893719 74.0279559,11.4559627 73.1174029,12.0974966 L71.9336841,13.1056213 C71.4784076,13.3805644 71.1141864,13.8388029 70.6589099,14.5719845 L70.1125781,15.4884615 L70.2036334,16.7715293 C67.927251,17.8713018 65.7419239,18.5128357 63.7387074,18.6961311 C61.7354909,18.8794265 60.0054403,18.6044834 58.5485555,17.7796541 C57.5469473,17.2297678 56.8185049,16.4965862 56.1811178,15.5801092 C55.634786,14.6636322 55.3616201,13.6555075 55.2705648,12.5557351 C55.634786,12.3724397 55.9079519,12.1891443 55.9990072,12.0058489 C56.1811178,11.6392581 56.1811178,11.2726673 55.8168966,10.9060765 C55.5437307,10.8144288 55.1795096,10.7227811 54.9063437,10.6311334 C54.1779013,10.4478379 53.7226248,10.4478379 53.3584036,10.6311334 C52.9031271,10.6311334 52.4478507,10.6311334 51.9925742,10.7227811 C51.0820212,10.8144288 50.7178,10.9977242 50.6267447,11.2726673 L51.0820212,11.6392581 C50.9909659,11.7309058 50.8088553,11.9142012 50.6267447,12.1891443 C50.2625236,12.7390305 49.9893577,13.3805644 49.7161918,14.113746 C49.8983024,14.2970414 49.8983024,14.5719845 49.8072471,14.8469276 C49.6251365,15.3051661 48.8966941,15.4884615 47.7129753,15.4884615 C47.2576988,15.2135184 46.711367,14.9385753 46.1650352,14.4803368 C45.0723717,13.7471552 44.3439293,13.0139736 44.0707634,12.4640874 C43.8886528,12.1891443 43.7065422,11.9142012 43.4333763,11.6392581 C42.9780998,11.0893719 42.6138787,10.7227811 42.2496575,10.5394857 C42.0675469,10.4478379 41.2480492,10.5394857 39.7001092,10.7227811 C39.6090539,10.5394857 39.7001092,10.2645425 39.7001092,9.98959944 L39.8822198,9.62300864 L41.8854363,9.98959944 C42.4317681,10.1728948 42.704934,10.0812471 42.6138787,9.89795174 C42.4317681,9.71465634 42.2496575,9.53136094 41.9764916,9.43971323 C41.0659386,9.16477013 40.4285516,8.88982703 40.1553857,8.61488392 C39.8822198,8.43158852 39.7001092,8.06499772 39.6090539,7.60675921 C39.5179986,7.1485207 39.0627221,6.7819299 38.425335,6.6902822 C38.5163903,6.59863449 38.5163903,6.59863449 38.5163903,6.59863449 C38.6074456,6.59863449 38.6985009,6.41533909 38.8806115,6.14039599 C39.0627221,5.86545288 39.1537774,5.49886208 39.335888,5.22391897 C39.4269433,5.04062357 39.335888,4.94897587 39.335888,4.76568047 C39.2448327,4.58238507 39.1537774,4.49073736 38.9716668,4.39908966 C38.6074456,4.21579426 38.2432244,4.12414656 37.9700586,4.21579426 C37.3326715,4.30744196 37.1505609,4.58238507 37.1505609,4.94897587 C37.1505609,5.04062357 37.0595056,5.22391897 36.9684503,5.49886208 C36.877395,5.86545288 36.7863397,6.04874829 36.7863397,6.14039599 C36.6042291,6.8735776 36.6042291,7.3318161 36.6952844,7.51511151 C36.5131738,7.88170231 36.3310632,8.33994082 36.2400079,8.98147473 C36.1489526,9.25641783 36.1489526,9.53136094 36.1489526,9.71465634 L36.1489526,10.2645425 C36.0578973,10.7227811 36.0578973,11.1810196 36.0578973,11.4559627 L34.5099573,11.7309058 C34.418902,11.7309058 34.418902,12.1891443 34.5099573,13.197269 C34.6010126,13.6555075 34.6010126,14.2053937 34.6920679,14.6636322 C34.418902,14.6636322 34.1457361,14.8469276 33.7815149,15.030223 C33.1441278,15.3968138 32.5977961,15.9467 32.1425196,16.7715293 L31.7782984,18.8794265 C31.2319666,18.7877788 30.7766901,18.5128357 30.412469,18.2378926 C29.7750819,17.6880064 29.4108607,16.7715293 29.3198054,15.5801092 C29.2287501,14.8469276 29.2287501,13.9304506 29.4108607,12.8306782 C30.1393031,12.7390305 30.5945796,12.5557351 30.8677454,12.3724397 C30.9588007,12.280792 31.049856,12.1891443 30.9588007,12.0974966 C30.9588007,11.4559627 30.412469,11.0893719 29.501916,10.9977242 L28.0450313,10.9977242 C28.0450313,10.6311334 27.4986995,10.6311334 26.4970912,10.8144288 L24.9491512,11.2726673 C24.6759853,11.364315 24.4938747,11.7309058 24.4938747,12.3724397 C24.4938747,12.6473828 24.58493,13.0139736 24.58493,13.2889167 C24.4028194,14.2053937 24.1296535,14.9385753 23.5833217,15.3051661 C23.4012111,15.3968138 23.2191006,15.4884615 23.1280453,15.5801092 L22.9459347,15.5801092 C22.4906582,15.6717569 21.6711605,15.3968138 20.6695523,14.6636322 L19.3037228,13.4722121 C18.9395016,13.2889167 18.4842251,12.7390305 17.7557828,12.0974966 L16.8452298,11.1810196 C16.6631192,10.7227811 15.8436216,10.3561902 14.3867368,10.1728948 L11.8371885,7.79005461 C11.381912,7.42346381 10.9266356,7.1485207 10.1981932,6.9652253 C10.1981932,6.9652253 10.3803038,6.6902822 10.5624144,6.41533909 C10.9266356,5.95710059 10.8355803,5.40721438 10.2892485,4.94897587 C9.9250273,4.39908966 9.37869552,4.39908966 9.01447433,4.76568047 C8.65025315,5.13227127 8.55919785,5.77380518 8.83236374,6.7819299 C8.65025315,6.7819299 8.46814255,6.9652253 8.37708726,7.1485207 L8.19497667,7.42346381 C8.10392137,7.79005461 8.10392137,8.24829312 8.19497667,8.70653162 C8.19497667,9.07312243 8.28603196,9.43971323 8.37708726,9.71465634 C8.46814255,9.98959944 8.55919785,10.7227811 8.65025315,11.8225535 C8.65025315,12.1891443 8.65025315,12.5557351 8.74130844,12.8306782 L7.73970018,13.7471552 C7.2844237,14.0220983 6.64703663,14.4803368 6.00964956,15.1218707 C5.64542837,15.3968138 5.37226248,15.7634046 5.09909659,16.0383477 C4.916986,16.2216431 4.64382011,17.1381201 4.27959893,18.6044834 C4.09748833,19.337665 4.00643304,20.0708466 3.82432244,20.8040282 C3.73326715,21.3539144 3.27799067,22.3620391 2.73165889,24.0116977 C2.458493,24.2866408 2.27638241,24.6532317 2.00321652,25.2031179 C2.00321652,25.3864133 1.91216122,25.6613564 1.82110593,25.8446518 C1.91216122,26.4861857 1.82110593,27.8609012 1.54794004,29.8771506 C1.36582944,30.3353891 1.18371885,30.976923 0.819497667,31.5268093 C0.910552963,31.9850478 1.18371885,32.0766955 1.63899533,31.8934001 C1.82110593,31.8017524 2.09427181,31.618457 2.27638241,31.4351615 C2.27638241,30.8852753 2.27638241,30.060446 2.3674377,28.9606736 L2.458493,27.5859581 C2.5495483,27.2193673 2.91376948,26.4861857 3.55115656,25.2947656 L4.46170952,23.6451069 C4.916986,23.0952207 5.37226248,22.6369822 5.82753896,22.4536868 L6.37387074,22.2703914 C6.55598133,22.7286299 6.64703663,23.5534592 6.73809193,24.8365271 C6.82914722,25.478061 6.82914722,26.0279472 6.82914722,26.4861857 C6.73809193,27.2193673 6.73809193,27.6776058 6.82914722,28.1358443 C6.92020252,28.3191397 6.92020252,28.4107874 7.01125781,28.5024351 C7.4665343,28.8690259 8.01286607,29.4189121 8.55919785,30.2437414 C8.83236374,30.7019799 9.01447433,31.0685707 9.19658493,31.4351615 C10.2892485,31.5268093 10.8355803,31.4351615 11.1087461,31.3435138 C11.1998014,31.3435138 11.1998014,31.2518661 11.1998014,31.1602184 L11.1087461,31.0685707 C10.1071379,30.8852753 9.19658493,30.060446 8.46814255,28.7773782 C8.28603196,28.4107874 8.01286607,27.9525489 7.92181078,27.4943104 L7.73970018,26.9444242 C7.55758959,26.4861857 7.55758959,25.7530041 7.73970018,24.7448794 L8.19497667,23.1868684 C8.74130844,22.7286299 9.01447433,22.087096 9.01447433,21.3539144 L8.83236374,20.1624943 L10.1981932,19.9791989 C11.0176909,20.4374374 12.0192991,20.7123805 13.1119627,20.8040282 C13.6582944,20.8040282 14.2046262,20.8040282 14.5688474,20.7123805 C15.0241239,20.6207328 15.3883451,20.7123805 15.661511,20.9873236 C15.7525663,21.0789713 15.8436216,21.170619 15.8436216,21.3539144 C15.9346769,21.8121529 15.7525663,22.5453345 15.3883451,23.7367546 C15.2062345,24.2866408 15.0241239,24.8365271 14.750958,25.2947656 C14.8420133,26.3028903 14.750958,27.4943104 14.750958,28.7773782 C14.5688474,29.3272644 14.5688474,29.9687983 14.5688474,30.5186845 C14.5688474,30.7936276 14.6599027,31.0685707 14.6599027,31.2518661 C15.661511,31.4351615 16.2078427,31.3435138 16.298898,31.0685707 C16.298898,30.976923 16.298898,30.8852753 16.2078427,30.7019799 L16.1167874,30.5186845 C15.3883451,29.7855029 15.2062345,28.8690259 15.5704557,27.6776058 C15.5704557,27.5859581 15.7525663,27.2193673 16.1167874,26.4861857 C16.298898,26.0279472 16.3899533,25.7530041 16.298898,25.5697087 C16.2078427,25.1114702 16.2078427,24.3782885 16.298898,23.5534592 C16.3899533,22.6369822 16.5720639,21.9038006 16.8452298,21.3539144 C17.1183957,20.7123805 17.3915616,20.254142 17.5736722,20.0708466 C17.7557828,19.8875512 18.120004,19.7959035 18.5752804,19.8875512 C18.9395016,19.9791989 19.2126675,20.1624943 19.2126675,20.5290851 C19.2126675,20.9873236 19.3037228,21.170619 19.3037228,21.170619 C19.3947781,21.2622667 19.4858334,21.5372098 19.5768887,22.1787437 C19.5768887,22.4536868 19.5768887,22.7286299 19.5768887,23.003573 C19.9411099,23.4618115 20.2142758,24.1949931 20.4874417,25.2031179 C20.6695523,25.6613564 20.7606076,26.1195949 20.7606076,26.5778334 C21.1248287,27.2193673 21.6711605,28.1358443 22.4906582,29.2356167 C22.5817135,29.8771506 22.7638241,30.3353891 22.9459347,30.6103322 C23.03699,30.7936276 23.2191006,30.7936276 23.3101558,30.7936276 C24.3117641,30.7936276 24.9491512,30.7019799 24.9491512,30.5186845 C24.9491512,30.4270368 24.9491512,30.3353891 24.8580959,30.2437414 L24.7670406,30.1520937 C23.8564876,30.2437414 22.9459347,29.3272644 22.126437,27.5859581 C21.8532711,27.0360719 21.5801052,26.394538 21.3979946,25.7530041 L21.1248287,24.9281748 C20.8516628,24.1033454 20.6695523,22.9119253 20.3963864,21.2622667 L20.2142758,19.0627219 C21.8532711,19.337665 23.1280453,19.2460173 24.1296535,18.6044834 C24.58493,18.3295403 24.9491512,17.9629495 25.1312618,17.6880064 C26.13287,17.3214155 26.9523677,16.6798816 27.4986995,15.8550523 C27.7718654,15.3968138 27.953976,15.030223 27.953976,14.6636322 C28.2271418,14.113746 28.5003077,13.6555075 28.8645289,13.2889167 C28.6824183,15.8550523 29.0466395,17.6880064 30.0482478,18.6961311 C30.5035243,19.0627219 30.9588007,19.337665 31.5961878,19.4293127 C31.4140772,20.4374374 31.2319666,21.4455621 31.1409113,22.4536868 L29.6840266,24.6532317 L30.1393031,29.4189121 L30.1393031,29.7855029 C30.0482478,30.060446 29.8661372,30.3353891 29.501916,30.6103322 L29.501916,31.7101047 C29.5929713,32.3516386 29.8661372,32.534934 30.412469,32.0766955 C30.412469,31.8934001 30.5035243,31.7101047 30.5035243,31.4351615 C30.5945796,30.976923 30.8677454,30.5186845 31.1409113,30.1520937 C31.1409113,29.7855029 31.1409113,29.3272644 31.1409113,28.8690259 C31.049856,27.9525489 30.9588007,27.1277196 30.7766901,26.5778334 L32.2335749,24.561584 L32.3246302,25.6613564 C32.4156855,26.4861857 32.4156855,26.9444242 32.5067408,27.311015 L35.0562891,31.1602184 L35.6026208,31.5268093 C35.966842,31.618457 36.2400079,31.5268093 36.3310632,31.0685707 L35.6026208,30.2437414 L34.1457361,27.9525489 L33.8725702,25.3864133 C33.8725702,25.0198225 33.9636255,24.6532317 33.9636255,24.2866408 C34.1457361,23.4618115 34.418902,22.9119253 34.6920679,22.6369822 L35.0562891,22.1787437 C35.329455,21.8121529 35.4205103,21.3539144 35.329455,20.8040282 L35.5115656,20.7123805 C35.6936761,20.6207328 35.8757867,20.6207328 36.0578973,20.6207328 C36.7863397,20.6207328 37.6968927,20.8040282 38.7895562,21.3539144 L41.9764916,20.8956759 L42.1586022,20.8956759 C42.2496575,20.9873236 42.3407128,21.0789713 42.3407128,21.170619 C42.5228234,21.6288575 42.2496575,22.5453345 41.6122704,23.8284023 C41.6122704,23.8284023 41.5212151,23.92005 41.4301598,23.92005 C41.3391045,24.0116977 41.1569939,24.1949931 41.0659386,24.3782885 C40.7017174,25.0198225 40.6106621,25.9362995 40.6106621,27.0360719 L40.3374963,30.8852753 L41.5212151,30.8852753 C42.2496575,30.7936276 42.6138787,30.5186845 42.4317681,30.1520937 L41.3391045,30.2437414 L41.2480492,27.4943104 L41.9764916,26.3028903 C42.4317681,25.478061 42.6138787,24.8365271 42.5228234,24.4699362 L43.8886528,21.5372098 L44.0707634,23.003573 C44.252874,24.1033454 44.5260399,24.9281748 44.7992058,25.5697087 C46.1650352,28.4107874 46.8934776,30.060446 46.9845329,30.4270368 L49.4430259,30.2437414 C49.3519706,30.1520937 49.2609153,30.060446 49.16986,29.8771506 C48.8966941,29.6022075 48.6235282,29.4189121 48.259307,29.3272644 C48.0771964,29.2356167 47.8040306,29.0523213 47.62192,28.8690259 C47.1666435,28.5024351 46.9845329,27.9525489 46.8934776,27.4943104 L46.2560905,25.1114702 L45.3455376,20.0708466 L46.1650352,19.337665 L46.6203117,19.337665 C46.9845329,19.337665 47.2576988,19.337665 47.62192,19.337665 C48.6235282,19.1543696 49.4430259,18.6961311 49.9893577,17.7796541 L50.8999106,16.9548247 C51.628353,16.3132908 52.0836295,15.9467 52.3567954,15.8550523 C52.4478507,15.6717569 52.538906,15.4884615 52.6299613,15.2135184 C52.9031271,14.6636322 53.0852377,14.2970414 53.2673483,13.8388029 L53.5405142,13.3805644 C53.8136801,13.0139736 54.1779013,12.8306782 54.5421225,12.6473828 C54.5421225,13.8388029 54.9063437,14.8469276 55.5437307,15.7634046 C56.1811178,16.6798816 56.9095602,17.4130632 58.0022237,17.9629495 C59.5501638,18.7877788 61.2802144,19.0627219 63.3744862,18.8794265 C65.3777027,18.6961311 67.5630298,18.0545972 69.9304675,16.9548247 L70.1125781,18.6961311 C69.8394123,19.2460173 69.8394123,19.7959035 69.9304675,20.3457897 C69.9304675,20.6207328 70.0215228,20.8956759 70.1125781,21.0789713 C70.1125781,21.5372098 69.748357,22.5453345 69.2020252,24.1033454 C68.837804,24.8365271 68.7467487,25.478061 69.0199146,26.0279472 C69.1109699,26.3028903 69.2930805,26.5778334 69.4751911,26.6694811 C69.748357,27.2193673 70.5678546,28.6857305 71.8426288,31.0685707 C72.5710711,31.3435138 72.844237,31.2518661 72.6621264,30.7936276 L72.3889605,30.2437414 C71.8426288,29.6938552 71.4784076,28.6857305 71.1141864,27.2193673 L70.8410205,25.2031179 C70.7499652,24.561584 71.0231311,23.7367546 71.6605182,22.7286299 C72.0247394,22.2703914 72.3889605,21.8121529 72.6621264,21.4455621 C72.9352923,21.3539144 72.9352923,20.9873236 72.844237,20.4374374 L72.844237,19.7042558 C72.9352923,19.337665 73.0263476,19.1543696 73.2995135,19.0627219 C73.3905688,19.0627219 73.4816241,19.0627219 73.6637347,19.0627219 L73.8458453,21.4455621 L72.7531817,23.6451069 C72.2979053,24.1033454 72.1157947,24.6532317 72.20685,25.2947656 C72.20685,25.5697087 72.2979053,25.8446518 72.3889605,26.1195949 C72.9352923,26.7611288 73.9369006,28.1358443 75.2116747,30.1520937 C75.30273,30.5186845 75.3937853,30.7936276 75.3937853,31.1602184 C75.3937853,31.3435138 75.3937853,31.4351615 75.30273,31.5268093 C76.1222277,31.618457 76.7596148,31.618457 77.123836,31.4351615 C77.3059465,31.3435138 77.3970018,31.2518661 77.3970018,31.1602184 C76.6685595,30.8852753 76.0311724,30.1520937 75.30273,28.8690259 L74.4832324,27.0360719 L73.75479,24.561584 L75.3937853,22.4536868 C76.0311724,21.7205052 76.6685595,21.2622667 77.2148913,20.8956759 C77.4880571,20.7123805 77.6701677,20.6207328 77.8522783,20.6207328 C78.3986101,20.8956759 79.4002184,21.0789713 80.7660478,21.170619 C81.4944902,21.170619 82.1318773,21.170619 82.678209,21.170619 C82.8603196,21.170619 83.0424302,22.087096 83.1334855,23.7367546 C83.1334855,24.561584 83.2245408,25.478061 83.1334855,26.3028903 C83.0424302,26.5778334 82.5871537,27.0360719 81.6766008,27.8609012 L80.3107713,29.0523213 C79.9465501,29.4189121 79.582329,29.7855029 79.1270525,30.2437414 L78.5807207,30.7936276 C78.7628313,31.618457 79.0359972,31.9850478 79.4002184,31.8017524 C79.582329,31.7101047 79.6733843,31.618457 79.8554948,31.3435138 C79.8554948,31.0685707 80.3107713,30.5186845 81.3123796,29.5105598 C81.7676561,29.0523213 82.2229325,28.5940828 82.678209,28.1358443 C83.4977067,27.5859581 83.9529832,27.2193673 84.0440385,26.7611288 C84.0440385,26.6694811 84.0440385,26.5778334 83.9529832,26.394538 L83.8619279,26.3028903 C84.0440385,25.5697087 84.3172044,25.1114702 84.5903703,24.6532317 C84.8635361,24.2866408 84.9545914,24.2866408 84.9545914,24.4699362 L85.4098679,27.4943104 C85.6830338,27.7692535 85.8651444,28.3191397 85.9561997,29.143969 C86.047255,29.5105598 86.047255,29.8771506 86.047255,30.2437414 C86.1383103,30.8852753 86.2293656,31.3435138 86.5025315,31.4351615 C86.5935868,31.4351615 86.6846421,31.4351615 86.8667527,31.3435138 C87.9594162,31.5268093 88.505748,31.5268093 88.505748,31.4351615 C88.505748,31.4351615 88.4146927,31.3435138 88.1415268,31.2518661 C87.595195,31.3435138 87.1399185,30.6103322 86.7756974,29.2356167 L86.5025315,27.2193673 C86.5935868,26.9444242 86.5025315,26.5778334 86.4114762,26.2112426 L86.2293656,25.6613564 C86.1383103,25.2947656 85.9561997,24.2866408 85.7740891,22.6369822 L85.5919785,20.254142 C85.6830338,19.8875512 85.9561997,19.5209604 86.5025315,19.1543696 C86.7756974,18.9710742 86.957808,18.7877788 87.2309738,18.6961311 C87.7773056,18.7877788 88.2325821,18.8794265 88.7789139,18.7877788 C89.0520798,18.7877788 89.2341904,18.6961311 89.3252457,18.6961311 C89.9626327,18.6044834 90.5089645,18.2378926 91.0552963,17.8713018 C91.3284622,17.6880064 91.5105728,17.4130632 91.6926834,17.2297678 C91.7837387,16.863177 91.874794,16.5882339 92.0569045,16.3132908 C92.1479598,16.1299954 92.2390151,16.0383477 92.2390151,15.9467 C93.3316787,15.8550523 93.9690658,15.5801092 94.2422317,15.1218707 C94.333287,14.9385753 94.333287,14.6636322 94.2422317,14.4803368 C94.2422317,13.9304506 94.333287,13.3805644 94.6064528,12.6473828 L94.970674,11.8225535 C95.0617293,11.6392581 95.1527846,11.4559627 95.3348952,11.2726673 L95.4259505,11.6392581 C95.6080611,12.9223259 95.881227,13.9304506 96.0633376,14.4803368 C96.4275588,15.4884615 97.0649458,16.2216431 97.8844435,16.6798816 C98.5218306,17.0464724 99.1592177,17.2297678 99.88766,17.1381201 C100.525047,17.0464724 101.253489,16.863177 101.981932,16.3132908 C102.528264,15.9467 103.074595,15.3968138 103.803038,14.7552799 C103.438817,15.6717569 103.074595,17.0464724 102.710374,18.8794265 C102.528264,19.4293127 102.072987,20.5290851 101.344545,22.2703914 C101.071379,22.5453345 100.707158,22.9119253 100.525047,23.4618115 C100.433992,23.7367546 100.342937,24.0116977 100.251881,24.1949931 C100.342937,24.8365271 100.160826,26.3028903 99.7966047,28.4107874 C99.6144941,28.9606736 99.3413283,29.5105598 98.9771071,30.1520937 C99.0681624,30.6103322 99.4323835,30.7936276 99.88766,30.5186845 C100.160826,30.4270368 100.342937,30.2437414 100.616102,30.060446 C100.616102,29.4189121 100.707158,28.5940828 100.798213,27.4943104 L100.980324,26.0279472 C101.071379,25.6613564 101.526655,24.9281748 102.346153,23.6451069 C102.710374,23.003573 103.074595,22.4536868 103.438817,21.9954483 C103.985148,21.4455621 104.53148,20.9873236 105.077812,20.7123805 C105.350978,20.6207328 105.533088,20.5290851 105.715199,20.5290851 C105.89731,20.9873236 105.988365,21.9038006 106.07942,23.1868684 C106.07942,23.8284023 106.170475,24.3782885 106.170475,24.9281748 C105.988365,25.6613564 105.988365,26.2112426 106.07942,26.5778334 C106.170475,26.7611288 106.261531,26.9444242 106.261531,26.9444242 C106.807863,27.311015 107.44525,27.8609012 107.991581,28.7773782 C108.264747,29.2356167 108.537913,29.6022075 108.720024,29.9687983 C109.903743,30.060446 110.632185,30.060446 110.905351,29.8771506 C110.996406,29.7855029 110.996406,29.6938552 110.905351,29.6022075 C109.721632,29.3272644 108.720024,28.5024351 107.991581,27.1277196 C107.718416,26.6694811 107.536305,26.2112426 107.354194,25.7530041 L107.172084,25.1114702 C106.989973,24.6532317 107.081028,23.8284023 107.263139,22.8202776 L107.718416,21.3539144 C108.355803,20.8956759 108.628968,20.254142 108.720024,19.4293127 C108.720024,19.1543696 108.720024,18.8794265 108.628968,18.6044834 L108.537913,18.2378926 L110.085853,18.1462449 C111.087461,18.6961311 112.180125,18.9710742 113.454899,19.0627219 C114.092286,19.0627219 114.638618,19.0627219 115.093895,19.0627219 C115.640226,18.9710742 116.095503,19.0627219 116.368669,19.337665 C116.459724,19.4293127 116.550779,19.5209604 116.550779,19.7042558 C116.641835,20.1624943 116.459724,20.9873236 115.913392,22.1787437 C115.640226,22.7286299 115.458116,23.2785161 115.18495,23.8284023 C115.18495,24.9281748 115.18495,26.1195949 115.002839,27.4943104 C114.820729,28.1358443 114.729673,28.6857305 114.729673,29.3272644 C114.729673,29.6938552 114.729673,29.8771506 114.820729,30.1520937 C116.004447,30.3353891 116.641835,30.3353891 116.73289,29.9687983 C116.823945,29.7855029 116.73289,29.6022075 116.550779,29.4189121 C115.640226,28.6857305 115.458116,27.6776058 116.004447,26.4861857 C116.004447,26.394538 116.277613,25.9362995 116.641835,25.2031179 C116.823945,24.7448794 117.006056,24.4699362 116.915,24.2866408 C116.823945,23.7367546 116.823945,23.003573 117.006056,22.1787437 C117.188166,21.2622667 117.370277,20.4374374 117.734498,19.8875512 C118.098719,19.1543696 118.371885,18.7877788 118.645051,18.6044834 C118.918217,18.421188 119.282438,18.3295403 119.82877,18.421188 C120.284046,18.5128357 120.466157,18.6961311 120.557212,19.1543696 C120.557212,19.2460173 120.557212,19.337665 120.557212,19.5209604 C120.557212,19.6126081 120.557212,19.7042558 120.648268,19.7959035 C120.830378,19.8875512 120.830378,20.254142 120.921433,20.8040282 C120.921433,21.170619 120.921433,21.4455621 120.921433,21.7205052 C121.285655,22.1787437 121.649876,22.9119253 121.923042,24.0116977 C122.105152,24.561584 122.196208,25.0198225 122.287263,25.478061 C122.651484,26.2112426 123.379926,27.1277196 124.199424,28.3191397 C124.290479,28.9606736 124.47259,29.4189121 124.745756,29.6938552 C124.927867,29.8771506 125.018922,29.8771506 125.201032,29.9687983 C126.384751,29.9687983 127.022138,29.8771506 127.113194,29.6938552 C127.113194,29.6022075 127.113194,29.4189121 126.931083,29.3272644 C125.929475,29.4189121 124.927867,28.5024351 124.017314,26.5778334 C123.744148,26.0279472 123.470982,25.3864133 123.197816,24.6532317 L122.92465,23.7367546 C122.651484,22.8202776 122.378318,21.5372098 122.196208,19.8875512 L122.014097,17.5963587 C123.835203,17.8713018 125.383143,17.7796541 126.475807,17.2297678 C127.022138,16.9548247 127.38636,16.5882339 127.659525,16.2216431 C128.752189,15.8550523 129.662742,15.3051661 130.300129,14.4803368 C130.66435,14.0220983 130.846461,13.5638598 130.937516,13.1056213 C131.119627,14.113746 131.483848,14.9385753 132.03018,15.4884615 C132.758622,16.1299954 133.76023,16.4049385 135.035004,16.3132908 L135.399226,16.3132908 L135.672391,20.3457897 C135.672391,21.5372098 135.945557,23.2785161 136.309779,25.5697087 C135.763447,25.7530041 135.217115,25.9362995 134.761839,26.394538 L134.215507,26.9444242 C134.124451,26.9444242 134.033396,26.9444242 133.942341,27.0360719 C133.76023,27.2193673 133.57812,27.4943104 133.487064,27.9525489 C133.487064,28.1358443 133.57812,28.5024351 133.851286,28.7773782 C133.942341,28.9606736 134.306562,29.2356167 134.761839,29.6938552 C134.943949,29.8771506 135.217115,30.1520937 135.581336,30.4270368 C135.763447,30.6103322 135.945557,30.7019799 135.945557,30.7019799 C136.127668,30.6103322 136.127668,30.2437414 135.763447,29.5105598 L135.217115,28.5024351 C135.581336,27.8609012 135.945557,27.6776058 136.218723,28.0441966 C136.400834,28.227492 136.491889,28.4107874 136.491889,28.6857305 C136.491889,29.2356167 136.765055,29.4189121 137.402442,29.3272644 C137.675608,29.3272644 138.039829,29.143969 138.40405,29.0523213 C138.586161,29.5105598 138.677216,29.8771506 138.859327,30.1520937 C138.950382,30.3353891 139.041437,30.3353891 139.041437,30.4270368 C140.589377,30.4270368 141.590986,30.4270368 142.046262,30.1520937 C142.046262,29.6938552 142.046262,29.6022075 142.046262,29.4189121 Z M12.3835203,10.2645425 C12.3835203,10.1728948 12.292465,10.1728948 12.292465,10.0812471 L12.0192991,8.98147473 L12.2014097,8.98147473 C12.292465,8.98147473 12.3835203,9.07312243 12.4745756,9.16477013 C12.5656309,9.25641783 12.7477415,9.34806553 13.0209074,9.53136094 C13.3851286,9.71465634 13.5672391,9.80630404 13.7493497,9.89795174 C13.2940733,9.89795174 12.8387968,10.0812471 12.3835203,10.2645425 Z M112.362236,8.33994082 C112.27118,7.97335001 112.27118,7.60675921 112.362236,7.2401684 L112.453291,6.7819299 L112.817512,6.7819299 C113.090678,6.8735776 113.272789,6.9652253 113.363844,7.056873 C113.545954,7.3318161 113.81912,7.51511151 114.001231,7.69840691 C113.545954,7.79005461 112.999623,7.97335001 112.362236,8.33994082 Z" id="Shape"></path>
                        </g>
                    </g>
                </g>
            </g>
        </g>
    </g>
</svg>