<?xml version="1.0" encoding="UTF-8"?>
<svg width="126px" height="41px" viewBox="0 0 126 41" version="1.1" xmlns="http://www.w3.org/2000/svg" xmlns:xlink="http://www.w3.org/1999/xlink">
    <!-- Generator: Sketch 51.1 (57501) - http://www.bohemiancoding.com/sketch -->
    <title>teacherly</title>
    <desc>Created with Sketch.</desc>
    <defs></defs>
    <g id="Home-Page-small" stroke="none" stroke-width="1" fill="none" fill-rule="evenodd">
        <g id="teacherly" fill="#FFFFFF" fill-rule="nonzero">
            <path d="M21.6601388,15.5155267 C23.1848021,15.3494078 24.7157971,15.2256662 26.2320182,15.0002192 C27.0846815,14.8735112 27.8381488,14.4404156 28.4388121,13.7924672 C28.9930433,13.1941003 29.136983,12.2698523 28.7925408,11.6774182 C28.5152141,11.2010978 28.1049227,11.0434544 27.5739076,11.0883743 C27.0606212,11.1320228 26.8816463,11.4689221 26.700983,11.8922709 C26.6022091,12.123227 26.3286815,12.3918988 26.0965207,12.4334285 C25.0610835,12.6194647 24.0125609,12.8419453 22.9674152,12.8483019 C18.3854052,12.8762709 13.8684002,12.3677437 9.50504348,10.8807257 C7.63636008,10.2437955 5.86222945,9.38862233 4.38146564,8.04611072 C3.14763651,6.92777481 2.28019933,5.58822961 2.64996817,3.82745443 C2.77195812,3.24561464 3.22446063,2.7358162 3.51191791,2.18618313 C3.70313399,1.82089114 4.02647067,1.43864825 4.01802846,1.07038986 C3.9956566,0.106730953 3.00622947,-0.288225115 2.11768677,0.227506146 C0.810410401,0.98605911 0.265043572,2.19762499 0.0712948302,3.62446735 C-0.32928808,6.57138205 0.990651605,8.72668952 3.21432997,10.4522916 C5.72673196,12.400798 8.65238017,13.4458213 11.6738475,14.2336145 C14.9388726,15.0849737 18.2765007,15.3939039 21.6601388,15.5155267" id="path14" transform="translate(14.489156, 7.757763) scale(-1, 1) rotate(-180.000000) translate(-14.489156, -7.757763) "></path>
            <path d="M6.01507538,5.8899704 C6.1839196,6.49766031 6.37007035,7.37275074 6.66934673,8.20673523 C8.4451658,13.1572468 10.4362613,18.0157997 13.0651658,22.581102 C14.1495678,24.4643475 15.2601406,26.343779 16.8012662,27.9036859 C17.102231,28.2083784 17.5205426,28.4168746 17.9169044,28.5999443 C18.3415476,28.7965748 18.8282411,28.7211433 19.0692662,28.3325438 C19.2714572,28.0062389 19.3436381,27.5485645 19.3292863,27.154456 C19.3199999,26.8959547 19.0954371,26.6073655 18.8974672,26.399717 C16.8755577,24.2749211 15.4420703,21.7598307 14.1195979,19.1722752 C11.8942311,14.8175879 10.0403216,10.3107662 8.66466329,5.61112802 C8.62287435,5.46831665 8.58404018,5.32465774 8.53338691,5.18523655 C8.24592963,4.39447687 7.75881405,4.04401693 7.10201004,4.15038385 C6.44393969,4.25717455 6.02436181,4.82630116 6.01507538,5.8899704" id="path16" transform="translate(12.673061, 16.418224) scale(-1, 1) rotate(-180.000000) translate(-12.673061, -16.418224) "></path>
            <path d="M40.0604085,11.343544 C39.9789412,11.0053734 39.852308,10.6625414 39.6720668,10.3671719 C38.2550417,8.04659309 36.7295342,5.80356468 34.8270819,3.84870165 C34.5214739,3.53468615 34.1491724,3.25881019 33.7599865,3.05878952 C32.7427001,2.53585412 32.0504388,3.00412285 32.0820971,4.26866031 C32.2256146,6.11630887 33.0571724,7.79868611 34.1930719,9.35054139 C35.2158458,10.7477197 36.4821774,11.8334251 38.1659764,12.3495801 C38.4639864,12.4406912 38.7763482,12.5186654 39.0853332,12.5334974 C39.9076045,12.5746034 40.2562678,12.1516783 40.0604085,11.343544 Z M21.9024791,9.15899617 C22.6914037,10.4146344 23.6766097,11.4876266 24.945474,12.2669445 C25.2709212,12.4669651 25.6394237,12.6195233 26.0083484,12.7144483 C26.2067403,12.765301 26.5473835,12.7199574 26.6436247,12.5868928 C26.7470418,12.4432339 26.7234036,12.0855698 26.6094338,11.9275026 C26.1793031,11.3295595 25.758881,10.6926292 25.2054941,10.2239367 C24.4659564,9.59802459 23.6225795,9.08822615 22.7889112,8.58647938 C22.5001876,8.41273262 22.108469,8.41103753 21.7640268,8.3309445 C21.7256147,8.37967835 21.6867806,8.42798843 21.6479464,8.47629851 C21.7306801,8.70513571 21.7758459,8.95812796 21.9024791,9.15899617 Z M64.3013731,17.3301796 C64.9889912,18.8205878 65.7475238,20.2677713 66.6499962,21.6234198 C67.0109007,22.165425 67.3950213,22.6930219 67.8070012,23.2028203 C68.0125691,23.4579314 68.2257349,23.708381 68.4460766,23.9537454 C68.4756243,23.9872234 68.5055942,24.0240916 68.5359861,24.0626549 C68.7478856,24.3330219 68.9804685,24.6864482 69.3561469,24.4529495 C69.3932927,24.4300658 69.417353,24.3686188 69.4304384,24.2872544 C69.4675841,24.0571459 69.4152424,23.6592234 69.3033831,23.4541175 C68.7850314,22.5069857 68.2628806,21.5573113 67.6904987,20.6423862 C67.4997047,20.33727 67.3034233,20.0363914 67.0995439,19.7405981 C66.9344987,19.5007428 66.7597449,19.2680917 66.5778153,19.040102 C66.0324485,18.3557093 65.4262977,17.71327 64.8526495,17.0509134 C64.7758254,16.9619212 64.6816947,16.887761 64.583343,16.8178385 C64.4849912,16.747916 64.3819962,16.6813837 64.2865992,16.6089186 C64.2410113,16.6445155 64.1954234,16.6801124 64.1502575,16.7157093 C64.1988002,16.921239 64.2148404,17.1420245 64.3013731,17.3301796 Z M76.4391619,8.74030884 C76.458579,8.82845354 76.4826393,8.91320806 76.5261167,8.98652072 C76.7426594,9.35181271 76.9756644,9.70057756 77.2272423,10.0319677 C77.729976,10.6934768 78.3057348,11.2825207 78.9654936,11.7855388 C79.2951619,12.0368359 79.6463579,12.2669445 80.0199257,12.4733217 C80.0794433,12.506376 80.1465589,12.5284122 80.2098755,12.5555336 C80.4006694,12.6373217 80.601594,12.7030065 80.8029408,12.7335181 C80.9380162,12.7538592 81.1368302,12.7419936 81.257976,12.6864793 C81.2984986,12.6682571 81.3301569,12.6449496 81.3483076,12.6165569 C81.445393,12.4623036 81.4483478,12.1728669 81.368991,11.9974251 C81.2258956,11.682562 81.0135739,11.3905827 80.7902775,11.1223347 C80.6796845,10.9892701 80.5665589,10.8587481 80.4513227,10.7311925 C80.1047699,10.3489497 79.7366895,9.99340443 79.3399056,9.67472744 C78.8114232,9.24968351 78.2322875,8.89032434 77.5868805,8.61995742 C77.5016142,8.58393675 77.4138152,8.55300135 77.3247499,8.5258799 C77.057976,8.44409179 76.7781167,8.39196776 76.5079659,8.3186551 C76.4404283,8.30890833 76.3712021,8.32585923 76.3838654,8.47545096 C76.4075036,8.61487215 76.4205891,8.65216414 76.4391619,8.74030884 Z M98.1943175,5.11451043 C98.3618954,6.50914607 98.7937145,7.25625718 98.734619,8.7068308 C98.7223778,9.0038954 100.095926,10.2972494 100.087483,10.5883812 C100.014036,10.3735285 98.8945989,9.78490831 98.7949808,9.58192123 C97.8806894,7.72410213 95.5367095,5.43996779 93.9229808,4.10466031 C93.4713226,3.73089287 92.9571919,3.4117921 92.4261768,3.16642776 C92.1910613,3.05794197 91.7237849,3.08718228 91.5768904,3.24991096 C91.4004482,3.44527013 91.3687899,3.86607633 91.4266191,4.15932697 C91.5034432,4.55046909 91.6790412,4.94330629 91.8947397,5.28274815 C92.6621366,6.48922876 93.4763879,7.66562151 94.2513829,8.86744062 C95.1931115,10.3281848 95.0052723,11.5155956 93.6363678,12.5644328 C93.0348603,13.0250737 92.3708804,13.4047739 91.7250512,13.8048152 C91.2797246,14.081115 91.0716241,14.4175904 91.2244281,14.9667997 C91.3523276,15.4282881 91.4544784,15.9101176 91.4734733,16.386438 C91.5211718,17.5602881 90.7567296,18.0887325 89.6520663,17.6882674 C88.4321668,17.2466964 87.6706794,15.8062933 88.0155437,14.5265 C88.1949407,13.8620246 88.2472824,13.242469 87.9298553,12.5898592 C86.6698553,9.99891348 85.2114633,7.56306854 83.0637649,5.5836267 C81.937996,4.54538382 80.7180966,3.70673783 79.2757448,3.21261897 C78.2327097,2.85495489 77.1613931,2.61340451 76.0605288,2.9244536 C75.286378,3.14269649 74.8621569,3.77962672 74.8676444,4.60937348 C74.8718655,5.2835957 75.1648102,5.58701688 76.0622172,5.84721326 C76.2044685,5.88874298 76.3471418,5.92984892 76.4910815,5.96247941 C78.1069207,6.32607631 79.5560262,7.03038638 80.8683679,8.04744063 C82.1570714,9.04584889 83.2389408,10.1870685 83.7142372,11.798252 C84.251584,13.6204742 83.0903578,15.1524121 81.2022574,15.1422416 C80.2001669,15.1363088 79.3166895,14.7790685 78.4872423,14.2688463 C76.2817147,12.9115026 74.8427398,10.8892597 73.5856946,8.67504786 C73.0247097,7.68681014 72.3092323,6.75493418 71.5160866,5.94213833 C70.883765,5.29376624 70.0631821,4.8009187 69.2599057,4.36146651 C68.6866796,4.04787478 68.1852123,4.44410217 68.2991821,5.09247425 C68.4000665,5.66668613 68.6275841,6.23072747 68.8728303,6.76595227 C69.3827399,7.87877913 69.9576545,8.96194191 70.4734735,10.0722261 C70.8613931,10.9074819 71.0665389,11.7902003 70.9846494,12.7254664 C70.8668806,14.0819625 69.879564,14.9587481 68.5300766,14.9176421 C67.3642072,14.882469 66.385755,14.3858075 65.4908806,13.6946344 C64.0358656,12.5703656 62.872951,11.1693734 61.7813731,9.70142511 C61.6496746,9.52386439 61.4909611,9.22468093 61.2799058,9.25095483 C61.0950214,9.37003493 61.1634033,9.57175069 61.1912626,9.67345612 C61.6606495,11.3931254 62.4212927,12.8568359 63.93076,13.9827997 C66.6584384,16.017332 68.9901771,18.4654664 70.6554032,21.4865413 C71.2193429,22.5099521 71.5992424,23.5863345 71.5591419,24.7784069 C71.5059559,26.3582311 70.2227399,27.2430683 68.7445087,26.7133526 C67.806157,26.3773009 67.080549,25.7395231 66.4600465,24.9902932 C64.4643078,22.5798746 62.9945188,19.8588307 61.8332927,16.9623449 C61.3626395,15.7889186 60.9384184,14.5985413 59.8911621,13.7709134 C59.5589611,13.5081744 59.4584988,13.1149134 59.5475641,12.6589341 C59.6053933,12.3614458 59.5690917,12.0270892 59.5002877,11.7266344 C59.1701973,10.2913166 58.3453933,9.12975586 57.4294134,8.01735278 C56.14873,6.46125977 54.8300566,4.95178175 53.0669009,3.91184377 C51.8689511,3.20499107 50.6245692,2.65196782 49.1982577,2.70536316 C47.9167301,2.75367324 47.1518657,3.49103758 47.160308,4.72548718 C47.1636848,5.27554402 47.267524,5.83873781 47.4152627,6.37141998 C47.8804286,8.05167836 48.7837451,9.49504785 49.9217552,10.795606 C50.7524687,11.7448566 51.7022175,12.5496008 52.9297149,12.9148928 C53.2192828,13.0009186 53.6738958,12.9441331 53.8773531,12.7593682 C54.0132727,12.6356266 53.9271622,12.1173527 53.7836446,11.8664794 C53.5189813,11.4032959 53.1403481,11.0053734 52.8064587,10.5828721 C52.3505793,10.0056938 52.3244084,9.39037602 52.7410315,8.96787473 C53.1770717,8.5258799 53.9693732,8.48943546 54.4446697,9.01872744 C55.0090315,9.64633467 55.5906998,10.3154716 55.9368305,11.0714819 C56.8810918,13.1348308 55.7485692,15.0112959 53.4961873,15.2452183 C52.2851521,15.3710788 51.2623783,14.8439057 50.2868808,14.217146 C48.0657351,12.7890323 46.6841673,10.68373 45.5474235,8.35806595 C45.0944989,7.43212281 44.5419562,6.53541997 43.9062577,5.72770939 C43.4723281,5.17638123 42.8606899,4.72421586 42.2482075,4.3678231 C41.4884085,3.92582827 40.9282678,4.26230372 40.898298,5.1505311 C40.8746598,5.8311099 40.9417754,6.52779207 41.0713633,7.19777656 C41.4094738,8.94626233 42.1933331,10.5320194 42.9522879,12.1249806 C43.1578557,12.5563812 43.3473834,13.0161744 43.4258959,13.4827481 C43.6036045,14.5341279 42.9953432,15.0066344 41.9696145,14.733301 C41.5555241,14.6231202 41.0962678,14.5985413 40.6686698,14.6434612 C39.5555643,14.7604225 38.4525894,14.8519574 37.3681875,14.4760711 C35.0516448,13.673022 33.2678056,12.1677817 31.9575744,10.1328256 C30.9048307,8.49791091 29.7773735,6.95071713 28.3645695,5.60481533 C27.2552629,4.54792645 26.026077,3.71987478 24.5837253,3.22278952 C23.5221172,2.85664999 22.4339162,2.60747169 21.3157454,2.93081019 C20.5546801,3.15117195 20.1317253,3.81310476 20.1498761,4.63819002 C20.1638057,5.28529079 20.4584389,5.58913575 21.3191223,5.84000913 C21.4609514,5.88153884 21.6036248,5.92264479 21.7479866,5.9548515 C23.3828208,6.32141481 24.8504991,7.03123392 26.175082,8.06354399 C27.4443685,9.05262925 28.5114639,10.182407 28.988871,11.7719781 C29.4489714,13.3047636 28.7115443,14.8015284 27.2269815,15.0460452 C26.4937755,15.1668204 25.6537755,15.065115 24.945474,14.8205982 C23.1553032,14.202314 21.8172127,12.9225207 20.6792027,11.4460969 C19.2613334,9.60692382 18.0870218,7.63426234 17.7755042,5.27003497 C17.4137555,2.52525981 19.1790218,0.514882567 21.9434238,0.453859312 C24.4710218,0.397921328 26.6351825,1.36073269 28.6431624,2.78715128 C29.0293936,3.06133215 29.3962076,3.36348202 29.8225393,3.69190579 C29.8347805,3.4427275 29.8390016,3.27830373 29.8508207,3.1147275 C29.9428408,1.86925981 30.5983785,0.937807627 31.6473232,0.605993677 C32.4907001,0.339016936 33.3416749,0.380546651 34.1483282,0.728887733 C35.541293,1.33064483 36.6354035,2.32015387 37.6058357,3.47408667 C38.3424186,4.35002465 38.4006699,4.3275647 38.9709412,3.3668722 C39.8430216,1.89722881 41.0688306,1.3976009 42.6496346,2.03241227 C43.4752829,2.36380244 44.2055341,2.9337766 44.9860165,3.40077401 C44.9881271,3.39526497 45.0324487,3.31813835 45.0632627,3.23677401 C45.7985793,1.25648463 47.3291522,0.450045358 49.3232024,0.329270166 C51.3425793,0.206799883 53.0289109,1.08443295 54.6375742,2.15445878 C55.2981772,2.5934872 55.9077049,3.10964223 56.6046094,3.63935799 C56.5071018,3.31305308 56.4205692,3.05412802 56.3534536,2.79096523 C56.2804285,2.50322363 56.1972727,2.21378694 56.1694134,1.92011253 C56.1200265,1.40946654 56.1048305,0.889073777 56.7042275,0.649642255 C57.2018958,0.451316676 57.6016345,0.618283083 58.0098154,1.21114096 C58.3994234,1.77730116 58.7658154,2.35956472 59.1465591,2.93165774 C61.108951,5.87814866 63.1599862,8.75471711 65.7703178,11.1744587 C66.2308404,11.6011977 66.7517248,11.9707274 67.2700766,12.3161021 C68.4557851,13.1047429 68.5258555,11.9745414 68.3384384,11.3566809 C68.3283077,11.3240504 68.3088907,11.2893011 68.2924283,11.255823 C67.7930716,10.2184277 67.2928706,9.18145612 66.7947801,8.14321324 C66.2413932,6.98970421 65.8631821,5.79042773 65.9564686,4.49198847 C66.0700163,2.9197921 67.4798655,1.71839677 68.9475439,1.94808152 C69.3823178,2.01588514 69.8318655,2.12140451 70.2206293,2.31761123 C71.0074434,2.71341484 71.7575338,3.18337866 72.4236243,3.56562155 C72.8149208,2.93420037 73.1281268,2.17056214 73.6604082,1.62135284 C74.8570916,0.386479467 76.4383177,0.3055389 78.0199659,0.525053109 C80.9747398,0.936112537 83.3617749,2.45279469 85.3870613,4.57123395 C87.1109608,6.37438638 88.3384583,8.51909954 89.4190613,10.7549238 C90.1379156,12.2427894 90.3337749,12.2868618 91.7322271,11.3787171 C92.4907598,10.8862933 92.5616743,10.4612494 92.056408,9.72049488 C91.3869407,8.73903752 90.6921467,7.7694458 90.0999256,6.74179723 C89.6871015,6.02519776 89.3405487,5.24460862 89.1151417,4.44961121 C88.493795,2.25870684 89.8774734,0.60641745 92.1277447,0.794572486 C93.1188603,0.877208145 93.9968502,1.31284638 94.740609,1.93240193 C95.7329909,2.75833474 96.6472823,3.67919261 97.5797245,4.54496005 C98.1567497,5.11451043 98.1922069,5.12298588 98.1943175,5.11451043 Z" id="path18" transform="translate(58.908083, 13.592527) scale(-1, 1) rotate(-180.000000) translate(-58.908083, -13.592527) "></path>
            <path d="M113.63292,10.9879999 C112.161021,8.15974152 110.507614,5.45946248 108.100317,3.31178291 C107.378086,2.66764855 106.555815,2.22819636 105.558367,2.21251677 C104.586669,2.19768473 103.980518,2.86555036 104.272619,3.79700255 C104.488739,4.48520926 104.87497,5.14375189 105.294126,5.73830485 C106.308036,7.1761653 107.770227,8.12668726 109.172478,9.12890947 C110.377603,9.9900154 111.607211,10.8180671 112.841041,11.6380671 C113.115835,11.8202893 113.626166,12.0224288 113.760397,12.0402273 C113.895051,12.0576019 113.921644,11.9779327 113.914046,11.8681756 C113.822448,11.5736536 113.772639,11.2570955 113.63292,10.9879999 Z M100.615875,25.3004959 C101.952699,29.2822633 103.62299,33.097488 106.221081,36.4380875 C106.63095,36.9648368 107.070789,37.4699738 107.531312,37.952227 C107.646548,38.0730022 107.913744,38.1391107 108.074146,38.0950384 C108.194026,38.0619841 108.418588,37.8678963 108.396217,37.56278 C108.121,36.7173536 107.891794,35.8176844 107.540176,34.9688679 C106.175915,31.677426 104.208458,28.7576328 101.958186,26.0187904 C101.686769,25.6886716 101.452498,25.3254985 101.161664,25.0152969 C101.03081,24.8762995 100.589282,24.5160928 100.179396,24.0109558 C100.176458,24.1982633 100.560156,25.1335295 100.615875,25.3004959 Z M123.471051,23.3757207 C123.425463,23.2947801 123.386628,23.2104494 123.340618,23.1303564 C122.233,21.2149042 120.881402,19.4973538 119.213644,18.0412711 C118.986548,17.8429456 118.704156,17.7077621 118.319613,17.4611264 C118.301041,17.8412505 118.249121,18.0777156 118.287533,18.2980773 C118.366468,18.7540567 118.494367,19.2024081 118.601583,19.6537259 C119.053664,21.5496845 119.51883,23.4426768 119.94896,25.3432969 C120.097121,25.9980256 119.790669,26.6044442 119.303553,26.8044648 C118.777603,27.0201651 118.157523,26.7781909 117.786066,26.183638 C117.589784,25.8700463 117.411654,25.5416225 117.261804,25.2034519 C116.073985,22.5256328 114.486428,20.110129 112.451433,18.0133021 C111.866387,17.4106975 111.12896,16.9339533 110.40293,16.4970438 C109.746548,16.1020877 109.167413,16.4148319 109.076237,17.1771988 C109.017563,17.6666562 109.014186,18.1934055 109.129423,18.6684546 C109.777784,21.3390696 110.737664,23.8804339 112.338307,26.1459222 C112.590307,26.5027388 112.799252,26.9125269 112.927151,27.3290953 C113.069402,27.7910075 112.875232,28.2135088 112.48689,28.5042168 C112.122608,28.7767026 111.704297,28.7711935 111.353945,28.5105734 C111.001483,28.2486819 110.629603,27.9562788 110.403774,27.5914106 C109.642709,26.3616225 108.870247,25.1292917 108.236659,23.8317 C107.216418,21.7425011 106.001161,19.8011988 104.39292,18.123483 C103.709523,17.4106975 102.971252,16.7563926 101.971694,16.5034004 C101.184036,16.3038035 100.502749,16.5144184 100.103011,17.1314314 C99.3360357,18.3133331 98.9308096,20.4605889 100.411996,22.2005993 C101.280277,23.2201961 102.304739,23.1345941 103.196237,24.1325786 C106.003272,27.2765475 108.238769,30.7891987 109.808176,34.7116379 C110.298247,35.9367645 110.696719,37.1996069 110.650287,38.552289 C110.599634,40.0240513 109.421945,41.0385629 107.977905,40.8432037 C106.837784,40.6889505 106.004538,39.9901495 105.307212,39.1629453 C102.017704,35.2621185 99.9865081,30.7019015 98.5086991,25.8645372 C98.2339051,24.9657155 98.0329805,23.9096742 97.6902267,22.5324132 C97.3922167,20.6771367 97.5239152,19.407514 97.6311312,17.5242686 C98.0701262,15.741881 99.2929805,14.4586975 100.811312,14.247235 C102.098327,14.0679792 103.297543,14.3875037 104.343111,15.128682 C105.183533,15.7240825 105.94291,16.435173 106.731835,17.0894779 C106.767714,16.9275967 106.802327,16.7089301 106.865644,16.4995864 C107.217684,15.3312453 107.827634,14.3841135 109.115493,14.1383254 C110.082126,13.9535606 110.990086,14.2082479 111.833463,14.6994004 C113.125121,15.4507492 114.113282,16.533912 115.063031,17.6615709 C115.198528,17.8217569 115.382568,17.9404133 115.606287,18.1311109 C115.803412,16.6330748 115.193041,15.3388732 114.069804,14.6735502 C112.650247,13.8323616 111.224779,13.0017673 109.814086,12.1457466 C107.633885,10.8223048 105.552458,9.36918854 103.789302,7.49611362 C102.960699,6.61551415 102.304317,5.64422733 101.999553,4.45851158 C101.574066,2.80579842 102.121543,1.33700257 103.522528,0.58056847 C104.033282,0.304268731 104.629724,0.189002582 105.187332,0 L106.189845,0 C108.920056,0.677612396 110.797603,2.46127129 112.337041,4.71616533 C114.11286,7.31685781 115.640056,10.0345115 116.575875,13.0682996 C116.698287,13.4653745 117.056659,13.8895709 117.420518,14.096372 C120.784317,16.0075864 123.351593,18.6917621 125.239694,22.0552453 C125.401362,22.3425631 125.518709,22.5828421 125.692196,22.935421 C125.866106,23.287576 125.692196,23.4948008 125.692196,23.4948008 C124.929865,24.6122892 124.138829,24.5699119 123.471051,23.3757207 Z" id="path38" transform="translate(111.638514, 20.433637) scale(-1, 1) rotate(-180.000000) translate(-111.638514, -20.433637) "></path>
        </g>
    </g>
</svg>