<?xml version="1.0" encoding="UTF-8"?>
<svg width="98px" height="37px" viewBox="0 0 98 37" version="1.1" xmlns="http://www.w3.org/2000/svg" xmlns:xlink="http://www.w3.org/1999/xlink">
    <!-- Generator: Sketch 51.1 (57501) - http://www.bohemiancoding.com/sketch -->
    <title>veeqo-logo</title>
    <desc>Created with Sketch.</desc>
    <defs></defs>
    <g id="Home-Page-small" stroke="none" stroke-width="1" fill="none" fill-rule="evenodd">
        <g id="veeqo-logo" fill="#FFFFFF" fill-rule="nonzero">
            <path d="M90.1990095,29.8412398 C94.8243178,25.1204117 95.9574554,17.9778774 93.021467,12.0503738 C90.0854786,6.12287024 83.7258589,2.71359445 77.1807109,3.55843434 C70.635563,4.40327424 65.3438768,9.31648671 64,15.7964302 C64.6694553,6.8479011 72.1313765,-0.0537424754 81.0784485,0.000315381058 C90.0255205,0.0543732375 97.4039951,7.0456819 97.9659089,16.0016509 C98.5278226,24.9576199 92.0813873,32.8214644 83.2116504,34 C85.8697821,33.2656604 88.2827861,31.8294804 90.1990095,29.8412398 Z" id="Shape"></path>
            <path d="M70.7497225,29.0480931 C75.4811545,31.7007608 81.3777859,31.080576 85.449813,27.5019947 C89.5218401,23.9234133 90.8787321,18.1690523 88.8324961,13.1565791 C86.7862601,8.1441058 81.7843971,4.96972181 76.363031,5.24295363 C83.6099805,3.88488386 90.6759041,8.34709175 92.5408434,15.4594186 C94.4057826,22.5717455 90.4342028,29.9104504 83.4476977,32.2617781 C76.4611927,34.6131059 68.8406258,31.1757704 66,24.3918135 C67.1392628,26.3377407 68.7789569,27.9451764 70.7497225,29.0480931 Z" id="Shape"></path>
            <path d="M84.8770739,14.2341252 C84.1265427,12.9444346 83.0364534,11.8781552 81.7218147,11.1477836 C80.4130889,10.3944255 78.9241046,9.99823994 77.4082058,10.0000284 C75.3161125,9.99453809 73.3025422,10.7842236 71.787012,12.2045582 C69.9759671,13.8076983 68.9597452,16.1054248 69.0012877,18.5032145 C68.9613646,20.7556029 69.85123,22.9275369 71.4672222,24.5219305 C73.0152142,26.1286174 75.1735969,27.0265444 77.4224187,26.999402 C78.9435786,27.0113062 80.4402824,26.6222743 81.7573469,25.8726424 C83.060084,25.1279041 84.1333479,24.0491728 84.862861,22.7513083 C85.6139318,21.445402 86.0058611,19.9690413 85.9998914,18.468222 C86.0074502,16.9845157 85.6203367,15.5247272 84.8770739,14.2341252 Z M77.4579509,22.8562859 C76.3607599,22.8870351 75.3045363,22.444894 74.5656299,21.6455441 C73.7793398,20.7811143 73.3663351,19.6487926 73.4143867,18.4892175 C73.3647258,17.3310692 73.7839055,16.2008672 74.5798428,15.3468878 C75.3206057,14.5509048 76.3762701,14.1115521 77.4721638,14.1431446 C78.5735797,14.1108512 79.6364737,14.5438138 80.3929105,15.3328908 C81.1749025,16.1882664 81.5856126,17.3112421 81.5370473,18.4612234 C81.5937958,19.6317655 81.1772833,20.7767646 80.3786976,21.6455441 C79.629884,22.4477352 78.5638839,22.8896259 77.4579509,22.8562859 Z" id="Shape"></path>
            <polygon id="Shape" points="0 10 5.40731707 10 9.36585366 18.0423077 13.1707317 10 18 10 9.16829268 27 8.97804878 27"></polygon>
            <path d="M24.9489778,23.0342449 C26.4766832,23.0678511 27.9587263,22.5100092 29.0881191,21.4762697 L31.9086584,24.3089519 C30.4983888,25.8669271 28.3829843,27 25.0688507,27 C19.5335424,27 16.0008169,23.4095753 16.0008169,18.5019533 C15.9689639,16.2137049 16.8697781,14.011809 18.4942961,12.4070432 C20.1188141,10.8022775 22.3258601,9.93410116 24.6034617,10.0039067 C30.1528727,10.0039067 33.3259794,14.493708 32.973412,20.1095005 L20.8168877,20.1095005 C21.2752254,21.901172 22.6290842,23.0342449 24.9489778,23.0342449 Z M28.0374683,16.802344 C27.7874853,15.0884917 26.2680088,13.8553458 24.5470509,13.9696618 C22.7718994,13.8344527 21.1748911,15.0495162 20.8239391,16.802344 L28.0374683,16.802344 Z" id="Shape"></path>
            <path d="M41.947308,23.0342449 C43.4747284,23.0678511 44.9564949,22.5100092 46.0856771,21.4762697 L48.9056901,24.3089519 C47.4956836,25.8669271 45.3806738,27 42.0671586,27 C36.5328831,27 33.0008168,23.4095753 33.0008168,18.5019533 C32.9689697,16.2137049 33.8696158,14.011809 35.4938307,12.4070432 C37.1180456,10.8022775 39.3246798,9.93410116 41.6018564,10.0039067 C47.1784321,10.0039067 50.3438967,14.4866263 49.970245,20.1095005 L37.815989,20.1095005 C38.2742411,21.901172 39.6278473,23.0342449 41.947308,23.0342449 Z M45.0634224,16.802344 C44.813486,15.0884917 43.2942931,13.8553458 41.5736563,13.9696618 C39.798836,13.8344527 38.2021256,15.0495162 37.8512391,16.802344 L45.0634224,16.802344 Z" id="Shape"></path>
            <path d="M63.3725733,24.9640288 C62.4948368,26.4028777 60.8727798,27.2661871 58.4572491,27.2661871 C54.3353986,27.2661871 51,23.618705 51,18.6330935 C51,13.647482 54.3353986,10 58.4572491,10 C60.865758,10 62.487815,10.8633094 63.3725733,12.3021583 L63.3725733,10.4316547 L68,10.4316547 L68,37 L63.3725733,37 L63.3725733,24.9640288 Z M63.4638579,18.6330935 C63.4638579,15.9496403 62.0594796,14.2230216 59.6650145,14.2230216 C57.2705494,14.2230216 55.7748864,15.9496403 55.7748864,18.6330935 C55.7748864,21.3165468 57.3056588,23.0431655 59.6650145,23.0431655 C62.0243701,23.0431655 63.4638579,21.323741 63.4638579,18.6330935 Z" id="Shape"></path>
        </g>
    </g>
</svg>