<?xml version="1.0" encoding="UTF-8"?>
<svg width="178px" height="39px" viewBox="0 0 178 39" version="1.1" xmlns="http://www.w3.org/2000/svg" xmlns:xlink="http://www.w3.org/1999/xlink">
    <!-- Generator: Sketch 50 (54983) - http://www.bohemiancoding.com/sketch -->
    <title>yourcast</title>
    <desc>Created with Sketch.</desc>
    <defs></defs>
    <g id="Home-Page-small" stroke="none" stroke-width="1" fill="none" fill-rule="evenodd" opacity="0.5">
        <g id="MadOps_2" transform="translate(-348.000000, -3603.000000)" fill="#FFFFFF" fill-rule="nonzero">
            <g id="clients" transform="translate(0.000000, 3162.000000)">
                <g id="Stacked-Group" transform="translate(66.000000, 70.000000)">
                    <g id="logos" transform="translate(0.000000, 239.000000)">
                        <g id="yourcast" transform="translate(282.000000, 132.000000)">
                            <path d="M144.864618,12.5363234 L144.864618,2.93708147 C144.864618,1.21781427 146.675426,0.143272267 148.068355,1.00290587 L169.240876,13.5392292 L165.549614,21.8490207 L165.410321,21.8490207 L161.440473,12.7512318 C161.370827,12.6079595 161.231534,12.4646872 161.022595,12.4646872 L144.864618,12.4646872 L144.864618,12.5363234 Z M158.724262,16.1897662 L153.640071,16.1897662 L153.640071,29.514087 C153.640071,29.7289954 153.431131,30.0155399 153.152546,30.0155399 L150.227395,30.0155399 C150.018455,30.0155399 149.73987,29.8006315 149.73987,29.514087 L149.73987,16.1897662 L144.864618,16.1897662 L144.864618,36.0329751 C144.864618,37.7522423 146.675426,38.8267843 148.068355,37.9671507 L164.156685,28.439545 L158.724262,16.1897662 Z M175.926935,17.5508527 L172.514259,15.545041 L167.639007,26.3620971 L175.996582,21.4192039 C177.389511,20.5595703 177.389511,18.4104863 175.926935,17.5508527 Z M67.4177645,17.3359443 C67.4177645,14.7570435 65.328371,12.6079595 62.7514523,12.6079595 L56.4136253,12.6079595 C56.2046859,12.6079595 55.9957466,12.8228679 55.9957466,13.0377763 L55.9957466,27.5799114 C55.9957466,27.7948198 56.1350395,28.0097282 56.4136253,28.0097282 L58.9208975,28.0097282 C59.1298369,28.0097282 59.3387762,27.7948198 59.3387762,27.5799114 L59.3387762,21.992293 L60.8013517,21.992293 L63.6568562,27.7948198 C63.7265026,27.8664559 63.7961491,28.0097282 64.0050884,28.0097282 L66.8605929,28.0097282 C67.2088252,28.0097282 67.3481181,27.6515475 67.2088252,27.365003 L64.2836742,21.7773846 C66.094482,20.917751 67.4177645,19.341756 67.4177645,17.3359443 Z M62.4728665,19.1268476 L59.3387762,19.1268476 L59.3387762,15.6883132 L62.4728665,15.6883132 C63.3782704,15.6883132 64.0747349,16.4046746 64.0747349,17.3359443 C64.0747349,18.267214 63.3782704,19.1268476 62.4728665,19.1268476 Z M135.949872,12.9661402 L135.949872,15.4017687 C135.949872,15.6166771 135.740933,15.8315855 135.531994,15.8315855 L132.397903,15.8315855 L132.397903,27.9380921 C132.397903,28.1530005 132.188964,28.3679089 131.980025,28.3679089 L129.333459,28.3679089 C129.12452,28.3679089 128.915581,28.1530005 128.915581,27.9380921 L128.915581,15.9032216 L125.78149,15.9032216 C125.572551,15.9032216 125.363612,15.6883132 125.363612,15.4734048 L125.363612,13.0377763 C125.363612,12.8228679 125.572551,12.6079595 125.78149,12.6079595 L135.531994,12.6079595 C135.810579,12.5363234 135.949872,12.7512318 135.949872,12.9661402 Z M76.8896818,20.6312064 C76.8896818,23.1384711 78.7004896,25.215919 81.2077618,25.215919 C82.2524586,25.215919 83.3668018,24.8577383 84.1329127,24.141377 C84.2722057,23.9981047 84.5507915,23.9981047 84.6900844,24.141377 L86.4312456,26.0039165 C86.5705385,26.1471887 86.5705385,26.4337333 86.4312456,26.5770055 C84.9686702,28.0813643 83.088216,28.7977257 81.1381154,28.7977257 C76.7503889,28.7977257 73.1984199,25.215919 73.1984199,20.7028426 C73.1984199,16.1897662 76.7503889,12.5363234 81.1381154,12.5363234 C83.2971553,12.5363234 84.9686702,13.2526847 86.4312456,14.6137712 C86.640185,14.8286796 86.640185,15.043588 86.4312456,15.2584964 L84.6900844,17.0493998 C84.5507915,17.192672 84.2722057,17.192672 84.1329127,17.0493998 C83.2971553,16.3330384 82.2524586,15.9032216 81.2077618,15.9032216 C78.7004896,15.9748578 76.8896818,18.1239418 76.8896818,20.6312064 Z M12.8845934,13.1810486 L8.07898831,20.4879342 L8.07898831,27.5082753 C8.07898831,27.7231837 7.87004896,27.9380921 7.6611096,27.9380921 L5.15383737,27.9380921 C4.94489802,27.9380921 4.73595866,27.7231837 4.73595866,27.5082753 L4.73595866,20.5595703 L0.069646451,13.1810486 C-0.069646451,12.894504 0.069646451,12.5363234 0.417878706,12.5363234 L3.20373674,12.5363234 C3.34302965,12.5363234 3.48232255,12.6795956 3.551969,12.7512318 L6.54676639,17.2643082 L9.54156378,12.7512318 C9.61121023,12.6795956 9.68085668,12.5363234 9.88979604,12.5363234 L12.6756541,12.5363234 C12.8845934,12.5363234 13.0935328,12.894504 12.8845934,13.1810486 Z M98.2711423,12.8228679 C98.2014958,12.6795956 98.0622029,12.6079595 97.92291,12.6079595 L97.7139707,12.6079595 C97.5746778,12.6079595 97.4353849,12.7512318 97.3657384,12.8228679 L90.5403862,28.0097282 C90.4010933,28.2962727 90.6100327,28.5828173 90.8886185,28.5828173 L93.3262443,28.5828173 C93.744123,28.5828173 94.0227088,28.2962727 94.0923552,28.0097282 L94.8584662,26.2188249 L100.848061,26.2188249 L101.614172,28.0097282 C101.823111,28.439545 101.962404,28.5828173 102.380283,28.5828173 L104.817909,28.5828173 C105.166141,28.5828173 105.305434,28.2962727 105.166141,28.0097282 L98.2711423,12.8228679 Z M96.1817488,23.1384711 L97.8532636,19.4133922 L99.5247784,23.1384711 L96.1817488,23.1384711 Z M24.9334294,12.5363234 C20.6849959,12.5363234 17.2723198,16.0464939 17.2723198,20.4879342 C17.2723198,24.8577383 20.6849959,28.3679089 24.9334294,28.3679089 C29.1818629,28.3679089 32.594539,24.8577383 32.594539,20.4879342 C32.594539,16.11813 29.1818629,12.5363234 24.9334294,12.5363234 Z M24.9334294,24.8577383 C22.6350966,24.8577383 20.6849959,22.8519266 20.6849959,20.4879342 C20.6849959,18.0523056 22.6350966,16.0464939 24.9334294,16.0464939 C27.3014088,16.0464939 29.1818629,18.0523056 29.1818629,20.4879342 C29.1818629,22.8519266 27.2317623,24.8577383 24.9334294,24.8577383 Z M49.3096873,12.9661402 L49.3096873,21.992293 C49.3096873,25.3591913 46.5934757,28.0813643 43.1807996,28.0813643 C39.8377699,28.0813643 37.1215584,25.2875551 37.1215584,21.992293 L37.1215584,12.9661402 C37.1215584,12.7512318 37.3304977,12.5363234 37.5394371,12.5363234 L40.1860022,12.5363234 C40.3949416,12.5363234 40.6038809,12.7512318 40.6038809,12.9661402 L40.6038809,21.8490207 C40.6038809,23.3533795 41.7182241,24.6428299 43.250446,24.6428299 C44.782668,24.6428299 45.8970112,23.4250156 45.8970112,21.8490207 L45.8970112,12.9661402 C45.8970112,12.7512318 46.0363041,12.5363234 46.3148899,12.5363234 L48.961455,12.5363234 C49.1703944,12.5363234 49.3096873,12.7512318 49.3096873,12.9661402 Z M119.861542,24.141377 C119.861542,26.4337333 117.911441,28.7977257 114.707705,28.7977257 C111.8522,28.7977257 110.250332,27.5799114 109.762807,27.0784585 C109.553867,26.8635501 109.484221,26.7919139 109.623514,26.4337333 L110.668211,24.5711938 C110.87715,24.2846493 111.295029,24.3562854 111.434322,24.4279215 C111.503968,24.4995577 113.105836,25.6457358 114.568412,25.6457358 C115.473816,25.6457358 116.100634,25.0726467 116.100634,24.2846493 C116.100634,23.3533795 115.334523,22.6370182 113.871947,21.992293 C111.991493,21.2042955 109.623514,19.6999367 109.623514,16.9777636 C109.623514,14.7570435 111.295029,12.4646872 114.707705,12.4646872 C117.006038,12.4646872 118.747199,13.6825015 119.374017,14.1839544 C119.652603,14.3272267 119.582956,14.7570435 119.51331,14.9003158 L118.398967,16.619583 C118.259674,16.8344914 117.841795,17.0493998 117.632856,16.9061275 C117.423916,16.7628552 115.822048,15.545041 114.498765,15.545041 C113.732654,15.545041 113.105836,16.11813 113.105836,16.6912191 C113.105836,17.5508527 113.732654,18.1239418 115.473816,18.9119392 C117.14533,19.6999367 119.861542,21.0610232 119.861542,24.141377 Z" id="Shape"></path>
                        </g>
                    </g>
                </g>
            </g>
        </g>
    </g>
</svg>