<?xml version="1.0" encoding="UTF-8"?>
<svg width="127px" height="35px" viewBox="0 0 127 35" version="1.1" xmlns="http://www.w3.org/2000/svg" xmlns:xlink="http://www.w3.org/1999/xlink">
    <!-- Generator: Sketch 50 (54983) - http://www.bohemiancoding.com/sketch -->
    <title>zentist</title>
    <desc>Created with Sketch.</desc>
    <defs></defs>
    <g id="Home-Page-small" stroke="none" stroke-width="1" fill="none" fill-rule="evenodd" opacity="0.5">
        <g id="MadOps_2" transform="translate(-373.000000, -3472.000000)" fill="#FFFFFF" fill-rule="nonzero">
            <g id="clients" transform="translate(0.000000, 3162.000000)">
                <g id="Stacked-Group" transform="translate(66.000000, 70.000000)">
                    <g id="logos" transform="translate(0.000000, 239.000000)">
                        <g id="zentist" transform="translate(307.000000, 1.000000)">
                            <g id="Group">
                                <path d="M11.7740418,34.5433482 C11.8249017,34.7014413 2.16154116,30.6437178 0.508597921,14.7290097 C-1.14434533,-1.21204731 5.74715652,0.131744272 6.78978226,0.316186254 C8.74788428,0.685070216 11.2400141,4.58470068 13.6049944,4.47930526 C15.9699747,4.37390984 18.4875344,2.84567628 18.4875344,2.84567628 C18.4875344,2.84567628 16.2497036,5.53325944 13.5287047,5.71770142 C10.8331357,5.9021434 9.63793061,4.26851443 7.14580079,6.03388767 C2.6192793,9.24844791 1.83095252,23.5031782 11.7740418,34.5433482" id="Shape"></path>
                                <path d="M12.6640883,7.3513304 C12.6132285,7.08784186 15.8428252,8.4579823 19.3521509,4.21581671 C22.988626,-0.184441981 28.7866424,0.737767925 31.1007629,3.8205839 C31.8128,4.76914266 32.8808557,6.50816705 32.3213979,10.0125647 C31.9653794,12.3312639 30.9990433,14.0175906 30.9990433,14.0175906 C31.0244732,13.5960089 30.7447443,12.3312639 29.9818475,11.5144494 C29.9818475,11.5144494 30.4395856,10.9874723 30.592165,9.82812274 C30.821034,7.95735405 29.8038382,5.84944569 27.8711661,5.00628235 C23.1920652,3.03011826 19.2504313,9.85447155 12.6640883,7.3513304" id="Shape"></path>
                            </g>
                            <g id="Group" transform="translate(14.819771, 6.086585)">
                                <path d="M7.07376884,13.7084435 C7.97406671,12.5573527 9.2344837,11.223134 10.1605043,10.0982045 L10.0318904,9.94123762 C8.9258101,10.0982045 6.45642174,10.176688 4.8616084,10.176688 L0.771683874,10.176688 C0.643069895,9.81043186 0.617347098,9.28720878 0.617347098,8.94711385 C0.617347098,8.47621315 0.694515486,7.79602318 0.848852261,7.19431669 L13.9674781,7.19431669 C14.3533201,8.3192462 14.5591025,8.94711385 14.5591025,9.47033684 C14.5591025,9.88891533 14.3533201,10.3336548 14.0446465,10.7783944 L7.66539314,18.9668349 C6.81654088,20.1179256 5.58184669,21.4783055 4.65582604,22.5770738 L4.78444002,22.7340407 C6.04485701,22.6293961 7.45961078,22.5770738 8.38563146,22.5770738 L10.2633955,22.5770738 C12.0125456,22.5770738 13.5044678,22.4724293 14.4562112,22.0538508 C14.739162,22.6555573 14.8420531,23.1787803 14.8420531,23.7281645 C14.8420531,24.853094 14.2504288,25.533284 12.2954964,25.533284 L0.617347098,25.533284 C0.231505162,24.4083544 0.0771683874,23.9374537 0.0771683874,23.4142307 C0.0771683874,22.9956522 0.231505162,22.5247515 0.694515486,21.923045 L7.07376884,13.7084435 Z" id="Shape"></path>
                                <path d="M21.4785345,17.606455 C21.6328713,20.6934709 22.6875059,22.9171688 26.0314694,22.9171688 C27.9864018,22.9171688 29.8384431,22.3154623 31.484702,21.5044666 C32.1534947,22.1061731 32.616505,23.1787803 32.7708418,23.9636148 C30.8930777,25.2193501 28.1407386,26.0303458 25.4141222,26.0303458 C19.2406512,26.0303458 17.3371644,21.4259832 17.3371644,16.4292032 C17.3371644,10.9092002 20.0895035,6.74957711 25.5170134,6.74957711 C30.5586814,6.74957711 33.259575,10.2813326 33.259575,14.7025672 C33.259575,15.879819 33.1824066,16.5861701 32.9766242,17.6326162 L21.4785345,17.6326162 L21.4785345,17.606455 Z M21.4785345,14.8072118 L29.3754328,14.8072118 L29.3754328,14.3363111 C29.3754328,11.7463571 28.2693526,9.57498151 25.4655678,9.57498151 C22.9704567,9.57498151 21.6843168,11.563229 21.4785345,14.8072118 Z" id="Shape"></path>
                                <path d="M53.6834748,21.6091113 C53.6834748,22.9171688 53.8378115,24.0944206 54.3522675,24.9838998 C53.7606432,25.4286394 52.7831769,25.7948955 51.8057107,25.7948955 C50.2108974,25.7948955 49.6449959,24.9315775 49.6449959,23.3357473 L49.6449959,13.9177326 C49.6449959,11.4324233 49.1048172,10.359816 47.2270531,10.359816 C45.6579625,10.359816 43.6515844,11.223134 42.2882763,12.6619974 L42.2882763,25.533284 C41.7480976,25.6379285 41.0021365,25.6902508 40.2818982,25.6902508 C39.5359371,25.6902508 38.8414216,25.6640897 38.2497973,25.533284 L38.2497973,7.27280015 L38.4813025,7.03734978 L39.9989474,7.03734978 C41.5165924,7.03734978 42.1596623,7.90066778 42.2368307,9.33953116 C43.9088124,7.90066778 46.1209729,6.85422171 48.4617472,6.85422171 C52.1401071,6.85422171 53.657752,9.52265921 53.657752,12.94977 L53.657752,21.6091113 L53.6834748,21.6091113 Z" id="Shape"></path>
                                <path d="M69.3229346,8.58085774 C69.3229346,9.10408073 69.2714891,9.54882032 69.1171523,10.0197211 L64.3069895,9.94123762 L64.3069895,21.0335659 C64.3069895,22.0276897 64.744277,22.6555573 65.9018028,22.6555573 L68.6026964,22.6555573 C68.8084787,23.1787803 68.9113699,23.9112925 68.9113699,24.5914825 C68.9113699,24.853094 68.9113699,25.1408667 68.8342015,25.4024782 C67.5480617,25.5594451 66.004694,25.6640897 64.4613262,25.6640897 C61.7861555,25.6640897 60.3456789,24.4083544 60.3456789,21.8445616 L60.3456789,9.99355991 L57.439003,10.0197211 C57.310389,9.54882032 57.2846662,9.10408073 57.2846662,8.58085774 C57.2846662,8.10995696 57.3361118,7.69137857 57.439003,7.16815554 L60.3456789,7.24663899 L60.3456789,3.97649504 C60.3456789,2.27602019 60.8086892,1.51734679 62.5063938,1.51734679 L64.0240387,1.51734679 L64.3069895,1.77895831 L64.3069895,7.27280015 L69.1171523,7.16815554 C69.2972118,7.69137857 69.3229346,8.10995696 69.3229346,8.58085774 Z" id="Shape"></path>
                                <path d="M78.4802499,25.533284 C77.9400712,25.6379285 77.1941101,25.6902508 76.4738718,25.6902508 C75.7279108,25.6902508 74.9819497,25.6640897 74.441771,25.533284 L74.441771,11.9556463 C74.441771,10.6214276 74.0044834,10.0197211 72.7183437,10.0197211 L72.2810561,10.0197211 C72.1524421,9.54882032 72.0752738,9.13024191 72.0752738,8.65934121 C72.0752738,8.21460162 72.1524421,7.76986202 72.2810561,7.24663899 C73.2585224,7.14199439 74.2102658,7.08967208 74.7504445,7.08967208 L75.2906233,7.08967208 C77.2455558,7.08967208 78.4545271,8.34540739 78.4545271,10.3859772 L78.4545271,25.533284 L78.4802499,25.533284 Z M73.5929188,0.470900728 C74.0559291,0.209289213 74.9562269,0.0261611516 75.7536336,0.0261611516 C76.4481491,0.0261611516 77.4770609,0.209289213 77.9143484,0.470900728 C78.1458536,0.91564031 78.2744676,1.6219914 78.2744676,2.14521443 C78.2744676,2.66843746 78.1458536,3.32246625 77.9143484,3.76720583 C77.5285065,4.05497849 76.4738718,4.23810656 75.7536336,4.23810656 C74.9819497,4.23810656 74.0302063,4.05497849 73.5929188,3.76720583 C73.3614136,3.32246625 73.2327996,2.64227632 73.2327996,2.14521443 C73.2585224,1.56966909 73.3614136,0.91564031 73.5929188,0.470900728 Z" id="Shape"></path>
                                <path d="M84.0106511,21.5044666 C85.6569101,22.3677846 87.689011,23.126458 89.4896065,23.126458 C91.6503213,23.126458 92.9621838,22.2108177 93.0136292,20.8242766 C93.0136292,19.7778306 92.164777,18.8621903 90.5442415,18.3128061 L88.3578033,17.5279716 C85.6054646,16.5600089 83.3933035,15.0426622 83.3933035,12.2172578 C83.3933035,8.81630809 86.3771486,6.72341596 90.2870133,6.72341596 C92.3962825,6.72341596 95.071453,7.3512836 96.717712,8.05763466 C96.717712,9.02559733 96.2547017,10.2813326 95.5087405,10.8830391 C94.1711552,10.2813326 92.2162225,9.6534649 90.312736,9.6534649 C88.5893088,9.6534649 87.4832283,10.5429441 87.4832283,11.7986794 C87.4832283,12.8712866 88.2549123,13.4729931 89.9011713,14.0746996 L92.241946,14.9380176 C95.1486212,15.9844636 97.206445,17.6587774 97.206445,20.5103428 C97.206445,23.9636148 94.1197098,26.0303458 89.721112,26.0303458 C86.8658816,26.0303458 84.3450476,25.1408667 82.6730658,24.1729041 C82.7245113,23.3095861 83.3161353,22.080012 84.0106511,21.5044666 Z" id="Shape"></path>
                                <path d="M111.379706,8.58085774 C111.379706,9.10408073 111.32826,9.54882032 111.173924,10.0197211 L106.36376,9.94123762 L106.36376,21.0335659 C106.36376,22.0276897 106.801048,22.6555573 107.958574,22.6555573 L110.659467,22.6555573 C110.86525,23.1787803 110.968141,23.9112925 110.968141,24.5914825 C110.968141,24.853094 110.968141,25.1408667 110.890973,25.4024782 C109.604833,25.5594451 108.061465,25.6640897 106.518098,25.6640897 C103.842926,25.6640897 102.40245,24.4083544 102.40245,21.8445616 L102.40245,9.99355991 L99.4957742,10.0197211 C99.3671605,9.54882032 99.341437,9.10408073 99.341437,8.58085774 C99.341437,8.10995696 99.3928832,7.69137857 99.4957742,7.16815554 L102.40245,7.24663899 L102.40245,3.97649504 C102.40245,2.27602019 102.86546,1.51734679 104.563165,1.51734679 L106.080809,1.51734679 L106.36376,1.77895831 L106.36376,7.27280015 L111.173924,7.16815554 C111.32826,7.69137857 111.379706,8.10995696 111.379706,8.58085774 Z" id="Shape"></path>
                            </g>
                        </g>
                    </g>
                </g>
            </g>
        </g>
    </g>
</svg>