<?xml version="1.0" encoding="UTF-8"?>
<svg width="132px" height="32px" viewBox="0 0 132 32" version="1.1" xmlns="http://www.w3.org/2000/svg" xmlns:xlink="http://www.w3.org/1999/xlink">
    <!-- Generator: Sketch 51.1 (57501) - http://www.bohemiancoding.com/sketch -->
    <title>zofice</title>
    <desc>Created with Sketch.</desc>
    <defs></defs>
    <g id="Home-Page-small" stroke="none" stroke-width="1" fill="none" fill-rule="evenodd">
        <g id="zofice" fill-rule="nonzero">
            <path d="M83.7517965,7.02096916 C82.885787,6.68828194 82.0729412,6.52193833 81.2209221,6.5339207 C80.2094118,6.54872247 79.4308426,6.97726872 78.8719237,7.82026432 C78.4627027,8.43770925 78.2066773,9.11365639 78.1800954,9.85797357 C78.1514149,10.633304 78.1514149,11.4086344 78.1535135,12.1839648 C78.1535135,12.6851101 78.1668045,12.6942731 78.6571701,12.6977974 C79.6588871,12.7048458 80.6613037,12.6977974 81.6651192,12.7027313 C81.8924642,12.7027313 82.1310016,12.6449339 82.3919237,12.7992952 C82.2632114,13.4237885 82.1121145,14.0581498 82.0092846,14.7023789 C81.9561208,15.0414097 81.7952305,15.1125991 81.4930366,15.10837 C80.6081399,15.0942731 79.7225437,15.1013216 78.834849,15.104141 C78.0940541,15.104141 78.1514149,15.0336564 78.1514149,15.7793833 C78.1514149,19.3952423 78.1514149,23.0111013 78.1514149,26.6269604 C78.1514149,26.7679295 78.1514149,26.9088987 78.1514149,27.0498678 C78.1395231,27.5622907 78.1388235,27.5714537 77.6617488,27.5770925 C76.9622258,27.5855507 76.2627027,27.5700441 75.5631797,27.5827313 C75.2637838,27.58837 75.1434658,27.4770044 75.1560572,27.172511 C75.1721463,26.6565639 75.1602544,26.1399119 75.1602544,25.6218502 L75.1602544,16.0387665 C75.1602544,15.8977974 75.1602544,15.7568282 75.1602544,15.615859 C75.1483625,15.1140088 75.147663,15.1076652 74.6705882,15.1013216 C74.1347536,15.0935683 73.5982194,15.0886344 73.0616852,15.1013216 C72.7643879,15.1097797 72.6419714,14.9991189 72.6461685,14.6939207 C72.6594595,14.1779736 72.6650556,13.6606167 72.6461685,13.1432599 C72.6321781,12.8077533 72.7496979,12.6787665 73.085469,12.6907489 C73.6206041,12.7090749 74.1585374,12.6745374 74.694372,12.7020264 C75.0714149,12.7210573 75.178442,12.575859 75.1707472,12.2128634 C75.1483625,11.1330396 75.1826391,10.0553304 75.3875994,8.98819383 C75.9472178,6.09268722 77.7428935,4.43348018 80.6522099,4.1014978 C81.7574563,3.9753304 82.8319237,4.03101322 83.8965978,4.36933921 C84.1973927,4.46519824 84.3163116,4.58643172 84.2351669,4.91629956 C84.0602862,5.59647577 83.9910334,6.29920705 83.7517965,7.02096916 Z" id="Shape" fill="#FEFEFE"></path>
            <path d="M93.3464547,12.6977974 C93.1939587,13.4407048 93.0491574,14.0792952 92.9365342,14.7242291 C92.8861685,15.0160352 92.750461,15.1076652 92.4692528,15.1034361 C91.6067409,15.0907489 90.7442289,15.0942731 89.8810175,15.1034361 C88.9786328,15.1104846 89.0877583,14.9927753 89.0870588,15.8731278 C89.0828617,19.5124816 89.0828617,23.1518355 89.0870588,26.7911894 C89.0870588,26.9554185 89.0821622,27.1203524 89.0870588,27.2845815 C89.0933545,27.4960352 88.9842289,27.5763877 88.7869634,27.5756828 C87.9941706,27.5756828 87.2013778,27.5756828 86.4085851,27.5756828 C86.2078219,27.5756828 86.1105882,27.4896916 86.1147854,27.2831718 C86.1189825,27.0956828 86.1147854,26.907489 86.1147854,26.7192952 C86.1147854,23.1010866 86.1147854,19.4849927 86.1147854,15.8710132 C86.1147854,15.0470485 86.1847377,15.0999119 85.3739905,15.0999119 C84.9081081,15.0999119 84.4415262,15.0900441 83.9749444,15.0999119 C83.7035294,15.1069604 83.5972019,14.994185 83.6006995,14.7270485 C83.6083943,14.1631718 83.6132909,13.5992952 83.6006995,13.0354185 C83.5937043,12.7379736 83.7482989,12.6893392 83.9924324,12.6935683 C84.5282671,12.7015565 85.0645681,12.7015565 85.6013355,12.6935683 C86.0979968,12.685815 86.1077901,12.6794714 86.1133863,12.1825551 C86.1252782,11.1252863 86.0993959,10.0680176 86.3085533,9.02555066 C86.432182,8.3560555 86.6461206,7.70674719 86.9444197,7.09568282 C87.7775517,5.44352423 89.1577107,4.54202643 90.9254054,4.19947137 C92.1754531,3.95629956 93.4262003,3.94361233 94.6608585,4.31154185 C95.2407631,4.48422907 95.2421622,4.49057269 95.130938,5.07418502 C95.038601,5.55770925 94.9392687,6.03982379 94.8378378,6.52193833 C94.736407,7.00405286 94.7308108,7.0153304 94.2628299,6.86026432 C93.5761269,6.63223904 92.8564298,6.5214619 92.1334817,6.53251101 C91.1800318,6.54942731 90.4266455,6.94132159 89.8747218,7.72229075 C89.4148955,8.35008967 89.1489513,9.10054683 89.1101431,9.87982379 C89.076566,10.6770044 89.1101431,11.4770044 89.0828617,12.2762996 C89.0723688,12.6350661 89.2297615,12.7062555 89.5438474,12.699207 C90.638601,12.685815 91.7340541,12.6942731 92.8316057,12.6942731 L93.3464547,12.6977974 Z" id="Shape" fill="#FEFEFE"></path>
            <path d="M48.2887758,15.181674 C46.3902703,15.181674 44.6435612,15.1880176 42.8975517,15.181674 C41.8566614,15.1767401 42.0021622,15.2895154 41.9881717,14.294978 C41.983275,13.9192952 42.0105564,13.5414978 41.9811765,13.1672247 C41.9496979,12.7774449 42.1210811,12.6935683 42.4708426,12.694978 C45.7572019,12.703906 49.0435612,12.703906 52.3299205,12.694978 C52.7643243,12.694978 52.7804134,12.7936564 52.7496343,13.2059912 C52.7314467,13.4498678 52.5677583,13.6338326 52.452337,13.8347137 C50.4237202,17.3674009 48.4251828,20.9205286 46.3266137,24.4137445 C46.2223847,24.5871366 46.0747854,24.7478414 46.0607949,24.9825551 C46.2846423,25.101674 46.5175835,25.0530396 46.7407313,25.0530396 C48.7693482,25.0727753 50.797965,25.083348 52.8265819,25.101674 C53.3519237,25.1066079 53.3568203,25.1150661 53.3638156,25.6542731 C53.3701113,26.1709251 53.3568203,26.6882819 53.3638156,27.2049339 C53.3687122,27.4713656 53.2714785,27.5996476 52.9986645,27.5813216 C52.8587599,27.5714537 52.7188553,27.5813216 52.5789507,27.5813216 L42.3036566,27.5813216 C41.4194595,27.5813216 41.3005405,27.3903084 41.7440382,26.6156828 C43.8565978,22.9413216 45.8810175,19.2148018 48.0684261,15.584141 C48.1159936,15.5023789 48.1558665,15.4227313 48.2887758,15.181674 Z" id="Shape" fill="#FEFEFE"></path>
            <path d="M115.759873,24.3023789 C115.562607,25.2609692 115.386328,26.1039648 115.217043,26.9490749 C115.160382,27.2310132 114.931638,27.3014978 114.716184,27.3776211 C113.394894,27.8544303 111.987829,28.0416242 110.588998,27.926696 C108.975452,27.8107628 107.432726,27.213269 106.15752,26.2103965 C103.830906,24.41163 103.015262,21.9947137 103.293672,19.1309251 C103.691002,15.0505727 107.248776,12.4955066 110.756884,12.3333921 C112.358092,12.2586784 113.91663,12.4743612 115.389126,13.1538326 C116.07186,13.4688987 115.994213,13.4625551 115.849412,14.0243172 C115.680827,14.6755947 115.615771,15.3536564 115.377933,16.0260793 C114.5469,15.5524229 113.724261,15.1718062 112.810684,15.0540969 C111.551542,14.8912775 110.292401,14.8750661 109.117202,15.4622026 C107.025628,16.5067841 106.0393,18.3168282 106.233768,20.6266079 C106.427536,22.8919824 107.948299,24.6209692 110.123116,25.1425551 C111.592114,25.494978 113.037329,25.289163 114.450366,24.8077533 C114.848394,24.6731278 115.233831,24.5067841 115.759873,24.3023789 Z" id="Shape" fill="#FEFEFE"></path>
            <path d="M99.6120827,20.1311013 C99.6120827,22.4303084 99.6120827,24.7295154 99.6120827,27.0287225 C99.6120827,27.5637004 99.6036884,27.5693392 99.0839428,27.5735683 C98.408903,27.579207 97.7331638,27.565815 97.0553259,27.579207 C96.7636248,27.5848458 96.6153259,27.4953304 96.6496025,27.1809692 C96.6559297,27.0635814 96.6559297,26.9459341 96.6496025,26.8285463 C96.6496025,22.3711013 96.6496025,17.9136564 96.6496025,13.4562115 C96.6496025,12.6315419 96.5425755,12.7020264 97.3889984,12.6977974 C97.9486169,12.6977974 98.5082353,12.6928634 99.0678537,12.6977974 C99.5980922,12.7034361 99.607186,12.7076652 99.6078855,13.2327753 C99.6139481,15.5329222 99.6153471,17.8323642 99.6120827,20.1311013 Z" id="Shape" fill="#FEFEFE"></path>
            <path d="M99.9317647,8.01057269 C99.919673,8.19803629 99.8586177,8.37894847 99.7547854,8.53497797 C99.4704731,8.96304896 99.1071193,9.33203903 98.6845151,9.62185022 C98.3172655,9.87207048 97.9388235,9.87700441 97.5827663,9.61550661 C97.3383407,9.438335 97.1111442,9.23820234 96.9042289,9.01779736 C96.1837202,8.24246696 96.1921145,7.75964758 96.9147218,6.96176211 C97.8296979,5.95171806 98.4033068,5.94537445 99.3322734,6.93427313 C99.7372973,7.36493392 99.9324642,7.71665198 99.9317647,8.01057269 Z" id="Shape" fill="#FDFEFE"></path>
            <path d="M130.593259,14.4493392 C128.738124,12.3904846 126.369539,11.894978 123.826773,12.5695154 C120.743275,13.3871366 118.811892,15.4445815 118.317329,18.6896916 C117.868935,21.6317181 118.605533,24.1818502 120.954531,26.1307489 C122.105296,27.1001655 123.514035,27.7064385 125.004769,27.8738326 C126.722798,28.073304 128.396757,27.9147137 130.004261,27.2394714 C130.258188,27.1323348 130.50372,27.0336564 130.575771,26.6918062 C130.76814,25.7790308 130.995485,24.8740088 131.214436,23.9577093 C131.018569,23.9365639 130.918537,24.0380617 130.806614,24.1085463 C129.267663,25.074185 127.588808,25.4329515 125.795231,25.2792952 C123.961781,25.1221145 122.603307,24.2001762 121.710016,22.5888987 C121.435803,22.0955066 121.252528,21.563348 121.295898,20.886696 L122.04089,20.886696 C124.139459,20.886696 126.236163,20.886696 128.331002,20.886696 C128.936089,20.886696 129.618124,21.0438767 130.125278,20.8162115 C130.684897,20.5645815 131.081526,19.9499559 131.552305,19.4967401 C131.729902,19.34412 131.845866,19.1312387 131.878283,18.898326 C132.08814,17.225022 131.732083,15.7180617 130.593259,14.4493392 Z M128.476502,18.4380617 C128.126741,18.4493392 127.776979,18.4380617 127.427218,18.4380617 C125.705458,18.4380617 123.984399,18.4380617 122.264038,18.4380617 C122.035294,18.4380617 121.800954,18.482467 121.52744,18.3739207 C121.673641,16.6822907 123.541367,15.1457269 125.148871,14.9244053 C126.978124,14.6720705 128.618506,15.8315419 128.90601,17.659207 C128.923092,17.7511938 128.934308,17.8441891 128.939587,17.9376211 C128.954277,18.3562996 128.895517,18.4253744 128.476502,18.4394714 L128.476502,18.4380617 Z" id="Shape" fill="#FEFEFE"></path>
            <path d="M63.3495072,12.3164758 C58.8662639,12.2981498 55.393132,15.716652 55.4980604,20.1353304 C55.3763434,24.6625551 58.9851828,27.9746256 63.3432114,27.9591189 C67.8733227,27.940793 71.1715739,24.7055507 71.1897615,20.2128634 C71.2114467,15.6179736 67.9285851,12.3348018 63.3495072,12.3164758 Z M67.9782512,21.8643172 C67.5186645,23.5192952 65.816725,25.4653744 63.0354213,25.3067841 C60.8699806,25.1840977 59.0525869,23.6191353 58.594849,21.4829956 C58.5024259,21.075654 58.4571216,20.6588996 58.459841,20.2410573 C58.459841,17.8932159 59.6490302,15.9887225 61.5923052,15.282467 C64.9094436,14.0750661 67.78938,16.3348018 68.1510334,19.2176211 C68.2717196,20.1025467 68.2129395,21.0029457 67.9782512,21.8643172 Z" id="Shape" fill="#FEFEFE"></path>
            <polygon id="Shape" fill="#FFFFFF" points="3.48572337 3.08933921 10.5683943 1.30960352 10.5683943 6.04969163 3.48572337 7.30079295"></polygon>
            <polygon id="Shape" fill="#FFFFFF" points="11.9849285 3.24229075 25.2296979 0 25.2296979 7.80052863 11.9849285 9.44493392"></polygon>
            <polygon id="Shape" fill="#FFFFFF" points="9.18683625 24.8105727 36.6550079 32 36.6550079 9.44493392 9.18683625 10.5804405"></polygon>
            <polygon id="Shape" fill="#B4B4B4" points="2.6581876 8.50537445 19.0738951 6.4845815 19.0738951 17.7621145 2.6581876 16.8690749"></polygon>
            <polygon id="Shape" fill="#FFFFFF" points="0 10.6199119 9.18683625 9.44493392 9.18683625 15.6475771 0 15.2246696"></polygon>
            <path d="M26.6518283,12.6639648 L26.6518283,20.3228194 L25.0897933,18.7721586 C25.0897933,18.7721586 21.1025119,24.246696 14.5969475,24.7168282 C14.5969475,24.7168282 19.9245151,23.424141 23.107345,18.0673128 L21.1836566,18.0673128 L26.6518283,12.6639648 Z" id="Shape" fill="#243451"></path>
            <path d="M26.6518283,12.5229956 L26.6518283,20.1818502 L25.0897933,18.6311894 C25.0897933,18.6311894 21.3060731,24.2170925 14.4857234,24.0408811 C14.4857234,24.0408811 19.9245151,23.2831718 23.107345,17.9263436 L21.1836566,17.9263436 L26.6518283,12.5229956 Z" id="Shape" fill="#B4B4B4"></path>
        </g>
    </g>
</svg>