<?xml version="1.0" encoding="UTF-8"?>
<svg width="79px" height="107px" viewBox="0 0 79 107" version="1.1" xmlns="http://www.w3.org/2000/svg" xmlns:xlink="http://www.w3.org/1999/xlink">
    <!-- Generator: Sketch 50 (54983) - http://www.bohemiancoding.com/sketch -->
    <title>tech-list copy 14</title>
    <desc>Created with Sketch.</desc>
    <defs></defs>
    <g id="Home-Page-small" stroke="none" stroke-width="1" fill="none" fill-rule="evenodd">
        <g id="MadOps_2" transform="translate(-1293.000000, -2891.000000)">
            <g id="use" transform="translate(60.000000, 2290.000000)">
                <g id="tech-list" transform="translate(1226.000000, 591.000000)">
                    <g id="Stacked-Group-2">
                        <g id="img">
                            <g id="icons/tech/NewRelic" transform="translate(6.500000, 0.000000)">
                                <g id="New-Relic-Team-says…-0" transform="translate(0.000000, 10.000000)">
                                    <path d="M78.9430303,23.1190476 C75.2339394,6.38095238 54.7975758,-3.46190476 33.289697,1.12857143 C11.7818182,5.71904762 -2.64242424,23.0142857 1.06181818,39.747619 C4.76606061,56.4809524 25.2072727,66.3333333 46.710303,61.7380952 C68.2133333,57.1428571 82.6472727,39.8714286 78.9430303,23.1190476 Z M40.0048485,46.8619048 C31.3289571,46.8619048 24.2957576,39.954298 24.2957576,31.4333333 C24.2957576,22.9123686 31.3289571,16.0047619 40.0048485,16.0047619 C48.6807398,16.0047619 55.7139394,22.9123686 55.7139394,31.4333333 C55.7139394,35.5252449 54.0588792,39.4495624 51.1128532,42.3429808 C48.1668272,45.2363992 44.1711584,46.8619048 40.0048485,46.8619048 Z" id="Shape" fill="#008C99" fill-rule="nonzero"></path>
                                    <path d="M43.4763636,9.83333333 C31.0201289,9.83596313 20.9242759,19.7550861 20.9260608,31.9888882 C20.9278458,44.2226903 31.026593,54.1389711 43.4828279,54.1380947 C55.9390629,54.1372183 66.0363633,44.2195165 66.0363636,31.9857143 C66.0363638,26.1097124 63.6593587,20.4744459 59.4283986,16.3199317 C55.1974385,12.1654175 49.4592018,9.83207022 43.4763636,9.83333333 Z M40,44.9095238 C32.4219838,44.9095238 26.2787879,38.8760278 26.2787879,31.4333333 C26.2787879,23.9906388 32.4219838,17.9571429 40,17.9571429 C47.5780162,17.9571429 53.7212121,23.9906388 53.7212121,31.4333333 C53.7212126,38.8741686 47.5809712,44.9068945 40.0048485,44.9095238 L40,44.9095238 Z" id="Shape" fill="#70CCD3" fill-rule="nonzero"></path>
                                </g>
                            </g>
                        </g>
                        <text id="Jenkins" font-family="Solomon-Sans-SemiBold, Solomon Sans SemiBold" font-size="16" font-weight="500" line-spacing="25" letter-spacing="-0.300000012" fill="#000000">
                            <tspan x="13.036" y="108">NewRelic</tspan>
                        </text>
                    </g>
                </g>
            </g>
        </g>
    </g>
</svg>