<?xml version="1.0" encoding="UTF-8"?>
<svg width="80px" height="117px" viewBox="0 0 80 117" version="1.1" xmlns="http://www.w3.org/2000/svg" xmlns:xlink="http://www.w3.org/1999/xlink">
    <!-- Generator: Sketch 50 (54983) - http://www.bohemiancoding.com/sketch -->
    <title>tech-list copy 2</title>
    <desc>Created with Sketch.</desc>
    <defs></defs>
    <g id="Home-Page-small" stroke="none" stroke-width="1" fill="none" fill-rule="evenodd">
        <g id="MadOps_2" transform="translate(-466.000000, -2439.000000)">
            <g id="use" transform="translate(60.000000, 2290.000000)">
                <g id="tech-list" transform="translate(406.000000, 149.000000)">
                    <g id="Stacked-Group-2">
                        <g id="img">
                            <g id="icons/tech/Travis">
                                <g id="Travis-CI-icon-color-—-Worldvectorlogo-11">
                                    <path d="M79.576875,28.1628346 C79.539375,27.8699213 79.4946875,27.5770079 79.4346875,27.2903937 C79.3807933,26.9892599 79.3119569,26.691038 79.2284375,26.3968504 L79.00625,26.0415748 C78.0909375,25.3171654 77.1034375,24.7697638 76.1009375,24.2859843 C75.2734375,23.8922835 74.4328125,23.5489764 73.5821875,23.2327559 C71.211875,16.6025197 67.1371875,10.7234646 61.7796875,6.62708661 C56.2421875,2.39307087 49.7290625,0.151811024 42.9459375,0.151811024 C36.1625,0.151811024 29.6490625,2.39307087 24.1115625,6.62740157 C18.75375,10.7234646 14.67875,16.6028346 12.30875,23.2346457 C11.4603125,23.5496063 10.618125,23.8938583 9.791875,24.2859843 C8.7875,24.7697638 7.800625,25.3171654 6.8853125,26.0415748 L6.6625,26.3968504 C6.58279431,26.6919377 6.51389349,26.9898822 6.4559375,27.2900787 C6.3984375,27.5773228 6.3553125,27.8696063 6.3140625,28.1625197 C6.23250675,28.7425968 6.17682572,29.3260711 6.1471875,29.9111811 C6.08845822,31.0824649 6.12283883,32.2566076 6.25,33.4223622 C6.37408514,34.591093 6.58975861,35.7480917 6.895,36.8825197 C7.05520088,37.4533104 7.24239386,38.0160529 7.4559375,38.5688189 C7.5634375,38.847874 7.6809375,39.1250394 7.81125,39.4018898 C7.875625,39.5395276 7.945625,39.6740157 8.0175,39.8148031 C8.1765625,40.095748 8.205625,40.1505512 8.2725,40.2503937 L8.573125,40.5294488 C8.7690625,40.6308661 8.93125,40.7080315 9.1084375,40.7927559 L9.62625,41.0267717 C9.7221875,41.0664567 9.8121875,41.1055118 9.91,41.1451969 C7.5584375,43.336378 5.0046875,46.1829921 2.793125,49.7011024 L0,54.1417323 L3.9209375,50.6730709 C3.9875,50.6144882 7.2753125,47.7458268 12.7584375,44.496063 L12.8353125,45.1313386 C12.4765625,45.3193701 10.7525,46.2311811 10.24,46.6633071 C9.390625,47.3741732 9.349375,48.4774803 9.576875,50.535748 C9.6934375,51.5908661 10.0859375,53.6387402 10.6153125,55.5165354 C11.5271875,58.7477165 12.195625,59.3190551 12.7825,59.4529134 C13.0471875,59.5168504 13.38875,59.5461417 13.773125,59.5461417 C14.8234375,59.5461417 16.16875,59.3401575 17.0465625,59.0730709 C18.07625,62.3001575 19.5346875,65.2135433 21.3128125,67.7703937 C21.226875,67.7937008 21.1421875,67.8217323 21.05625,67.8462992 C19.986875,67.3464567 16.2475,65.6006299 14.990625,65.0311811 L12.3640625,63.8393701 L13.9175,66.2840945 C14.030625,66.4604724 16.7121875,70.6746457 18.90125,73.5149606 C20.9490625,76.1637795 23.7528125,78.8752756 29.0434375,78.8752756 C29.6803125,78.8752756 30.3465625,78.8337008 31.033125,78.7574803 C32.610625,78.5748031 33.79625,78.4314961 34.6975,78.3149606 C40.25125,80.3716535 46.3753125,80.4982677 52.186875,78.2787402 C53.7090082,77.6954052 55.1724164,76.9669569 56.5571875,76.1033071 C58.7978125,75.5609449 61.24875,74.9725984 62.459375,74.6296063 C62.6534375,74.5766929 62.8965625,74.5184252 63.149375,74.4582677 C64.83625,74.0674016 67.655625,73.407874 69.15875,70.3770079 C70.67375,67.3190551 73.1440625,62.6333858 73.17,62.5855118 L74.3253125,60.399685 L72.074375,61.3858268 C71.9540625,61.4409449 69.1021875,62.6925984 67.620625,63.4752756 C68.65,61.0866142 69.2565625,59.1092913 69.4678125,58.3499213 C70.2975,58.5514961 71.5275,58.5256693 72.4321875,58.5256693 C72.876875,58.5256693 73.334375,58.4475591 73.63125,58.3713386 C74.219375,58.2207874 74.6734375,57.8270866 75.5271875,54.4929134 C76.024375,52.5549606 76.3809375,50.4447244 76.47875,49.36 C76.6678125,47.2491339 76.6065625,46.1177953 75.751875,45.4037795 C75.3259375,45.0491339 74.0759375,44.3707087 73.4403125,44.0368504 C73.7959375,43.8834646 73.9703125,43.9285039 73.9840625,43.9322835 L74.5609375,41.7266142 C74.7640625,41.6390551 74.9790625,41.5511811 75.2234375,41.4566929 C75.571875,41.3168504 75.9203125,41.1779528 76.2690625,41.0264567 L76.78375,40.7924409 C76.963125,40.7077165 77.124375,40.6308661 77.320625,40.5291339 L77.62125,40.2500787 C77.68625,40.1502362 77.72125,40.0954331 77.7609375,40.0192126 C77.9515625,39.6737008 78.01875,39.5392126 78.0821875,39.4018898 C78.2125,39.1247244 78.328125,38.8475591 78.4375,38.5685039 C78.6508888,38.0157803 78.8377715,37.4530301 78.9975,36.8822047 C79.3032457,35.7478462 79.5192356,34.590832 79.6434375,33.4220472 C79.773125,32.2566929 79.8021875,31.0828346 79.7440625,29.9108661 C79.7158511,29.3257432 79.6600589,28.7423027 79.576875,28.1625197 L79.576875,28.1628346 Z" id="Shape" fill="#0E0F0D" fill-rule="nonzero"></path>
                                    <path d="M46.583125,73.584252 C46.158125,73.6485039 45.733125,73.7007874 45.313125,73.7348031 C45.0396875,73.7483465 44.7528125,73.775748 44.49125,73.775748 L44.39375,73.7782677 C44.721875,73.0412598 44.97125,72.4680315 45.1590625,72.0340157 C45.5434375,72.4680315 46.0321875,73.0044094 46.583125,73.584252" id="Shape" fill="#E1C5A2" fill-rule="nonzero"></path>
                                    <path d="M46.0675,40.6311811 C45.403125,41.1748031 44.703125,41.6809449 43.9740625,42.1250394 L41.5425,43.6034646 C40.0175,43.7911811 38.69375,44.1710236 38.618125,44.1943307 C38.57375,44.2037795 38.531875,44.2248819 38.4925,44.2488189 C38.3720646,44.3205186 38.2823964,44.4348055 38.2409375,44.5694488 L35.764375,52.7930709 L22.5278125,55.76 L18.3575,52.8166929 L17.145,42.9143307 C19.5134375,42.4759055 22.679375,41.9700787 26.4825,41.5398425 C26.0680117,42.038964 25.6749425,42.5557639 25.304375,43.0888189 L23.0403125,46.3640945 L26.3375,44.1489764 C26.3875,44.1143307 28.485625,42.7222047 31.92,41.0283465 C35.6612659,40.7458109 39.411684,40.6039801 43.1634375,40.6031496 C44.1509375,40.6031496 45.1178125,40.6151181 46.0675,40.6314961 L46.0675,40.6311811 Z M25.464375,51.7870866 C26.405,51.2746457 27.4675,51.3499213 29.1309375,51.3537008 C29.308125,51.3568504 29.4928125,51.3549606 29.6840625,51.3499213 C29.848125,51.3499213 30.0121875,51.3467717 30.18625,51.3417323 C31.900625,51.3244094 33.3246875,51.487874 33.29875,48.7773228 C33.2734375,46.0664567 32.0778125,43.8740157 30.3646875,43.8910236 C28.6521875,43.9064567 26.9940625,46.128189 27.0965625,48.8377953 C27.12375,49.5433071 27.2278125,50.0532283 27.3921875,50.4195276 C25.899375,50.7977953 25.4859375,51.7285039 25.4640625,51.7870866 L25.464375,51.7870866 Z M69.009375,42.8818898 L67.8175,51.3017323 L63.6134375,54.2692913 L50.3940625,52.7549606 L47.9275,44.5691339 C47.8727781,44.3877535 47.7307208,44.2465925 47.55,44.1940157 C47.46875,44.1691339 45.8321875,43.6976378 44.0971875,43.5464567 L44.4146875,43.5253543 C44.688125,43.5045669 49.246875,42.9420472 54.6921875,41.0510236 C60.7203125,41.5171654 65.6446875,42.2626772 69.0096875,42.8818898 L69.009375,42.8818898 Z M60.5634375,50.6755906 C60.54625,50.6100787 60.1834375,49.5209449 58.5921875,49.712126 C58.7746875,49.3089764 58.8571875,48.7650394 58.799375,48.0185827 C58.589375,45.3130709 57.02625,43.1628346 55.315,43.223622 C53.601875,43.2834646 52.50625,45.5262992 52.6009375,48.2409449 C52.6953125,50.9489764 54.1309375,50.9303937 55.8440625,50.8686614 C58.1446875,50.8245669 59.4078125,50.1127559 60.5634375,50.6755906 Z" id="Shape" fill="#A89983" fill-rule="nonzero"></path>
                                    <path d="M56.040625,45.8047244 C56.0491615,46.2915523 55.6648867,46.6933696 55.181875,46.7026772 C54.9498888,46.7068899 54.7257599,46.6179652 54.558876,46.4554979 C54.3919921,46.2930306 54.2960487,46.0703538 54.2921875,45.8365354 C54.287586,45.6028342 54.3753927,45.3768833 54.5362494,45.2084973 C54.697106,45.0401113 54.9178042,44.9431168 55.1496875,44.9388976 C55.382056,44.9337527 55.6068444,45.0223311 55.7741298,45.1849608 C55.9414151,45.3475904 56.0373488,45.570808 56.040625,45.8050394 M31.5040625,46.4535433 C31.5161347,46.9396311 31.1356911,47.3439186 30.6534375,47.3574803 C30.4207879,47.3645108 30.1949401,47.2778622 30.0258191,47.1166887 C29.8566981,46.9555152 29.7582321,46.7330904 29.7521875,46.4985827 C29.7461466,46.2645167 29.832775,46.0376501 29.9929518,45.8680574 C30.1531287,45.6984647 30.3736844,45.6000896 30.6059375,45.5946457 C31.0891702,45.5821301 31.4911154,45.9665196 31.5040625,46.4535433" id="Shape" fill="#FFFFFF" fill-rule="nonzero"></path>
                                    <path d="M74.7796875,46.5858268 C74.573125,46.4138583 73.8828125,46.016378 73.21,45.6497638 L72.1021875,53.4765354 C72.0784768,53.6289831 71.9946239,53.7652946 71.8696875,53.8544882 L70.284375,54.9719685 C70.246875,55.1609449 70.2175,55.3187402 70.189375,55.4664567 C71.746875,55.8529134 73.2596875,54.7209449 74.1090625,53.904252 C74.501875,52.3622047 74.8440625,50.5316535 74.9621875,49.2214173 C75.143125,47.1905512 74.983125,46.7546457 74.7796875,46.5861417 M50.2975,76.320315 C49.2690625,75.951811 48.32625,75.3502362 47.505625,74.5325984 C47.4371875,74.4623622 47.3721875,74.3946457 47.3034375,74.3259843 C46.6612185,74.458027 46.0118775,74.5520462 45.35875,74.6075591 C45.08,74.6201575 44.8140625,74.6440945 44.5234375,74.6440945 L44.0934375,74.647874 L43.9278125,74.6440945 C42.9446875,76.1155906 41.2921875,76.9244094 39.9971875,77.3549606 C43.8440625,78.0201575 48.076875,77.0022047 50.2975,76.320315 M16.4328125,57.1524409 C16.3984375,57.0343307 16.3621875,56.9174803 16.32875,56.7990551 L14.269375,55.3461417 C14.1410203,55.2547166 14.0567503,55.1130844 14.0371875,54.9559055 L13.033125,46.7373228 C12.29,47.1370079 11.4309375,47.6302362 11.2025,47.8233071 C11.00375,47.9886614 10.8521875,48.4100787 11.066875,50.368189 C11.23,51.8406299 11.743125,54.1023622 12.2671875,55.7971654 C13.31,56.6012598 14.8459375,57.4485039 16.4328125,57.1524409 M47.219375,56.7773228 C46.999067,56.7519702 46.8149405,56.5967452 46.75125,56.3826772 L44.21,47.9420472 C43.78375,47.8859843 43.405625,47.8544882 43.08625,47.8544882 C42.765625,47.8544882 42.389375,47.8859843 41.96375,47.9420472 L39.4934375,56.1398425 C39.4346475,56.3321438 39.27801,56.4778707 39.083125,56.5215748 L37.901875,56.7867717 C37.801875,57.2072441 37.461875,57.824252 36.3665625,58.1625197 C34.5990625,58.7058268 23.41,62.0674016 22.1340625,61.8844094 C21.3890625,61.7792126 19.9715625,60.9908661 18.923125,60.3537008 C18.5034375,59.3577953 18.27125,58.6809449 18.218125,58.520315 L18.218125,58.5171654 L18.215,58.520315 C18.3634375,58.9574803 19.8234375,63.1933858 22.79,67.3366929 C25.9703125,66.392126 28.7171875,65.5114961 29.595625,65.2314961 C31.384375,62.4510236 33.933125,59.6922835 35.743125,59.5981102 C36.0620391,59.5818173 36.3813019,59.5734159 36.700625,59.5729134 C37.5875,59.5729134 38.4340625,59.6362205 39.22,59.7300787 C38.5525,59.1193701 38.415625,58.4053543 38.31875,58.088189 C38.31875,58.088189 40.6303125,59.9105512 43.570625,59.5272441 C46.515625,59.1474016 48.3425,57.4381102 48.3425,57.4381102 L48.4003125,56.9124409 L47.2190625,56.7773228" id="Shape" fill="#E1C5A2" fill-rule="nonzero"></path>
                                    <path d="M49.609375,57.8456693 C48.999375,57.6866142 48.6153125,57.4330709 48.371875,57.1685039 L48.341875,57.4381102 C48.341875,57.4381102 48.331875,58.6837795 47.05125,59.6488189 C49.5171875,58.896063 50.536875,58.6409449 51.2353125,58.6409449 C52.0040625,58.6409449 52.3840625,58.9644094 52.7175,59.2485039 C52.780625,59.3014173 52.84375,59.3571654 52.919375,59.4166929 C54.5375596,60.700946 56.151838,61.9901909 57.7621875,63.2844094 C58.5340625,63.3741732 60.984375,63.6566929 62.5265625,63.7984252 C63.414375,63.8818898 64.21875,63.9492913 65.00625,63.9492913 C65.25875,63.9492913 65.4975,63.9404724 65.7234375,63.9250394 C66.5365625,62.3552756 67.2853125,60.6192126 67.9515625,58.7048819 C67.0396875,59.3496063 64.961875,60.7606299 63.988125,60.9423622 C62.721875,61.1814173 51.3953125,58.3124409 49.609375,57.8456693" id="Shape" fill="#E1C5A2" fill-rule="nonzero"></path>
                                    <path d="M78.110625,28.327874 C78.0886207,28.058215 78.0608016,27.78907 78.0271875,27.5206299 C78.0047507,27.3288345 77.9765084,27.1377744 77.9425,26.9477165 C77.2271875,26.3414173 76.41375,25.8012598 75.5675,25.3124409 C74.6509375,24.7700787 73.69125,24.287874 72.71125,23.8390551 C71.74,23.376063 70.74,22.9574803 69.7365625,22.5496063 C69.2346712,22.3432097 68.7293923,22.1452818 68.2209375,21.9559055 C67.7146875,21.7565354 67.204375,21.5707087 66.691875,21.3826772 C67.7659375,21.5625197 68.83125,21.8100787 69.88875,22.0837795 C70.5765625,22.2607874 71.26,22.4620472 71.93875,22.6774803 C67.1059375,9.95086614 55.556875,1.66393701 42.945625,1.66393701 C30.3328125,1.66393701 18.784375,9.9511811 13.955,22.6774803 C14.633125,22.4620472 15.318125,22.2607874 16.0028125,22.0837795 C17.0590625,21.8097638 18.1253125,21.5625197 19.20125,21.3829921 C18.685625,21.5707087 18.17625,21.7565354 17.6675,21.9562205 C17.1601318,22.1461732 16.655697,22.343992 16.154375,22.5496063 C15.1503125,22.9574803 14.1525,23.376063 13.1778125,23.8390551 C12.20125,24.287874 11.241875,24.7700787 10.3240625,25.3124409 C9.4775,25.8012598 8.6659375,26.3414173 7.9490625,26.9477165 C7.9177383,27.1381951 7.88960929,27.3291935 7.8646875,27.5206299 C7.83235895,27.7892584 7.80412646,28.0583715 7.78,28.327874 C7.73567672,28.8707856 7.71274202,29.4152557 7.71125,29.96 C7.6996875,31.0507087 7.773125,32.1417323 7.909375,33.2198425 C8.058125,34.3023622 8.2546875,35.3776378 8.545625,36.4179528 C8.68660812,36.9353494 8.85179268,37.4457359 9.040625,37.9474016 C9.1359375,38.1952756 9.23875,38.4412598 9.34625,38.6777953 C9.3990625,38.7962205 9.45375,38.9133858 9.510625,39.0251969 L9.58,39.1574803 C9.6590625,39.1974803 9.7425,39.24 9.820625,39.2781102 L10.300625,39.5089764 C10.56875,39.6330709 10.94,39.8103937 11.2465625,39.9483465 C11.26375,39.9325984 11.2809375,39.9168504 11.2946875,39.9017323 L10.4034375,36.479685 C10.5928125,36.4283465 12.2853125,35.9874016 15.2021875,35.4264567 C14.9658505,35.3820938 14.7306704,35.3316838 14.496875,35.2752756 C13.8328125,35.1077165 13.1771875,34.9048819 12.54125,34.6466142 C12.226875,34.512126 11.9165625,34.3662992 11.6209375,34.1974803 C11.325625,34.0255118 11.0353125,33.8324409 10.809375,33.5744882 C14.0134375,34.6296063 20.63625,34.1527559 26.52375,33.5385827 C31.9065625,32.9788976 37.305625,32.6176378 42.7303125,32.6053543 C48.15375,32.6176378 53.5546875,32.9788976 58.9346875,33.5385827 C64.8246875,34.1527559 71.4471875,34.6296063 74.6509375,33.5744882 C74.4275,33.8327559 74.1353125,34.0255118 73.8425,34.1974803 C73.544375,34.3659843 73.2334375,34.5124409 72.9190625,34.6466142 C72.28375,34.9048819 71.630625,35.1077165 70.965625,35.2752756 C70.866875,35.2988976 70.7671875,35.319685 70.66875,35.3420472 C73.86875,35.9398425 75.730625,36.4264567 75.928125,36.4793701 L75.07625,39.7392126 C75.249375,39.663622 75.423125,39.5880315 75.59,39.5086614 L76.07125,39.2777953 C76.1503125,39.239685 76.2325,39.1971654 76.3140625,39.1571654 L76.37875,39.0248819 C76.436875,38.9130709 76.4934375,38.7959055 76.545625,38.6774803 C76.6534375,38.4412598 76.75625,38.1949606 76.85,37.9470866 C77.0382679,37.4451564 77.2036492,36.9348064 77.345625,36.4176378 C77.6371875,35.3773228 77.83375,34.3017323 77.9803125,33.2195276 C78.119375,32.1414173 78.1928125,31.0503937 78.1828125,29.959685 C78.1811409,29.414983 78.1571621,28.8705826 78.1109375,28.327874" id="Shape" fill="#E0D896" fill-rule="nonzero"></path>
                                    <path d="M56.2146875,21.9974803 C56.2640625,23.4532283 56.22875,26.0951181 55.5553125,28.5669291 C55.528125,28.6614173 55.531875,28.76 55.5553125,28.8513386 C54.699224,28.7610419 53.8420773,28.681246 52.9840625,28.6119685 C53.9453125,26.5804724 54.1553125,24.4173228 54.2021875,23.6548031 C54.9409375,23.1266142 55.675625,22.4913386 56.2146875,21.9974803 M31.691875,23.6548031 C31.7365625,24.4170079 31.9465625,26.5751181 32.9075,28.6069291 C32.0503125,28.6752756 31.193125,28.7546457 30.3378125,28.8462992 C30.3609375,28.7587402 30.3628125,28.6617323 30.3378125,28.5672441 C29.6659375,26.0992126 29.6303125,23.4573228 29.6765625,21.9977953 C30.218125,22.4913386 30.9509375,23.1266142 31.691875,23.6548031 M66.741875,30.8680315 C66.7376195,30.8925673 66.7316675,30.9167733 66.7240625,30.9404724 C66.818125,30.967874 66.9103125,30.9955906 67.004375,31.0264567 C67.796875,31.288189 68.5903125,31.5618898 69.348125,31.9146457 C68.083125,31.0862992 67.2809375,28.6966929 66.83375,26.8699213 C66.956875,29.2611024 66.7534375,30.7776378 66.741875,30.8680315 M28.621875,21.5379528 L20.439375,23.8834646 C19.949375,27.0913386 20.09875,29.5411024 20.1775,30.3911811 L20.2190625,30.3659843 C20.2190625,30.3659843 20.485625,26.871811 21.0290625,25.5307087 C21.3090625,24.8422047 23.021875,24.4031496 24.3275,24.0885039 C25.63625,23.7754331 27.7228125,23.1474016 28.1278125,24.9990551 C28.3778125,26.1433071 28.7221875,27.0948031 29.0521875,27.7965354 C28.5265625,25.2525984 28.56,22.7650394 28.621875,21.5379528 M57.26875,21.5379528 C57.335625,22.8129134 57.3665625,25.448189 56.7734375,28.0938583 C57.1453125,27.3751181 57.558125,26.3149606 57.8459375,24.9990551 C58.2503125,23.1474016 60.336875,23.7754331 61.6453125,24.0888189 C62.95375,24.4034646 64.664375,24.8422047 64.944375,25.5307087 C65.405625,26.6658268 65.66625,29.3417323 65.735,30.1379528 C65.8128125,29.1146457 65.8990625,26.8148031 65.453125,23.8831496 L57.26875,21.5379528 M31.626875,22.2519685 C31.9150264,22.4851266 32.2121292,22.7068189 32.5175,22.9165354 C32.6603125,23.0166929 32.7478125,23.1798425 32.7509375,23.3555906 C32.7528125,23.3829921 32.8140625,26.1001575 34.0059375,28.4138583 C34.023125,28.4485039 34.0353125,28.4862992 34.046875,28.5222047 C37.01,28.3190551 39.981875,28.2368504 42.94625,28.2349606 C45.9125,28.2368504 48.8825,28.3247244 51.8440625,28.5291339 C51.8559375,28.4897638 51.866875,28.4516535 51.8878125,28.4138583 C53.0778125,26.1001575 53.141875,23.3829921 53.141875,23.3555906 C53.1458173,23.1796481 53.2333546,23.0163178 53.3771875,22.9165354 C53.6708327,22.7137785 53.9566671,22.4997635 54.2340625,22.2749606 L54.2715625,22.1691339 C54.8909375,16.0913386 53.7546875,10.4903937 53.0325,7.72314961 C52.994375,9.61543307 52.549375,25.8289764 48.5575,25.8289764 L37.539375,25.8289764 C33.3003125,25.8289764 32.959375,7.54866142 32.959375,7.54866142 L32.7409375,8.19779528 C32.0178125,11.1127559 31.025,16.4705512 31.6265625,22.2519685 M19.1678125,30.9388976 C19.1640625,30.9152756 19.1575,30.8922835 19.1521875,30.8680315 C19.1390625,30.7776378 18.9346875,29.2592126 19.0578125,26.8658268 C18.6103125,28.6938583 17.8059375,31.0875591 16.5390625,31.9155906 C17.296875,31.5612598 18.09375,31.2869291 18.8875,31.0248819 C18.98,30.9955906 19.075,30.967874 19.1678125,30.9388976" id="Shape" fill="#D7C184" fill-rule="nonzero"></path>
                                    <path d="M70.1896875,55.4664567 C70.1225802,55.8263971 70.0444177,56.1841542 69.9553125,56.5392126 C70.8640625,56.7527559 72.3496875,56.9184252 73.06,56.7785827 C73.3640625,56.4456693 73.756875,55.2910236 74.109375,53.903937 C73.26,54.7209449 71.746875,55.8529134 70.1896875,55.4661417 M37.62625,77.8834646 C39.7965625,78.4825197 42.0134375,78.7423622 44.1975,78.5965354 C46.38875,78.4462992 49.2334375,77.9697638 52.253125,76.7341732 C51.5858141,76.6852331 50.9280538,76.5461408 50.2975,76.3206299 C48.076875,77.0028346 43.844375,78.0207874 39.9975,77.3555906 C38.97875,77.6935433 38.180625,77.7984252 38.1028125,77.808189 C37.9421875,77.8267717 37.8090625,77.8491339 37.62625,77.8837795 M16.57625,57.6428346 C16.52625,57.48 16.4803125,57.3159055 16.4325,57.1524409 C14.845625,57.4485039 13.3096875,56.6012598 12.2678125,55.7977953 C12.6053125,56.8856693 12.945625,57.7407874 13.2003125,58.0006299 C13.98625,58.1392126 15.7246875,57.896063 16.57625,57.6428346 M18.9228125,60.3537008 C19.9709375,60.9908661 21.3884375,61.7795276 22.13375,61.8844094 C23.4096875,62.0670866 34.59875,58.7058268 36.36625,58.1625197 C37.46125,57.824252 37.801875,57.2072441 37.901875,56.7867717 L21.759375,60.4094488 C21.7194637,60.4168705 21.6790155,60.4209787 21.6384375,60.4217323 L21.6365625,60.4217323 C21.5253125,60.4217323 21.41375,60.3870866 21.31875,60.3206299 L20.69,59.8784252 L18.804375,58.5474016 L18.804375,58.5445669 L18.0434375,58.0091339 C18.0565625,58.0525984 18.0721875,58.095748 18.08625,58.1385827 C18.129375,58.2648819 18.171875,58.3927559 18.2175,58.5168504 L18.2175,58.52 C18.270625,58.6806299 18.5028125,59.3577953 18.9225,60.3530709 M68.4396875,57.2283465 C68.5428125,56.8440945 68.6440625,56.4551181 68.73625,56.0623622 L68.1759375,56.4592126 L66.6675,57.5237795 L65.0359375,58.6765354 C64.9521875,58.7348031 64.8546875,58.7697638 64.7546875,58.7773228 C64.7215626,58.7795334 64.6883088,58.7787957 64.6553125,58.7751181 L48.4003125,56.9124409 L48.3728125,57.167874 C48.6159375,57.4327559 49,57.6862992 49.6096875,57.8453543 C51.395625,58.312126 62.721875,61.1807874 63.988125,60.9414173 C64.961875,60.76 67.0403125,59.3489764 67.95125,58.704252 C67.9590625,58.6818898 67.966875,58.6601575 67.9740625,58.6381102 C68.1354604,58.1701832 68.2906824,57.7001155 68.4396875,57.2280315" id="Shape" fill="#9F8F78" fill-rule="nonzero"></path>
                                    <path d="M51.240625,35.1559055 C51.1125,35.3228346 50.9725,35.5055118 50.821875,35.696063 C50.05,36.6793701 48.980625,37.9335433 47.7140625,39.1640945 C46.1979669,39.1161041 44.6812182,39.0920591 43.164375,39.0919685 C40.5871875,39.0919685 38.11625,39.160315 35.77,39.2740157 C39.0865625,37.8888189 43.0690625,36.5344882 47.3825,35.7218898 C48.6597465,35.476592 49.9470153,35.2876454 51.240625,35.1555906 M31.83875,36.6516535 C30.6534375,37.4900787 29.318125,38.5584252 28.0221875,39.856063 C25.1444393,40.1455075 22.2759601,40.52195 19.420625,40.9848819 C23.091875,39.2850394 27.2825,37.7187402 31.83875,36.6516535 M72.3875,43.5571654 L71.03625,53.0743307 L64.569375,57.6412598 L47.70375,55.7083465 L45.16625,47.2812598 C45.104868,47.0767022 44.9333229,46.9251893 44.7240625,46.8907087 C44.0996875,46.7889764 43.5475,46.7395276 43.08625,46.7395276 C42.62375,46.7395276 42.071875,46.7889764 41.4434375,46.8907087 C41.2353705,46.9271462 41.0650843,47.0779736 41.0025,47.2812598 L38.526875,55.5033071 L21.7565625,59.263937 L15.1103125,54.5719685 L13.79875,43.8907087 C14.0879525,43.7282324 14.3775366,43.5664472 14.6675,43.4053543 C15.0796875,43.3159055 15.5425,43.2214173 16.054375,43.1234646 L17.28875,53.2025197 C17.3059375,53.3590551 17.3934375,53.4985827 17.521875,53.5886614 L22.0953125,56.8179528 C22.1871875,56.8818898 22.3,56.9181102 22.4103125,56.9181102 C22.45125,56.9181102 22.490625,56.9124409 22.53375,56.904252 L36.321875,53.8125984 C36.3693827,53.8007231 36.4154822,53.7837221 36.459375,53.7618898 C36.58625,53.6925984 36.688125,53.5751181 36.7296875,53.4292913 L39.214375,45.1899213 C39.8803125,45.0182677 41.586875,44.6151181 43.0859375,44.6151181 C44.5821875,44.6151181 46.288125,45.0182677 46.9559375,45.1899213 L49.4390625,53.4292913 C49.5025,53.6422047 49.688125,53.7977953 49.9065625,53.8229921 L63.6971875,55.4022047 C63.829375,55.4179528 63.965625,55.3807874 64.0753125,55.3033071 L68.6503125,52.08 C68.7734375,51.9902362 68.858125,51.8510236 68.879375,51.6995276 L70.100625,43.0869291 C71.0175,43.263937 71.7840625,43.4261417 72.3875,43.5571654 M74.09,37.5877165 L72.9025,42.1266142 C70.4746875,41.5867717 65.143125,40.5275591 57.8853125,39.8148031 C60.255625,38.7959055 62.6703125,37.5193701 64.876875,35.92 C69.195625,36.5348031 72.3665625,37.1949606 74.09,37.5877165 M12.2425,37.5877165 L12.5725,38.8444094 C13.3771997,38.1982877 14.2053718,37.5824323 15.0553125,36.9981102 C13.8925,37.2229921 12.9440625,37.4277165 12.2425,37.5877165" id="Shape" fill="#6E6A67" fill-rule="nonzero"></path>
                                    <path d="M58.8075,35.056378 C56.99,34.9524409 55.1734375,34.8648819 53.3546875,34.7889764 C53.1514804,35.0914276 52.9425886,35.3899592 52.728125,35.6844094 C51.75375,37.0129134 49.833125,39.4349606 47.3709375,41.5130709 C49.2234375,40.9215748 56.5721875,38.4368504 60.294375,35.1486614 C59.7988572,35.1161694 59.3032293,35.085408 58.8075,35.056378 M45.489375,34.5725984 L45.496875,34.5707087 C44.575,34.5587402 43.6525,34.5486614 42.7321875,34.5451969 L42.7303125,34.5451969 C41.374375,34.5489764 40.021875,34.5662992 38.6659375,34.5899213 L36.1659375,35.784252 C36.152709,35.7894751 36.1402912,35.7965814 36.1290625,35.8053543 C35.7528125,35.9892913 32.4709375,37.6585827 29.3809375,40.6365354 C29.65125,40.4929134 29.9378125,40.344252 30.233125,40.1933858 C31.923125,39.0488189 36.4303125,36.3385827 43.4390625,34.5524409 C44.1225,34.5565354 44.80625,34.5606299 45.4890625,34.5725984 M30.1265625,34.8768504 C28.9690625,34.9307087 27.8109375,34.9905512 26.6546875,35.056378 C25.3134375,35.1319685 23.9765625,35.2233071 22.640625,35.3247244 C21.974375,35.376378 21.3071875,35.4337008 20.6465625,35.503622 C20.4546875,35.5225197 20.2671875,35.5433071 20.079375,35.5675591 C18.33375,36.6192126 11.653125,40.8462992 7.063125,46.3782677 C7.1421875,46.2822047 7.22375,46.1874016 7.3046875,46.0925984 C15.8025,38.7855118 25.1190625,35.9414173 30.1265625,34.8768504 M68.57125,64.9259843 L68.418125,65.0053543 C67.5659375,65.4570079 66.449375,65.6777953 65.00625,65.6777953 C64.1471875,65.6777953 63.3046875,65.6053543 62.3709375,65.520315 C60.5065625,65.3483465 57.3503125,64.9741732 57.318125,64.968189 L57.076875,64.9426772 L56.8859375,64.7874016 C56.856875,64.768189 54.0934375,62.5464567 51.8590625,60.776063 C51.7678125,60.7017323 51.6859375,60.6311811 51.6109375,60.5713386 C51.3753125,60.368189 51.3753125,60.368189 51.2346875,60.368189 C50.5175,60.368189 48.4340625,61.0201575 43.87125,62.4447244 L43.59125,62.5351181 L43.3140625,62.4289764 C43.2828125,62.4211024 40.2896875,61.3023622 36.7015625,61.3023622 C36.4078125,61.3023622 36.1146875,61.3096063 35.8296875,61.3237795 C35.470625,61.3423622 33.4540625,62.3080315 30.8734375,66.4198425 L30.708125,66.6850394 L30.41125,66.7807874 C30.368125,66.7949606 25.92875,68.2387402 21.22,69.5959055 L20.91625,69.6825197 L20.625625,69.5474016 C20.5953125,69.5370079 18.7565625,68.6749606 17.0040625,67.8655118 C17.133125,67.9259843 17.263125,67.9851969 17.3925,68.0456693 C19.1225,69.5505512 22.4353125,72.4450394 22.803125,72.8459843 C22.8540625,72.903622 22.925,72.9741732 23.009375,73.0541732 C22.9241154,72.9563698 22.8409708,72.8567138 22.76,72.7552756 L22.756875,72.752126 L22.7571875,72.7524409 C23.5203125,73.4815748 24.3721875,74.111811 25.3028125,74.5552756 C25.7671875,74.7751181 26.2540625,74.9455118 26.7490625,75.0283465 C26.99875,75.0692913 27.2409375,75.0900787 27.49375,75.0900787 C27.7496875,75.0900787 28.01125,75.0825197 28.2725,75.0696063 C29.3075,75.016063 30.3521875,74.936063 31.394375,74.8343307 C32.435,74.7398425 33.4765625,74.6349606 34.51625,74.5077165 C35.5546875,74.3949606 36.593125,74.2633071 37.6225,74.1023622 C38.138125,74.0267717 38.650625,73.9407874 39.15125,73.8289764 C39.3971875,73.7703937 39.6534375,73.7058268 39.848125,73.6176378 C40.0259375,73.5319685 40.24125,73.359685 40.430625,73.1955906 C40.818125,72.8595276 41.1921875,72.4869291 41.5625,72.1152756 C41.9337517,71.7409463 42.2988022,71.3604213 42.6575,70.9738583 C43.2671875,70.3303937 43.7896875,69.6469291 44.38,68.9845669 C44.455625,68.9020472 44.5328125,68.8144882 44.61125,68.7294488 C44.61125,68.7310236 44.61125,68.7310236 44.6125,68.7310236 L44.619375,68.7388976 C44.7425,68.8280315 44.8653125,68.9184252 44.985625,69.0135433 C45.6959375,69.5474016 46.429375,70.1253543 47.136875,70.624252 C48.0490625,71.2702362 48.9725,71.9174803 49.9278125,72.456063 C50.16625,72.5899213 50.4128125,72.7149606 50.648125,72.7933858 C50.67875,72.8047244 50.704375,72.8100787 50.7278125,72.8135433 C50.7453125,72.824252 50.808125,72.8343307 50.8153125,72.8343307 C50.861875,72.8412598 50.9240625,72.8444094 50.9840625,72.8485039 C51.1128125,72.8500787 51.2459375,72.8444094 51.379375,72.8381102 C51.918125,72.800315 52.4646875,72.7212598 53.011875,72.6349606 C54.1040625,72.4633071 55.199375,72.2651969 56.288125,72.0453543 C57.379375,71.8349606 58.469375,71.6094488 59.5525,71.3666142 C60.6396996,71.133561 61.722396,70.8796567 62.8,70.6050394 C63.3346875,70.4598425 63.87,70.3259843 64.3471875,70.0951181 C64.8346875,69.8664567 65.286875,69.5527559 65.7034375,69.1930709 C66.5440625,68.4714961 67.250625,67.5770079 67.8378125,66.6028346 L67.83625,66.6059843 C68.1246667,66.0663184 68.3704279,65.5045786 68.57125,64.9259843 M48.200625,13.1707087 L50.1221875,13.1707087 L50.1221875,9.23685039 L36.0721875,9.23685039 L36.0721875,13.1707087 L37.9940625,13.1707087 L37.9940625,11.1729134 L41.966875,11.1729134 L41.966875,23.3225197 L40.33125,23.3225197 L40.33125,25.5776378 L45.8625,25.5776378 L45.8625,23.3225197 L44.2265625,23.3225197 L44.2265625,11.1729134 L48.200625,11.1729134 L48.200625,13.1707087" id="Shape" fill="#93232C" fill-rule="nonzero"></path>
                                    <path d="M62.738125,35.3228346 C62.7347526,35.3206807 62.730866,35.3194837 62.726875,35.3193701 C61.9313475,35.2590775 61.1355026,35.2031187 60.339375,35.1514961 L60.29375,35.1486614 C56.57125,38.4368504 49.223125,40.9215748 47.3703125,41.5130709 C47.334375,41.543937 47.2990625,41.5748031 47.263125,41.6050394 C49.648125,41.1722835 53.210625,40.3143307 56.908125,38.664252 C58.7265625,37.8529134 60.5775,36.8510236 62.338125,35.6122835 C62.4740625,35.5171654 62.6059375,35.4176378 62.738125,35.3228346 M43.4390625,34.552126 C36.4303125,36.3379528 31.923125,39.048189 30.2328125,40.1927559 C31.7933632,39.3925119 33.382786,38.6507961 34.9978125,37.9691339 C35.1926523,37.887439 35.3877575,37.8063887 35.583125,37.7259843 C35.644375,37.7007874 35.705,37.6755906 35.7665625,37.6507087 C35.92875,37.5845669 36.0928125,37.5193701 36.2575,37.4529134 C36.349375,37.4170079 36.44,37.3804724 36.5325,37.3445669 C36.680625,37.2859843 36.8303125,37.2280315 36.9809375,37.1697638 C37.09375,37.1266142 37.2065625,37.0831496 37.320625,37.0406299 C37.45875,36.9870866 37.5978125,36.9348031 37.738125,36.8831496 C37.8690625,36.8343307 38.001875,36.7861417 38.1334375,36.7382677 C38.2634375,36.6903937 38.3925,36.6437795 38.5234375,36.5965354 C38.6725,36.543622 38.8228125,36.4913386 38.9740625,36.4381102 C39.0934375,36.3968504 39.2121875,36.3549606 39.3321875,36.3137008 C39.5090625,36.2538583 39.6871875,36.1940157 39.86625,36.1348031 C39.9646875,36.1020472 40.0621875,36.0692913 40.1609375,36.0368504 C40.4409375,35.9455118 40.7240625,35.8548031 41.0090625,35.7669291 C41.6309375,35.5744882 42.26625,35.3908661 42.9121875,35.2141732 C43.766028,34.9794482 44.6253382,34.7654233 45.489375,34.5722835 C44.80625,34.5606299 44.1225,34.5565354 43.4390625,34.552126 M30.1265625,34.8768504 C25.1190625,35.9414173 15.8025,38.7855118 7.3046875,46.0925984 C7.22375,46.1874016 7.1421875,46.2818898 7.063125,46.3782677 C11.3828125,43.3514961 18.8078125,38.8525984 27.9871875,36.1155906 C28.283125,36.0274016 28.581875,35.9414173 28.88125,35.856378 C30.4329357,35.4180213 32.0017441,35.0437459 33.58375,34.7344882 C32.4321875,34.775748 31.279375,34.823937 30.1265625,34.8768504 M70.225625,64.1190551 C70.1376418,64.1597187 70.0499314,64.2009795 69.9625,64.2428346 C69.9146875,64.2648819 69.86875,64.2869291 69.820625,64.3089764 L69.706875,64.3634646 L69.533125,64.4469291 C69.509375,64.4592126 69.4840625,64.4705512 69.459375,64.4834646 C69.3934375,64.5149606 69.328125,64.5455118 69.2646875,64.5773228 L69.221875,64.5987402 C69.1521875,64.6333858 69.0828125,64.6670866 69.015625,64.7007874 L68.9940625,64.7111811 C68.8446875,64.7855118 68.7034375,64.8573228 68.57125,64.9253543 C68.3698226,65.5046649 68.1233275,66.0670423 67.8340625,66.6072441 L67.8371875,66.6031496 C67.835625,66.6050394 67.8340625,66.6062992 67.833125,66.6091339 C67.246875,67.5792126 66.5409375,68.4711811 65.7025,69.191811 C65.2859375,69.5514961 64.833125,69.8651969 64.3465625,70.0938583 C63.8684375,70.3247244 63.3334375,70.4582677 62.7990625,70.6037795 C61.7240625,70.8765354 60.6403125,71.1329134 59.55125,71.3650394 C58.4667713,71.6077657 57.3787316,71.834038 56.2875,72.0437795 C55.198125,72.2645669 54.1034375,72.4623622 53.0103125,72.6337008 C52.46375,72.72 51.9175,72.7990551 51.378125,72.8365354 C51.2467001,72.8440962 51.1150748,72.8475624 50.9834375,72.8469291 C50.926812,72.8445185 50.8703071,72.8397902 50.8140625,72.8327559 C50.7843081,72.8299893 50.7550744,72.8231003 50.7271875,72.8122835 C50.6997722,72.8088803 50.6728929,72.8020018 50.6471875,72.791811 C50.41125,72.7143307 50.165625,72.5880315 49.926875,72.4548031 C48.971875,71.9155906 48.0478125,71.2689764 47.135625,70.6229921 C46.429375,70.1237795 45.694375,69.5458268 44.984375,69.0119685 L44.9225,69.1004724 L44.926875,69.1051969 C44.9709375,69.1455118 45.015625,69.1826772 45.0596875,69.2217323 L45.0565625,69.2198425 C45.0240625,69.1952756 44.993125,69.1713386 44.9628125,69.1492913 L45.558125,69.8648819 C45.56,69.8670866 45.5825,69.8948031 45.62625,69.9461417 C45.93,70.3058268 47.20125,71.792126 48.710625,73.3014173 C49.8596875,74.4494488 51.2459375,75.0292913 52.83625,75.0292913 C53.3790625,75.0292913 53.9496875,74.9574803 54.52625,74.8192126 C55.059375,74.6872441 55.6396875,74.5480315 56.2340625,74.4031496 C57.996875,73.9804724 59.9496875,73.5089764 61.2459375,73.1697638 C61.3321875,73.1467717 61.41625,73.1250394 61.496875,73.1033071 C61.6803125,73.0544882 61.8465625,73.0097638 61.9953125,72.968189 C62.2487075,72.8974872 62.5040157,72.8339453 62.7609375,72.7776378 C64.3328125,72.4100787 66.4828125,71.9074016 67.62125,69.6072441 C67.9626636,68.9214254 68.3074596,68.2373225 68.655625,67.5549606 C69.2258619,66.4383541 69.8006584,65.3241189 70.38,64.2122835 C70.38,64.2116535 70.380625,64.2116535 70.380625,64.2116535 L70.49375,63.9937008 L70.225625,64.1190551 M44.4821875,69.0809449 L44.38,68.9833071 C43.789375,69.6459843 43.2665625,70.3294488 42.6575,70.9732283 C42.2987996,71.3596855 41.9337491,71.7401056 41.5625,72.1143307 C41.1921875,72.4859843 40.8178125,72.8598425 40.430625,73.1946457 C40.2409375,73.3590551 40.025625,73.5316535 39.848125,73.6166929 C39.65375,73.7048819 39.3971875,73.7697638 39.15125,73.8280315 C38.65125,73.9401575 38.138125,74.0258268 37.6225,74.1017323 C36.5934375,74.2623622 35.5546875,74.3949606 34.51625,74.5067717 C33.4765625,74.6340157 32.435,74.7392126 31.394375,74.8333858 C30.3525,74.9351181 29.3075,75.0151181 28.2725,75.0692913 C28.01125,75.0812598 27.7496875,75.0894488 27.49375,75.0894488 C27.2409375,75.0894488 26.998125,75.0692913 26.7490625,75.0274016 C26.25375,74.9448819 25.766875,74.7741732 25.3028125,74.5546457 C24.3725,74.1111811 23.520625,73.4806299 22.7571875,72.751811 L22.76,72.7543307 C22.863125,72.8822047 22.9765625,73.0022047 23.085,73.1240945 C23.05875,73.0998425 23.03375,73.0755906 23.009375,73.0529134 C22.925,72.9732283 22.8540625,72.9026772 22.8028125,72.8450394 C22.4346875,72.4434646 19.1215625,69.5496063 17.3921875,68.0447244 C17.2628125,67.983937 17.1328125,67.9250394 17.00375,67.864252 C17.3308006,68.3526171 17.661016,68.8388217 17.994375,69.3228346 C18.5041473,70.0647359 19.0249351,70.7988867 19.5565625,71.5250394 C19.7855384,71.8370057 20.0180537,72.1463174 20.2540625,72.4529134 C22.134375,74.8916535 24.50125,77.1451969 29.0434375,77.1451969 C29.6121875,77.1451969 30.2175,77.1099213 30.83875,77.0390551 C30.9834375,77.0233071 31.1240625,77.0069291 31.2625,76.9902362 C31.395625,76.9751181 31.5265625,76.960315 31.6534375,76.9451969 C35.603125,76.4875591 36.6865625,76.2922835 37.2878125,76.1877165 C37.4434375,76.1606299 37.57625,76.1370079 37.72,76.1155906 C37.7759375,76.1077165 37.833125,76.0985827 37.89375,76.0903937 C37.915625,76.0885039 39.25125,75.9155906 40.556875,75.2752756 C41.456875,74.8349606 42.341875,74.1729134 42.7746875,73.1943307 C43.8678125,70.7297638 44.09,70.1407874 44.09875,70.1187402 L44.4821875,69.0809449" id="Shape" fill="#731B2A" fill-rule="nonzero"></path>
                                    <path d="M55.181875,46.7029921 C55.6645395,46.6931689 56.0484683,46.2918543 56.040625,45.8053543 C56.0372673,45.5710386 55.9412215,45.3477731 55.7738185,45.1851432 C55.6064155,45.0225133 55.381514,44.9339825 55.1490625,44.9392126 C54.917014,44.9433477 54.6961393,45.0403929 54.5351973,45.208925 C54.3742553,45.3774571 54.2864807,45.6036175 54.29125,45.8374803 C54.3001437,46.3243204 54.698835,46.7117697 55.181875,46.7029921 Z M60.5634375,50.6755906 C59.4078125,50.1127559 58.1446875,50.8251969 55.8440625,50.8686614 C54.1309375,50.9303937 52.6953125,50.9489764 52.6009375,48.2406299 C52.50625,45.5262992 53.601875,43.2831496 55.3146875,43.2233071 C57.02625,43.1628346 58.5890625,45.3130709 58.7990625,48.0185827 C58.8571875,48.7650394 58.7753125,49.3089764 58.5921875,49.712126 C60.1834375,49.5206299 60.54625,50.6097638 60.5634375,50.6755906 Z M30.65375,47.3574803 C31.1360036,47.3439186 31.5164472,46.9396311 31.504375,46.4535433 C31.4915971,45.9663954 31.0896015,45.5818167 30.60625,45.5943307 C30.2938101,45.6028826 30.0096304,45.778782 29.8607587,46.0557694 C29.711887,46.3327568 29.7209405,46.6687512 29.8845087,46.9371867 C30.048077,47.2056223 30.3413101,47.3657172 30.65375,47.3571654 L30.65375,47.3574803 Z M33.29875,48.7770079 C33.3240625,51.4875591 31.9,51.3244094 30.1859375,51.3414173 C30.011875,51.3470866 29.8478125,51.3492913 29.6834375,51.3492913 C29.4925,51.3546457 29.3078125,51.3568504 29.130625,51.3533858 C27.466875,51.3492913 26.4046875,51.2746457 25.46375,51.7867717 C25.485625,51.728189 25.899375,50.7977953 27.391875,50.4182677 C27.2271875,50.0519685 27.12375,49.5423622 27.0965625,48.8371654 C26.99375,46.127874 28.6521875,43.9061417 30.3646875,43.8903937 C32.0775,43.8733858 33.273125,46.0661417 33.29875,48.7770079 Z M65.735625,30.1379528 C65.7231616,30.3047479 65.7075337,30.4712876 65.68875,30.6374803 C65.010093,30.4530109 64.3282128,30.2808048 63.6434375,30.1209449 C61.3809375,29.6201575 59.090625,29.2488189 56.7890625,28.983937 C56.7096875,28.9735433 56.62875,28.968189 56.5475,28.9581102 C56.563125,28.9234646 56.5771875,28.8891339 56.5875,28.8548031 C56.65625,28.6015748 56.71625,28.3480315 56.7734375,28.0941732 C57.3665625,25.4485039 57.335625,22.8135433 57.26875,21.5382677 L65.453125,23.8837795 C65.8990625,26.8151181 65.8125,29.1146457 65.735625,30.1379528 Z M55.555625,28.5669291 C55.528125,28.6614173 55.531875,28.76 55.555625,28.8513386 C54.6994325,28.7610394 53.8421816,28.6812434 52.9840625,28.6119685 C53.9453125,26.5804724 54.1553125,24.4173228 54.2021875,23.6548031 C54.9409375,23.1266142 55.6753125,22.4913386 56.2146875,21.9974803 C56.2640625,23.4532283 56.22875,26.0951181 55.5553125,28.5669291 L55.555625,28.5669291 Z M30.3378125,28.8459843 C30.3609375,28.7584252 30.3628125,28.6614173 30.3378125,28.5669291 C29.6659375,26.0985827 29.6303125,23.4570079 29.6765625,21.9974803 C30.2178125,22.4913386 30.950625,23.1266142 31.691875,23.6548031 C31.7365625,24.4170079 31.9465625,26.5751181 32.9075,28.6069291 C32.0503125,28.6749606 31.1934375,28.7546457 30.3378125,28.8462992 L30.3378125,28.8459843 Z M29.101875,28.9820472 C27.95375,29.1231496 26.804375,29.2689764 25.660625,29.4601575 C24.52,29.6570079 23.3790625,29.8661417 22.248125,30.1193701 C21.5621875,30.28 20.8825,30.4500787 20.2021875,30.6355906 C20.1959375,30.5814173 20.1875,30.4979528 20.1778125,30.3905512 C20.0990625,29.5401575 19.9496875,27.0910236 20.4396875,23.8828346 L28.621875,21.5370079 C28.56,22.7644094 28.5265625,25.2516535 29.0525,27.7952756 C29.125625,28.1486614 29.20875,28.5020472 29.304375,28.8535433 C29.315,28.888189 29.32875,28.9228346 29.34375,28.9537008 C29.2615625,28.9640945 29.1828125,28.9713386 29.1015625,28.9817323 L29.101875,28.9820472 Z M70.1221875,32.3124409 C70.0525,32.2787402 69.98375,32.2444094 69.9178125,32.2116535 C69.8165625,32.1625197 69.704375,32.1064567 69.5759375,32.0434646 C69.4973311,32.0051934 69.4211445,31.9620668 69.3478125,31.9143307 C68.590625,31.5615748 67.796875,31.288189 67.004375,31.0261417 C66.910625,30.9952756 66.818125,30.9675591 66.724375,30.9398425 C66.7318053,30.9162002 66.7377545,30.8921108 66.7421875,30.8677165 C66.75375,30.7773228 66.9571875,29.2604724 66.834375,26.8696063 C66.7825,25.8485039 66.6703125,24.6680315 66.458125,23.3707087 C66.4239357,23.1646084 66.2754362,22.9965679 66.07625,22.9385827 L64.9096875,22.6059843 C64.65875,13.5080315 60.9421875,9.23275591 60.8259375,9.10015748 C64.1459375,14.4859843 64.116875,20.8730709 64.0590625,22.3615748 L56.8265625,20.2894488 C56.82125,20.2894488 56.8165625,20.2894488 56.8096875,20.2862992 C56.7791017,20.2795414 56.7480911,20.2749111 56.716875,20.2724409 C56.71,20.2724409 56.7021875,20.2711811 56.6903125,20.2711811 C56.6506685,20.269261 56.610947,20.2726501 56.5721875,20.2812598 C56.5665625,20.2812598 56.5603125,20.2866142 56.5528125,20.2866142 C56.5203497,20.2934716 56.4888584,20.3043688 56.4590625,20.3190551 C56.4478125,20.3244094 56.4375,20.3316535 56.4271875,20.3348031 C56.4028125,20.3514961 56.3790625,20.3653543 56.3553125,20.3826772 C56.35,20.3864567 56.3428125,20.3896063 56.3378125,20.3946457 C56.330625,20.399685 56.3284375,20.4050394 56.3240625,20.4085039 C56.3171875,20.415748 56.3090625,20.4204724 56.3034375,20.4258268 C56.2965625,20.4330709 56.101875,20.6251969 55.799375,20.9130709 C55.820625,20.2311811 55.8259375,19.1877165 55.7490625,17.9137008 L55.725625,17.5461417 C55.498125,14.3451969 54.7475,9.84913386 52.5040625,5.91307087 C52.5234375,5.96976378 52.7453125,6.62267717 53.0321875,7.72283465 C53.7540625,10.4900787 54.8909375,16.0910236 54.27125,22.1688189 C54.268125,22.1965354 54.26625,22.223937 54.2634375,22.2519685 C54.2540625,22.2598425 54.24375,22.2670866 54.2340625,22.2746457 C53.9564987,22.4993687 53.6705633,22.7133814 53.376875,22.9162205 C53.2330006,23.016042 53.1452773,23.179286 53.1409375,23.3552756 C53.1409375,23.3826772 53.0775,26.0998425 51.8878125,28.4135433 C51.8665625,28.4513386 51.855625,28.4894488 51.8434375,28.5288189 C48.8821875,28.3240945 45.9121875,28.2368504 42.9459375,28.2346457 C39.98125,28.2365354 37.0096875,28.3187402 34.0465625,28.5218898 C34.0346875,28.4856693 34.0228125,28.447874 34.005625,28.4132283 C32.81375,26.0998425 32.7525,23.3826772 32.750625,23.3549606 C32.7472474,23.1793372 32.6602629,23.0160706 32.516875,22.9162205 C32.2115298,22.7066112 31.914527,22.4849157 31.6265625,22.2516535 C31.0246875,16.4699213 32.0178125,11.1124409 32.740625,8.19716535 C33.08375,6.81322835 33.366875,5.97669291 33.389375,5.91275591 C30.1340625,11.6217323 30.02125,18.5102362 30.0934375,20.9127559 C29.785625,20.6248819 29.5946875,20.4330709 29.5896875,20.4255118 C29.5840625,20.4201575 29.5740625,20.4154331 29.5671875,20.408189 L29.555625,20.3940157 C29.55,20.3892913 29.5434375,20.3861417 29.5365625,20.3823622 C29.5135457,20.3660641 29.4895405,20.351232 29.4646875,20.3379528 C29.4528125,20.3313386 29.4440625,20.3240945 29.4303125,20.3187402 C29.4028056,20.3037315 29.3728533,20.293811 29.341875,20.2894488 C29.333125,20.2862992 29.3265625,20.2809449 29.3209375,20.2809449 C29.281512,20.2725481 29.2411981,20.2691622 29.2009375,20.2708661 C29.1909375,20.2708661 29.1803125,20.272126 29.1703125,20.272126 C29.1409375,20.2752756 29.1125,20.2787402 29.081875,20.2859843 C29.0746875,20.2891339 29.07125,20.2891339 29.064375,20.2891339 L21.834375,22.3612598 C21.77625,20.8724409 21.745,14.4853543 25.065,9.09984252 C24.95,9.23307087 21.2340625,13.5086614 20.98125,22.6066142 L19.8203125,22.9388976 C19.6188042,22.9946344 19.4680989,23.1637589 19.4346875,23.3716535 C19.2450321,24.528561 19.1192137,25.6951835 19.0578125,26.8661417 C18.9353125,29.2598425 19.1390625,30.7779528 19.1521875,30.8683465 C19.1575,30.8922835 19.1640625,30.9155906 19.1678125,30.9392126 C19.0753125,30.968189 18.98,30.9959055 18.8875,31.0251969 C18.09375,31.2872441 17.2971875,31.5618898 16.539375,31.9159055 C16.4705525,31.9606206 16.3991791,32.0012157 16.325625,32.0374803 L16.31375,32.0440945 C16.1846875,32.1070866 16.0725,32.1631496 15.97125,32.2122835 L15.7934375,32.2998425 C15.7559375,32.3218898 15.7171875,32.3407874 15.6803125,32.3631496 C16.216875,32.1508661 16.771875,31.9959055 17.32625,31.8585827 C17.8816452,31.7192668 18.4408255,31.5957532 19.003125,31.488189 C20.1290625,31.2771654 21.2575,31.0938583 22.393125,30.9546457 C23.525625,30.8047244 24.6628125,30.6809449 25.801875,30.5848819 C26.94125,30.4869291 28.07875,30.3902362 29.220625,30.3237795 C33.7871875,30.0513386 38.365625,29.9653543 42.945625,29.9637795 C47.5271875,29.9669291 52.105,30.0393701 56.6709375,30.3222047 C57.8134375,30.3886614 58.950625,30.4847244 60.091875,30.5820472 C61.2325,30.679685 62.3659375,30.8050394 63.498125,30.9549606 C64.6340625,31.0925984 65.7646875,31.2749606 66.88875,31.4872441 C67.4505638,31.5939895 68.0090479,31.7178256 68.5634375,31.8585827 C69.1221875,31.9962205 69.6740625,32.1511811 70.211875,32.3634646 C70.181875,32.3451969 70.15125,32.3294488 70.1221875,32.3124409 Z" id="Shape" fill="#0E0F0D" fill-rule="nonzero"></path>
                                    <path d="M44.2265625,11.1729134 L44.2265625,23.3225197 L45.8625,23.3225197 L45.8625,25.5776378 L40.33125,25.5776378 L40.33125,23.3225197 L41.966875,23.3225197 L41.966875,11.1729134 L37.99375,11.1729134 L37.99375,13.1710236 L36.0728125,13.1710236 L36.0728125,9.23716535 L50.1221875,9.23716535 L50.1221875,13.1710236 L48.2009375,13.1710236 L48.2009375,11.1725984 L44.2265625,11.1725984 L44.2265625,11.1729134 Z M51.56875,14.6255118 L51.56875,7.78047244 L34.6296875,7.78047244 L34.6296875,14.6255118 L39.44,14.6255118 L39.44,12.6274016 L40.520625,12.6274016 L40.520625,21.8651969 L38.88875,21.8651969 L38.88875,27.0299213 L47.3075,27.0299213 L47.3075,21.8645669 L45.67,21.8645669 L45.67,12.6267717 L46.7546875,12.6267717 L46.7546875,14.6251969 L51.56875,14.6251969 L51.56875,14.6255118 Z" id="Shape" fill="#0E0F0D" fill-rule="nonzero"></path>
                                </g>
                            </g>
                        </g>
                        <text id="Jenkins" font-family="Solomon-Sans-SemiBold, Solomon Sans SemiBold" font-size="16" font-weight="500" line-spacing="25" letter-spacing="-0.300000012" fill="#000000">
                            <tspan x="11.0620001" y="108">Travis CI</tspan>
                        </text>
                    </g>
                </g>
            </g>
        </g>
    </g>
</svg>