<?xml version="1.0" encoding="UTF-8"?>
<svg width="87px" height="117px" viewBox="0 0 87 117" version="1.1" xmlns="http://www.w3.org/2000/svg" xmlns:xlink="http://www.w3.org/1999/xlink">
    <!-- Generator: Sketch 50 (54983) - http://www.bohemiancoding.com/sketch -->
    <title>tech-list copy 5</title>
    <desc>Created with Sketch.</desc>
    <defs></defs>
    <g id="Home-Page-small" stroke="none" stroke-width="1" fill="none" fill-rule="evenodd">
        <g id="MadOps_2" transform="translate(-1080.000000, -2439.000000)" fill="#000000">
            <g id="use" transform="translate(60.000000, 2290.000000)">
                <g id="tech-list" transform="translate(1013.000000, 149.000000)">
                    <g id="Stacked-Group-2">
                        <g id="img">
                            <g id="icons/tech/Prometheus" transform="translate(10.500000, 0.000000)">
                                <g id="Prometheus---Monitoring-system-&amp;-time-series-database-0">
                                    <path d="M39.7663158,0.468070175 C17.8049123,0.468070175 0,18.2708772 0,40.2329825 C0,62.194386 17.8049123,79.9985965 39.7663158,79.9985965 C61.7277193,79.9985965 79.5319298,62.194386 79.5319298,40.2329825 C79.5319298,18.2708772 61.7270175,0.468070175 39.7663158,0.468070175 Z M39.7663158,74.8926316 C33.5178947,74.8926316 28.4519298,70.7185965 28.4519298,65.5712281 L51.0807018,65.5712281 C51.0807018,70.7178947 46.0147368,74.8926316 39.7663158,74.8926316 Z M58.4540351,62.4842105 L21.0764912,62.4842105 L21.0764912,55.7066667 L58.4547368,55.7066667 L58.4547368,62.4842105 L58.4540351,62.4842105 Z M58.32,52.2182456 L21.1831579,52.2182456 C21.0596491,52.0757895 20.9333333,51.9354386 20.8140351,51.7908772 C16.9880702,47.1452632 16.0870175,44.72 15.2119298,42.2484211 C15.197193,42.1670175 19.8512281,43.1992982 23.1515789,43.9417544 C23.1515789,43.9417544 24.8498246,44.3347368 27.3326316,44.7873684 C24.9487719,41.9929825 23.5333333,38.4407018 23.5333333,34.8098246 C23.5333333,26.8385965 29.6470175,19.8729825 27.4414035,14.242807 C29.5880702,14.4175439 31.8842105,18.7733333 32.0392982,25.5838596 C34.3214035,22.4301754 35.2764912,16.6708772 35.2764912,13.1396491 C35.2764912,9.48350877 37.685614,5.23649123 40.0954386,5.09122807 C37.9473684,8.63157895 40.6519298,11.6666667 43.0561404,19.1957895 C43.9578947,22.0238596 43.842807,26.7831579 44.5389474,29.8014035 C44.7698246,23.5326316 45.8477193,14.3859649 49.8245614,11.2280702 C48.0701754,15.2049123 50.0842105,20.1810526 51.4617544,22.5733333 C53.6842105,26.4329825 55.0315789,29.357193 55.0315789,34.8877193 C55.0315789,38.5957895 53.6624561,42.0870175 51.3529825,44.8161404 C53.9789474,44.3235088 55.7922807,43.8792982 55.7922807,43.8792982 L64.32,42.2154386 C64.3207018,42.2147368 63.0814035,47.3108772 58.32,52.2182456 Z" id="Shape" fill-rule="nonzero"></path>
                                </g>
                            </g>
                        </g>
                        <text id="Jenkins" font-family="Solomon-Sans-SemiBold, Solomon Sans SemiBold" font-size="16" font-weight="500" line-spacing="25" letter-spacing="-0.300000012">
                            <tspan x="6.39200006" y="108">Prometheus</tspan>
                        </text>
                    </g>
                </g>
            </g>
        </g>
    </g>
</svg>