<?xml version="1.0" encoding="UTF-8"?>
<svg width="80px" height="117px" viewBox="0 0 80 117" version="1.1" xmlns="http://www.w3.org/2000/svg" xmlns:xlink="http://www.w3.org/1999/xlink">
    <!-- Generator: Sketch 50 (54983) - http://www.bohemiancoding.com/sketch -->
    <title>tech-list copy 20</title>
    <desc>Created with Sketch.</desc>
    <defs></defs>
    <g id="Home-Page-small" stroke="none" stroke-width="1" fill="none" fill-rule="evenodd">
        <g id="MadOps_2" transform="translate(-60.000000, -2884.000000)">
            <g id="use" transform="translate(60.000000, 2290.000000)">
                <g id="tech-list" transform="translate(0.000000, 591.000000)">
                    <g id="Stacked-Group-2">
                        <g id="img" fill="#35495E">
                            <g id="icons/tech/Senrty">
                                <g id="Sentry-—-Worldvectorlogo-10" transform="translate(0.000000, 3.333333)">
                                    <path d="M78.50625,59.8961159 C80.3140625,63.0988696 80.4890625,66.4667826 78.986875,69.1291014 C77.486875,71.7936522 74.551875,73.3196232 70.934375,73.3196232 L64.116875,73.3196232 C64.1978125,72.0225797 64.2515625,70.7146957 64.2515625,69.3972464 C64.2515625,67.9216522 64.184375,66.4645507 64.085625,65.011913 L68.57,65.0074493 C69.6725,65.0074493 70.56375,64.0933333 70.56375,62.965913 C70.5636493,62.6262114 70.4812013,62.2918088 70.32375,61.9924928 L41.7425,11.3064058 C41.3910343,10.6679098 40.7289908,10.2728659 40.01125,10.2733623 C39.3123876,10.2735743 38.664754,10.6474603 38.3046875,11.2585797 L33.7665625,19.3070725 C47.5584375,29.9148986 56.8303125,46.3488986 58.0990625,65.0074493 C58.1978125,66.4575362 58.265,67.9149565 58.265,69.3924638 C58.265,70.709913 58.21125,72.0158841 58.1325,73.3148406 L35.868125,73.3148406 C35.989375,72.0225797 36.0590625,70.7169275 36.0590625,69.3924638 C36.0590625,67.9101739 35.97375,66.4486087 35.8165625,65.0074493 C34.7165625,54.7388696 29.7896875,45.6385217 22.534375,39.2164348 L19.4084375,44.7566087 C24.8896875,49.9616812 28.6309375,57.0504638 29.648125,65.0074493 C29.8325,66.4438261 29.935625,67.9057101 29.935625,69.3924638 C29.935625,70.7169275 29.8503125,72.0273623 29.704375,73.3148406 L9.065625,73.3148406 C5.448125,73.3148406 2.513125,71.7866377 1.013125,69.122087 C-0.4890625,66.4597681 -0.3140625,63.0944058 1.49375,59.8891014 L5.73125,52.4798841 C8.15194941,53.8083841 10.339537,55.5379345 12.2046875,57.597913 L9.67875,61.9877101 C9.52179085,62.2873639 9.43917439,62.6216886 9.438125,62.9614493 C9.43712931,63.5018145 9.64680074,64.0204003 10.0209176,64.4028855 C10.3950344,64.7853706 10.9028798,65.0003511 11.4325,65.0004348 L21.4428125,65.0052174 C20.603125,60.1091014 18.3890625,55.6918841 15.2184375,52.1932464 C13.35,50.1383188 11.1675,48.3990435 8.7378125,47.0682029 L19.9159375,27.2522609 C22.2893142,28.6060796 24.5439079,30.1660944 26.6546875,31.9149855 C36.288125,39.8901449 42.7934375,51.6687536 43.9721875,65.0029855 L49.9634375,65.0029855 C48.7415625,49.4142319 41.064375,35.6677391 29.670625,26.5673913 C27.5311436,24.8576325 25.2670907,23.3166797 22.898125,21.957913 L32.439375,5.04501449 C34.2446875,1.83971014 37.00625,0 40.01125,0 C43.0134375,0 45.773125,1.83971014 47.5809375,5.04501449 L78.50625,59.8961159 Z" id="Shape" fill-rule="nonzero"></path>
                                </g>
                            </g>
                        </g>
                        <text id="Jenkins" font-family="Solomon-Sans-SemiBold, Solomon Sans SemiBold" font-size="16" font-weight="500" line-spacing="25" letter-spacing="-0.300000012" fill="#000000">
                            <tspan x="16.596" y="108">Sentry</tspan>
                        </text>
                    </g>
                </g>
            </g>
        </g>
    </g>
</svg>