<?xml version="1.0" encoding="UTF-8"?>
<svg width="58px" height="117px" viewBox="0 0 58 117" version="1.1" xmlns="http://www.w3.org/2000/svg" xmlns:xlink="http://www.w3.org/1999/xlink">
    <!-- Generator: Sketch 50 (54983) - http://www.bohemiancoding.com/sketch -->
    <title>tech-list copy 13</title>
    <desc>Created with Sketch.</desc>
    <defs></defs>
    <g id="Home-Page-small" stroke="none" stroke-width="1" fill="none" fill-rule="evenodd">
        <g id="MadOps_2" transform="translate(-72.000000, -2660.000000)">
            <g id="use" transform="translate(60.000000, 2290.000000)">
                <g id="tech-list" transform="translate(0.000000, 370.000000)">
                    <g id="Stacked-Group-2">
                        <g id="img">
                            <g id="icons/tech/Jenkins">
                                <g id="Jenkins-—-Worldvectorlogo-11" transform="translate(13.333333, 0.000000)">
                                    <path d="M55.7202222,38.5818803 C55.7202222,54.4125356 43.4824444,67.2581197 28.3782222,67.2581197 C13.274,67.2581197 1.03644444,54.4125356 1.03644444,38.5818803 C1.03644444,22.7509972 13.2742222,9.90541311 28.3782222,9.90541311 C43.4826667,9.90541311 55.7204444,22.7509972 55.7204444,38.5818803" id="Shape" fill="#D33833" fill-rule="nonzero"></path>
                                    <path d="M2.16088889,45.682963 C2.16088889,45.682963 0.176444444,15.785755 27.0553333,14.9260399 L25.1811111,11.7146439 L10.606,16.7352707 L6.43866667,21.642849 L2.80044444,28.7892877 L0.727555556,37.1117949 L1.34511111,42.6753276" id="Shape" fill="#EF3D3A" fill-rule="nonzero"></path>
                                    <path d="M9.65777778,19.0194872 C4.87311111,24.0626781 1.89622222,31.005812 1.89622222,38.6949288 C1.89622222,46.3840456 4.87311111,53.3269516 9.65777778,58.3701425 C14.4646667,63.4133333 21.0577778,66.5116809 28.3782222,66.5116809 C35.6988889,66.5116809 42.2917778,63.4133333 47.0986667,58.3703704 C51.8835556,53.3269516 54.8602222,46.3840456 54.8602222,38.6949288 C54.8602222,31.005584 51.8835556,24.0626781 47.0986667,19.0194872 C42.292,13.9988604 35.6988889,10.8781766 28.3782222,10.8781766 C21.0797778,10.8781766 14.4648889,13.9762963 9.65777778,19.0194872 Z M8.44511111,59.5687749 C3.35177778,54.231567 0.198444444,46.8364672 0.198444444,38.6949288 C0.198444444,30.5533903 3.35177778,23.1580627 8.44511111,17.7982906 C13.5386667,12.4610826 20.5946667,9.13663818 28.3784444,9.13663818 C36.162,9.13663818 43.218,12.4610826 48.3115556,17.7982906 C53.4048889,23.1354986 56.5582222,30.5305983 56.5582222,38.6949288 C56.5582222,46.8362393 53.4048889,54.231567 48.3115556,59.5687749 C43.218,64.928547 36.162,68.2304274 28.3782222,68.2304274 C20.5946667,68.2304274 13.5386667,64.928547 8.44511111,59.5687749 Z" id="Shape" fill="#231F20" fill-rule="nonzero"></path>
                                    <polyline id="Shape" fill="#F0D6B7" fill-rule="nonzero" points="39.8884444 38.740057 35.7208889 39.3732194 30.0982222 40.0291738 26.46 40.1196581 22.91 40.0066097 20.1977778 39.1473504 17.7942222 36.4784046 15.92 31.0281481 15.5011111 29.8520798 13.0095556 28.9928205 11.554 26.5278632 10.5177778 22.9996581 11.6644444 19.9015385 14.3766667 18.9290028 16.5595556 19.9920228 17.5957778 22.3441595 18.8526667 22.1403989 19.2715556 21.5977208 18.8526667 19.1325356 18.7424444 16.034188 19.3597778 11.76 19.3377778 9.31760684 21.234 6.19669516 24.5635556 3.73150997 30.3848889 1.17606838 36.8455556 2.14837607 42.4682222 6.30974359 45.0702222 10.5839316 46.7457778 13.6822792 47.1648889 21.371396 45.908 27.9977208 43.6146667 33.8778348 41.454 37.0213105"></polyline>
                                    <polyline id="Shape" fill="#335061" fill-rule="nonzero" points="36.3604444 57.2168661 21.4766667 57.8500285 21.4766667 60.4054701 22.7335556 69.3839316 22.116 70.1301425 11.7084444 66.4891168 10.9808889 65.2 9.94444444 53.1234188 7.49688889 45.8864957 6.96777778 44.1677493 15.3026667 38.2878632 17.9046667 37.2248433 20.1977778 40.1194302 22.1822222 41.9288889 24.4755556 42.6750997 25.5117778 42.9919088 26.7686667 48.5552137 27.7168889 49.7312821 30.1202222 48.8717949 28.4444444 52.1960114 37.4848889 56.5834758 36.3604444 57.2166382"></polyline>
                                    <polyline id="Shape" fill="#6D6B6D" fill-rule="nonzero" points="11.6644444 19.9466667 14.3766667 18.974359 16.5595556 20.037151 17.5957778 22.3892877 18.8526667 22.185755 19.1615556 20.8966382 18.544 18.431453 19.1613333 12.551567 18.6322222 9.34017094 20.5064444 7.10131054 24.5635556 3.7994302 23.4168889 2.19373219 17.684 5.08831909 15.2806667 7.01082621 13.9355556 9.99589744 11.8628889 12.8907123 11.2455556 16.305641 11.6644444 19.9466667"></polyline>
                                    <path d="M15.9422222,9.90541311 C15.9422222,9.90541311 17.5075556,5.94780627 23.7477778,4.02552707 C29.9877778,2.10324786 24.0566667,2.64592593 24.0566667,2.64592593 L17.2868889,5.31464387 L14.6853333,7.9831339 L13.5386667,10.1089459 L15.9422222,9.90541311 M12.8111111,19.2004558 C12.8111111,19.2004558 10.628,11.7146439 18.9628889,10.6518519 L18.6542222,9.36273504 L12.9213333,10.7423362 L11.2455556,16.3058689 L11.6644444,19.9466667 L12.8111111,19.2004558" id="Shape" fill="#DCD9D8" fill-rule="nonzero"></path>
                                    <path d="M16.1406667,29.128661 L17.5075556,27.7716239 C17.5075556,27.7716239 18.1251111,27.8395442 18.2353333,28.585755 C18.3455556,29.3321937 18.6542222,36.071567 23.1304444,39.6900285 C23.5493333,40.0291738 19.8008889,39.1471225 19.8008889,39.1471225 L16.4711111,33.8099145 M35.302,27.0931054 C35.302,27.0931054 35.5444444,23.8591453 36.4044444,24.1080342 C37.2644444,24.3566952 37.2644444,25.2385185 37.2644444,25.2385185 C37.2644444,25.2385185 35.1917778,26.5955556 35.302,27.0931054 M43.9455556,15.242849 C43.9455556,15.242849 42.2255556,15.6045584 42.0713333,17.1651282 C41.9168889,18.7254701 43.9455556,17.4817094 44.2542222,17.368661 M31.3551111,15.3558974 C31.3551111,15.3558974 29.0617778,15.6724786 29.0617778,17.1651282 C29.0617778,18.6575499 31.6637778,18.5445014 32.3913333,17.911339 M17.1988889,22.2988034 C17.1988889,22.2988034 13.2522222,19.8336182 12.8333333,22.185755 C12.4144444,24.5376638 11.4882222,26.2336182 13.4506667,28.6988034 L12.1055556,28.2691738 L10.8488889,24.9672934 L10.4297778,21.7558974 L12.8333333,19.2004558 L15.5453333,19.4039886 L17.1108889,20.6931054 L17.1991111,22.2988034 M19.0733333,15.5594302 C19.0733333,15.5594302 20.8371111,6.15133903 29.7895556,4.34210826 C37.154,2.84945869 41.0348889,4.65891738 42.4902222,6.3774359 C42.4902222,6.3774359 35.9193333,-1.62826211 29.6791111,0.814131054 C23.4391111,3.27931624 18.8526667,7.75703704 18.9628889,10.6292877 C19.1393333,15.5592023 19.0731111,15.5592023 19.0731111,15.5592023 M43.2177778,7.44045584 C43.2177778,7.44045584 40.1971111,7.32740741 40.0866667,10.1089459 C40.0866667,10.1089459 40.0866667,10.5388034 40.2853333,10.968433 C40.2853333,10.968433 42.6886667,8.18666667 44.144,9.67931624" id="Shape" fill="#F7E4CD" fill-rule="nonzero"></path>
                                    <path d="M30.01,11.2624501 C30.01,11.2624501 29.4808889,7.01082621 25.9528889,9.47578348 C23.6595556,11.0814815 23.88,13.3203419 24.2771111,13.7501994 C24.696,14.1798291 24.5857778,15.0390883 24.8944444,14.4512821 C25.2031111,13.8632479 25.1148889,11.9409687 26.2615556,11.3980627 C27.386,10.8553846 29.2824444,10.2675783 30.01,11.2624501" id="Shape" fill="#F7E4CD" fill-rule="nonzero"></path>
                                    <path d="M20.22,40.1196581 L10.4293333,44.597151 C10.4293333,44.597151 14.4866667,61.1516809 12.4137778,66.2853561 L10.9586667,65.7426781 L10.8484444,59.4329345 L8.13622222,47.4921937 L6.98955556,44.1900855 L17.1986667,37.1341311 L20.2195556,40.1194302 M21.212,49.2786325 L22.6011111,51.0201709 L22.6011111,57.4201709 L20.9475556,57.4201709 C20.9475556,57.4201709 20.7491111,52.9424501 20.7491111,52.3997721 C20.7491111,51.8568661 20.9475556,49.9345869 20.9475556,49.9345869 M21.2562222,58.3927066 L16.5595556,58.5962393 L17.9046667,59.5687749 L21.234,60.1116809" id="Shape" fill="#49728B" fill-rule="nonzero"></path>
                                    <polyline id="Shape" fill="#335061" fill-rule="nonzero" points="37.2866667 57.3299145 41.1451111 57.2168661 42.0933333 67.0317949 38.1464444 67.5747009 37.2864444 57.3296866"></polyline>
                                    <path d="M38.3228889,57.3299145 L44.144,57.0131054 C44.144,57.0131054 46.5475556,50.8166382 46.5475556,50.500057 C46.5475556,50.1832479 48.6202222,41.5218234 48.6202222,41.5218234 L43.9235556,36.5011966 L42.9753333,35.6419373 L40.4837778,38.1973789 L40.4837778,48.125584 L38.3228889,57.3299145" id="Shape" fill="#335061" fill-rule="nonzero"></path>
                                    <path d="M40.9246667,56.5834758 L37.2864444,57.3299145 L37.8157778,60.3152137 C39.1606667,60.9483761 41.454,59.2521937 41.454,59.2521937 M41.0348889,37.8807977 L48.3335556,43.4441026 L48.532,40.888433 L43.0195556,35.6645014 L41.0351111,37.8807977" id="Shape" fill="#49728B" fill-rule="nonzero"></path>
                                    <polyline id="Shape" fill="#FFFFFF" fill-rule="nonzero" points="24.8724444 78.3621652 22.7115556 69.3839316 21.6311111 62.7576068 21.4546667 57.8500285 31.2226667 57.3073504 37.2864444 57.3073504 36.7353333 68.5244444 37.6833333 77.1860969 37.5731111 78.7917949 29.6571111 79.4251852 24.8724444 78.3621652"></polyline>
                                    <path d="M35.9413333,57.2168661 C35.9413333,57.2168661 35.4122222,68.3211396 36.9777778,76.2363533 C36.9777778,76.2363533 33.8466667,78.2716809 29.2822222,78.7917949 L38.0362222,78.4752137 L39.0724444,77.8420513 L37.8157778,60.3377778 L37.4848889,56.5834758" id="Shape" fill="#DCD9D8" fill-rule="nonzero"></path>
                                    <polyline id="Shape" fill="#FFFFFF" fill-rule="nonzero" points="42.2477778 66.1950997 46.3048889 65.0190313 54.0004444 64.5894017 55.1471111 60.9483761 53.0742222 54.6386325 50.6708889 54.3220513 47.3413333 55.3850712 44.166 56.9907692 42.4682222 56.6739601 41.1451111 57.2168661"></polyline>
                                    <path d="M42.1815556,64.0467236 C42.1815556,64.0467236 44.8937778,62.7576068 45.3126667,62.8706553 L44.166,56.9907692 L45.5111111,56.4478632 C45.5111111,56.4478632 46.4593333,62.011396 46.4593333,62.6445584 C46.4593333,62.6445584 52.2804444,62.9611396 52.8095556,62.9611396 C52.8095556,62.9611396 54.0664444,60.4959544 53.7577778,57.9405128 L54.9044444,61.3554416 L55.0146667,63.2777208 L53.3388889,65.8331624 L51.4646667,66.2630199 L48.3335556,66.1499715 L47.2971111,64.7703704 L43.6588889,65.3130484 L42.5122222,65.742906" id="Shape" fill="#DCD9D8" fill-rule="nonzero"></path>
                                    <path d="M38.0802222,56.4704274 L35.7868889,50.500057 L33.3835556,46.9718519 C33.3835556,46.9718519 33.9128889,45.4794302 34.6404444,45.4794302 L37.044,45.4794302 L39.3373333,46.3386895 L39.1386667,50.2965242 L38.0802222,56.4704274" id="Shape" fill="#FFFFFF" fill-rule="nonzero"></path>
                                    <path d="M38.5433333,54.4350997 C38.5433333,54.4350997 35.6326667,48.6682621 35.6326667,47.8087749 C35.6326667,47.8087749 36.162,46.5196581 36.8895556,46.8364672 C37.6173333,47.1530484 39.1828889,48.0125356 39.1828889,48.0125356 L39.1828889,45.9769801 L35.6326667,45.2307692 L33.2293333,45.5473504 L37.2864444,55.4076353 L38.1242222,55.5206838" id="Shape" fill="#DCD9D8" fill-rule="nonzero"></path>
                                    <polyline id="Shape" fill="#FFFFFF" fill-rule="nonzero" points="25.7984444 40.345755 22.91 40.0289459 20.1977778 39.1696866 20.1977778 40.1422222 21.5206667 41.6348718 25.6882222 43.557151"></polyline>
                                    <path d="M21.146,40.6623362 C21.146,40.6623362 24.3651111,42.0419373 25.4237778,41.7253561 L25.5337778,43.0144729 L22.6233333,42.3810826 L20.8593333,41.0919658 L21.146,40.6623362" id="Shape" fill="#DCD9D8" fill-rule="nonzero"></path>
                                    <path d="M42.2477778,45.8413675 C40.4837778,45.7960114 38.874,45.5699145 37.4848889,45.162849 C37.5731111,44.5748148 37.3966667,44.0095726 37.5511111,43.5797151 C37.948,43.285698 38.5873333,43.285698 39.1826667,43.2180057 C38.6755556,42.9691168 37.948,42.8560684 37.3746667,43.0144729 C37.3524444,42.6074074 37.1762222,42.3585185 37.0657778,42.0419373 C38.0582222,41.68 40.3955556,39.3055271 41.7184444,40.074302 C42.358,40.4588034 42.6226667,42.5846154 42.6666667,43.6476353 C42.7106667,44.5068946 42.5784444,45.3663818 42.2477778,45.8413675" id="Shape" fill="#D33833" fill-rule="nonzero"></path>
                                    <path d="M33.8026667,42.8786325 C33.8026667,43.0144729 33.8026667,43.1498575 33.7804444,43.285698 C33.2293333,43.6476353 32.3471111,43.6476353 31.7297778,43.9642165 C32.612,44.0093447 33.3175556,44.2354416 33.9348889,44.5294587 C33.9126667,44.8688319 33.9126667,45.2307692 33.8908889,45.5699145 C32.8764444,46.2709972 31.9504444,47.3340171 30.7597778,48.0123077 C30.1864444,48.3291168 28.224,49.1432479 27.6286667,48.9848433 C27.2977778,48.894359 27.2537778,48.4647293 27.1215556,48.0576638 C26.8348889,47.1984046 26.1733333,45.7960114 26.1071111,44.4843305 C26.0408889,42.8335043 25.8646667,40.0517379 27.6064444,40.3908832 C29.0175556,40.6623362 30.6493333,41.3182906 31.7297778,41.9288889 C32.4133333,42.3359544 32.7882222,42.7881481 33.8026667,42.8786325" id="Shape" fill="#D33833" fill-rule="nonzero"></path>
                                    <path d="M34.7948889,44.8462678 C34.6404444,43.9414245 34.464,43.6929915 34.5302222,42.9011966 C36.8895556,41.2954986 37.3084444,45.6603989 34.7946667,44.8462678" id="Shape" fill="#D33833" fill-rule="nonzero"></path>
                                    <path d="M34.7948889,44.8462678 C34.6404444,43.9414245 34.464,43.6929915 34.5302222,42.9011966 C36.8895556,41.2954986 37.3084444,45.6603989 34.7946667,44.8462678 L34.7948889,44.8462678 Z" id="Shape" stroke="#D33833" stroke-width="1.66666667" fill="#000000" fill-rule="nonzero"></path>
                                    <path d="M38.1904444,45.5699145 C38.1904444,45.5699145 37.4628889,44.5068946 37.992,44.1903134 C38.5213333,43.8737322 39.0284444,44.1903134 39.3371111,43.6476353 C39.646,43.1047293 39.3371111,42.7883761 39.4473333,42.1549858 C39.5575556,41.5218234 40.0646667,41.4087749 40.594,41.2957265 C41.1231111,41.1824501 42.5784444,40.9789174 42.7768889,41.4992593 L42.1595556,39.5767521 L40.9026667,39.1471225 L36.9557778,41.4992593 L36.7573333,42.6753276 L36.7573333,45.0272365 M27.2537778,49.0978917 C27.1215556,47.4242735 26.9893333,45.7734473 26.8568889,44.0998291 C26.6364444,41.6123077 27.4302222,42.0417094 29.5468889,42.0417094 C29.8777778,42.0417094 31.5313333,42.4264387 31.6417778,42.6753276 C32.2151111,43.8737322 30.6935556,43.6022792 32.3031111,44.5068946 C33.6482222,45.2533333 36.0517778,44.0547009 35.5004444,42.3585185 C35.1915556,41.9740171 33.9128889,42.2454701 33.4497778,41.9965812 L31.0022222,40.7076923 C29.966,40.1647863 27.5844444,39.3506553 26.482,40.1196581 C23.6815556,42.0645014 26.6584444,46.9495157 27.6506667,48.9848433" id="Shape" fill="#EF3D3A" fill-rule="nonzero"></path>
                                    <path d="M30.01,11.2624501 C27.1655556,10.5839316 25.7544444,12.4836467 24.8944444,14.4510541 C24.1226667,14.2703134 24.4313333,13.1847293 24.63,12.6420513 C25.1368889,11.2173219 27.1877778,9.29481481 28.8633333,9.56626781 C29.5688889,9.65675214 30.5391111,10.3352707 30.01,11.2624501 M43.8353333,14.5641026 L43.9675556,14.5641026 C44.6071111,15.9211396 45.1582222,17.368661 45.9742222,18.5898575 C45.4231111,19.9015385 41.8728889,21.0322507 41.9168889,18.7254701 C42.6886667,18.3863248 44.0117778,18.6575499 44.6953333,18.2053561 C44.2984444,17.097208 43.7471111,16.1472365 43.8353333,14.5643305 M31.4433333,14.6096866 C32.0606667,15.762963 32.2588889,16.9615954 33.1188889,17.8210826 C33.516,18.2053561 34.2655556,18.6803419 33.8908889,19.765698 C33.8026667,20.0145869 33.1631111,20.580057 32.7882222,20.6931054 C31.4433333,21.1001709 28.29,20.7835897 29.3484444,19.0420513 C30.4728889,19.0874074 31.9724444,19.78849 32.8104444,18.951567 C32.1708889,17.911339 31.0242222,15.8306553 31.4433333,14.6096866 M43.3282222,26.2336182 C41.2995556,27.5680912 39.0282222,29.0381766 35.6768889,28.6988034 C34.9713333,28.065641 34.6846667,26.6406838 35.3902222,25.7137322 C35.7428889,26.3468946 35.5224444,27.522963 36.5368889,27.7037037 C38.4331111,28.0430769 40.638,26.5050712 42.0051111,25.9851852 C42.8428889,24.5150997 41.9391111,23.9949858 41.1673333,23.0450142 C39.6017778,21.122735 37.5291111,18.7254701 37.5951111,15.8534473 C38.2346667,15.3784615 38.2786667,16.577094 38.3668889,16.7806268 C39.1826667,18.7254701 41.2335556,21.2357835 42.7106667,22.9094017 C43.0855556,23.3164672 43.6808889,23.7235328 43.7471111,23.9949858 C43.9455556,24.7637607 43.24,25.7135043 43.3282222,26.2338462 M16.4711111,24.8316809 C15.8317778,24.4471795 15.6775556,22.8189174 14.9277778,22.7735613 C13.8473333,22.7058689 14.0457778,24.8996011 14.0457778,26.18849 C13.3182222,25.5101994 13.1857778,23.3841595 13.7151111,22.2988034 C13.0977778,21.9819943 12.8328889,22.6379487 12.4802222,22.8640456 C12.9433333,19.5849573 17.1768889,21.3488319 16.4713333,24.8316809 M44.6071111,27.6132194 C43.6588889,29.4678063 42.3137778,31.5031339 39.5355556,31.5710541 C39.4693333,30.9830199 39.4253333,30.0558405 39.5355556,29.6939031 C41.6744444,29.4678063 42.9973333,28.3596581 44.6071111,27.6132194 M31.2888889,28.8118519 C33.0528889,29.7618234 36.3162222,29.8748718 38.7417778,29.8069516 C38.874,30.3498575 38.874,31.0281481 38.874,31.6841026 C35.7651111,31.8197151 32.1046667,31.0281481 31.2888889,28.8118519 M30.9582222,30.5759544 C32.1928889,33.7419943 36.4044444,33.3802849 39.9544444,33.2898006 C39.8002222,33.6968661 39.4693333,34.194416 39.0284444,34.3525926 C37.8817778,34.8275783 34.7506667,35.1895157 33.1631111,34.3300285 C32.1708889,33.7873504 31.5093333,32.5433618 30.9582222,31.8197151 C30.7155556,31.4805698 29.3926667,30.5985185 30.9582222,30.5759544" id="Shape" fill="#231F20" fill-rule="nonzero"></path>
                                    <path d="M43.1737778,48.0123077 C41.7404444,50.5451852 40.3515556,53.1459829 38.6537778,55.3622792 C39.3591111,53.2139031 39.6677778,49.5954416 39.7782222,46.8364672 C41.2775556,46.1125926 42.5564444,46.9946439 43.1737778,48.0125356" id="Shape" fill="#81B0C4" fill-rule="nonzero"></path>
                                    <path d="M50.9133333,57.1038177 C49.3037778,57.442963 48.1791111,59.048661 46.5915556,58.9356125 C47.4735556,57.6916239 48.9728889,57.1489459 50.9133333,57.1038177 M51.6188889,59.6818234 C50.296,59.8176638 48.7524444,60.0437607 47.4295556,59.9307123 C48.0688889,58.9356125 50.4944444,59.2973219 51.6188889,59.6818234 M52.082,61.9209117 C50.6046667,61.9434758 48.7744444,61.9209117 47.3633333,61.8076353 C48.2011111,60.8804558 51.1337778,61.46849 52.082,61.9209117" id="Shape" fill="#231F20" fill-rule="nonzero"></path>
                                    <path d="M40.3955556,68.0268946 C40.616,69.9266097 41.3437778,71.8491168 41.2555556,73.9295726 C40.4395556,74.2007977 39.9766667,74.4496866 38.874,74.4496866 C38.808,72.685584 38.5653333,69.9719658 38.6315556,68.2757835 C39.1606667,68.3209117 39.9544444,67.8912821 40.3955556,68.0268946" id="Shape" fill="#DCD9D8" fill-rule="nonzero"></path>
                                    <path d="M38.0142222,39.9840456 C37.2644444,40.4813675 36.6471111,41.0919658 35.9193333,41.6348718 C34.3317778,41.7253561 33.4717778,41.5218234 32.3253333,40.5946439 C32.3473333,40.5267236 32.4575556,40.5492877 32.4575556,40.4588034 C34.1553333,41.2278063 36.3162222,40.1422222 38.0142222,39.9838177" id="Shape" fill="#F0D6B7" fill-rule="nonzero"></path>
                                    <path d="M29.15,51.8117379 C29.6131111,49.7536182 31.4433333,48.6682621 33.0968889,47.5375499 C34.7946667,49.7538462 35.8311111,52.6033048 36.9777778,55.3622792 C34.2655556,54.525584 31.5093333,53.191339 29.15,51.8117379" id="Shape" fill="#81B0C4" fill-rule="nonzero"></path>
                                    <path d="M38.6315556,68.2983476 C38.5653333,69.9945299 38.7857778,72.685812 38.874,74.4722507 C39.9766667,74.4722507 40.4395556,74.2235897 41.2555556,73.9521368 C41.3437778,71.871453 40.616,69.9491738 40.3955556,68.0494587 C39.9544444,67.8912821 39.1606667,68.3209117 38.6315556,68.2983476 Z M21.6088889,58.7095157 C22.3366667,65.5165812 23.3728889,71.2154986 25.2911111,77.2540171 C29.5468889,78.5882621 34.6624444,78.7013105 38.4331111,77.5026781 C37.7495556,74.1105413 38.0362222,69.9719658 37.6393333,66.3307123 C37.3304444,63.594302 37.4848889,60.8578917 37.066,58.0761254 C32.5015556,57.1038177 26.0631111,57.8500285 21.6088889,58.7095157 Z M38.1464444,58.1214815 C38.1022222,61.0388604 38.2786667,63.9334473 38.4993333,66.8508262 C39.6015556,66.6926496 40.3293333,66.5796011 41.3437778,66.3307123 C41.0128889,63.5263818 41.0571111,60.3377778 40.3735556,57.8500285 C39.6017778,57.8728205 38.918,57.8500285 38.1464444,58.1212536 L38.1464444,58.1214815 Z M43.6808889,57.6464957 C43.1517778,57.5334473 42.5564444,57.6464957 42.0713333,57.6464957 C42.3137778,60.0211966 42.8651111,62.6445584 43.0635556,65.1548718 C43.8353333,65.1774359 44.2542222,64.7929345 44.8937778,64.679886 C44.9377778,62.4861538 44.7173333,59.4557265 43.6808889,57.6464957 Z M52.082,65.5165812 C53.7137778,65.1095157 54.728,63.074188 54.2648889,60.9709402 C53.9562222,59.5687749 53.4271111,56.9002849 52.8315556,55.9954416 C52.4126667,55.3397151 51.244,54.4576638 50.296,55.0682621 C48.7744444,56.0633618 46.1064444,56.3573789 45.004,57.5560114 C45.5551111,59.4557265 45.7315556,62.0339601 45.952,64.4309972 C47.8484444,64.5442735 50.1635556,63.888547 51.7513333,64.5894017 C50.6486667,64.951339 49.2375556,64.951339 48.2893333,65.4940171 C49.0831111,65.8785185 50.8913333,65.8108262 52.082,65.5168091 L52.082,65.5165812 Z M36.9557778,55.3622792 C35.8091111,52.6033048 34.7728889,49.7538462 33.0748889,47.5375499 C31.4211111,48.6680342 29.6131111,49.7538462 29.128,51.8117379 C31.5093333,53.191339 34.2657778,54.525584 36.9557778,55.3622792 Z M39.778,46.8364672 C39.6677778,49.5954416 39.3591111,53.2139031 38.6535556,55.3622792 C40.3513333,53.1234188 41.7406667,50.5451852 43.1737778,48.0123077 C42.5564444,46.9946439 41.2775556,46.1125926 39.7782222,46.8362393 L39.778,46.8364672 Z M36.5808889,45.6831909 C35.9413333,45.6150427 35.3902222,46.4519658 34.5522222,46.0900285 C34.3537778,46.3161254 34.1773333,46.5424501 33.9788889,46.768547 C35.8311111,49.0750997 36.6911111,52.3320798 38.1244444,55.0231339 C38.8962222,52.4225641 38.808,49.5954416 38.9844444,46.768547 C37.926,46.8136752 37.3306667,45.7508832 36.5808889,45.682963 L36.5808889,45.6831909 Z M34.5302222,42.9011966 C34.464,43.6927635 34.6404444,43.9416524 34.7946667,44.8462678 C37.3084444,45.6603989 36.8895556,41.2954986 34.5302222,42.9011966 Z M31.7297778,41.951453 C30.6493333,41.3406268 29.0177778,40.6849003 27.6064444,40.4136752 C25.8646667,40.074302 26.0408889,42.8560684 26.1071111,44.5071225 C26.1733333,45.8185755 26.8348889,47.1981766 27.1215556,48.0802279 C27.2537778,48.4872934 27.2977778,48.9169231 27.6286667,49.0074074 C28.224,49.1432479 30.2084444,48.3516809 30.7597778,48.0348718 C31.9504444,47.3791453 32.8764444,46.3163533 33.8908889,45.5924786 C33.9128889,45.2533333 33.9128889,44.891396 33.9348889,44.5522507 C33.3175556,44.2354416 32.634,44.0321368 31.7297778,43.9870085 C32.3253333,43.6701994 33.2293333,43.6701994 33.7804444,43.30849 C33.7804444,43.1726496 33.7804444,43.037037 33.8026667,42.9011966 C32.7882222,42.7881481 32.4133333,42.3359544 31.7297778,41.951453 Z M21.3664444,40.0291738 C20.4624444,40.9789174 23.902,42.2454701 24.9826667,42.3133903 C24.9826667,41.7253561 25.3133333,41.160114 25.2471111,40.7302564 C23.9462222,40.5041595 22.2484444,40.6623362 21.3664444,40.0291738 Z M32.4797778,40.4588034 C32.4797778,40.5492877 32.3693333,40.5267236 32.3473333,40.5946439 C33.516,41.5218234 34.3757778,41.7251282 35.9413333,41.6348718 C36.6471111,41.1147578 37.2864444,40.4815954 38.0362222,39.9838177 C36.3162222,40.1422222 34.1553333,41.2278063 32.4795556,40.4588034 L32.4797778,40.4588034 Z M42.6666667,43.6250712 C42.6226667,42.5846154 42.3577778,40.4362393 41.7184444,40.0517379 C40.3955556,39.2601709 38.0582222,41.6574359 37.066,42.0193732 C37.1762222,42.3359544 37.3526667,42.5846154 37.3746667,42.9916809 C37.9702222,42.8335043 38.6755556,42.9465527 39.1826667,43.1952137 C38.5873333,43.2631339 37.948,43.2631339 37.5511111,43.557151 C37.4186667,43.9867806 37.5951111,44.5522507 37.4848889,45.1402849 C38.874,45.5473504 40.4837778,45.7508832 42.2477778,45.8185755 C42.5784444,45.3663818 42.7106667,44.5068946 42.6666667,43.6250712 Z M19.8448889,40.9337892 C19.5582222,40.7302564 17.64,38.1745869 17.3753333,38.2876353 C13.9135556,39.6900285 10.6722222,42.1098575 7.78355556,44.4164103 C10.5397778,50.500057 11.6644444,57.9405128 11.8628889,65.1095157 C15.0162222,66.6247293 17.7942222,68.8184615 22.094,69.0445584 C21.5868889,65.4488889 21.146,62.2147009 20.8593333,58.8223362 C19.7788889,58.3475783 18.2353333,58.8451282 17.2211111,58.6867236 C17.2211111,57.442963 18.7644444,58.1440456 18.8966667,57.3073504 C18.9851111,56.6739601 18.0366667,56.6288319 18.3455556,55.6337322 C19.1393333,55.9277493 19.5582222,56.5834758 20.3962222,56.8323647 C21.168,55.1136182 20.3962222,52.0606268 20.5064444,50.6131054 C20.5286667,50.3418803 20.6386667,49.1204558 21.234,49.3239886 C21.7633333,49.5049573 21.212,52.6033048 21.2562222,53.960114 C21.3002222,55.2266667 21.1017778,56.4252991 21.6088889,57.2168661 C25.7544444,56.6288319 29.966,56.2668946 34.464,56.1312821 C33.4717778,55.7016524 32.3031111,55.2945869 31.0242222,54.5481481 C30.3186667,54.1410826 28.1357778,53.3043875 27.9373333,52.6258689 C27.6064444,51.5402849 28.7751111,50.9750427 28.9735556,50.0476353 C26.8788889,51.2237037 26.482,48.917151 25.9748889,47.3112251 C25.5337778,45.8411396 25.2693333,44.7332194 25.1591111,43.8962963 C23.3288889,42.9465527 21.3884444,42.0645014 19.8448889,40.9337892 Z M40.8364444,38.5816524 C43.7251111,37.157151 44.2542222,43.9416524 43.1075556,46.1353846 C43.284,46.7911111 43.8793333,47.04 44.122,47.6278063 C42.5122222,50.5905413 40.7264444,53.3495157 39.0724444,56.2668946 C40.2853333,55.4753276 42.0493333,56.1312821 43.4824444,55.5432479 C44.0117778,55.3397151 44.3866667,54.0959544 44.7835556,53.1008547 C45.8857778,50.3870085 47.0324444,46.9492877 47.5397778,44.37151 C47.65,43.7834758 47.9806667,42.4941311 47.8924444,41.9740171 C47.7602222,41.0242735 46.5253333,40.3231909 45.8857778,39.7577208 C44.7173333,38.6721368 43.9895556,37.7451852 42.7546667,36.7272934 C42.2917778,37.4737322 41.2333333,37.9710541 40.8364444,38.5818803 L40.8364444,38.5816524 Z M13.252,12.3252422 C11.8848889,13.885812 12.1715556,16.7806268 12.326,18.8610826 C14.8175556,17.2556125 18.1031111,18.9969231 18.0808889,21.7107692 C19.2715556,21.6879772 18.522,20.1955556 18.3015556,19.2230199 C17.5957778,16.0795442 19.4922222,12.6871795 18.3895556,9.8151567 C16.2508889,9.99589744 14.5088889,10.8779487 13.252,12.3254701 L13.252,12.3252422 Z M23.0862222,3.30188034 C19.9773333,4.20649573 15.9862222,6.53584046 14.7073333,9.40786325 C15.6995556,9.24968661 16.3831111,8.75213675 17.3533333,8.68421652 C17.7282222,8.66165242 18.2133333,8.84262108 18.6322222,8.72957265 C19.47,8.50347578 20.1977778,6.55840456 20.8371111,5.83475783 C21.4546667,5.13367521 22.2042222,4.81709402 22.7115556,4.18393162 C23.0422222,4.02552707 23.5271111,4.02552707 23.5493333,3.52797721 C23.4171111,3.36957265 23.2626667,3.25675214 23.0862222,3.30188034 Z M39.2928889,4.1611396 C36.0517778,2.28421652 30.5833333,0.882051282 27.1435556,2.64592593 C24.3651111,4.07065527 20.6168889,6.4225641 19.3377778,9.38552707 C20.5284444,12.2573219 18.9851111,14.8806838 18.8746667,17.7980627 C18.8306667,19.3586325 19.5804444,20.6931054 19.6464444,22.3892877 C19.2275556,23.0903704 17.9926667,23.1580627 17.1328889,23.1129345 C16.8462222,21.620057 16.3391111,19.9466667 14.8395556,19.765698 C12.7228889,19.517037 11.1573333,21.3262678 11.0691111,23.2034188 C10.9588889,25.4197151 12.7228889,29.0833048 15.2364444,28.8346439 C16.2066667,28.7441595 16.4493333,27.7490598 17.5075556,27.7490598 C18.0808889,28.9251282 16.6257778,29.2868376 16.4713333,30.1235328 C16.4271111,30.3498575 16.5815556,31.1865527 16.6917778,31.5936182 C17.1548889,33.5158974 18.1691111,36.0262108 19.1613333,37.4962963 C20.4402222,39.3732194 22.932,39.6446724 25.622,39.825641 C26.1071111,38.7626211 27.8711111,38.8531054 29.0175556,39.1245584 C27.6286667,38.5593162 26.3497778,37.2022792 25.2913333,36.0036467 C24.0784444,34.6240456 22.8437778,33.154188 22.7775556,31.3449573 C25.0928889,34.6240456 26.9891111,37.4962963 31.1786667,38.9438177 C34.3537778,40.0291738 38.0582222,38.4460399 40.5057778,36.6821652 C41.52,35.9582906 42.1153333,34.7824501 42.8431111,33.7419943 C45.5331111,29.7618234 46.79,24.1078063 46.5253333,18.6124217 C46.4151111,16.3509972 46.4151111,14.0893447 45.6653333,12.5741311 C44.8937778,10.9909972 42.2697778,9.5437037 40.7262222,10.9909972 C40.4395556,9.43065527 42.0051111,8.48068376 43.8351111,9.04615385 C42.5344444,7.3048433 41.1673333,5.24672365 39.2928889,4.1611396 Z M45.3346667,55.2945869 C47.8704444,54.0054701 52.5891111,51.834302 54.1546667,55.2945869 C54.7502222,56.5834758 55.4335556,58.7320798 55.7202222,60.0663248 C56.1391111,61.9209117 55.2571111,65.8559544 53.3828889,66.4663248 C51.7291111,67.0092308 49.8108889,66.9866667 47.8264444,66.5796011 C47.5837778,66.3760684 47.3413333,66.0366952 47.1428889,65.6747578 C45.7317778,65.6296296 44.3866667,65.742906 43.284,66.3535043 C43.3942222,67.4388604 42.6886667,67.597265 42.0051111,67.8235897 C41.52,69.8361254 42.9973333,72.4594872 42.6446667,74.2687179 C42.402,75.5803989 40.8364444,75.7839316 39.69,76.0100285 C39.6457778,76.7339031 39.734,77.3445014 39.8222222,77.9550997 C39.5577778,78.9501994 38.3888889,79.5154416 37.2644444,79.6512821 C33.5822222,80.1034758 28.0035556,80.3070085 24.4755556,78.9953276 C23.4831111,76.5078063 22.7115556,73.499943 21.8955556,70.6730484 C18.4557778,71.0573219 15.6555556,69.1576068 13.0315556,67.8912821 C12.1275556,67.4616524 10.8706667,67.2127635 10.5177778,66.4665527 C10.1871111,65.742906 10.3193333,64.3633048 10.2311111,63.074188 C10.0326667,59.7497436 9.83422222,56.5383476 8.99644444,53.1459829 C8.62155556,51.6082051 7.938,50.2739601 7.47488889,48.8041026 C7.034,47.4470655 6.28422222,45.7508832 6.08577778,44.3938462 C5.79911111,42.3813105 7.65133333,42.2680342 8.82,41.3859829 C10.6502222,40.0291738 12.0833333,39.282735 14.0677778,38.0615385 C14.6633333,37.6998291 16.4271111,36.7952137 16.6255556,36.3653561 C17.0226667,35.5288889 15.9422222,34.3528205 15.6555556,33.6968661 C15.1924444,32.6566382 14.9497778,31.7745869 14.8837778,30.7566952 C13.23,30.4854701 11.9511111,29.4678063 11.2015556,28.337094 C9.94444444,26.4373789 9.06244444,22.9319658 10.1651111,20.2860399 C10.2533333,20.0825071 10.6722222,19.6526496 10.7384444,19.3360684 C10.8706667,18.702906 10.4957778,17.8659829 10.4737778,17.1876923 C10.3635556,13.7274074 11.0471111,10.7421083 13.3182222,9.70188034 C14.2442222,5.92524217 17.5515556,4.68148148 20.6608889,2.80433048 C21.8295556,2.10324786 23.1084444,1.65105413 24.4313333,1.15327635 C29.172,-0.633162393 36.4706667,-0.294017094 40.4175556,2.75897436 C42.0933333,4.04809117 44.7613333,6.78450142 45.7095556,8.77470085 C48.2451111,13.9988604 48.0468889,22.7509972 46.2828889,29.128661 C46.0402222,29.9879202 45.7095556,31.2316809 45.2244444,32.2721368 C44.8937778,32.9957835 43.8573333,34.4205128 43.9675556,35.0536752 C44.1,35.7096296 46.3491111,37.4509402 46.8342222,37.9259259 C47.6942222,38.7851852 49.3477778,39.9161254 49.48,41.0017094 C49.6344444,42.1549858 48.9951111,43.7381197 48.6644444,44.8462678 C47.6057778,48.5552137 46.5475556,51.9701425 45.3346667,55.2945869 Z" id="Shape" fill="#231F20" fill-rule="nonzero"></path>
                                    <path d="M28.4666667,29.6034188 C28.5988889,29.4224501 29.3484444,29.128661 30.4068889,29.6487749 C30.4068889,29.6487749 29.15,29.8523077 29.2602222,32.0009117 L28.7311111,31.8876353 C28.7533333,31.9104274 28.202,29.9653561 28.4666667,29.6034188" id="Shape" fill="#F7E4CD" fill-rule="nonzero"></path>
                                    <path d="M37.5951111,47.9671795 C37.5951111,48.2837607 37.3306667,48.5552137 37.0217778,48.5552137 C36.7131111,48.5552137 36.4484444,48.2837607 36.4484444,47.9671795 C36.4484444,47.6503704 36.7131111,47.3791453 37.0217778,47.3791453 C37.3526667,47.3791453 37.5951111,47.6503704 37.5951111,47.9671795 M38.1684444,50.7035897 C38.1684444,51.0203989 37.904,51.2916239 37.5951111,51.2916239 C37.2864444,51.2916239 37.0217778,51.0203989 37.0217778,50.7035897 C37.0217778,50.3867806 37.2864444,50.1155556 37.5951111,50.1155556 C37.926,50.1155556 38.1684444,50.3644444 38.1684444,50.7035897" id="Shape" fill="#1D1919" fill-rule="nonzero"></path>
                                </g>
                            </g>
                        </g>
                        <text id="Jenkins" font-family="Solomon-Sans-SemiBold, Solomon Sans SemiBold" font-size="16" font-weight="500" line-spacing="25" letter-spacing="-0.300000012" fill="#000000">
                            <tspan x="12.356" y="108">Jenkin</tspan>
                            <tspan x="60.62" y="108">s</tspan>
                        </text>
                    </g>
                </g>
            </g>
        </g>
    </g>
</svg>