<?xml version="1.0" encoding="UTF-8"?>
<svg width="80px" height="120px" viewBox="0 0 80 120" version="1.1" xmlns="http://www.w3.org/2000/svg" xmlns:xlink="http://www.w3.org/1999/xlink">
    <!-- Generator: Sketch 50 (54983) - http://www.bohemiancoding.com/sketch -->
    <title>tech-list copy 16</title>
    <desc>Created with Sketch.</desc>
    <defs>
        <linearGradient x1="93.6789573%" y1="86.1611512%" x2="34.2540741%" y2="30.9939646%" id="linearGradient-1">
            <stop stop-color="#0CB0F2" offset="6%"></stop>
            <stop stop-color="#10ADF2" offset="21%"></stop>
            <stop stop-color="#1EA5F3" offset="37%"></stop>
            <stop stop-color="#3497F5" offset="54%"></stop>
            <stop stop-color="#5283F7" offset="71%"></stop>
            <stop stop-color="#796AF9" offset="88%"></stop>
            <stop stop-color="#905CFB" offset="97%"></stop>
        </linearGradient>
        <linearGradient x1="25.8823579%" y1="92.5635298%" x2="50.9144025%" y2="40.6755545%" id="linearGradient-2">
            <stop stop-color="#0CB0F2" offset="6%"></stop>
            <stop stop-color="#0DB2EE" offset="20%"></stop>
            <stop stop-color="#12B7E0" offset="35%"></stop>
            <stop stop-color="#19C0CA" offset="51%"></stop>
            <stop stop-color="#23CCAC" offset="68%"></stop>
            <stop stop-color="#30DC85" offset="85%"></stop>
            <stop stop-color="#3BEA62" offset="97%"></stop>
        </linearGradient>
        <linearGradient x1="4862%" y1="112664.439%" x2="8812%" y2="108061.573%" id="linearGradient-3">
            <stop stop-color="#0CB0F2" offset="6%"></stop>
            <stop stop-color="#0DB2EE" offset="20%"></stop>
            <stop stop-color="#12B7E0" offset="35%"></stop>
            <stop stop-color="#19C0CA" offset="51%"></stop>
            <stop stop-color="#23CCAC" offset="68%"></stop>
            <stop stop-color="#30DC85" offset="85%"></stop>
            <stop stop-color="#3BEA62" offset="97%"></stop>
        </linearGradient>
    </defs>
    <g id="Home-Page-small" stroke="none" stroke-width="1" fill="none" fill-rule="evenodd">
        <g id="MadOps_2" transform="translate(-875.000000, -2881.000000)">
            <g id="use" transform="translate(60.000000, 2290.000000)">
                <g id="tech-list" transform="translate(814.000000, 591.000000)">
                    <g id="Stacked-Group-2">
                        <g id="img">
                            <g id="icons/tech/TeamCity" transform="translate(1.000000, 0.000000)">
                                <g id="TC">
                                    <path d="M28.4775194,1.81705426 C27.3871417,1.27014171 26.2360278,0.853825663 25.048062,0.576744186 C9.11007752,-3.20620155 -2.73488372,12.4217054 3.77674419,26.6232558 C3.83875969,26.6852713 15.3736434,51.9875969 17.2341085,56.0186047 C17.2341085,56.0186047 38.4434109,46.2821705 42.7844961,36.2976744 C46.8031008,26.9953488 40.0248062,10.0155039 38.7844961,7.46666667 L28.4775194,1.81705426 Z" id="Shape" fill="url(#linearGradient-1)" fill-rule="nonzero"></path>
                                    <path d="M76.3968992,30.0403101 C75.0503931,27.9763075 73.2193933,26.2730519 71.0635659,25.0790698 C71.0015504,25.0790698 56.1178295,16.8930233 56.1178295,16.8930233 C56.1178295,16.8930233 5.01705426,46.5116279 4.96124031,46.5984496 C-0.80620155,53.172093 -2.10852713,63.5906977 4.52713178,72.6449612 C6.52768529,75.3676304 9.3561038,77.3692804 12.5891473,78.3503876 C18.6046512,80.2108527 23.9379845,79.4666667 28.4031008,77.1100775 C28.5271318,77.048062 70.3875969,54.8465116 70.5116279,54.7224806 C78.6914729,50.4434109 82.4806202,39.5286822 76.3968992,30.0403101 Z" id="Shape" fill="#0CB0F2" fill-rule="nonzero"></path>
                                    <path d="M23.8263566,23.5348837 L10.1829457,40.2790698 L4.89302326,46.5984496 C-0.874418605,53.172093 -2.17674419,63.5906977 4.45891473,72.6449612 C6.45946824,75.3676304 9.28788675,77.3692804 12.5209302,78.3503876 C18.5364341,80.2108527 23.9317829,79.4666667 28.3968992,77.1100775 C28.3968992,77.1100775 29.4511628,76.551938 31.2496124,75.5596899 C36.9178295,72.496124 44.7379845,51.9007752 50.0713178,35.9689922 L23.8263566,23.5348837 Z" id="Shape" fill="url(#linearGradient-2)" fill-rule="nonzero"></path>
                                    <path d="M45.2713178,39.6527132 L56.1178295,16.744186 C56.1178295,16.7099358 56.1455947,16.6821705 56.179845,16.6821705 C56.2418605,16.496124 57.1100775,14.2635659 57.172093,14.1395349 C58.4668537,10.8721179 58.0482388,7.17435254 56.055814,4.27906977 C54.8047479,2.29840823 52.8203156,0.893697747 50.5364341,0.372093023 C46.6128554,-0.671938932 42.4442268,0.717603938 39.9317829,3.90697674 C39.8697674,3.96899225 37.5131783,6.69767442 37.5131783,6.69767442 L20.1488372,28.0930233 L45.2713178,39.6527132 Z" id="Shape" fill="url(#linearGradient-3)" fill-rule="nonzero"></path>
                                    <polygon id="Shape" fill="#000000" fill-rule="nonzero" points="14.8837209 14.8465116 64.496124 14.8465116 64.496124 64.4589147 14.8837209 64.4589147"></polygon>
                                    <path d="M26.5364341,25.8232558 L19.8449612,25.8232558 L19.8449612,21.4821705 L38.0155039,21.4821705 L38.0155039,25.8232558 L31.3736434,25.8232558 L31.3736434,42.9333333 L26.5364341,42.9333333 L26.5364341,25.8232558 Z M38.0093023,32.248062 C38.0093023,26.0465116 42.5984496,21.0232558 49.2341085,21.0232558 C53.2651163,21.0232558 55.7457364,22.3875969 57.7302326,24.372093 L54.6914729,27.8449612 C53.0170543,26.3565891 51.3426357,25.4263566 49.172093,25.4263566 C45.5751938,25.4263566 42.9085271,28.4651163 42.9085271,32.124031 L42.9085271,32.1860465 C42.9085271,35.9069767 45.4511628,38.9457364 49.172093,38.9457364 C51.6527132,38.9457364 53.1410853,37.9534884 54.8155039,36.4031008 L57.8542636,39.4418605 C55.6217054,41.7984496 53.2031008,43.2868217 49.048062,43.2868217 C43.0892478,43.421956 38.1481345,38.7029153 38.0093023,32.744186 C38.0093023,32.5829457 38.0093023,32.4196382 38.0093023,32.2542636 L38.0093023,32.248062 Z M19.8449612,54.5364341 L38.0155039,54.5364341 L38.0155039,57.8232558 L19.8449612,57.8232558 L19.8449612,54.5364341 Z" id="Shape" fill="#FFFFFF" fill-rule="nonzero"></path>
                                </g>
                            </g>
                        </g>
                        <text id="Jenkins" font-family="Solomon-Sans-SemiBold, Solomon Sans SemiBold" font-size="16" font-weight="500" line-spacing="25" letter-spacing="-0.300000012" fill="#000000">
                            <tspan x="8.02400005" y="108">TeamCity</tspan>
                        </text>
                    </g>
                </g>
            </g>
        </g>
    </g>
</svg>