<?xml version="1.0" encoding="UTF-8"?>
<svg width="80px" height="104px" viewBox="0 0 80 104" version="1.1" xmlns="http://www.w3.org/2000/svg" xmlns:xlink="http://www.w3.org/1999/xlink">
    <!-- Generator: Sketch 50 (54983) - http://www.bohemiancoding.com/sketch -->
    <title>tech-list</title>
    <desc>Created with Sketch.</desc>
    <defs></defs>
    <g id="Home-Page-small" stroke="none" stroke-width="1" fill="none" fill-rule="evenodd">
        <g id="MadOps_2" transform="translate(-60.000000, -2452.000000)">
            <g id="use" transform="translate(60.000000, 2290.000000)">
                <g id="tech-list" transform="translate(0.000000, 149.000000)">
                    <g id="Stacked-Group-2">
                        <g id="img">
                            <g id="icons/tech/docer">
                                <g id="docker" transform="translate(0.000000, 13.333333)">
                                    <path d="M43.0072727,15.7696552 L50.8025,15.7696552 L50.8025,23.83 L54.74375,23.83 C56.5642045,23.83 58.4361364,23.502069 60.1597727,22.9113793 C61.0069318,22.6206897 61.9573864,22.2165517 62.7929545,21.707931 C61.6925,20.2548276 61.1306818,18.42 60.9656818,16.6113793 C60.7406818,14.1510345 61.2315909,10.9489655 62.8775,9.02344828 L63.6970455,8.06482759 L64.6734091,8.85896552 C67.1317045,10.8565517 69.1993182,13.6482759 69.56375,16.8306897 C72.5238636,15.95 75.9994318,16.1582759 78.6084091,17.6813793 L79.6788636,18.3062069 L79.1156818,19.4186207 C76.9089773,23.7744828 72.2954545,25.1241379 67.7852273,24.8851724 C61.03625,41.8882759 46.3427273,49.937931 28.5271591,49.937931 C19.3226136,49.937931 10.8782955,46.4575862 6.06943182,38.1975862 L5.99068182,38.0631034 L5.29011364,36.6210345 C3.66465909,32.9851724 3.12465909,29.002069 3.49079545,25.022069 L3.60090909,23.83 L10.2670455,23.83 L10.2670455,15.7696552 L18.0619318,15.7696552 L18.0619318,7.88482759 L33.6527273,7.88482759 L33.6527273,0 L43.0072727,0 L43.0072727,15.7696552 Z" id="Shape" fill="#364548" fill-rule="nonzero"></path>
                                    <path d="M68.2625,18.7517241 C68.7851136,14.6427586 65.7452273,11.4155172 63.86,9.88310345 C61.6873864,12.4237931 61.3498864,19.0824138 64.7582955,21.8858621 C62.8560227,23.5948276 58.8479545,25.1437931 54.74375,25.1437931 L4.78522727,25.1437931 C4.38636364,29.4772414 5.13840909,33.467931 6.85625,36.8834483 L7.42454545,37.9351724 C7.78437934,38.5524784 8.17758979,39.1492462 8.60238636,39.7227586 C10.6563636,39.8562069 12.5501136,39.902069 14.2826136,39.8634483 L14.2832955,39.8634483 C17.6879545,39.7875862 20.4660227,39.3806897 22.5714773,38.6427586 C22.8809049,38.5454021 23.2108758,38.7140045 23.3170157,39.0237 C23.4231555,39.3333955 23.2671543,39.6724028 22.9645455,39.7896552 C22.6843182,39.8882759 22.3925,39.98 22.0911364,40.0672414 L22.0901136,40.0672414 C20.4322727,40.5462069 18.6544318,40.8682759 16.3607955,41.0113793 C16.4971591,41.0137931 16.2189773,41.032069 16.2182955,41.032069 C16.1402273,41.0372414 16.0420455,41.0486207 15.9636364,41.0527586 C15.0609091,41.1041379 14.0865909,41.1148276 13.0904545,41.1148276 C12.0009091,41.1148276 10.9280682,41.0941379 9.72840909,41.032069 L9.69772727,41.0527586 C13.8602273,45.7851724 20.3688636,48.6234483 28.5275,48.6234483 C45.7938636,48.6234483 60.4393182,40.8813793 66.9247727,23.5003448 C71.5256818,23.977931 75.9476136,22.7910345 77.9589773,18.8193103 C74.7551136,16.9493103 70.6348864,17.5455172 68.2625,18.7517241" id="Shape" fill="#22A0C8" fill-rule="nonzero"></path>
                                    <path d="M68.2625,18.7517241 C68.7851136,14.6427586 65.7452273,11.4155172 63.86,9.88310345 C61.6873864,12.4237931 61.3498864,19.0824138 64.7582955,21.8858621 C62.8560227,23.5948276 58.8479545,25.1437931 54.74375,25.1437931 L7.74363636,25.1437931 C7.53977273,31.7803448 9.97454545,36.817931 14.2822727,39.8634483 L14.2832955,39.8634483 C17.6879545,39.7875862 20.4660227,39.3806897 22.5714773,38.6427586 C22.8809049,38.5454021 23.2108758,38.7140045 23.3170157,39.0237 C23.4231555,39.3333955 23.2671543,39.6724028 22.9645455,39.7896552 C22.6843182,39.8882759 22.3925,39.98 22.0911364,40.0672414 L22.0901136,40.0672414 C20.4322727,40.5462069 18.5017045,40.9096552 16.2080682,41.0527586 C16.2073864,41.0527586 16.1525,40.9993103 16.1518182,40.9993103 C22.0280682,44.0482759 30.5484091,44.0372414 40.3171591,40.2417241 C51.2705682,35.9851724 61.4634091,27.8762069 68.5751136,18.6013793 C68.4680682,18.6503448 68.36375,18.7003448 68.2625,18.7517241" id="Shape" fill="#37B1D9" fill-rule="nonzero"></path>
                                    <path d="M4.87897727,30.4089655 C5.18920455,32.7303448 5.86079545,34.9037931 6.85625,36.8834483 L7.42454545,37.9351724 C7.78431829,38.5525171 8.17753094,39.1492883 8.60238636,39.7227586 C10.6567045,39.8562069 12.5504545,39.902069 14.2832955,39.8634483 C17.6879545,39.7875862 20.4660227,39.3806897 22.5714773,38.6427586 C22.8809049,38.5454021 23.2108758,38.7140045 23.3170157,39.0237 C23.4231555,39.3333955 23.2671543,39.6724028 22.9645455,39.7896552 C22.6843182,39.8882759 22.3925,39.98 22.0911364,40.0672414 L22.0901136,40.0672414 C20.4322727,40.5462069 18.5119318,40.8889655 16.2182955,41.0324138 C16.1395455,41.0372414 16.0021591,41.0382759 15.9227273,41.0427586 C15.0206818,41.0937931 14.05625,41.1251724 13.0597727,41.1251724 C11.9705682,41.1251724 10.8564773,41.1041379 9.6575,41.0424138 C13.82,45.7748276 20.3688636,48.6234483 28.5275,48.6234483 C43.3093182,48.6234483 56.1697727,42.9482759 63.6339773,30.4089655 L4.87897727,30.4089655" id="Shape" fill="#1B81A5" fill-rule="nonzero"></path>
                                    <path d="M8.19329545,30.4089655 C9.07693182,34.4848276 11.2004545,37.6844828 14.2832955,39.8634483 C17.6879545,39.7875862 20.4660227,39.3806897 22.5714773,38.6427586 C22.8809049,38.5454021 23.2108758,38.7140045 23.3170157,39.0237 C23.4231555,39.3333955 23.2671543,39.6724028 22.9645455,39.7896552 C22.6843182,39.8882759 22.3925,39.98 22.0911364,40.0672414 L22.0901136,40.0672414 C20.4322727,40.5462069 18.4713636,40.8889655 16.1773864,41.0324138 C22.0532955,44.0806897 30.5490909,44.0368966 40.3171591,40.2417241 C46.2264773,37.9451724 51.9138636,34.5265517 57.01625,30.4089655 L8.19329545,30.4089655" id="Shape" fill="#1D91B4" fill-rule="nonzero"></path>
                                    <path d="M11.5659091,17.0837931 L18.3220455,17.0837931 L18.3220455,23.9175862 L11.5659091,23.9175862 L11.5659091,17.0837931 Z M12.12875,17.6534483 L12.6619318,17.6534483 L12.6619318,23.3482759 L12.12875,23.3482759 L12.12875,17.6534483 Z M13.1310227,17.6534483 L13.6856818,17.6534483 L13.6856818,23.3482759 L13.1313636,23.3482759 L13.1313636,17.6534483 L13.1310227,17.6534483 Z M14.1544318,17.6534483 L14.7090909,17.6534483 L14.7090909,23.3482759 L14.1544318,23.3482759 L14.1544318,17.6534483 Z M15.1785227,17.6534483 L15.7328409,17.6534483 L15.7328409,23.3482759 L15.1785227,23.3482759 L15.1785227,17.6534483 Z M16.2022727,17.6534483 L16.7565909,17.6534483 L16.7565909,23.3482759 L16.2022727,23.3482759 L16.2022727,17.6534483 Z M17.2256818,17.6534483 L17.7592045,17.6534483 L17.7592045,23.3482759 L17.2256818,23.3482759 L17.2256818,17.6534483 Z M19.3611364,9.19896552 L26.1176136,9.19896552 L26.1176136,16.0324138 L19.3607955,16.0324138 L19.3607955,9.19896552 L19.3611364,9.19896552 Z M19.9243182,9.76862069 L20.4571591,9.76862069 L20.4571591,15.4631034 L19.9243182,15.4631034 L19.9243182,9.76862069 Z M20.9265909,9.76862069 L21.4809091,9.76862069 L21.4809091,15.4631034 L20.9269318,15.4631034 L20.9269318,9.76862069 L20.9265909,9.76862069 Z M21.95,9.76862069 L22.5043182,9.76862069 L22.5043182,15.4631034 L21.95,15.4631034 L21.95,9.76862069 Z M22.97375,9.76862069 L23.5280682,9.76862069 L23.5280682,15.4631034 L22.97375,15.4631034 L22.97375,9.76862069 Z M23.9975,9.76862069 L24.5521591,9.76862069 L24.5521591,15.4631034 L23.9975,15.4631034 L23.9975,9.76862069 Z M25.0209091,9.76862069 L25.5547727,9.76862069 L25.5547727,15.4631034 L25.0209091,15.4631034 L25.0209091,9.76862069 Z" id="Shape" fill="#23A3C2" fill-rule="nonzero"></path>
                                    <path d="M19.3611364,17.0837931 L26.1176136,17.0837931 L26.1176136,23.9175862 L19.3607955,23.9175862 L19.3607955,17.0837931 L19.3611364,17.0837931 Z M19.9243182,17.6534483 L20.4571591,17.6534483 L20.4571591,23.3482759 L19.9243182,23.3482759 L19.9243182,17.6534483 Z M20.9265909,17.6534483 L21.4809091,17.6534483 L21.4809091,23.3482759 L20.9269318,23.3482759 L20.9269318,17.6534483 L20.9265909,17.6534483 Z M21.95,17.6534483 L22.5043182,17.6534483 L22.5043182,23.3482759 L21.95,23.3482759 L21.95,17.6534483 Z M22.97375,17.6534483 L23.5280682,17.6534483 L23.5280682,23.3482759 L22.97375,23.3482759 L22.97375,17.6534483 Z M23.9975,17.6534483 L24.5521591,17.6534483 L24.5521591,23.3482759 L23.9975,23.3482759 L23.9975,17.6534483 Z M25.0209091,17.6534483 L25.5547727,17.6534483 L25.5547727,23.3482759 L25.0209091,23.3482759 L25.0209091,17.6534483 Z" id="Shape" fill="#34BBDE" fill-rule="nonzero"></path>
                                    <path d="M27.1567045,17.0837931 L33.9128409,17.0837931 L33.9128409,23.9175862 L27.1567045,23.9175862 L27.1567045,17.0837931 Z M27.7195455,17.6534483 L28.2523864,17.6534483 L28.2523864,23.3482759 L27.7195455,23.3482759 L27.7195455,17.6534483 Z M28.7218182,17.6534483 L29.2761364,17.6534483 L29.2761364,23.3482759 L28.7218182,23.3482759 L28.7218182,17.6534483 Z M29.7455682,17.6534483 L30.2998864,17.6534483 L30.2998864,23.3482759 L29.7455682,23.3482759 L29.7455682,17.6534483 Z M30.7693182,17.6534483 L31.3236364,17.6534483 L31.3236364,23.3482759 L30.7693182,23.3482759 L30.7693182,17.6534483 Z M31.7927273,17.6534483 L32.3477273,17.6534483 L32.3477273,23.3482759 L31.7927273,23.3482759 L31.7927273,17.6534483 Z M32.8164773,17.6534483 L33.3496591,17.6534483 L33.3496591,23.3482759 L32.8164773,23.3482759 L32.8164773,17.6534483 Z" id="Shape" fill="#23A3C2" fill-rule="nonzero"></path>
                                    <path d="M27.1567045,9.19896552 L33.9128409,9.19896552 L33.9128409,16.0324138 L27.1567045,16.0324138 L27.1567045,9.19896552 Z M27.7195455,9.76862069 L28.2523864,9.76862069 L28.2523864,15.4631034 L27.7195455,15.4631034 L27.7195455,9.76862069 Z M28.7218182,9.76862069 L29.2761364,9.76862069 L29.2761364,15.4631034 L28.7218182,15.4631034 L28.7218182,9.76862069 Z M29.7455682,9.76862069 L30.2998864,9.76862069 L30.2998864,15.4631034 L29.7455682,15.4631034 L29.7455682,9.76862069 Z M30.7693182,9.76862069 L31.3236364,9.76862069 L31.3236364,15.4631034 L30.7693182,15.4631034 L30.7693182,9.76862069 Z M31.7927273,9.76862069 L32.3477273,9.76862069 L32.3477273,15.4631034 L31.7927273,15.4631034 L31.7927273,9.76862069 Z M32.8164773,9.76862069 L33.3496591,9.76862069 L33.3496591,15.4631034 L32.8164773,15.4631034 L32.8164773,9.76862069 Z M34.9519318,17.0837931 L41.7080682,17.0837931 L41.7080682,23.9175862 L34.9519318,23.9175862 L34.9519318,17.0837931 Z M35.5151136,17.6534483 L36.0479545,17.6534483 L36.0479545,23.3482759 L35.5151136,23.3482759 L35.5151136,17.6534483 Z M36.5173864,17.6534483 L37.0717045,17.6534483 L37.0717045,23.3482759 L36.5173864,23.3482759 L36.5173864,17.6534483 Z M37.5407955,17.6534483 L38.0951136,17.6534483 L38.0951136,23.3482759 L37.5407955,23.3482759 L37.5407955,17.6534483 Z M38.5645455,17.6534483 L39.1192045,17.6534483 L39.1192045,23.3482759 L38.5645455,23.3482759 L38.5645455,17.6534483 Z M39.5882955,17.6534483 L40.1429545,17.6534483 L40.1429545,23.3482759 L39.5882955,23.3482759 L39.5882955,17.6534483 Z M40.6120455,17.6534483 L41.1452273,17.6534483 L41.1452273,23.3482759 L40.6120455,23.3482759 L40.6120455,17.6534483 Z" id="Shape" fill="#34BBDE" fill-rule="nonzero"></path>
                                    <path d="M34.9519318,9.19896552 L41.7080682,9.19896552 L41.7080682,16.0324138 L34.9519318,16.0324138 L34.9519318,9.19896552 Z M35.5151136,9.76862069 L36.0479545,9.76862069 L36.0479545,15.4631034 L35.5151136,15.4631034 L35.5151136,9.76862069 Z M36.5173864,9.76862069 L37.0717045,9.76862069 L37.0717045,15.4631034 L36.5173864,15.4631034 L36.5173864,9.76862069 Z M37.5407955,9.76862069 L38.0951136,9.76862069 L38.0951136,15.4631034 L37.5407955,15.4631034 L37.5407955,9.76862069 Z M38.5645455,9.76862069 L39.1192045,9.76862069 L39.1192045,15.4631034 L38.5645455,15.4631034 L38.5645455,9.76862069 Z M39.5882955,9.76862069 L40.1429545,9.76862069 L40.1429545,15.4631034 L39.5882955,15.4631034 L39.5882955,9.76862069 Z M40.6120455,9.76862069 L41.1452273,9.76862069 L41.1452273,15.4631034 L40.6120455,15.4631034 L40.6120455,9.76862069 Z" id="Shape" fill="#23A3C2" fill-rule="nonzero"></path>
                                    <path d="M34.9519318,1.3137931 L41.7080682,1.3137931 L41.7080682,8.14827586 L34.9519318,8.14827586 L34.9519318,1.3137931 Z M35.5151136,1.88310345 L36.0479545,1.88310345 L36.0479545,7.57827586 L35.5151136,7.57827586 L35.5151136,1.88275862 L35.5151136,1.88310345 Z M36.5173864,1.88310345 L37.0717045,1.88310345 L37.0717045,7.57827586 L36.5173864,7.57827586 L36.5173864,1.88275862 L36.5173864,1.88310345 Z M37.5407955,1.88310345 L38.0951136,1.88310345 L38.0951136,7.57827586 L37.5407955,7.57827586 L37.5407955,1.88275862 L37.5407955,1.88310345 Z M38.5645455,1.88310345 L39.1192045,1.88310345 L39.1192045,7.57827586 L38.5645455,7.57827586 L38.5645455,1.88275862 L38.5645455,1.88310345 Z M39.5882955,1.88310345 L40.1429545,1.88310345 L40.1429545,7.57827586 L39.5882955,7.57827586 L39.5882955,1.88275862 L39.5882955,1.88310345 Z M40.6120455,1.88310345 L41.1452273,1.88310345 L41.1452273,7.57827586 L40.6120455,7.57827586 L40.6120455,1.88275862 L40.6120455,1.88310345 Z" id="Shape" fill="#34BBDE" fill-rule="nonzero"></path>
                                    <path d="M42.7471591,17.0837931 L49.5032955,17.0837931 L49.5032955,23.9175862 L42.7471591,23.9175862 L42.7471591,17.0837931 Z M43.3096591,17.6534483 L43.8431818,17.6534483 L43.8431818,23.3482759 L43.31,23.3482759 L43.31,17.6534483 L43.3096591,17.6534483 Z M44.3119318,17.6534483 L44.8665909,17.6534483 L44.8665909,23.3482759 L44.3122727,23.3482759 L44.3122727,17.6534483 L44.3119318,17.6534483 Z M45.3360227,17.6534483 L45.8906818,17.6534483 L45.8906818,23.3482759 L45.3360227,23.3482759 L45.3360227,17.6534483 Z M46.3594318,17.6534483 L46.9140909,17.6534483 L46.9140909,23.3482759 L46.3594318,23.3482759 L46.3594318,17.6534483 Z M47.3835227,17.6534483 L47.9378409,17.6534483 L47.9378409,23.3482759 L47.3835227,23.3482759 L47.3835227,17.6534483 Z M48.4069318,17.6534483 L48.9401136,17.6534483 L48.9401136,23.3482759 L48.4069318,23.3482759 L48.4069318,17.6534483 Z" id="Shape" fill="#23A3C2" fill-rule="nonzero"></path>
                                    <path d="M25.6945455,34.9972414 C26.3664685,34.9881748 26.9912099,35.3456114 27.3297149,35.9327796 C27.6682198,36.5199477 27.6680885,37.2459551 27.3293713,37.8329979 C26.990654,38.4200408 26.3657834,38.7772462 25.6938636,38.767931 C24.6742805,38.753796 23.8551331,37.9136453 23.8553196,36.882246 C23.8555061,35.8508467 24.6749573,35.0109992 25.6945455,34.9972414" id="Shape" fill="#D3ECEC" fill-rule="nonzero"></path>
                                    <path d="M25.6945455,35.532069 C25.865,35.532069 26.0276136,35.5644828 26.1776136,35.6234483 C25.9648167,35.7484018 25.8612415,36.0021261 25.9248889,36.2425388 C25.9885363,36.4829514 26.2036049,36.6503668 26.4496591,36.6510345 C26.6559091,36.6510345 26.8348864,36.5355172 26.9276136,36.3644828 C27.1530285,36.9137368 26.9965583,37.5474989 26.542318,37.9250725 C26.0880776,38.3026461 25.4430721,38.3350865 24.9540422,38.0049546 C24.4650123,37.6748226 24.2471583,37.059887 24.4175937,36.4907238 C24.5880291,35.9215605 25.1066046,35.5322467 25.6945455,35.532069" id="Shape" fill="#364548" fill-rule="nonzero"></path>
                                    <path d="M0,30.9376371 L79.4296591,30.9376371 C77.7003813,30.4941094 73.9579332,29.8945256 74.5750639,27.6017022 C71.4300708,31.2826031 63.8461713,30.1842086 61.9320042,28.3693463 C59.8007794,31.4961535 47.3925792,30.3074107 46.5271595,27.8714833 C43.8550084,31.0434646 35.5752753,31.0434646 32.9031242,27.8714833 C32.0370799,30.3074107 19.629192,31.4961535 17.4976549,28.3690304 C15.5838001,30.1842086 8.0002129,31.2826031 4.85521978,27.6020181 C5.4723505,29.8945256 1.72990238,30.4941094 0,30.937953" id="Path" fill="#364548"></path>
                                    <path d="M30.6489773,48.5827586 C26.0330682,46.3672414 23.4997727,43.3551724 22.0901136,40.0675862 C20.3753409,40.5624138 18.3145455,40.8789655 15.9196591,41.0148276 C15.0176136,41.0658621 14.0685227,41.092069 13.0730682,41.092069 C11.9248864,41.092069 10.715,41.0575862 9.44477273,40.9896552 C13.6778409,45.2689655 18.8852273,48.5634483 28.5275,48.6234483 C29.2393182,48.6234483 29.9456818,48.6096552 30.6489773,48.5827586" id="Shape" fill="#BDD9D7" fill-rule="nonzero"></path>
                                    <path d="M23.8045455,43.1013793 C23.1660227,42.2244828 22.5465909,41.1224138 22.0911364,40.0668966 C20.3763636,40.5624138 18.3148864,40.8789655 15.9196591,41.0151724 C17.5648864,41.9182759 19.9175,42.7551724 23.8048864,43.1013793" id="Shape" fill="#D3ECEC" fill-rule="nonzero"></path>
                                </g>
                            </g>
                        </g>
                        <text id="Jenkins" font-family="Solomon-Sans-SemiBold, Solomon Sans SemiBold" font-size="16" font-weight="500" line-spacing="25" letter-spacing="-0.300000012" fill="#000000">
                            <tspan x="13.724" y="108">Docker</tspan>
                        </text>
                    </g>
                </g>
            </g>
        </g>
    </g>
</svg>