<?xml version="1.0" encoding="UTF-8"?>
<svg width="64px" height="117px" viewBox="0 0 64 117" version="1.1" xmlns="http://www.w3.org/2000/svg" xmlns:xlink="http://www.w3.org/1999/xlink">
    <!-- Generator: Sketch 50 (54983) - http://www.bohemiancoding.com/sketch -->
    <title>tech-list copy 12</title>
    <desc>Created with Sketch.</desc>
    <defs></defs>
    <g id="Home-Page-small" stroke="none" stroke-width="1" fill="none" fill-rule="evenodd">
        <g id="MadOps_2" transform="translate(-273.000000, -2660.000000)">
            <g id="use" transform="translate(60.000000, 2290.000000)">
                <g id="tech-list" transform="translate(168.000000, 370.000000)">
                    <g id="Stacked-Group-2">
                        <g id="img">
                            <g id="icons/tech/Heroku" transform="translate(35.000000, 0.000000)">
                                <g id="Heroku-—-Worldvectorlogo-10" transform="translate(10.000000, 0.000000)">
                                    <path d="M55.8194271,79.8120755 L7.48570312,79.8120755 C3.35097656,79.8120755 0,76.4045283 0,72.2007547 L0,7.61157233 C0,3.40779874 3.35122396,0 7.48545573,0 L55.8191797,0 C59.9531641,0 63.3053776,3.40779874 63.3053776,7.61157233 L63.3053776,72.2007547 C63.3053776,76.4045283 59.9531641,79.8120755 55.8191797,79.8120755 L55.8194271,79.8120755 Z" id="Shape" fill="#6762A6" fill-rule="nonzero"></path>
                                    <path d="M39.6723958,68.8301887 L39.6723958,37.1345912 C39.6723958,37.1345912 41.6998047,29.5496855 14.6995182,40.2374843 C14.6500391,40.3730818 14.6500391,10.9283019 14.6500391,10.9283019 L23.4721745,10.872956 L23.4721745,29.7386164 C23.4721745,29.7386164 48.1736589,19.8455346 48.1736589,37.2415094 L48.1736589,68.8301887 L39.6726432,68.8301887 L39.6723958,68.8301887 Z M44.6994792,22.2908176 L35.3419792,22.2908176 C38.7102734,18.1031447 41.7594271,10.9280503 41.7594271,10.9280503 L51.4350781,10.9280503 C51.4350781,10.9280503 49.7785156,15.6040252 44.6997266,22.2908176 L44.6994792,22.2908176 Z M14.8103516,68.7753459 L14.8103516,50.7255346 L23.6864193,59.751195 L14.8103516,68.7753459 Z" id="Shape" fill="#FFFFFF" fill-rule="nonzero"></path>
                                </g>
                            </g>
                        </g>
                        <text id="Jenkins" font-family="Solomon-Sans-SemiBold, Solomon Sans SemiBold" font-size="16" font-weight="500" line-spacing="25" letter-spacing="-0.300000012" fill="#000000">
                            <tspan x="48.492" y="108">Heroku</tspan>
                        </text>
                    </g>
                </g>
            </g>
        </g>
    </g>
</svg>