<?xml version="1.0" encoding="UTF-8"?>
<svg width="80px" height="117px" viewBox="0 0 80 117" version="1.1" xmlns="http://www.w3.org/2000/svg" xmlns:xlink="http://www.w3.org/1999/xlink">
    <!-- Generator: Sketch 50 (54983) - http://www.bohemiancoding.com/sketch -->
    <title>tech-list copy 11</title>
    <desc>Created with Sketch.</desc>
    <defs></defs>
    <g id="Home-Page-small" stroke="none" stroke-width="1" fill="none" fill-rule="evenodd">
        <g id="MadOps_2" transform="translate(-466.000000, -2660.000000)">
            <g id="use" transform="translate(60.000000, 2290.000000)">
                <g id="tech-list" transform="translate(385.000000, 370.000000)">
                    <g id="Stacked-Group-2">
                        <g id="img" fill="#3A3A3A">
                            <g id="icons/tech/Circle" transform="translate(21.000000, 0.000000)">
                                <g id="CIRCLECI">
                                    <path d="M39.2774194,0.157460317 C61.6374194,0.157460317 79.7625806,17.9961905 79.7625806,40 C79.7625806,62.0038095 61.6374194,79.8425397 39.2774194,79.8425397 C20.4141935,79.8425397 4.56387097,67.144127 0.0670967742,49.9606349 C0.0270967742,49.8095238 5.10344455e-16,49.6507937 5.10344455e-16,49.4869841 C5.10344455e-16,48.4393651 0.863225806,47.5898413 1.92903226,47.5898413 L18.2529032,47.5898413 C19.0056529,47.59064 19.6885874,48.023977 20,48.6984127 C20,48.6984127 20.0245161,48.7428571 20.0335484,48.7657143 C23.4,55.9111111 30.7483871,60.8698413 39.2774194,60.8698413 C50.9896774,60.8698413 60.4825806,51.527619 60.4825806,40 C60.4825806,28.472381 50.9870968,19.1301587 39.2748387,19.1301587 C30.7458065,19.1301587 23.396129,24.0888889 20.0309677,31.2355556 C20.0232258,31.2571429 19.9987097,31.3015873 19.9987097,31.3015873 C19.6941935,31.9555556 19.0296774,32.4101587 18.2516129,32.4101587 L1.92774194,32.4101587 C0.863225806,32.4101587 0,31.5606349 0,30.5130159 C0,30.3492063 0.0283870968,30.1904762 0.0670967742,30.0393651 C4.56387097,12.855873 20.4141935,0.157460317 39.2774194,0.157460317 Z M39.2774194,49.4869841 C33.9533944,49.4869841 29.6374194,45.2395167 29.6374194,40 C29.6374194,34.7604833 33.9533944,30.5130159 39.2774194,30.5130159 C44.6014443,30.5130159 48.9174194,34.7604833 48.9174194,40 C48.9174194,45.2395167 44.6014443,49.4869841 39.2774194,49.4869841 Z" id="Path"></path>
                                </g>
                            </g>
                        </g>
                        <text id="Jenkins" font-family="Solomon-Sans-SemiBold, Solomon Sans SemiBold" font-size="16" font-weight="500" line-spacing="25" letter-spacing="-0.300000012" fill="#000000">
                            <tspan x="31.864" y="108">CircleCI</tspan>
                        </text>
                    </g>
                </g>
            </g>
        </g>
    </g>
</svg>