<?xml version="1.0" encoding="UTF-8"?>
<svg width="80px" height="107px" viewBox="0 0 80 107" version="1.1" xmlns="http://www.w3.org/2000/svg" xmlns:xlink="http://www.w3.org/1999/xlink">
    <!-- Generator: Sketch 50 (54983) - http://www.bohemiancoding.com/sketch -->
    <title>tech-list copy</title>
    <desc>Created with Sketch.</desc>
    <defs></defs>
    <g id="Home-Page-small" stroke="none" stroke-width="1" fill="none" fill-rule="evenodd">
        <g id="MadOps_2" transform="translate(-263.000000, -2449.000000)">
            <g id="use" transform="translate(60.000000, 2290.000000)">
                <g id="tech-list" transform="translate(203.000000, 149.000000)">
                    <g id="Stacked-Group-2">
                        <g id="img" fill="#F7A80D">
                            <g id="icons/tech/ASW">
                                <g id="aws-logo" transform="translate(0.000000, 10.000000)">
                                    <path d="M23.3406504,40.3750268 L16.0116828,43.5416898 L22.7991808,46.4614105 L30.669618,43.5416898 L23.3406504,40.3750268 Z M12.3219647,44.3333555 L12.0763906,58.5833389 L22.7991072,63.3333333 L22.7991072,48.5387745 L12.3219647,44.3333555 Z M34.3592625,44.3333555 L24.6690902,48.044668 L24.6690902,61.9970921 L34.3592625,58.0387634 L34.3592625,44.3333555 Z M45.9193442,5.25810751e-16 L38.5399817,3.16673697 L45.377801,6.08638365 L53.2482382,3.16673697 L45.9193442,0 Z M35.6877758,4.20697302 L35.6877758,18.4569564 L44.836405,21.1295868 L45.1323005,8.16522773 L35.6877758,4.20697302 Z M56.1510597,4.99856476 L47.4935052,8.70995119 L47.4935052,22.7129922 L56.1510597,18.7546635 L56.1510597,4.99856476 Z M11.2641862,20.0561241 L3.93521861,23.2227871 L10.7227166,26.1425078 L18.5931538,23.2227871 L11.2641862,20.0561241 Z M0.245574121,24.0144528 L0,38.2645102 L10.7227166,43.0145046 L10.7227166,28.2197978 L0.245574121,24.0144528 Z M22.2828719,24.0144528 L12.5927731,27.7257653 L12.5927731,41.6781154 L22.2828719,37.7197867 L22.2828719,24.0144528 Z M34.8755714,19.530419 L27.5466038,22.697082 L34.3341018,25.6168027 L42.204539,22.697082 L34.8755714,19.530419 Z M23.8568858,23.4888217 L23.6113116,37.7388051 L34.3340283,42.4887995 L34.3340283,27.6957207 L23.8568858,23.4888217 Z M45.8941835,23.4888217 L36.2040847,27.2001341 L36.2040847,41.1524843 L45.8941835,37.1941556 L45.8941835,23.4888217 Z M68.9813879,7.10542736e-15 L61.6524939,3.16666297 L68.4399919,6.08630965 L76.3103555,3.16666297 L68.9813879,7.10542736e-15 Z M57.9627022,3.95832871 L57.7172017,18.2083121 L68.4399183,22.9583065 L68.4399183,8.16522773 L57.9627022,3.95832871 Z M80,3.95832871 L70.3099012,7.66964113 L70.3099012,21.6219913 L80,17.6636626 L80,3.95832871 Z" id="Shape" fill-rule="nonzero"></path>
                                </g>
                            </g>
                        </g>
                        <text id="Jenkins" font-family="Solomon-Sans-SemiBold, Solomon Sans SemiBold" font-size="16" font-weight="500" line-spacing="25" letter-spacing="-0.300000012" fill="#000000">
                            <tspan x="23.346" y="108">AWS</tspan>
                        </text>
                    </g>
                </g>
            </g>
        </g>
    </g>
</svg>