<?xml version="1.0" encoding="UTF-8"?>
<svg width="81px" height="116px" viewBox="0 0 81 116" version="1.1" xmlns="http://www.w3.org/2000/svg" xmlns:xlink="http://www.w3.org/1999/xlink">
    <!-- Generator: Sketch 50 (54983) - http://www.bohemiancoding.com/sketch -->
    <title>tech-list copy 6</title>
    <desc>Created with Sketch.</desc>
    <defs></defs>
    <g id="Home-Page-small" stroke="none" stroke-width="1" fill="none" fill-rule="evenodd">
        <g id="MadOps_2" transform="translate(-1292.000000, -2439.000000)">
            <g id="use" transform="translate(60.000000, 2290.000000)">
                <g id="tech-list" transform="translate(1226.000000, 149.000000)">
                    <g id="Stacked-Group-2">
                        <g id="img">
                            <g id="icons/tech/ELK" transform="translate(6.500000, 0.000000)">
                                <g id="elastic-logo-(2)">
                                    <path d="M79.8649789,41.9661017 C79.8649789,35.2542373 75.7130802,29.3559322 69.4683544,27.0847458 C69.7383966,25.6610169 69.8734177,24.2372881 69.8734177,22.779661 C69.8734177,10.2711864 59.7468354,0.101694915 47.3248945,0.101694915 C40.0337553,0.101694915 33.2827004,3.59322034 29.0295359,9.49152542 C26.9367089,7.86440678 24.371308,6.98305085 21.7046414,6.98305085 C15.0886076,6.98305085 9.72151899,12.3728814 9.72151899,19.0169492 C9.72151899,20.4745763 9.99156118,21.8983051 10.464135,23.220339 C4.25316456,25.4576271 0,31.4576271 0,38.1355932 C0,44.8813559 4.18565401,50.779661 10.4303797,53.0508475 C10.1603376,54.440678 10.0253165,55.8983051 10.0253165,57.3559322 C10.0253165,69.8305085 20.1181435,79.9661017 32.5400844,79.9661017 C39.8312236,79.9661017 46.5822785,76.440678 50.8016878,70.5423729 C52.8945148,72.2033898 55.4599156,73.1186441 58.1265823,73.1186441 C64.742616,73.1186441 70.1097046,67.7288136 70.1097046,61.0847458 C70.1097046,59.6271186 69.8396624,58.2033898 69.3670886,56.8813559 C75.5780591,54.6440678 79.8649789,48.6440678 79.8649789,41.9661017" id="Shape" fill="#FFFFFF" fill-rule="nonzero"></path>
                                    <path d="M31.3924051,34.5084746 L48.8776371,42.5084746 L66.4978903,26.9830508 C66.7679325,25.6949153 66.8691983,24.440678 66.8691983,23.0847458 C66.8691983,12.1694915 58.0253165,3.28813559 47.1561181,3.28813559 C40.6413502,3.28813559 34.5991561,6.50847458 30.9198312,11.8983051 L27.9831224,27.1864407 L31.3924051,34.5084746 Z" id="Shape" fill="#FED10A" fill-rule="nonzero"></path>
                                    <path d="M13.2995781,53.0847458 C13.0295359,54.3728814 12.92827,55.6949153 12.92827,57.0508475 C12.92827,68 21.8059072,76.8813559 32.7088608,76.8813559 C39.257384,76.8813559 45.3670886,73.6271186 49.0464135,68.2033898 L51.9493671,52.9830508 L48.0675105,45.5254237 L30.5147679,37.4915254 L13.2995781,53.0847458 Z" id="Shape" fill="#24BBB1" fill-rule="nonzero"></path>
                                    <path d="M13.1983122,22.7118644 L25.1814346,25.559322 L27.814346,11.8983051 C26.1940928,10.6440678 24.1687764,9.96610169 22.0759494,9.96610169 C16.8776371,9.96610169 12.6244726,14.2033898 12.6244726,19.4576271 C12.6244726,20.5762712 12.8270042,21.6949153 13.1983122,22.7118644" id="Shape" fill="#EF5098" fill-rule="nonzero"></path>
                                    <path d="M12.1518987,25.5932203 C6.8185654,27.3559322 3.07172996,32.5084746 3.07172996,38.1694915 C3.07172996,43.6949153 6.48101266,48.6101695 11.5780591,50.5762712 L28.3881857,35.3220339 L25.3164557,28.7118644 L12.1518987,25.5932203 Z" id="Shape" fill="#17A8E0" fill-rule="nonzero"></path>
                                    <path d="M52.0843882,68.2033898 C53.7383966,69.4576271 55.7299578,70.1694915 57.7890295,70.1694915 C62.9873418,70.1694915 67.2405063,65.9322034 67.2405063,60.6779661 C67.2405063,59.5254237 67.0379747,58.4067797 66.6666667,57.3898305 L54.7172996,54.5762712 L52.0843882,68.2033898 Z" id="Shape" fill="#93C83E" fill-rule="nonzero"></path>
                                    <path d="M54.5147679,51.4237288 L67.6793249,54.5084746 C73.0464135,52.7457627 76.7594937,47.5932203 76.7594937,41.8983051 C76.7594937,36.4067797 73.350211,31.4576271 68.2531646,29.5254237 L51.0379747,44.6779661 L54.5147679,51.4237288 Z" id="Shape" fill="#0779A1" fill-rule="nonzero"></path>
                                </g>
                            </g>
                        </g>
                        <text id="Jenkins" font-family="Solomon-Sans-SemiBold, Solomon Sans SemiBold" font-size="16" font-weight="500" line-spacing="25" letter-spacing="-0.300000012" fill="#000000">
                            <tspan x="33.79" y="108">ELK</tspan>
                        </text>
                    </g>
                </g>
            </g>
        </g>
    </g>
</svg>