<?xml version="1.0" encoding="UTF-8"?>
<svg width="100px" height="113px" viewBox="0 0 100 113" version="1.1" xmlns="http://www.w3.org/2000/svg" xmlns:xlink="http://www.w3.org/1999/xlink">
    <!-- Generator: Sketch 50 (54983) - http://www.bohemiancoding.com/sketch -->
    <title>tech-list copy 4</title>
    <desc>Created with Sketch.</desc>
    <defs></defs>
    <g id="Home-Page-small" stroke="none" stroke-width="1" fill="none" fill-rule="evenodd">
        <g id="MadOps_2" transform="translate(-865.000000, -2446.000000)">
            <g id="use" transform="translate(60.000000, 2290.000000)">
                <g id="tech-list" transform="translate(804.000000, 149.000000)">
                    <g id="Stacked-Group-2">
                        <g id="img">
                            <g id="icons/tech/Google-Cloud" transform="translate(11.000000, 0.000000)">
                                <g id="Google-Cloud-Computing,-Hosting-Services-&amp;-APIs--_--Google-Cloud-0" transform="translate(0.000000, 6.666667)">
                                    <path d="M50.5454545,18.2962963 L52.969697,18.2962963 L59.8787879,11.2592593 L60.2181818,8.27160494 C52.1714413,1.03774135 41.0277259,-1.45135751 30.7472851,1.68888341 C20.4668443,4.82912433 12.5071705,13.1535026 9.6969697,23.7037037 C10.4666734,23.3823741 11.3193078,23.3302687 12.1212121,23.5555556 L25.9393939,21.2345679 C25.9393939,21.2345679 26.6424242,20.0493827 27.0060606,20.1234568 C33.1527341,13.247819 43.4970516,12.4465291 50.5939394,18.2962963 L50.5454545,18.2962963 Z" id="Shape" fill="#EA4335" fill-rule="nonzero"></path>
                                    <path d="M69.7212121,23.7037037 C68.1331235,17.747242 64.8725064,12.3924531 60.3393939,8.2962963 L50.6424242,18.1728395 C54.7371264,21.5805555 57.0695253,26.7140175 56.969697,32.0987654 L56.969697,33.8518519 C61.7360817,33.8518519 65.6,37.7873242 65.6,42.6419753 C65.6,47.4966264 61.7360817,51.4320988 56.969697,51.4320988 L39.7090909,51.4320988 L37.9878788,53.2098765 L37.9878788,63.7530864 L39.7090909,65.5061728 L56.969697,65.5061728 C66.8662784,65.5846494 75.6456919,59.0527466 78.5821046,49.4264942 C81.5185174,39.8002418 77.9190369,29.3511046 69.7212121,23.7037037 Z" id="Shape" fill="#4285F4" fill-rule="nonzero"></path>
                                    <path d="M22.4242424,65.4074074 L39.6848485,65.4074074 L39.6848485,51.3333333 L22.4242424,51.3333333 C21.1945024,51.3330565 19.9791831,51.063598 18.8606061,50.5432099 L16.4363636,51.308642 L9.47878788,58.345679 L8.87272727,60.8148148 C12.7743802,63.8155728 17.5352207,65.4290161 22.4242424,65.4074074 Z" id="Shape" fill="#34A853" fill-rule="nonzero"></path>
                                    <path d="M22.4242424,19.7530864 C12.8365649,19.8114198 4.34356883,26.065292 1.28372286,35.3200438 C-1.77612312,44.5747956 1.27268484,54.7873108 8.87272727,60.7407407 L18.8848485,50.5432099 C15.3867446,48.9335099 13.3529077,45.1640819 13.894059,41.29349 C14.4352102,37.422898 17.4212695,34.3815412 21.2214871,33.8303687 C25.0217047,33.2791961 28.7225976,35.3506967 30.3030303,38.9135802 L40.3151515,28.7160494 C36.0552418,23.0438824 29.4356885,19.7276277 22.4242424,19.7530864 Z" id="Shape" fill="#FBBC05" fill-rule="nonzero"></path>
                                </g>
                            </g>
                        </g>
                        <text id="Jenkins" font-family="Solomon-Sans-SemiBold, Solomon Sans SemiBold" font-size="16" font-weight="500" line-spacing="25" letter-spacing="-0.300000012" fill="#000000">
                            <tspan x="0.456000072" y="108">Google Cloud</tspan>
                        </text>
                    </g>
                </g>
            </g>
        </g>
    </g>
</svg>