<?xml version="1.0" encoding="UTF-8"?>
<svg width="82px" height="116px" viewBox="0 0 82 116" version="1.1" xmlns="http://www.w3.org/2000/svg" xmlns:xlink="http://www.w3.org/1999/xlink">
    <!-- Generator: Sketch 50 (54983) - http://www.bohemiancoding.com/sketch -->
    <title>tech-list copy 9</title>
    <desc>Created with Sketch.</desc>
    <defs></defs>
    <g id="Home-Page-small" stroke="none" stroke-width="1" fill="none" fill-rule="evenodd">
        <g id="MadOps_2" transform="translate(-874.000000, -2661.000000)">
            <g id="use" transform="translate(60.000000, 2290.000000)">
                <g id="tech-list" transform="translate(812.000000, 370.000000)">
                    <g id="Stacked-Group-2">
                        <g id="img">
                            <g id="icons/tech/Kubernetes" transform="translate(3.000000, 0.000000)">
                                <g id="nav_logo" transform="translate(3.333333, 3.333333)">
                                    <path d="M66.9166667,15.7093023 C66.5,14.4069767 65.5,13.3488372 64.25,12.6976744 L38.8333333,0.813953488 C38.1666667,0.488372093 37.4166667,0.406976744 36.75,0.406976744 C36.0833333,0.406976744 35.3333333,0.406976744 34.6666667,0.569767442 L9.25,12.5348837 C8,13.1046512 7.08333333,14.1627907 6.75,15.5465116 L0.5,42.3255814 C0.25,43.7093023 0.583333333,45.0930233 1.41666667,46.2325581 L19,67.4767442 C20,68.4534884 21.4166667,69.1046512 22.8333333,69.1860465 L50.8333333,69.1860465 C52.3333333,69.3488372 53.75,68.6976744 54.6666667,67.4767442 L72.25,46.2325581 C73.0833333,45.0930233 73.4166667,43.7093023 73.25,42.3255814 L66.9166667,15.7093023 Z" id="Shape" stroke="#FFFFFF" stroke-width="4.16666667" fill="#FFFFFF" fill-rule="nonzero"></path>
                                    <path d="M66.9166667,15.7093023 C66.5,14.4069767 65.5,13.3488372 64.25,12.6976744 L38.8333333,0.813953488 C38.1666667,0.488372093 37.4166667,0.406976744 36.75,0.406976744 C36.0833333,0.406976744 35.3333333,0.406976744 34.6666667,0.569767442 L9.25,12.5348837 C8,13.1046512 7.08333333,14.1627907 6.75,15.5465116 L0.5,42.3255814 C0.25,43.7093023 0.583333333,45.0930233 1.41666667,46.2325581 L19,67.4767442 C20,68.4534884 21.4166667,69.1046512 22.8333333,69.1860465 L50.8333333,69.1860465 C52.3333333,69.3488372 53.75,68.6976744 54.6666667,67.4767442 L72.25,46.2325581 C73.0833333,45.0930233 73.4166667,43.7093023 73.25,42.3255814 L66.9166667,15.7093023 Z" id="Shape" fill="#326DE6" fill-rule="nonzero"></path>
                                    <path d="M63,41.2674419 C62.9166667,41.2674419 62.8333333,41.2674419 62.8333333,41.1860465 C62.8333333,41.1046512 62.6666667,41.1046512 62.5,41.1046512 C62.1666667,41.0232558 61.8333333,41.0232558 61.5,41.0232558 C61.3333333,41.0232558 61.1666667,41.0232558 61,40.9418605 L60.9166667,40.9418605 C60,40.8604651 59,40.6976744 58.0833333,40.4534884 C57.8333333,40.372093 57.5833333,40.127907 57.5,39.8837209 C57.5833333,39.8837209 57.5,39.8837209 57.5,39.8837209 L56.8333333,39.7209302 C57.1666667,37.3604651 57,34.9186047 56.5,32.5581395 C55.9166667,30.1976744 54.9166667,27.9186047 53.5833333,25.8837209 L54.0833333,25.3953488 L54.0833333,25.3139535 C54.0833333,25.0697674 54.1666667,24.744186 54.3333333,24.5813953 C55.0833333,23.9302326 55.8333333,23.4418605 56.6666667,22.9534884 C56.8333333,22.872093 57,22.7906977 57.1666667,22.7093023 C57.5,22.5465116 57.75,22.3837209 58.0833333,22.2209302 C58.1666667,22.1395349 58.25,22.1395349 58.3333333,22.0581395 C58.4166667,21.9767442 58.3333333,21.9767442 58.3333333,21.8953488 C59.0833333,21.3255814 59.25,20.3488372 58.6666667,19.6162791 C58.4166667,19.2906977 57.9166667,19.0465116 57.5,19.0465116 C57.0833333,19.0465116 56.6666667,19.2093023 56.3333333,19.4534884 L56.25,19.5348837 C56.1666667,19.6162791 56.0833333,19.6976744 56,19.6976744 C55.75,19.9418605 55.5,20.1860465 55.3333333,20.4302326 C55.25,20.5930233 55.0833333,20.6744186 55,20.755814 C54.4166667,21.4069767 53.6666667,22.0581395 52.9166667,22.5465116 C52.75,22.627907 52.5833333,22.7093023 52.4166667,22.7093023 C52.3333333,22.7093023 52.1666667,22.7093023 52.0833333,22.627907 L52,22.627907 L51.3333333,23.0348837 C50.6666667,22.3837209 49.9166667,21.7325581 49.25,21.0813953 C46.1666667,18.7209302 42.3333333,17.255814 38.4166667,16.8488372 L38.3333333,16.1976744 L38.3333333,16.2790698 C38.0833333,16.1162791 38,15.872093 37.9166667,15.627907 C37.9166667,14.7325581 37.9166667,13.8372093 38.0833333,12.8604651 L38.0833333,12.7790698 C38.0833333,12.6162791 38.1666667,12.4534884 38.1666667,12.2906977 C38.25,11.9651163 38.25,11.6395349 38.3333333,11.3139535 L38.3333333,10.8255814 C38.4166667,10.0116279 37.75,9.19767442 36.9166667,9.11627907 C36.4166667,9.03488372 35.9166667,9.27906977 35.5,9.68604651 C35.1666667,10.0116279 35,10.4186047 35,10.8255814 L35,11.2325581 C35,11.5581395 35.0833333,11.8837209 35.1666667,12.2093023 C35.25,12.372093 35.25,12.5348837 35.25,12.6976744 L35.25,12.7790698 C35.4166667,13.6744186 35.4166667,14.5697674 35.4166667,15.5465116 C35.3333333,15.7906977 35.25,16.0348837 35,16.1976744 L35,16.3604651 L34.9166667,17.0116279 C34,17.0930233 33.0833333,17.255814 32.0833333,17.4186047 C28.1666667,18.2325581 24.5833333,20.2674419 21.8333333,23.1162791 L21.3333333,22.7906977 L21.25,22.7906977 C21.1666667,22.7906977 21.0833333,22.872093 20.9166667,22.872093 C20.75,22.872093 20.5833333,22.7906977 20.4166667,22.7093023 C19.6666667,22.1395349 18.9166667,21.4883721 18.3333333,20.8372093 C18.25,20.6744186 18.0833333,20.5930233 18,20.5116279 C17.75,20.2674419 17.5833333,20.0232558 17.3333333,19.7790698 C17.25,19.6976744 17.1666667,19.6976744 17.0833333,19.6162791 C17,19.5348837 17,19.5348837 17,19.5348837 C16.6666667,19.2906977 16.25,19.127907 15.8333333,19.127907 C15.3333333,19.127907 14.9166667,19.2906977 14.6666667,19.6976744 C14.1666667,20.4302326 14.3333333,21.4069767 15,21.9767442 C15.0833333,21.9767442 15.0833333,22.0581395 15.0833333,22.0581395 C15.0833333,22.0581395 15.25,22.2209302 15.3333333,22.2209302 C15.5833333,22.3837209 15.9166667,22.5465116 16.25,22.7093023 C16.4166667,22.7906977 16.5833333,22.872093 16.75,22.9534884 C17.5833333,23.4418605 18.4166667,23.9302326 19.0833333,24.5813953 C19.25,24.744186 19.4166667,25.0697674 19.3333333,25.3139535 L19.3333333,25.2325581 L19.8333333,25.7209302 C19.75,25.8837209 19.6666667,25.9651163 19.5833333,26.127907 C17,30.1162791 15.9166667,34.8372093 16.6666667,39.4767442 L16,39.6395349 C16,39.7209302 15.9166667,39.7209302 15.9166667,39.7209302 C15.8333333,39.9651163 15.5833333,40.127907 15.3333333,40.2906977 C14.4166667,40.5348837 13.5,40.6976744 12.5,40.7790698 C12.3333333,40.7790698 12.1666667,40.7790698 12,40.8604651 C11.6666667,40.8604651 11.3333333,40.9418605 11,40.9418605 C10.9166667,40.9418605 10.8333333,41.0232558 10.6666667,41.0232558 C10.5833333,41.0232558 10.5833333,41.0232558 10.5,41.1046512 C9.58333333,41.2674419 9,42.0813953 9.16666667,42.9767442 C9.16666667,42.9767442 9.16666667,42.9767442 9.16666667,42.9767442 C9.33333333,43.7093023 10.0833333,44.1976744 10.8333333,44.1162791 C11,44.1162791 11.0833333,44.1162791 11.25,44.0348837 C11.3333333,44.0348837 11.3333333,44.0348837 11.3333333,43.9534884 C11.3333333,43.872093 11.5833333,43.9534884 11.6666667,43.9534884 C12,43.872093 12.3333333,43.7093023 12.5833333,43.627907 C12.75,43.5465116 12.9166667,43.4651163 13.0833333,43.4651163 L13.1666667,43.4651163 C14.0833333,43.1395349 14.9166667,42.8953488 15.9166667,42.7325581 L16,42.7325581 C16.25,42.7325581 16.5,42.8139535 16.6666667,42.9767442 C16.75,42.9767442 16.75,43.0581395 16.75,43.0581395 L17.5,42.9767442 C18.75,46.7209302 21.0833333,50.0581395 24.3333333,52.5 C25.0833333,53.0697674 25.75,53.5581395 26.5833333,53.9651163 L26.1666667,54.5348837 C26.1666667,54.6162791 26.25,54.6162791 26.25,54.6162791 C26.4166667,54.8604651 26.4166667,55.1860465 26.3333333,55.4302326 C26,56.244186 25.5,57.0581395 25,57.7906977 L25,57.872093 C24.9166667,58.0348837 24.8333333,58.1162791 24.6666667,58.2790698 C24.5,58.4418605 24.3333333,58.7674419 24.0833333,59.0930233 C24,59.1744186 24,59.255814 23.9166667,59.3372093 C23.9166667,59.3372093 23.9166667,59.4186047 23.8333333,59.4186047 C23.4166667,60.2325581 23.75,61.2093023 24.5,61.6162791 C24.6666667,61.6976744 24.9166667,61.7790698 25.0833333,61.7790698 C25.75,61.7790698 26.3333333,61.372093 26.6666667,60.8023256 C26.6666667,60.8023256 26.6666667,60.7209302 26.75,60.7209302 C26.75,60.6395349 26.8333333,60.5581395 26.9166667,60.4767442 C27,60.1511628 27.1666667,59.9069767 27.25,59.5813953 L27.4166667,59.0930233 C27.6666667,58.1976744 28.0833333,57.3837209 28.5,56.5697674 C28.6666667,56.3255814 28.9166667,56.1627907 29.1666667,56.0813953 C29.25,56.0813953 29.25,56.0813953 29.25,56 L29.5833333,55.3488372 C31.9166667,56.244186 34.3333333,56.6511628 36.8333333,56.6511628 C38.3333333,56.6511628 39.8333333,56.4883721 41.3333333,56.0813953 C42.25,55.9186047 43.1666667,55.5930233 44,55.3488372 L44.3333333,55.9186047 C44.4166667,55.9186047 44.4166667,55.9186047 44.4166667,56 C44.6666667,56.0813953 44.9166667,56.244186 45.0833333,56.4883721 C45.5,57.3023256 45.9166667,58.1162791 46.1666667,59.0116279 L46.1666667,59.0930233 L46.3333333,59.5813953 C46.4166667,59.9069767 46.5,60.2325581 46.6666667,60.4767442 C46.75,60.5581395 46.75,60.6395349 46.8333333,60.7209302 C46.8333333,60.7209302 46.8333333,60.8023256 46.9166667,60.8023256 C47.25,61.372093 47.8333333,61.7790698 48.5,61.7790698 C48.75,61.7790698 48.9166667,61.6976744 49.1666667,61.6162791 C49.5,61.4534884 49.8333333,61.127907 49.9166667,60.7209302 C50,60.3139535 50,59.9069767 49.8333333,59.5 C49.8333333,59.4186047 49.75,59.4186047 49.75,59.4186047 C49.75,59.3372093 49.6666667,59.255814 49.5833333,59.1744186 C49.4166667,58.8488372 49.25,58.6046512 49,58.3604651 C48.9166667,58.1976744 48.8333333,58.1162791 48.6666667,57.9534884 L48.6666667,57.7906977 C48.0833333,57.0581395 47.6666667,56.244186 47.3333333,55.4302326 C47.25,55.1860465 47.25,54.8604651 47.4166667,54.6162791 C47.4166667,54.5348837 47.5,54.5348837 47.5,54.5348837 L47.25,53.8837209 C51.5,51.3604651 54.75,47.4534884 56.25,42.8139535 L56.9166667,42.8953488 C57,42.8953488 57,42.8139535 57,42.8139535 C57.1666667,42.6511628 57.4166667,42.5697674 57.6666667,42.5697674 L57.75,42.5697674 C58.6666667,42.7325581 59.5833333,42.9767442 60.4166667,43.3023256 L60.5,43.3023256 C60.6666667,43.3837209 60.8333333,43.4651163 61,43.4651163 C61.3333333,43.627907 61.5833333,43.7906977 61.9166667,43.872093 C62,43.872093 62.0833333,43.9534884 62.25,43.9534884 C62.3333333,43.9534884 62.3333333,43.9534884 62.4166667,44.0348837 C62.5833333,44.1162791 62.6666667,44.1162791 62.8333333,44.1162791 C63.5833333,44.1162791 64.25,43.627907 64.5,42.9767442 C64.4166667,42.0813953 63.75,41.4302326 63,41.2674419 Z M38.9166667,38.744186 L36.6666667,39.8023256 L34.4166667,38.744186 L33.8333333,36.3837209 L35.4166667,34.4302326 L37.9166667,34.4302326 L39.5,36.3837209 L38.9166667,38.744186 Z M52.5,33.4534884 C52.9166667,35.1627907 53,36.872093 52.8333333,38.5813953 L44.9166667,36.3837209 C44.1666667,36.2209302 43.75,35.4883721 43.9166667,34.755814 C44,34.5116279 44.0833333,34.3488372 44.25,34.1860465 L50.5,28.6511628 C51.4166667,30.1162791 52.0833333,31.744186 52.5,33.4534884 Z M48,25.6395349 L41.1666667,30.3604651 C40.5833333,30.6860465 39.75,30.6046512 39.3333333,30.0348837 C39.1666667,29.872093 39.0833333,29.7093023 39.0833333,29.4651163 L38.5833333,21.244186 C42.25,21.6511628 45.5,23.1976744 48,25.6395349 Z M32.9166667,21.4883721 L34.5833333,21.1627907 L34.1666667,29.3023256 C34.1666667,30.0348837 33.5,30.6046512 32.75,30.6046512 C32.5,30.6046512 32.3333333,30.5232558 32.0833333,30.4418605 L25.1666667,25.6395349 C27.3333333,23.6046512 30,22.1395349 32.9166667,21.4883721 Z M22.75,28.6511628 L28.9166667,34.0232558 C29.5,34.5116279 29.5833333,35.3255814 29.0833333,35.8953488 C28.9166667,36.1395349 28.75,36.2209302 28.4166667,36.3023256 L20.3333333,38.5813953 C20.0833333,35.1627907 20.9166667,31.6627907 22.75,28.6511628 Z M21.3333333,42.4069767 L29.5833333,41.0232558 C30.25,41.0232558 30.9166667,41.4302326 31,42.0813953 C31.0833333,42.3255814 31.0833333,42.6511628 30.9166667,42.8953488 L27.75,50.3837209 C24.8333333,48.5116279 22.5,45.6627907 21.3333333,42.4069767 Z M40.25,52.5 C39.0833333,52.744186 37.9166667,52.9069767 36.6666667,52.9069767 C34.9166667,52.9069767 33.0833333,52.5813953 31.4166667,52.0930233 L35.5,44.8488372 C35.9166667,44.3604651 36.5833333,44.1976744 37.1666667,44.5232558 C37.4166667,44.6860465 37.5833333,44.8488372 37.8333333,45.0930233 L41.8333333,52.1744186 C41.3333333,52.255814 40.8333333,52.3372093 40.25,52.5 Z M50.4166667,45.4186047 C49.1666667,47.372093 47.4166667,49.0813953 45.4166667,50.3023256 L42.1666667,42.6511628 C42,42 42.3333333,41.3488372 42.9166667,41.1046512 C43.1666667,41.0232558 43.4166667,40.9418605 43.6666667,40.9418605 L52,42.3255814 C51.5833333,43.4651163 51.0833333,44.5232558 50.4166667,45.4186047 Z" id="Shape" fill="#FFFFFF" fill-rule="nonzero"></path>
                                </g>
                            </g>
                        </g>
                        <text id="Jenkins" font-family="Solomon-Sans-SemiBold, Solomon Sans SemiBold" font-size="16" font-weight="500" line-spacing="25" letter-spacing="-0.300000012" fill="#000000">
                            <tspan x="1.30800006" y="108">Kubernetes</tspan>
                        </text>
                    </g>
                </g>
            </g>
        </g>
    </g>
</svg>