<?xml version="1.0" encoding="UTF-8"?>
<svg width="80px" height="74px" viewBox="0 0 80 74" version="1.1" xmlns="http://www.w3.org/2000/svg" xmlns:xlink="http://www.w3.org/1999/xlink">
    <!-- Generator: Sketch 50 (54983) - http://www.bohemiancoding.com/sketch -->
    <title>Shape</title>
    <desc>Created with Sketch.</desc>
    <defs></defs>
    <g id="Home-Page-small" stroke="none" stroke-width="1" fill="none" fill-rule="evenodd">
        <g id="MadOps_2" transform="translate(-1021.000000, -4702.000000)" fill="#FFFFFF">
            <g id="footer" transform="translate(0.000000, 4619.000000)">
                <g id="madops" transform="translate(965.000000, 80.000000)">
                    <path d="M130.381344,3.41771227 L96.0548697,19.0039944 L61.7283951,3.41771227 C59.3203998,2.11781635 56,3.98505294 56,7.32363456 L56,72.4025968 C56,74.8964019 57.5018617,76.9288531 59.5398785,76.9911982 C59.6335705,77.0029339 59.7283735,77.0029339 59.8220655,76.9911982 L59.8690966,76.9911982 C59.925534,76.9911982 59.9725652,76.9911982 60.0258671,76.9911982 L82.5224378,74.6688422 L78.2614149,68.6307165 C76.398981,66.0465109 78.6564766,63.8020863 81.0456594,64.6749181 C81.5253772,64.8494845 82.0458554,64.6188075 82.5130316,64.7403805 L76.8692926,45.8123995 C76.8473447,45.7469371 76.8285322,45.6814748 76.8097198,45.6160124 L76.765824,45.4726186 C76.765824,45.4726186 76.765824,45.4445633 76.765824,45.428977 C76.4480043,43.839961 77.3600489,42.2619029 78.9009301,41.7347263 C80.4418113,41.2075497 82.1374629,41.8934453 82.8704684,43.3404152 L82.8704684,43.3684705 C82.9237703,43.4744572 89.3450911,59.2259539 89.3450911,59.2259539 C89.6543322,57.5764142 91.1235926,56.394958 92.8107255,56.4391808 C94.4978585,56.4834037 95.9024615,57.7401891 96.1238487,59.4036375 C96.3579804,57.6883706 97.8412574,56.4155657 99.5822065,56.4360094 C101.259651,56.4360094 102.560847,57.9104717 102.85244,59.5002724 L106.668234,48.8080829 C107.213555,47.3314563 108.743116,46.4539584 110.301892,46.7234802 C111.860667,46.993002 113.002437,48.3323892 113.014305,49.9053572 C113.014305,49.9053572 113.014305,49.9770541 113.014305,50.0051094 L109.61552,74.6470214 L132.087008,76.9693774 C132.14031,76.9693774 132.190476,76.9693774 132.243778,76.9693774 L132.290809,76.9693774 C132.384501,76.9811131 132.479304,76.9811131 132.572996,76.9693774 C134.611013,76.9070323 136,74.8870501 136,72.3901277 L136,7.30804828 C135.996865,3.97258391 132.78934,2.11781635 130.381344,3.41771227 Z" id="Shape"></path>
                </g>
            </g>
        </g>
    </g>
</svg>