<?xml version="1.0" encoding="UTF-8"?>
<svg width="170px" height="32px" viewBox="0 0 170 32" version="1.1" xmlns="http://www.w3.org/2000/svg" xmlns:xlink="http://www.w3.org/1999/xlink">
    <!-- Generator: Sketch 50 (54983) - http://www.bohemiancoding.com/sketch -->
    <title>logo/madopswhite</title>
    <desc>Created with Sketch.</desc>
    <defs></defs>
    <g id="logo/madopswhite" stroke="none" stroke-width="1" fill="none" fill-rule="evenodd">
        <g id="logo">
            <path d="M13.5049689,25.5026667 L8.43664596,15.004 L5.81801242,7.10933333 L5.48012422,7.10933333 L6.66273292,15.2933333 L6.66273292,29.9666667 L0.707453412,29.9666667 L0.707453412,0.868 L8.52111801,0.868 L15.9124224,18.0626667 L23.3459627,0.868 L31.1596273,0.868 L31.1596273,29.9666667 L25.2043478,29.9666667 L25.2043478,15.2933333 L26.3869565,7.02666667 L26.0490683,7.02666667 L23.4304348,15.004 L18.3621118,25.5026667 L13.5049689,25.5026667 Z M55.7621118,29.9666667 L53.2701863,22.196 L43.0913043,22.196 L40.5993789,29.9666667 L34.0950311,29.9666667 L44.147205,0.744 L52.0875776,0.744 L62.3086956,29.9666667 L55.7621118,29.9666667 Z M48.2440994,5.04266667 L48.1596273,5.04266667 L46.5546584,11.4906667 L44.8652174,16.6986667 L51.4962733,16.6986667 L49.8913043,11.656 L48.2440994,5.04266667 Z M131.934783,20.4186667 L131.934783,29.9666667 L125.937267,29.9666667 L125.937267,0.909333333 L135.440373,0.909333333 C142.451553,0.909333333 145.914907,5.86933333 145.914907,10.7466667 C145.914907,15.6653333 142.451553,20.4186667 135.482609,20.4186667 L131.934783,20.4186667 Z M135.440373,15.128 C138.312422,15.128 139.832919,12.6893333 139.832919,10.7466667 C139.832919,8.72133333 138.312422,6.11733333 135.440373,6.11733333 L131.934783,6.11733333 L131.934783,15.128 L135.440373,15.128 Z M168.236646,5.74533333 L163.675155,8.308 C162.534783,6.324 160.887578,5.78666667 159.493789,5.78666667 C157.762112,5.74533333 155.988199,6.572 155.861491,8.76266667 C155.777019,10.912 158.437888,11.8626667 160.169565,12.3586667 C164.773292,13.516 169.630435,15.7066667 169.377019,22.2373333 C169.123602,27.9413333 163.928571,30.5866667 159.155901,30.5866667 C155.777019,30.5866667 151.468944,29.2226667 148.977019,23.6426667 L153.622981,21.0386667 C155.059006,24.056 157.550932,25.2546667 159.282609,25.2546667 C161.60559,25.296 163.252795,23.808 163.337267,21.9066667 C163.506211,19.1373333 160.803106,18.0213333 158.691304,17.484 C155.650311,16.74 149.821739,14.7146667 149.906211,8.804 C150.032919,2.93466667 154.932298,0.372 159.536025,0.372 C163.083851,0.372 166.251553,1.984 168.236646,5.74533333 Z" id="MADOPS" fill="#FFFFFF"></path>
            <path d="M75.2573364,25.3752726 C75.5635124,25.3688418 75.5635124,25.3688418 75.8619686,25.3625038 C82.7332191,25.2157313 84.1851662,24.9148624 86.0726445,23.1339868 C86.7707189,22.475339 87.5215623,21.5719164 88.3754369,20.3698464 C88.4274121,20.2913045 88.5541963,20.0778264 88.7320333,19.7374477 C89.0476038,19.1334481 89.3677277,18.4175638 89.669141,17.5978119 C89.9821235,16.7465955 90.2550834,15.8350763 90.4756971,14.8673784 C90.7361346,13.7249977 91.0560595,12.6259642 91.4225787,11.576516 C92.0552343,9.76504415 92.698649,8.41565022 93.1573849,7.62927778 L93.2640813,7.46248568 C96.0440921,3.4853233 100.565371,1.03333333 105.470928,1.03333333 C113.660747,1.03333333 120.372671,7.83205463 120.372671,15.9484485 C120.372671,24.0791743 113.67969,30.7950989 105.470928,30.7950989 C102.005675,30.7950989 99.1025808,29.9524346 96.8627166,28.2493898 L100.059073,24.5453176 C101.381432,25.4765035 103.154714,25.9501604 105.470928,25.9501604 C110.932788,25.9501604 115.441535,21.4259571 115.441535,15.9484485 C115.441535,10.4753465 110.90315,5.87827192 105.470928,5.87827192 C102.263765,5.87827192 99.2756731,7.47960455 97.3915186,10.1167374 C97.3179325,10.2505937 97.1989783,10.4803332 97.0473776,10.798276 C96.7223259,11.4799869 96.3942807,12.2684946 96.0867557,13.1490258 C95.7774766,14.0345792 95.5072518,14.962879 95.2875975,15.9263684 C95.0206003,17.0975223 94.6890598,18.2046651 94.3069181,19.2439734 C93.659182,21.0056169 92.994018,22.2787357 92.4655407,23.0750676 C91.3971642,24.5818208 90.4516422,25.7194826 89.4881825,26.6285271 C86.3942153,29.5477504 84.0490589,30.0337079 75.9691482,30.2062978 C75.6691571,30.2126685 75.6691571,30.2126685 75.3100452,30.2196576 L66.2623951,30.2196576 L66.2623951,1.15483414 L68.7279632,1.15483414 L71.093944,1.15485648 C71.3792531,1.15606018 71.6711216,1.15516552 72.0768596,1.15238109 C72.2251613,1.15133326 72.2251613,1.15133326 72.3744687,1.15021764 C79.0023934,1.10069023 82.1280016,1.87011918 85.4151967,5.76718306 L81.6184688,8.8587594 C79.5623409,6.42116093 77.6715798,5.95571349 72.4119713,5.99501611 C72.2621508,5.99613564 72.2621508,5.99613564 72.1113014,5.9972015 C71.7405544,5.99974579 71.45776,6.00078567 71.1935314,6.00014267 L71.1935314,25.3749281 L75.2573364,25.3752726 Z" id="Page-1-Copy-4" fill="#FF0034" fill-rule="nonzero"></path>
        </g>
    </g>
</svg>