<?xml version="1.0" encoding="UTF-8"?>
<svg width="16.5px" height="16px" viewBox="0 0 16.5 16" version="1.1" xmlns="http://www.w3.org/2000/svg" xmlns:xlink="http://www.w3.org/1999/xlink">
    <g id="Home-Page-small" stroke="none" stroke-width="1" fill="none" fill-rule="evenodd">
        <g id="MadOps_2" fill="#000000">
            <g id="header">
                <g id="Stacked-Group-2">
                    <g id="icons/social/git">
                        <g id="git">
                            <path d="M8.22477064,0 C3.68348624,0 0,3.68348624 0,8.22477064 C0,11.8577982 2.37155963,14.9357798 5.60091743,16.0458716 C6.00458716,16.0963303 6.1559633,15.8440367 6.1559633,15.6422018 C6.1559633,15.440367 6.1559633,14.9357798 6.1559633,14.2293578 C3.8853211,14.733945 3.38073394,13.1192661 3.38073394,13.1192661 C3.02752294,12.1605505 2.47247706,11.9082569 2.47247706,11.9082569 C1.71559633,11.4036697 2.52293578,11.4036697 2.52293578,11.4036697 C3.33027523,11.4541284 3.78440367,12.2614679 3.78440367,12.2614679 C4.5412844,13.5229358 5.70183486,13.1697248 6.1559633,12.9678899 C6.20642202,12.412844 6.4587156,12.059633 6.66055046,11.8577982 C4.8440367,11.6559633 2.9266055,10.9495413 2.9266055,7.7706422 C2.9266055,6.86238532 3.2293578,6.1559633 3.78440367,5.55045872 C3.73394495,5.39908257 3.43119266,4.5412844 3.8853211,3.43119266 C3.8853211,3.43119266 4.59174312,3.2293578 6.1559633,4.28899083 C6.81192661,4.08715596 7.51834862,4.03669725 8.22477064,4.03669725 C8.93119266,4.03669725 9.63761468,4.13761468 10.293578,4.28899083 C11.8577982,3.2293578 12.5642202,3.43119266 12.5642202,3.43119266 C13.0183486,4.5412844 12.7155963,5.39908257 12.6651376,5.60091743 C13.1697248,6.1559633 13.5229358,6.91284404 13.5229358,7.82110092 C13.5229358,11 11.6055046,11.6559633 9.78899083,11.8577982 C10.0917431,12.1100917 10.3440367,12.6146789 10.3440367,13.3715596 C10.3440367,14.4816514 10.3440367,15.3394495 10.3440367,15.6422018 C10.3440367,15.8440367 10.4954128,16.0963303 10.8990826,16.0458716 C14.1788991,14.9357798 16.5,11.8577982 16.5,8.22477064 C16.4495413,3.68348624 12.766055,0 8.22477064,0 Z" id="git_stroke" fill-rule="nonzero"></path>
                        </g>
                    </g>
                </g>
            </g>
        </g>
    </g>
</svg>
