<?xml version="1.0" encoding="UTF-8"?>
<svg width="18px" height="18px" viewBox="0 0 18 18" version="1.1" xmlns="http://www.w3.org/2000/svg" xmlns:xlink="http://www.w3.org/1999/xlink">
    <!-- Generator: Sketch 50 (54983) - http://www.bohemiancoding.com/sketch -->
    <title>icons/social/git copy</title>
    <desc>Created with Sketch.</desc>
    <defs></defs>
    <g id="Home-Page-small" stroke="none" stroke-width="1" fill="none" fill-rule="evenodd">
        <g id="MadOps_2" transform="translate(-711.000000, -668.000000)" fill="#000000">
            <g id="header" transform="translate(201.000000, 40.000000)">
                <g id="Stacked-Group-2" transform="translate(452.000000, 628.000000)">
                    <g id="icons/social/insta" transform="translate(58.000000, 0.000000)">
                        <g id="Group" transform="translate(0.750000, 0.750000)">
                            <path d="M8.25,0 C6.00959933,0 5.72771285,0.00918145902 4.84808013,0.0495798787 C3.97028381,0.0899782984 3.37070117,0.22861833 2.84549249,0.433364866 C2.30283806,0.643620277 1.84282137,0.926409215 1.38464107,1.38456402 C0.925542571,1.84363697 0.643656093,2.30362807 0.432470785,2.8462523 C0.228631052,3.37051361 0.0890651085,3.97006288 0.0495826377,4.84781036 C0.00918196995,5.72831228 0,6.00926493 0,8.24954093 C0,10.4907351 0.00918196995,10.7707696 0.0495826377,11.6503533 C0.0890651085,12.529019 0.228631052,13.1285682 0.432470785,13.6537477 C0.643656093,14.1963719 0.925542571,14.656363 1.38464107,15.1145178 C1.84282137,15.5735908 2.30283806,15.8554616 2.84549249,16.0666351 C3.37070117,16.2704635 3.97028381,16.4100217 4.84808013,16.449502 C5.72771285,16.4899004 6.00959933,16.5 8.25,16.5 C10.4904007,16.5 10.7713689,16.4899004 11.6519199,16.449502 C12.5297162,16.4100217 13.1292988,16.2704635 13.6535893,16.0666351 C14.1971619,15.8554616 14.6571786,15.5735908 15.1153589,15.1145178 C15.5744574,14.656363 15.8563439,14.1963719 16.066611,13.6537477 C16.2704508,13.1285682 16.4100167,12.529019 16.4504174,11.6503533 C16.490818,10.7707696 16.5,10.4907351 16.5,8.24954093 C16.5,6.00926493 16.490818,5.72831228 16.4504174,4.84781036 C16.4100167,3.97006288 16.2704508,3.37051361 16.066611,2.8462523 C15.8563439,2.30362807 15.5744574,1.84363697 15.1153589,1.38456402 C14.6571786,0.926409215 14.1971619,0.643620277 13.6535893,0.433364866 C13.1292988,0.22861833 12.5297162,0.0899782984 11.6519199,0.0495798787 C10.7713689,0.00918145902 10.4904007,0 8.25,0 M8.25,1.48647821 C10.4527546,1.48647821 10.7135225,1.49474153 11.5830551,1.5342218 C12.3883139,1.57094764 12.8244574,1.70499694 13.1155259,1.81792889 C13.5002504,1.96850481 13.7757095,2.14662512 14.0640234,2.43492293 C14.3523372,2.72413889 14.5313856,2.99958266 14.6810518,3.38428579 C14.79399,3.67533804 14.9289649,4.11237549 14.9647746,4.91575316 C15.0051753,5.78615547 15.0134391,6.04690891 15.0134391,8.24954093 C15.0134391,10.4521729 15.0051753,10.7129264 14.9647746,11.5833287 C14.9289649,12.3876245 14.79399,12.824662 14.6810518,13.1147961 C14.5313856,13.5004173 14.3523372,13.774943 14.0640234,14.0632408 C13.7757095,14.3524567 13.5002504,14.530577 13.1155259,14.6802348 C12.8244574,14.7931668 12.3883139,14.9281342 11.5830551,14.9648601 C10.7135225,15.0043403 10.4527546,15.0135218 8.25,15.0135218 C6.04724541,15.0135218 5.78555927,15.0043403 4.91602671,14.9648601 C4.11168614,14.9281342 3.67462437,14.7931668 3.38447412,14.6802348 C2.99883139,14.530577 2.72429048,14.3524567 2.43505843,14.0632408 C2.14674457,13.774943 1.96769616,13.5004173 1.81803005,13.1147961 C1.70509182,12.824662 1.57103506,12.3876245 1.53430718,11.5833287 C1.49482471,10.7129264 1.48656093,10.4521729 1.48656093,8.24954093 C1.48656093,6.04690891 1.49482471,5.78615547 1.53430718,4.91575316 C1.57103506,4.11237549 1.70509182,3.67533804 1.81803005,3.38428579 C1.96769616,2.99958266 2.14674457,2.72413889 2.43505843,2.43492293 C2.72429048,2.14662512 2.99883139,1.96850481 3.38447412,1.81792889 C3.67462437,1.70499694 4.11168614,1.57094764 4.91602671,1.5342218 C5.78555927,1.49474153 6.04724541,1.48647821 8.25,1.48647821 M8.25,10.9283218 C6.77129389,10.9283218 5.57241547,9.72931343 5.57241547,8.25044706 C5.57241547,6.77158069 6.77129389,5.57257234 8.25,5.57257234 C9.72870611,5.57257234 10.9275845,6.77158069 10.9275845,8.25044706 C10.9275845,9.72931343 9.72870611,10.9283218 8.25,10.9283218 M8.25,4.125 C10.5279584,4.125 12.375,5.97134768 12.375,8.25044706 C12.375,10.5286523 10.5279584,12.375 8.25,12.375 C5.97204161,12.375 4.125,10.5286523 4.125,8.25044706 C4.125,5.97134768 5.97204161,4.125 8.25,4.125 Z M13.2,4.125 C13.2,4.58112245 12.8305285,4.95 12.3753825,4.95 C11.9194715,4.95 11.55,4.58112245 11.55,4.125 C11.55,3.66964286 11.9194715,3.3 12.3753825,3.3 C12.8305285,3.3 13.2,3.66964286 13.2,4.125 Z" id="Fill-1"></path>
                        </g>
                    </g>
                </g>
            </g>
        </g>
    </g>
</svg>