<?xml version="1.0" encoding="UTF-8"?>
<svg width="16px" height="12px" viewBox="0 0 16 12" version="1.1" xmlns="http://www.w3.org/2000/svg" xmlns:xlink="http://www.w3.org/1999/xlink">
    <!-- Generator: Sketch 50 (54983) - http://www.bohemiancoding.com/sketch -->
    <title>icons/social/git copy 2</title>
    <desc>Created with Sketch.</desc>
    <defs></defs>
    <g id="Home-Page-small" stroke="none" stroke-width="1" fill="none" fill-rule="evenodd">
        <g id="MadOps_2" transform="translate(-770.000000, -671.000000)" fill="#000000">
            <g id="header" transform="translate(201.000000, 40.000000)">
                <g id="Stacked-Group-2" transform="translate(452.000000, 628.000000)">
                    <g id="icons/social/medium" transform="translate(116.000000, 0.000000)">
                        <g id="medium" transform="translate(1.500000, 3.000000)">
                            <path d="M1.74375,2.44250099 L1.74375,9.10328453 C1.77659825,9.33714111 1.702857,9.57351 1.54375,9.7443609 L0,11.66759 L0,11.9240206 L4.375,11.9240206 L4.375,11.66759 L2.83125,9.7443609 C2.6707939,9.57384266 2.59287807,9.33878384 2.61875,9.10328453 L2.61875,3.33359715 L6.4625,11.9304313 L6.90625,11.9304313 L10.20625,3.33359715 L10.20625,10.1931144 C10.20625,10.3790265 10.20625,10.4110803 10.0875,10.5328848 L8.9,11.7124654 L8.9,11.9688959 L14.66875,11.9688959 L14.66875,11.7124654 L13.525,10.5585279 C13.4229737,10.4791815 13.3723954,10.348248 13.39375,10.2187574 L13.39375,1.74372774 C13.3723954,1.61423714 13.4229737,1.48330364 13.525,1.40395726 L14.7,0.250019786 L14.7,0 L10.6375,0 L7.76875,7.40443213 L4.45,0 L0.18125,0 L0.18125,0.25643055 L1.55625,1.94887218 C1.69218381,2.07314169 1.76189078,2.25665834 1.74375,2.44250099 Z" id="medium_stroke-path"></path>
                        </g>
                    </g>
                </g>
            </g>
        </g>
    </g>
</svg>