<?xml version="1.0" encoding="UTF-8"?>
<svg width="22px" height="22px" viewBox="0 0 22 22" version="1.1" xmlns="http://www.w3.org/2000/svg" xmlns:xlink="http://www.w3.org/1999/xlink">
    <!-- Generator: Sketch 50 (54983) - http://www.bohemiancoding.com/sketch -->
    <title>Blockport - Home-1</title>
    <desc>Created with Sketch.</desc>
    <defs></defs>
    <g id="Symbols" stroke="none" stroke-width="1" fill="none" fill-rule="evenodd">
        <g id="icons/social/white/fb" transform="translate(-1.000000, -1.000000)" fill="#FFFFFF" fill-rule="nonzero">
            <g id="Blockport---Home-1" transform="translate(1.000000, 1.000000)">
                <path d="M11.7509127,22 L1.21423133,22 C0.543433459,22 0,21.4562297 0,20.785693 L0,1.21422171 C0,0.543514583 0.543518708,0 1.21423133,0 L20.7858543,0 C21.456396,0 22,0.543514583 22,1.21422171 L22,20.785693 C22,21.4563149 21.4563108,22 20.7858543,22 L15.1796814,22 L15.1796814,13.4803877 L18.0393221,13.4803877 L18.4675127,10.1601436 L15.1796814,10.1601436 L15.1796814,8.04037712 C15.1796814,7.07908988 15.446618,6.42400458 16.8250912,6.42400458 L18.5832676,6.42323595 L18.5832676,3.45358338 C18.2791978,3.41312033 17.235526,3.32271959 16.0212947,3.32271959 C13.4863823,3.32271959 11.7509127,4.87003276 11.7509127,7.71155412 L11.7509127,10.1601436 L8.88393091,10.1601436 L8.88393091,13.4803877 L11.7509127,13.4803877 L11.7509127,22 Z" id="Shape"></path>
            </g>
        </g>
    </g>
</svg>