<?xml version="1.0" encoding="UTF-8"?>
<svg width="22px" height="22px" viewBox="0 0 22 22" version="1.1" xmlns="http://www.w3.org/2000/svg" xmlns:xlink="http://www.w3.org/1999/xlink">
    <!-- Generator: Sketch 50 (54983) - http://www.bohemiancoding.com/sketch -->
    <title>Group</title>
    <desc>Created with Sketch.</desc>
    <defs></defs>
    <g id="Symbols" stroke="none" stroke-width="1" fill="none" fill-rule="evenodd">
        <g id="icons/social/white/insta" transform="translate(-1.000000, -1.000000)" fill="#FFFFFF">
            <g id="Group" transform="translate(1.000000, 1.000000)">
                <path d="M11,0 C8.01279911,0 7.63695047,0.0122419454 6.46410684,0.0661065049 C5.29371174,0.119971064 4.49426822,0.304824439 3.79398998,0.577819821 C3.07045075,0.858160369 2.45709516,1.23521229 1.84618809,1.84608536 C1.23405676,2.45818263 0.858208125,3.07150409 0.576627713,3.79500306 C0.304841402,4.49401814 0.118753478,5.29341717 0.0661101836,6.46374715 C0.0122426266,7.63774971 0,8.01235324 0,10.9993879 C0,13.9876468 0.0122426266,14.3610261 0.0661101836,15.5338045 C0.118753478,16.7053586 0.304841402,17.5047577 0.576627713,18.2049969 C0.858208125,18.9284959 1.23405676,19.5418174 1.84618809,20.1526904 C2.45709516,20.7647877 3.07045075,21.1406154 3.79398998,21.4221802 C4.49426822,21.6939514 5.29371174,21.8800289 6.46410684,21.9326693 C7.63695047,21.9865339 8.01279911,22 11,22 C13.9872009,22 14.3618253,21.9865339 15.5358932,21.9326693 C16.7062883,21.8800289 17.5057318,21.6939514 18.2047858,21.4221802 C18.9295492,21.1406154 19.5429048,20.7647877 20.1538119,20.1526904 C20.7659432,19.5418174 21.1417919,18.9284959 21.422148,18.2049969 C21.6939343,17.5047577 21.8800223,16.7053586 21.9338898,15.5338045 C21.9877574,14.3610261 22,13.9876468 22,10.9993879 C22,8.01235324 21.9877574,7.63774971 21.9338898,6.46374715 C21.8800223,5.29341717 21.6939343,4.49401814 21.422148,3.79500306 C21.1417919,3.07150409 20.7659432,2.45818263 20.1538119,1.84608536 C19.5429048,1.23521229 18.9295492,0.858160369 18.2047858,0.577819821 C17.5057318,0.304824439 16.7062883,0.119971064 15.5358932,0.0661065049 C14.3618253,0.0122419454 13.9872009,0 11,0 M11,1.98197095 C13.9370061,1.98197095 14.2846967,1.9929887 15.4440735,2.04562907 C16.5177518,2.09459685 17.0992766,2.27332925 17.4873678,2.42390518 C18.0003339,2.62467308 18.3676127,2.86216682 18.7520312,3.24656391 C19.1364496,3.63218519 19.3751809,3.99944355 19.5747357,4.51238106 C19.72532,4.90045073 19.9052866,5.48316733 19.9530328,6.55433754 C20.0069004,7.71487396 20.0179188,8.06254521 20.0179188,10.9993879 C20.0179188,13.9362306 20.0069004,14.2839018 19.9530328,15.4444383 C19.9052866,16.5168327 19.72532,17.0995493 19.5747357,17.4863947 C19.3751809,18.0005565 19.1364496,18.3665906 18.7520312,18.7509877 C18.3676127,19.136609 18.0003339,19.3741027 17.4873678,19.5736464 C17.0992766,19.7242224 16.5177518,19.904179 15.4440735,19.9531467 C14.2846967,20.0057871 13.9370061,20.018029 11,20.018029 C8.06299388,20.018029 7.71407902,20.0057871 6.55470228,19.9531467 C5.48224819,19.904179 4.89949917,19.7242224 4.51263216,19.5736464 C3.99844185,19.3741027 3.63238731,19.136609 3.24674457,18.7509877 C2.8623261,18.3665906 2.62359488,18.0005565 2.42404007,17.4863947 C2.27345576,17.0995493 2.09471341,16.5168327 2.0457429,15.4444383 C1.99309961,14.2839018 1.98208125,13.9362306 1.98208125,10.9993879 C1.98208125,8.06254521 1.99309961,7.71487396 2.0457429,6.55433754 C2.09471341,5.48316733 2.27345576,4.90045073 2.42404007,4.51238106 C2.62359488,3.99944355 2.8623261,3.63218519 3.24674457,3.24656391 C3.63238731,2.86216682 3.99844185,2.62467308 4.51263216,2.42390518 C4.89949917,2.27332925 5.48224819,2.09459685 6.55470228,2.04562907 C7.71407902,1.9929887 8.06299388,1.98197095 11,1.98197095 M11,14.5710957 C9.02839185,14.5710957 7.4298873,12.9724179 7.4298873,11.0005961 C7.4298873,9.02877425 9.02839185,7.43009646 11,7.43009646 C12.9716081,7.43009646 14.5701127,9.02877425 14.5701127,11.0005961 C14.5701127,12.9724179 12.9716081,14.5710957 11,14.5710957 M11,5.5 C14.0372779,5.5 16.5,7.9617969 16.5,11.0005961 C16.5,14.0382031 14.0372779,16.5 11,16.5 C7.96272215,16.5 5.5,14.0382031 5.5,11.0005961 C5.5,7.9617969 7.96272215,5.5 11,5.5 Z M17.6,5.5 C17.6,6.10816327 17.1073713,6.6 16.50051,6.6 C15.8926287,6.6 15.4,6.10816327 15.4,5.5 C15.4,4.89285714 15.8926287,4.4 16.50051,4.4 C17.1073713,4.4 17.6,4.89285714 17.6,5.5 Z" id="Fill-1"></path>
            </g>
        </g>
    </g>
</svg>