<?xml version="1.0" encoding="UTF-8"?>
<svg width="20px" height="16px" viewBox="0 0 20 16" version="1.1" xmlns="http://www.w3.org/2000/svg" xmlns:xlink="http://www.w3.org/1999/xlink">
    <!-- Generator: Sketch 50 (54983) - http://www.bohemiancoding.com/sketch -->
    <title>medium</title>
    <desc>Created with Sketch.</desc>
    <defs></defs>
    <g id="Symbols" stroke="none" stroke-width="1" fill="none" fill-rule="evenodd">
        <g id="icons/social/white/medium" transform="translate(-2.000000, -4.000000)" fill="#FFFFFF">
            <g id="medium" transform="translate(2.000000, 4.000000)">
                <path d="M2.325,3.25666799 L2.325,12.1377127 C2.36879767,12.4495215 2.270476,12.76468 2.05833333,12.9924812 L0,15.5567867 L0,15.8986941 L5.83333333,15.8986941 L5.83333333,15.5567867 L3.775,12.9924812 C3.56105853,12.7651235 3.45717076,12.4517118 3.49166667,12.1377127 L3.49166667,4.4447962 L8.61666667,15.9072418 L9.20833333,15.9072418 L13.6083333,4.4447962 L13.6083333,13.5908192 C13.6083333,13.838702 13.6083333,13.8814404 13.45,14.0438465 L11.8666667,15.6166205 L11.8666667,15.9585279 L19.5583333,15.9585279 L19.5583333,15.6166205 L18.0333333,14.0780372 C17.8972983,13.972242 17.8298606,13.797664 17.8583333,13.6250099 L17.8583333,2.32497032 C17.8298606,2.15231619 17.8972983,1.97773819 18.0333333,1.87194302 L19.6,0.333359715 L19.6,0 L14.1833333,0 L10.3583333,9.87257618 L5.93333333,0 L0.241666667,0 L0.241666667,0.3419074 L2.075,2.59849624 C2.25624507,2.76418892 2.34918771,3.00887779 2.325,3.25666799 Z" id="medium_stroke-path"></path>
            </g>
        </g>
    </g>
</svg>