<?xml version="1.0" encoding="UTF-8"?>
<svg width="22px" height="19px" viewBox="0 0 22 19" version="1.1" xmlns="http://www.w3.org/2000/svg" xmlns:xlink="http://www.w3.org/1999/xlink">
    <!-- Generator: Sketch 50 (54983) - http://www.bohemiancoding.com/sketch -->
    <title>Group</title>
    <desc>Created with Sketch.</desc>
    <defs></defs>
    <g id="Symbols" stroke="none" stroke-width="1" fill="none" fill-rule="evenodd">
        <g id="icons/social/white/tw" transform="translate(-1.000000, -3.000000)" fill="#FFFFFF">
            <g id="Group" transform="translate(1.000000, 3.000000)">
                <path d="M21.7129996,2.19842667 C20.914608,2.57082667 20.0560059,2.82162667 19.1540522,2.93689333 C20.0752733,2.35676 20.7821448,1.43716 21.1133027,0.344026667 C20.2522922,0.881093333 19.2997617,1.26996 18.283408,1.48022667 C17.4729743,0.569493333 16.3145238,0.00076 15.0320396,0.00076 C12.5730417,0.00076 10.5788691,2.09962667 10.5788691,4.68742667 C10.5788691,5.05476 10.6174038,5.41069333 10.6932691,5.75396 C6.99152589,5.55636 3.71005221,3.69436 1.512368,0.85576 C1.12822484,1.55116 0.909058526,2.35676 0.909058526,3.21556 C0.909058526,4.83816 1.69420379,6.27456 2.89118905,7.11562667 C2.16023326,7.09156 1.47262905,6.87876 0.871728,6.53042667 L0.871728,6.58742667 C0.871728,8.85856 2.40709642,10.7534933 4.44702905,11.1828933 C4.07251958,11.2930933 3.67874274,11.34756 3.27171958,11.34756 C2.98511747,11.34756 2.70453642,11.3196933 2.43479326,11.2652267 C3.00077221,13.12596 4.64572379,14.4812933 6.59534063,14.5192933 C5.07081011,15.7758267 3.14889011,16.5244267 1.06319747,16.5244267 C0.703138526,16.5244267 0.347896421,16.5028933 -0.000120421053,16.4598267 C1.97117221,17.78856 4.31336168,18.5650267 6.82895747,18.5650267 C15.0236101,18.5650267 19.5032733,11.4248267 19.5032733,5.23082667 C19.5032733,5.02689333 19.4984564,4.82422667 19.4912312,4.62409333 C20.3618754,3.96289333 21.1169154,3.13702667 21.7129996,2.19842667" id="Fill-1"></path>
            </g>
        </g>
    </g>
</svg>