<?xml version="1.0" encoding="UTF-8"?>
<svg width="22px" height="19px" viewBox="0 0 22 19" version="1.1" xmlns="http://www.w3.org/2000/svg" xmlns:xlink="http://www.w3.org/1999/xlink">
    <!-- Generator: Sketch 50 (54983) - http://www.bohemiancoding.com/sketch -->
    <title>telegram</title>
    <desc>Created with Sketch.</desc>
    <defs></defs>
    <g id="Symbols" stroke="none" stroke-width="1" fill="none" fill-rule="evenodd">
        <g id="icons/social/white/telek" transform="translate(-1.000000, -3.000000)" fill="#FFFFFF" fill-rule="nonzero">
            <g id="telegram" transform="translate(1.000000, 3.000000)">
                <path d="M11.7372291,14.85267 C10.5632671,16.035801 9.51199541,17.0946899 9.33333333,17.2727273 C9.05,17.5490909 8.83333333,17.7909091 8.33333333,17.7909091 L8.33333333,17.6181818 L8.73994052,12.5614669 L8.66666667,12.5054545 L17.9666667,3.85181818 C18.3666667,3.47181818 17.8666667,3.28181818 17.3333333,3.62727273 L5.88333333,11.1063636 L0.933333333,9.5 C-0.133333333,9.17181818 -0.15,8.41181818 1.16666667,7.85909091 L20.4333333,0.155454545 C21.3166667,-0.259090909 22.1666667,0.362727273 21.8333333,1.76181818 L18.55,17.7909091 C18.3166667,18.9309091 17.65,19.19 16.7333333,18.6718182 L11.7372291,14.85267 Z" id="path2991"></path>
            </g>
        </g>
    </g>
</svg>