<?xml version="1.0" standalone="no"?>
<!DOCTYPE svg PUBLIC "-//W3C//DTD SVG 20010904//EN"
 "http://www.w3.org/TR/2001/REC-SVG-20010904/DTD/svg10.dtd">
<svg version="1.0" xmlns="http://www.w3.org/2000/svg"
 width="400.000000pt" height="400.000000pt" viewBox="0 0 400.000000 400.000000"
 preserveAspectRatio="xMidYMid meet">
<metadata>
Created by potrace 1.11, written by Peter Selinger 2001-2013
</metadata>
<g transform="translate(0.000000,400.000000) scale(0.100000,-0.100000)"
fill="#000000" stroke="none">
<path d="M730 3993 c-117 -20 -260 -78 -360 -146 -156 -107 -286 -291 -342
-484 l-23 -78 0 -1285 0 -1285 23 -78 c86 -297 312 -523 609 -609 l78 -23
1285 0 1285 0 78 23 c297 86 523 312 609 609 l23 78 0 1285 0 1285 -23 78
c-24 84 -76 195 -125 267 -105 153 -285 282 -479 342 l-73 23 -1270 1 c-698 1
-1281 0 -1295 -3z m2128 -1261 c123 -40 221 -100 313 -191 338 -339 293 -886
-98 -1167 -202 -146 -486 -184 -725 -97 -73 26 -158 72 -158 86 0 14 152 182
164 180 6 -1 39 -13 74 -28 78 -32 203 -43 294 -26 156 31 297 140 370 288 39
79 42 89 46 192 5 131 -15 212 -76 306 -180 279 -539 325 -779 102 -77 -72
-117 -147 -158 -299 -100 -361 -164 -482 -338 -643 -158 -147 -296 -174 -884
-175 l-303 0 0 751 0 751 302 -4 c328 -5 361 -10 483 -67 62 -29 149 -96 184
-142 l20 -26 -95 -77 -95 -78 -39 36 c-89 80 -181 106 -377 106 l-123 0 0
-502 0 -501 248 6 c381 10 430 23 552 154 86 92 147 210 185 358 89 340 168
480 347 605 194 137 441 174 666 102z"/>
</g>
</svg>
